%TF.GenerationSoftware,KiCad,Pcbnew,9.0.6*%
%TF.CreationDate,2025-12-07T19:13:54-08:00*%
%TF.ProjectId,redstone_block,72656473-746f-46e6-955f-626c6f636b2e,rev?*%
%TF.SameCoordinates,Original*%
%TF.FileFunction,Soldermask,Bot*%
%TF.FilePolarity,Negative*%
%FSLAX46Y46*%
G04 Gerber Fmt 4.6, Leading zero omitted, Abs format (unit mm)*
G04 Created by KiCad (PCBNEW 9.0.6) date 2025-12-07 19:13:54*
%MOMM*%
%LPD*%
G01*
G04 APERTURE LIST*
%ADD10C,1.524000*%
%ADD11C,1.700000*%
%ADD12R,1.700000X1.700000*%
%ADD13R,1.470000X1.020000*%
%ADD14R,0.620000X0.600000*%
%ADD15R,0.460000X0.420000*%
%ADD16R,1.000000X1.450000*%
%ADD17R,1.020000X1.470000*%
%ADD18R,2.150000X2.200000*%
%ADD19R,1.450000X1.000000*%
%ADD20R,0.700000X0.650000*%
%ADD21R,0.420000X0.460000*%
G04 APERTURE END LIST*
D10*
%TO.C,5v*%
X148500000Y-43000000D03*
X148500000Y-45540000D03*
X148500000Y-48080000D03*
%TD*%
D11*
%TO.C,SW1*%
X148000000Y-70000000D03*
X141500000Y-70000000D03*
X148000000Y-65500000D03*
X141500000Y-65500000D03*
%TD*%
D12*
%TO.C,J9*%
X121380000Y-69000000D03*
D11*
X123920000Y-69000000D03*
X126460000Y-69000000D03*
X129000000Y-69000000D03*
%TD*%
D12*
%TO.C,J8*%
X116975000Y-69000000D03*
D11*
X116975000Y-66460000D03*
X116975000Y-63920000D03*
X116975000Y-61380000D03*
%TD*%
D12*
%TO.C,J4*%
X153000000Y-69000000D03*
D11*
X153000000Y-66460000D03*
X153000000Y-63920000D03*
X153000000Y-61380000D03*
%TD*%
D12*
%TO.C,J1*%
X121000000Y-37000000D03*
D11*
X123540000Y-37000000D03*
X126080000Y-37000000D03*
X128620000Y-37000000D03*
%TD*%
D12*
%TO.C,J2*%
X149120000Y-37000000D03*
D11*
X146580000Y-37000000D03*
X144040000Y-37000000D03*
X141500000Y-37000000D03*
%TD*%
D12*
%TO.C,J6*%
X149000000Y-73025000D03*
D11*
X146460000Y-73025000D03*
X143920000Y-73025000D03*
X141380000Y-73025000D03*
%TD*%
D12*
%TO.C,J5*%
X121000000Y-73000000D03*
D11*
X123540000Y-73000000D03*
X126080000Y-73000000D03*
X128620000Y-73000000D03*
%TD*%
D12*
%TO.C,J7*%
X117000000Y-41000000D03*
D11*
X117000000Y-43540000D03*
X117000000Y-46080000D03*
X117000000Y-48620000D03*
%TD*%
D12*
%TO.C,J3*%
X153025000Y-41000000D03*
D11*
X153025000Y-43540000D03*
X153025000Y-46080000D03*
X153025000Y-48620000D03*
%TD*%
D13*
%TO.C,C2*%
X131500000Y-51400000D03*
X131500000Y-53000000D03*
%TD*%
%TO.C,C2*%
X137000000Y-52700000D03*
X137000000Y-54300000D03*
%TD*%
D14*
%TO.C,C1*%
X132580000Y-40280000D03*
X132580000Y-39360000D03*
%TD*%
D13*
%TO.C,C2*%
X134500000Y-57600000D03*
X134500000Y-56000000D03*
%TD*%
D15*
%TO.C,C9*%
X134840000Y-49500000D03*
X135500000Y-49500000D03*
%TD*%
D16*
%TO.C,200*%
X137450000Y-42500000D03*
X135550000Y-42500000D03*
%TD*%
D17*
%TO.C,C3*%
X148400000Y-40500000D03*
X150000000Y-40500000D03*
%TD*%
D18*
%TO.C,D19*%
X145500000Y-43700000D03*
X145500000Y-39300000D03*
%TD*%
D13*
%TO.C,C2*%
X132500000Y-56100000D03*
X132500000Y-54500000D03*
%TD*%
D17*
%TO.C,C10*%
X134810000Y-51000000D03*
X136410000Y-51000000D03*
%TD*%
D19*
%TO.C,R2*%
X147500000Y-52550000D03*
X147500000Y-54450000D03*
%TD*%
D17*
%TO.C,C10*%
X136200000Y-58000000D03*
X137800000Y-58000000D03*
%TD*%
%TO.C,C2*%
X137800000Y-56000000D03*
X136200000Y-56000000D03*
%TD*%
D19*
%TO.C,R4*%
X122500000Y-57450000D03*
X122500000Y-55550000D03*
%TD*%
D20*
%TO.C,C4*%
X150500000Y-42825000D03*
X150500000Y-44175000D03*
%TD*%
D16*
%TO.C,R3*%
X132500000Y-67500000D03*
X134400000Y-67500000D03*
%TD*%
D21*
%TO.C,C11*%
X135500000Y-52500000D03*
X135500000Y-53160000D03*
%TD*%
M02*
