%TF.GenerationSoftware,KiCad,Pcbnew,9.0.6*%
%TF.CreationDate,2025-12-07T19:13:54-08:00*%
%TF.ProjectId,redstone_block,72656473-746f-46e6-955f-626c6f636b2e,rev?*%
%TF.SameCoordinates,Original*%
%TF.FileFunction,Paste,Top*%
%TF.FilePolarity,Positive*%
%FSLAX46Y46*%
G04 Gerber Fmt 4.6, Leading zero omitted, Abs format (unit mm)*
G04 Created by KiCad (PCBNEW 9.0.6) date 2025-12-07 19:13:54*
%MOMM*%
%LPD*%
G01*
G04 APERTURE LIST*
G04 Aperture macros list*
%AMRoundRect*
0 Rectangle with rounded corners*
0 $1 Rounding radius*
0 $2 $3 $4 $5 $6 $7 $8 $9 X,Y pos of 4 corners*
0 Add a 4 corners polygon primitive as box body*
4,1,4,$2,$3,$4,$5,$6,$7,$8,$9,$2,$3,0*
0 Add four circle primitives for the rounded corners*
1,1,$1+$1,$2,$3*
1,1,$1+$1,$4,$5*
1,1,$1+$1,$6,$7*
1,1,$1+$1,$8,$9*
0 Add four rect primitives between the rounded corners*
20,1,$1+$1,$2,$3,$4,$5,0*
20,1,$1+$1,$4,$5,$6,$7,0*
20,1,$1+$1,$6,$7,$8,$9,0*
20,1,$1+$1,$8,$9,$2,$3,0*%
G04 Aperture macros list end*
%ADD10R,1.000000X0.950000*%
%ADD11R,0.950000X1.000000*%
%ADD12R,0.750000X0.650000*%
%ADD13RoundRect,0.062500X0.187500X0.062500X-0.187500X0.062500X-0.187500X-0.062500X0.187500X-0.062500X0*%
%ADD14R,0.420000X0.460000*%
%ADD15R,1.800000X0.800000*%
%ADD16R,1.100000X0.600000*%
%ADD17R,0.700000X0.650000*%
%ADD18R,2.700000X1.100000*%
%ADD19RoundRect,0.162500X-0.650000X-0.162500X0.650000X-0.162500X0.650000X0.162500X-0.650000X0.162500X0*%
%ADD20RoundRect,0.249999X-0.395001X-0.395001X0.395001X-0.395001X0.395001X0.395001X-0.395001X0.395001X0*%
%ADD21RoundRect,0.050000X-0.387500X-0.050000X0.387500X-0.050000X0.387500X0.050000X-0.387500X0.050000X0*%
%ADD22RoundRect,0.050000X-0.050000X-0.387500X0.050000X-0.387500X0.050000X0.387500X-0.050000X0.387500X0*%
%ADD23R,1.470000X1.020000*%
%ADD24R,0.600000X1.100000*%
G04 APERTURE END LIST*
D10*
%TO.C,D2*%
X147500000Y-55800000D03*
X147500000Y-54200000D03*
%TD*%
%TO.C,D4*%
X122500000Y-54200000D03*
X122500000Y-55800000D03*
%TD*%
D11*
%TO.C,D3*%
X135800000Y-67500000D03*
X134200000Y-67500000D03*
%TD*%
D12*
%TO.C,U3*%
X131550000Y-40650000D03*
X131550000Y-39850000D03*
D13*
X132500000Y-41000000D03*
X132500000Y-40500000D03*
X132500000Y-40000000D03*
X132500000Y-39500000D03*
X130600000Y-39500000D03*
X130600000Y-40000000D03*
X130600000Y-40500000D03*
X130600000Y-41000000D03*
%TD*%
D14*
%TO.C,C7*%
X139500000Y-60840000D03*
X139500000Y-61500000D03*
%TD*%
D15*
%TO.C,L1*%
X128000000Y-40400000D03*
X128000000Y-42000000D03*
%TD*%
D16*
%TO.C,D18*%
X151600000Y-58450000D03*
X151600000Y-56550000D03*
X149400000Y-57500000D03*
%TD*%
D11*
%TO.C,D1*%
X134200000Y-42500000D03*
X135800000Y-42500000D03*
%TD*%
D17*
%TO.C,C5*%
X121500000Y-40500000D03*
X121500000Y-41850000D03*
%TD*%
D18*
%TO.C,100k*%
X124500000Y-40000000D03*
X124500000Y-43000000D03*
%TD*%
D16*
%TO.C,D21*%
X120000000Y-50500000D03*
X120000000Y-52400000D03*
X122200000Y-51450000D03*
%TD*%
D19*
%TO.C,MEM*%
X123912500Y-45000000D03*
X123912500Y-46270000D03*
X123912500Y-47540000D03*
X123912500Y-48810000D03*
X131087500Y-48810000D03*
X131087500Y-47540000D03*
X131087500Y-46270000D03*
X131087500Y-45000000D03*
%TD*%
D20*
%TO.C,U1*%
X134200000Y-54200000D03*
X134200000Y-55800000D03*
X135800000Y-54200000D03*
X135800000Y-55800000D03*
D21*
X131562500Y-52400000D03*
X131562500Y-52800001D03*
X131562500Y-53200000D03*
X131562500Y-53600000D03*
X131562500Y-54000000D03*
X131562500Y-54399999D03*
X131562500Y-54800000D03*
X131562500Y-55200000D03*
X131562500Y-55600001D03*
X131562500Y-56000000D03*
X131562500Y-56400000D03*
X131562500Y-56800000D03*
X131562500Y-57199999D03*
X131562500Y-57600000D03*
D22*
X132400000Y-58437500D03*
X132800001Y-58437500D03*
X133200000Y-58437500D03*
X133600000Y-58437500D03*
X134000000Y-58437500D03*
X134399999Y-58437500D03*
X134800000Y-58437500D03*
X135200000Y-58437500D03*
X135600001Y-58437500D03*
X136000000Y-58437500D03*
X136400000Y-58437500D03*
X136800000Y-58437500D03*
X137199999Y-58437500D03*
X137600000Y-58437500D03*
D21*
X138437500Y-57600000D03*
X138437500Y-57199999D03*
X138437500Y-56800000D03*
X138437500Y-56400000D03*
X138437500Y-56000000D03*
X138437500Y-55600001D03*
X138437500Y-55200000D03*
X138437500Y-54800000D03*
X138437500Y-54399999D03*
X138437500Y-54000000D03*
X138437500Y-53600000D03*
X138437500Y-53200000D03*
X138437500Y-52800001D03*
X138437500Y-52400000D03*
D22*
X137600000Y-51562500D03*
X137199999Y-51562500D03*
X136800000Y-51562500D03*
X136400000Y-51562500D03*
X136000000Y-51562500D03*
X135600001Y-51562500D03*
X135200000Y-51562500D03*
X134800000Y-51562500D03*
X134399999Y-51562500D03*
X134000000Y-51562500D03*
X133600000Y-51562500D03*
X133200000Y-51562500D03*
X132800001Y-51562500D03*
X132400000Y-51562500D03*
%TD*%
D23*
%TO.C,C6*%
X138000000Y-60000000D03*
X138000000Y-61600000D03*
%TD*%
D24*
%TO.C,D17*%
X140900000Y-39900000D03*
X139000000Y-39900000D03*
X139950000Y-42100000D03*
%TD*%
%TO.C,D20*%
X132050000Y-71600000D03*
X133950000Y-71600000D03*
X133000000Y-69400000D03*
%TD*%
M02*
