%TF.GenerationSoftware,KiCad,Pcbnew,9.0.6*%
%TF.CreationDate,2025-12-07T19:18:26-08:00*%
%TF.ProjectId,redstone_comparator,72656473-746f-46e6-955f-636f6d706172,rev?*%
%TF.SameCoordinates,Original*%
%TF.FileFunction,Copper,L2,Bot*%
%TF.FilePolarity,Positive*%
%FSLAX46Y46*%
G04 Gerber Fmt 4.6, Leading zero omitted, Abs format (unit mm)*
G04 Created by KiCad (PCBNEW 9.0.6) date 2025-12-07 19:18:26*
%MOMM*%
%LPD*%
G01*
G04 APERTURE LIST*
%TA.AperFunction,ComponentPad*%
%ADD10C,1.524000*%
%TD*%
%TA.AperFunction,ComponentPad*%
%ADD11R,1.800000X1.800000*%
%TD*%
%TA.AperFunction,ComponentPad*%
%ADD12C,1.800000*%
%TD*%
%TA.AperFunction,ComponentPad*%
%ADD13C,1.700000*%
%TD*%
%TA.AperFunction,HeatsinkPad*%
%ADD14C,0.600000*%
%TD*%
%TA.AperFunction,SMDPad,CuDef*%
%ADD15R,0.900000X1.600000*%
%TD*%
%TA.AperFunction,ComponentPad*%
%ADD16R,1.700000X1.700000*%
%TD*%
%TA.AperFunction,SMDPad,CuDef*%
%ADD17R,1.470000X1.020000*%
%TD*%
%TA.AperFunction,SMDPad,CuDef*%
%ADD18R,0.620000X0.600000*%
%TD*%
%TA.AperFunction,SMDPad,CuDef*%
%ADD19R,0.460000X0.420000*%
%TD*%
%TA.AperFunction,SMDPad,CuDef*%
%ADD20R,1.020000X1.470000*%
%TD*%
%TA.AperFunction,SMDPad,CuDef*%
%ADD21R,2.150000X2.200000*%
%TD*%
%TA.AperFunction,SMDPad,CuDef*%
%ADD22R,0.700000X0.650000*%
%TD*%
%TA.AperFunction,SMDPad,CuDef*%
%ADD23R,0.420000X0.460000*%
%TD*%
%TA.AperFunction,ViaPad*%
%ADD24C,0.600000*%
%TD*%
%TA.AperFunction,Conductor*%
%ADD25C,0.400000*%
%TD*%
%TA.AperFunction,Conductor*%
%ADD26C,0.200000*%
%TD*%
%TA.AperFunction,Conductor*%
%ADD27C,0.600000*%
%TD*%
%TA.AperFunction,Conductor*%
%ADD28C,0.300000*%
%TD*%
G04 APERTURE END LIST*
D10*
%TO.P,U2,1,Vin*%
%TO.N,VCC*%
X148500000Y-43000000D03*
%TO.P,U2,2,GND*%
%TO.N,GND*%
X148500000Y-45540000D03*
%TO.P,U2,3,Vout*%
%TO.N,/5V_LOCAL*%
X148500000Y-48080000D03*
%TD*%
D11*
%TO.P,D2,1,K*%
%TO.N,Net-(D2-K)*%
X143460000Y-65500000D03*
D12*
%TO.P,D2,2,A*%
%TO.N,Net-(D2-A)*%
X146000000Y-65500000D03*
%TD*%
D11*
%TO.P,D3,1,K*%
%TO.N,Net-(D3-K)*%
X125460000Y-65500000D03*
D12*
%TO.P,D3,2,A*%
%TO.N,Net-(D3-A)*%
X128000000Y-65500000D03*
%TD*%
D13*
%TO.P,SW1,1,A*%
%TO.N,/3.3V_LOCAL*%
X121500000Y-54000000D03*
X128000000Y-54000000D03*
%TO.P,SW1,2,B*%
%TO.N,Net-(SW1-B)*%
X121500000Y-58500000D03*
X128000000Y-58500000D03*
%TD*%
D14*
%TO.P,U3,9,PAD*%
%TO.N,GND*%
X131550000Y-40750000D03*
D15*
X131550000Y-40250000D03*
D14*
X131550000Y-39750000D03*
%TD*%
D16*
%TO.P,J9,1,Pin_1*%
%TO.N,GND*%
X149025000Y-61700000D03*
D13*
%TO.P,J9,2,Pin_2*%
%TO.N,Net-(J9-Pin_2)*%
X149025000Y-64240000D03*
%TO.P,J9,3,Pin_3*%
%TO.N,Net-(J9-Pin_3)*%
X149025000Y-66780000D03*
%TO.P,J9,4,Pin_4*%
%TO.N,/3.3V_LOCAL*%
X149025000Y-69320000D03*
%TD*%
D16*
%TO.P,J8,1,Pin_1*%
%TO.N,GND*%
X116975000Y-69000000D03*
D13*
%TO.P,J8,2,Pin_2*%
%TO.N,VCC*%
X116975000Y-66460000D03*
%TO.P,J8,3,Pin_3*%
%TO.N,/W_TX*%
X116975000Y-63920000D03*
%TO.P,J8,4,Pin_4*%
%TO.N,/W_RX*%
X116975000Y-61380000D03*
%TD*%
D16*
%TO.P,J4,1,Pin_1*%
%TO.N,GND*%
X153000000Y-69000000D03*
D13*
%TO.P,J4,2,Pin_2*%
%TO.N,VCC*%
X153000000Y-66460000D03*
%TO.P,J4,3,Pin_3*%
%TO.N,/E_TX*%
X153000000Y-63920000D03*
%TO.P,J4,4,Pin_4*%
%TO.N,/E_RX*%
X153000000Y-61380000D03*
%TD*%
D11*
%TO.P,D1,1,K*%
%TO.N,Net-(D1-K)*%
X135000000Y-42500000D03*
D12*
%TO.P,D1,2,A*%
%TO.N,Net-(D1-A)*%
X137540000Y-42500000D03*
%TD*%
D16*
%TO.P,J1,1,Pin_1*%
%TO.N,GND*%
X121000000Y-37000000D03*
D13*
%TO.P,J1,2,Pin_2*%
%TO.N,VCC*%
X123540000Y-37000000D03*
%TO.P,J1,3,Pin_3*%
%TO.N,/N_TX*%
X126080000Y-37000000D03*
%TO.P,J1,4,Pin_4*%
%TO.N,/N_RX*%
X128620000Y-37000000D03*
%TD*%
D16*
%TO.P,J2,1,Pin_1*%
%TO.N,GND*%
X149120000Y-37000000D03*
D13*
%TO.P,J2,2,Pin_2*%
%TO.N,VCC*%
X146580000Y-37000000D03*
%TO.P,J2,3,Pin_3*%
%TO.N,/N_TX*%
X144040000Y-37000000D03*
%TO.P,J2,4,Pin_4*%
%TO.N,/N_RX*%
X141500000Y-37000000D03*
%TD*%
D16*
%TO.P,J6,1,Pin_1*%
%TO.N,GND*%
X149000000Y-73025000D03*
D13*
%TO.P,J6,2,Pin_2*%
%TO.N,VCC*%
X146460000Y-73025000D03*
%TO.P,J6,3,Pin_3*%
%TO.N,/S_TX*%
X143920000Y-73025000D03*
%TO.P,J6,4,Pin_4*%
%TO.N,/S_RX*%
X141380000Y-73025000D03*
%TD*%
D16*
%TO.P,J5,1,Pin_1*%
%TO.N,GND*%
X121000000Y-73000000D03*
D13*
%TO.P,J5,2,Pin_2*%
%TO.N,VCC*%
X123540000Y-73000000D03*
%TO.P,J5,3,Pin_3*%
%TO.N,/S_TX*%
X126080000Y-73000000D03*
%TO.P,J5,4,Pin_4*%
%TO.N,/S_RX*%
X128620000Y-73000000D03*
%TD*%
D16*
%TO.P,J7,1,Pin_1*%
%TO.N,GND*%
X117000000Y-41000000D03*
D13*
%TO.P,J7,2,Pin_2*%
%TO.N,VCC*%
X117000000Y-43540000D03*
%TO.P,J7,3,Pin_3*%
%TO.N,/W_TX*%
X117000000Y-46080000D03*
%TO.P,J7,4,Pin_4*%
%TO.N,/W_RX*%
X117000000Y-48620000D03*
%TD*%
D16*
%TO.P,J3,1,Pin_1*%
%TO.N,GND*%
X153025000Y-41000000D03*
D13*
%TO.P,J3,2,Pin_2*%
%TO.N,VCC*%
X153025000Y-43540000D03*
%TO.P,J3,3,Pin_3*%
%TO.N,/E_TX*%
X153025000Y-46080000D03*
%TO.P,J3,4,Pin_4*%
%TO.N,/E_RX*%
X153025000Y-48620000D03*
%TD*%
D17*
%TO.P,C2,1,1*%
%TO.N,/3.3V_LOCAL*%
X131500000Y-51400000D03*
%TO.P,C2,2,2*%
%TO.N,GND*%
X131500000Y-53000000D03*
%TD*%
%TO.P,C2,1,1*%
%TO.N,/3.3V_LOCAL*%
X137000000Y-52700000D03*
%TO.P,C2,2,2*%
%TO.N,GND*%
X137000000Y-54300000D03*
%TD*%
D18*
%TO.P,C1,1,1*%
%TO.N,/5V_LOCAL*%
X132580000Y-40280000D03*
%TO.P,C1,2,2*%
%TO.N,GND*%
X132580000Y-39360000D03*
%TD*%
D17*
%TO.P,C2,1,1*%
%TO.N,/3.3V_LOCAL*%
X134500000Y-57600000D03*
%TO.P,C2,2,2*%
%TO.N,GND*%
X134500000Y-56000000D03*
%TD*%
D19*
%TO.P,C9,1,1*%
%TO.N,Net-(U1-VREG_VOUT)*%
X134840000Y-49500000D03*
%TO.P,C9,2,2*%
%TO.N,GND*%
X135500000Y-49500000D03*
%TD*%
D20*
%TO.P,C3,1,1*%
%TO.N,VCC*%
X148400000Y-40500000D03*
%TO.P,C3,2,2*%
%TO.N,GND*%
X150000000Y-40500000D03*
%TD*%
D21*
%TO.P,D19,1,K*%
%TO.N,VCC*%
X145500000Y-43700000D03*
%TO.P,D19,2,A*%
%TO.N,GND*%
X145500000Y-39300000D03*
%TD*%
D17*
%TO.P,C2,1,1*%
%TO.N,/3.3V_LOCAL*%
X132500000Y-56100000D03*
%TO.P,C2,2,2*%
%TO.N,GND*%
X132500000Y-54500000D03*
%TD*%
D20*
%TO.P,C10,1,1*%
%TO.N,Net-(U1-VREG_VOUT)*%
X134810000Y-51000000D03*
%TO.P,C10,2,2*%
%TO.N,GND*%
X136410000Y-51000000D03*
%TD*%
%TO.P,C10,1,1*%
%TO.N,Net-(U1-VREG_VOUT)*%
X136200000Y-58000000D03*
%TO.P,C10,2,2*%
%TO.N,GND*%
X137800000Y-58000000D03*
%TD*%
%TO.P,C2,1,1*%
%TO.N,/3.3V_LOCAL*%
X137800000Y-56000000D03*
%TO.P,C2,2,2*%
%TO.N,GND*%
X136200000Y-56000000D03*
%TD*%
D22*
%TO.P,C4,1,1*%
%TO.N,VCC*%
X150500000Y-42825000D03*
%TO.P,C4,2,2*%
%TO.N,GND*%
X150500000Y-44175000D03*
%TD*%
D23*
%TO.P,C11,1,1*%
%TO.N,/3.3V_LOCAL*%
X135500000Y-52500000D03*
%TO.P,C11,2,2*%
%TO.N,GND*%
X135500000Y-53160000D03*
%TD*%
D24*
%TO.N,/5V_LOCAL*%
X143500000Y-56450000D03*
X132580000Y-40280000D03*
X143050000Y-62000000D03*
X130500000Y-65550000D03*
X136050000Y-39000000D03*
%TO.N,GND*%
X135000000Y-56000000D03*
X132538845Y-39375000D03*
X132461137Y-41125000D03*
X128000000Y-60500000D03*
X134000000Y-54000000D03*
X134000000Y-56000000D03*
X139000000Y-66951000D03*
X136000000Y-55000000D03*
X136000000Y-56000000D03*
X122000000Y-51000000D03*
X135000000Y-55000000D03*
X135000000Y-54000000D03*
X151500000Y-54000000D03*
X132500000Y-70000000D03*
X130503362Y-39375000D03*
X137906985Y-59593015D03*
X136000000Y-54000000D03*
X121500000Y-42000000D03*
X148000000Y-58000000D03*
X134000000Y-55000000D03*
X134000105Y-59250280D03*
X141000000Y-42000000D03*
X124000000Y-49000000D03*
X137000000Y-45500000D03*
X137500000Y-62600000D03*
%TO.N,/3.3V_LOCAL*%
X137400000Y-52700000D03*
X134533207Y-57506166D03*
X132500000Y-56100000D03*
X131500000Y-51400000D03*
X137624698Y-56000134D03*
X135500000Y-52429998D03*
%TO.N,Net-(U1-VREG_VOUT)*%
X134770000Y-49421471D03*
X134999999Y-50645229D03*
X136300000Y-57500000D03*
%TO.N,Net-(SW1-B)*%
X137099998Y-59500000D03*
%TD*%
D25*
%TO.N,GND*%
X137906985Y-59593015D02*
X137906985Y-58106985D01*
D26*
X137906985Y-58106985D02*
X137800000Y-58000000D01*
%TO.N,/5V_LOCAL*%
X148500000Y-48080000D02*
X144818471Y-48080000D01*
X134050000Y-62000000D02*
X130500000Y-65550000D01*
X144818471Y-48080000D02*
X137018471Y-40280000D01*
X137018471Y-40280000D02*
X132580000Y-40280000D01*
X143050000Y-62000000D02*
X134050000Y-62000000D01*
X136050000Y-39311529D02*
X136050000Y-39000000D01*
X137018471Y-40280000D02*
X136050000Y-39311529D01*
X143500000Y-56450000D02*
X143050000Y-56900000D01*
X143050000Y-56900000D02*
X143050000Y-62000000D01*
D27*
%TO.N,GND*%
X136200000Y-55100000D02*
X137000000Y-54300000D01*
D26*
X136410000Y-51000000D02*
X136410000Y-50410000D01*
X135500000Y-53500000D02*
X135000000Y-54000000D01*
X135500000Y-53500000D02*
X136000000Y-54000000D01*
X136200000Y-56247000D02*
X136200000Y-56000000D01*
D28*
X137800000Y-57847000D02*
X136200000Y-56247000D01*
D26*
X136410000Y-50410000D02*
X135500000Y-49500000D01*
D27*
X136200000Y-56000000D02*
X136200000Y-55100000D01*
D26*
X135500000Y-53160000D02*
X135500000Y-53500000D01*
%TO.N,/3.3V_LOCAL*%
X135500000Y-52500000D02*
X136800000Y-52500000D01*
X136800000Y-52500000D02*
X137000000Y-52700000D01*
X138036000Y-55588832D02*
X138036000Y-53336000D01*
X138036000Y-53336000D02*
X137400000Y-52700000D01*
X137624698Y-56000134D02*
X138036000Y-55588832D01*
D25*
%TO.N,VCC*%
X146500000Y-37000000D02*
X145224000Y-35724000D01*
X153025000Y-43540000D02*
X154276000Y-44791000D01*
X124816000Y-35724000D02*
X123540000Y-37000000D01*
X150749000Y-35749000D02*
X152250000Y-37250000D01*
X153000000Y-66460000D02*
X154251000Y-67711000D01*
X119251000Y-74251000D02*
X115701000Y-70701000D01*
X123540000Y-73000000D02*
X122289000Y-74251000D01*
X154299000Y-65161000D02*
X153000000Y-66460000D01*
X154276000Y-39276000D02*
X154276000Y-42289000D01*
X122241000Y-35701000D02*
X123540000Y-37000000D01*
X150325000Y-43000000D02*
X150500000Y-42825000D01*
X146460000Y-73025000D02*
X145209000Y-74276000D01*
X146580000Y-37000000D02*
X146500000Y-37000000D01*
X146580000Y-37000000D02*
X147831000Y-35749000D01*
X147711000Y-74276000D02*
X146460000Y-73025000D01*
X154276000Y-54624000D02*
X154299000Y-54647000D01*
X154251000Y-70749000D02*
X150724000Y-74276000D01*
X154276000Y-42289000D02*
X153025000Y-43540000D01*
X150724000Y-74276000D02*
X147711000Y-74276000D01*
X154251000Y-67711000D02*
X154251000Y-70749000D01*
X124816000Y-74276000D02*
X123540000Y-73000000D01*
X116975000Y-66460000D02*
X115724000Y-65209000D01*
X115701000Y-70701000D02*
X115701000Y-67734000D01*
X115701000Y-39299000D02*
X119299000Y-35701000D01*
X148500000Y-43000000D02*
X150325000Y-43000000D01*
X148500000Y-43000000D02*
X148500000Y-40600000D01*
X147831000Y-35749000D02*
X150749000Y-35749000D01*
X154299000Y-54647000D02*
X154299000Y-65161000D01*
X154276000Y-44791000D02*
X154276000Y-54624000D01*
X148500000Y-40600000D02*
X148400000Y-40500000D01*
X115724000Y-65209000D02*
X115724000Y-44816000D01*
X119299000Y-35701000D02*
X122241000Y-35701000D01*
X146200000Y-43000000D02*
X145500000Y-43700000D01*
X122289000Y-74251000D02*
X119251000Y-74251000D01*
X115701000Y-67734000D02*
X116975000Y-66460000D01*
X152250000Y-37250000D02*
X154276000Y-39276000D01*
X115724000Y-44816000D02*
X117000000Y-43540000D01*
X115701000Y-42241000D02*
X115701000Y-39299000D01*
X145209000Y-74276000D02*
X124816000Y-74276000D01*
X117000000Y-43540000D02*
X115701000Y-42241000D01*
X145224000Y-35724000D02*
X124816000Y-35724000D01*
X148500000Y-43000000D02*
X146200000Y-43000000D01*
D26*
%TO.N,Net-(U1-VREG_VOUT)*%
X134770000Y-50415230D02*
X134999999Y-50645229D01*
X134770000Y-49421471D02*
X134770000Y-50415230D01*
%TO.N,/E_RX*%
X153000000Y-61380000D02*
X153526000Y-60854000D01*
%TO.N,Net-(SW1-B)*%
X129351280Y-59851280D02*
X128000000Y-58500000D01*
X136748718Y-59851280D02*
X129351280Y-59851280D01*
X137099998Y-59500000D02*
X136748718Y-59851280D01*
%TD*%
%TA.AperFunction,Conductor*%
%TO.N,GND*%
G36*
X140123311Y-36432425D02*
G01*
X140151033Y-36437223D01*
X140156387Y-36442137D01*
X140163360Y-36444185D01*
X140181779Y-36465442D01*
X140202508Y-36484467D01*
X140204355Y-36491496D01*
X140209115Y-36496989D01*
X140213118Y-36524835D01*
X140220270Y-36552041D01*
X140218500Y-36562264D01*
X140219059Y-36566147D01*
X140214252Y-36586818D01*
X140182753Y-36683760D01*
X140172262Y-36750000D01*
X140149500Y-36893713D01*
X140149500Y-37106287D01*
X140159534Y-37169644D01*
X140182753Y-37316239D01*
X140248444Y-37518414D01*
X140344951Y-37707820D01*
X140469890Y-37879786D01*
X140620213Y-38030109D01*
X140792179Y-38155048D01*
X140792181Y-38155049D01*
X140792184Y-38155051D01*
X140981588Y-38251557D01*
X141183757Y-38317246D01*
X141393713Y-38350500D01*
X141393714Y-38350500D01*
X141606286Y-38350500D01*
X141606287Y-38350500D01*
X141816243Y-38317246D01*
X142018412Y-38251557D01*
X142207816Y-38155051D01*
X142294478Y-38092088D01*
X142379786Y-38030109D01*
X142379788Y-38030106D01*
X142379792Y-38030104D01*
X142530104Y-37879792D01*
X142530106Y-37879788D01*
X142530109Y-37879786D01*
X142655048Y-37707820D01*
X142655047Y-37707820D01*
X142655051Y-37707816D01*
X142659514Y-37699054D01*
X142707488Y-37648259D01*
X142775308Y-37631463D01*
X142841444Y-37653999D01*
X142880486Y-37699056D01*
X142884951Y-37707820D01*
X143009890Y-37879786D01*
X143160213Y-38030109D01*
X143332179Y-38155048D01*
X143332181Y-38155049D01*
X143332184Y-38155051D01*
X143417861Y-38198705D01*
X143521583Y-38251555D01*
X143521585Y-38251555D01*
X143521588Y-38251557D01*
X143598416Y-38276520D01*
X143723756Y-38317246D01*
X143752126Y-38321739D01*
X143820398Y-38332552D01*
X143883532Y-38362481D01*
X143920464Y-38421792D01*
X143925000Y-38455025D01*
X143925000Y-39050000D01*
X147075000Y-39050000D01*
X147075000Y-38339473D01*
X147094685Y-38272434D01*
X147142706Y-38228988D01*
X147287816Y-38155051D01*
X147459792Y-38030104D01*
X147573717Y-37916178D01*
X147635036Y-37882696D01*
X147704728Y-37887680D01*
X147760662Y-37929551D01*
X147777577Y-37960528D01*
X147826646Y-38092088D01*
X147826649Y-38092093D01*
X147912809Y-38207187D01*
X147912812Y-38207190D01*
X148027906Y-38293350D01*
X148027913Y-38293354D01*
X148162620Y-38343596D01*
X148162627Y-38343598D01*
X148222155Y-38349999D01*
X148222172Y-38350000D01*
X148870000Y-38350000D01*
X148870000Y-37433012D01*
X148927007Y-37465925D01*
X149054174Y-37500000D01*
X149185826Y-37500000D01*
X149312993Y-37465925D01*
X149370000Y-37433012D01*
X149370000Y-38350000D01*
X150017828Y-38350000D01*
X150017844Y-38349999D01*
X150077372Y-38343598D01*
X150077379Y-38343596D01*
X150212086Y-38293354D01*
X150212093Y-38293350D01*
X150327187Y-38207190D01*
X150327190Y-38207187D01*
X150413350Y-38092093D01*
X150413354Y-38092086D01*
X150463596Y-37957379D01*
X150463598Y-37957372D01*
X150469999Y-37897844D01*
X150470000Y-37897827D01*
X150470000Y-37250000D01*
X149553012Y-37250000D01*
X149585925Y-37192993D01*
X149620000Y-37065826D01*
X149620000Y-36934174D01*
X149585925Y-36807007D01*
X149553012Y-36750000D01*
X150470000Y-36750000D01*
X150474164Y-36745835D01*
X150489685Y-36692980D01*
X150542489Y-36647225D01*
X150611647Y-36637281D01*
X150675203Y-36666306D01*
X150681681Y-36672338D01*
X153447662Y-39438319D01*
X153481147Y-39499642D01*
X153476163Y-39569334D01*
X153434291Y-39625267D01*
X153368827Y-39649684D01*
X153359981Y-39650000D01*
X153275000Y-39650000D01*
X153275000Y-40566988D01*
X153217993Y-40534075D01*
X153090826Y-40500000D01*
X152959174Y-40500000D01*
X152832007Y-40534075D01*
X152775000Y-40566988D01*
X152775000Y-39650000D01*
X152127155Y-39650000D01*
X152067627Y-39656401D01*
X152067620Y-39656403D01*
X151932913Y-39706645D01*
X151932906Y-39706649D01*
X151817812Y-39792809D01*
X151817809Y-39792812D01*
X151731649Y-39907906D01*
X151731645Y-39907913D01*
X151681403Y-40042620D01*
X151681401Y-40042627D01*
X151675000Y-40102155D01*
X151675000Y-40750000D01*
X152591988Y-40750000D01*
X152559075Y-40807007D01*
X152525000Y-40934174D01*
X152525000Y-41065826D01*
X152559075Y-41192993D01*
X152591988Y-41250000D01*
X151675000Y-41250000D01*
X151675000Y-41897844D01*
X151681401Y-41957372D01*
X151681403Y-41957379D01*
X151731645Y-42092086D01*
X151731649Y-42092093D01*
X151817809Y-42207187D01*
X151817812Y-42207190D01*
X151932906Y-42293350D01*
X151932913Y-42293354D01*
X152064470Y-42342422D01*
X152120404Y-42384293D01*
X152144821Y-42449758D01*
X152129969Y-42518031D01*
X152108819Y-42546285D01*
X151994889Y-42660215D01*
X151869951Y-42832179D01*
X151773444Y-43021585D01*
X151707753Y-43223760D01*
X151674500Y-43433713D01*
X151674500Y-43646286D01*
X151705782Y-43843797D01*
X151707754Y-43856243D01*
X151742435Y-43962981D01*
X151773444Y-44058414D01*
X151869951Y-44247820D01*
X151994890Y-44419786D01*
X152145213Y-44570109D01*
X152317182Y-44695050D01*
X152325946Y-44699516D01*
X152376742Y-44747491D01*
X152393536Y-44815312D01*
X152370998Y-44881447D01*
X152325946Y-44920484D01*
X152317182Y-44924949D01*
X152145213Y-45049890D01*
X151994890Y-45200213D01*
X151869951Y-45372179D01*
X151773444Y-45561585D01*
X151707753Y-45763760D01*
X151674500Y-45973713D01*
X151674500Y-46186286D01*
X151707753Y-46396239D01*
X151773444Y-46598414D01*
X151869951Y-46787820D01*
X151994890Y-46959786D01*
X152145213Y-47110109D01*
X152317182Y-47235050D01*
X152325946Y-47239516D01*
X152376742Y-47287491D01*
X152393536Y-47355312D01*
X152370998Y-47421447D01*
X152325946Y-47460484D01*
X152317182Y-47464949D01*
X152145213Y-47589890D01*
X151994890Y-47740213D01*
X151869951Y-47912179D01*
X151773444Y-48101585D01*
X151707753Y-48303760D01*
X151674500Y-48513713D01*
X151674500Y-48726286D01*
X151707210Y-48932812D01*
X151707754Y-48936243D01*
X151742435Y-49042981D01*
X151773444Y-49138414D01*
X151869951Y-49327820D01*
X151994890Y-49499786D01*
X152145213Y-49650109D01*
X152317179Y-49775048D01*
X152317181Y-49775049D01*
X152317184Y-49775051D01*
X152506588Y-49871557D01*
X152708757Y-49937246D01*
X152918713Y-49970500D01*
X152918714Y-49970500D01*
X153131286Y-49970500D01*
X153131287Y-49970500D01*
X153341243Y-49937246D01*
X153413183Y-49913870D01*
X153483023Y-49911876D01*
X153542856Y-49947956D01*
X153573684Y-50010657D01*
X153575500Y-50031802D01*
X153575500Y-54555006D01*
X153575500Y-54692994D01*
X153575500Y-54692996D01*
X153575499Y-54692996D01*
X153596117Y-54796641D01*
X153598500Y-54820833D01*
X153598500Y-59983793D01*
X153578815Y-60050832D01*
X153526011Y-60096587D01*
X153456853Y-60106531D01*
X153436183Y-60101724D01*
X153316244Y-60062754D01*
X153316240Y-60062753D01*
X153154957Y-60037208D01*
X153106287Y-60029500D01*
X152893713Y-60029500D01*
X152845042Y-60037208D01*
X152683760Y-60062753D01*
X152481585Y-60128444D01*
X152292179Y-60224951D01*
X152120213Y-60349890D01*
X151969890Y-60500213D01*
X151844951Y-60672179D01*
X151748444Y-60861585D01*
X151682753Y-61063760D01*
X151661175Y-61200000D01*
X151649500Y-61273713D01*
X151649500Y-61486287D01*
X151682754Y-61696243D01*
X151746682Y-61892993D01*
X151748444Y-61898414D01*
X151844951Y-62087820D01*
X151969890Y-62259786D01*
X152120213Y-62410109D01*
X152292182Y-62535050D01*
X152300946Y-62539516D01*
X152351742Y-62587491D01*
X152368536Y-62655312D01*
X152345998Y-62721447D01*
X152300946Y-62760484D01*
X152292182Y-62764949D01*
X152120213Y-62889890D01*
X151969890Y-63040213D01*
X151844951Y-63212179D01*
X151748444Y-63401585D01*
X151682753Y-63603760D01*
X151649500Y-63813713D01*
X151649500Y-64026286D01*
X151677346Y-64202103D01*
X151682754Y-64236243D01*
X151746280Y-64431756D01*
X151748444Y-64438414D01*
X151844951Y-64627820D01*
X151969890Y-64799786D01*
X152120213Y-64950109D01*
X152292182Y-65075050D01*
X152300946Y-65079516D01*
X152351742Y-65127491D01*
X152368536Y-65195312D01*
X152345998Y-65261447D01*
X152300946Y-65300484D01*
X152292182Y-65304949D01*
X152120213Y-65429890D01*
X151969890Y-65580213D01*
X151844951Y-65752179D01*
X151748444Y-65941585D01*
X151682753Y-66143760D01*
X151678314Y-66171789D01*
X151649500Y-66353713D01*
X151649500Y-66566287D01*
X151659534Y-66629644D01*
X151679792Y-66757546D01*
X151682754Y-66776243D01*
X151723127Y-66900499D01*
X151748444Y-66978414D01*
X151844951Y-67167820D01*
X151969890Y-67339786D01*
X152083818Y-67453714D01*
X152117303Y-67515037D01*
X152112319Y-67584729D01*
X152070447Y-67640662D01*
X152039471Y-67657577D01*
X151907912Y-67706646D01*
X151907906Y-67706649D01*
X151792812Y-67792809D01*
X151792809Y-67792812D01*
X151706649Y-67907906D01*
X151706645Y-67907913D01*
X151656403Y-68042620D01*
X151656401Y-68042627D01*
X151650000Y-68102155D01*
X151650000Y-68750000D01*
X152566988Y-68750000D01*
X152534075Y-68807007D01*
X152500000Y-68934174D01*
X152500000Y-69065826D01*
X152534075Y-69192993D01*
X152566988Y-69250000D01*
X151650000Y-69250000D01*
X151650000Y-69897844D01*
X151656401Y-69957372D01*
X151656403Y-69957379D01*
X151706645Y-70092086D01*
X151706649Y-70092093D01*
X151792809Y-70207187D01*
X151792812Y-70207190D01*
X151907906Y-70293350D01*
X151907913Y-70293354D01*
X152042620Y-70343596D01*
X152042627Y-70343598D01*
X152102155Y-70349999D01*
X152102172Y-70350000D01*
X152750000Y-70350000D01*
X152750000Y-69433012D01*
X152807007Y-69465925D01*
X152934174Y-69500000D01*
X153065826Y-69500000D01*
X153192993Y-69465925D01*
X153250000Y-69433012D01*
X153250000Y-70350000D01*
X153359981Y-70350000D01*
X153427020Y-70369685D01*
X153472775Y-70422489D01*
X153482719Y-70491647D01*
X153453694Y-70555203D01*
X153447662Y-70561681D01*
X150561681Y-73447662D01*
X150500358Y-73481147D01*
X150430666Y-73476163D01*
X150374733Y-73434291D01*
X150350316Y-73368827D01*
X150350000Y-73359981D01*
X150350000Y-73275000D01*
X149433012Y-73275000D01*
X149465925Y-73217993D01*
X149500000Y-73090826D01*
X149500000Y-72959174D01*
X149465925Y-72832007D01*
X149433012Y-72775000D01*
X150350000Y-72775000D01*
X150350000Y-72127172D01*
X150349999Y-72127155D01*
X150343598Y-72067627D01*
X150343596Y-72067620D01*
X150293354Y-71932913D01*
X150293350Y-71932906D01*
X150207190Y-71817812D01*
X150207187Y-71817809D01*
X150092093Y-71731649D01*
X150092086Y-71731645D01*
X149957379Y-71681403D01*
X149957372Y-71681401D01*
X149897844Y-71675000D01*
X149250000Y-71675000D01*
X149250000Y-72591988D01*
X149192993Y-72559075D01*
X149065826Y-72525000D01*
X148934174Y-72525000D01*
X148807007Y-72559075D01*
X148750000Y-72591988D01*
X148750000Y-71675000D01*
X148102155Y-71675000D01*
X148042627Y-71681401D01*
X148042620Y-71681403D01*
X147907913Y-71731645D01*
X147907906Y-71731649D01*
X147792812Y-71817809D01*
X147792809Y-71817812D01*
X147706649Y-71932906D01*
X147706646Y-71932912D01*
X147657577Y-72064471D01*
X147615705Y-72120404D01*
X147550241Y-72144821D01*
X147481968Y-72129969D01*
X147453714Y-72108818D01*
X147339786Y-71994890D01*
X147167820Y-71869951D01*
X146978414Y-71773444D01*
X146978413Y-71773443D01*
X146978412Y-71773443D01*
X146776243Y-71707754D01*
X146776241Y-71707753D01*
X146776240Y-71707753D01*
X146614957Y-71682208D01*
X146566287Y-71674500D01*
X146353713Y-71674500D01*
X146305042Y-71682208D01*
X146143760Y-71707753D01*
X145941585Y-71773444D01*
X145752179Y-71869951D01*
X145580213Y-71994890D01*
X145429890Y-72145213D01*
X145304949Y-72317182D01*
X145300484Y-72325946D01*
X145252509Y-72376742D01*
X145184688Y-72393536D01*
X145118553Y-72370998D01*
X145079516Y-72325946D01*
X145075050Y-72317182D01*
X144950109Y-72145213D01*
X144799786Y-71994890D01*
X144627820Y-71869951D01*
X144438414Y-71773444D01*
X144438413Y-71773443D01*
X144438412Y-71773443D01*
X144236243Y-71707754D01*
X144236241Y-71707753D01*
X144236240Y-71707753D01*
X144074957Y-71682208D01*
X144026287Y-71674500D01*
X143813713Y-71674500D01*
X143765042Y-71682208D01*
X143603760Y-71707753D01*
X143401585Y-71773444D01*
X143212179Y-71869951D01*
X143040213Y-71994890D01*
X142889890Y-72145213D01*
X142764949Y-72317182D01*
X142760484Y-72325946D01*
X142712509Y-72376742D01*
X142644688Y-72393536D01*
X142578553Y-72370998D01*
X142539516Y-72325946D01*
X142535050Y-72317182D01*
X142410109Y-72145213D01*
X142259786Y-71994890D01*
X142087820Y-71869951D01*
X141898414Y-71773444D01*
X141898413Y-71773443D01*
X141898412Y-71773443D01*
X141696243Y-71707754D01*
X141696241Y-71707753D01*
X141696240Y-71707753D01*
X141534957Y-71682208D01*
X141486287Y-71674500D01*
X141273713Y-71674500D01*
X141225042Y-71682208D01*
X141063760Y-71707753D01*
X140861585Y-71773444D01*
X140672179Y-71869951D01*
X140500213Y-71994890D01*
X140349890Y-72145213D01*
X140224951Y-72317179D01*
X140128444Y-72506585D01*
X140062753Y-72708760D01*
X140029500Y-72918713D01*
X140029500Y-73131286D01*
X140058793Y-73316239D01*
X140062754Y-73341243D01*
X140068842Y-73359981D01*
X140086129Y-73413182D01*
X140088124Y-73483023D01*
X140052044Y-73542856D01*
X139989343Y-73573684D01*
X139968198Y-73575500D01*
X130023679Y-73575500D01*
X129956640Y-73555815D01*
X129910885Y-73503011D01*
X129900941Y-73433853D01*
X129905748Y-73413182D01*
X129909999Y-73400099D01*
X129937246Y-73316243D01*
X129970500Y-73106287D01*
X129970500Y-72893713D01*
X129937246Y-72683757D01*
X129871557Y-72481588D01*
X129775051Y-72292184D01*
X129775049Y-72292181D01*
X129775048Y-72292179D01*
X129650109Y-72120213D01*
X129499786Y-71969890D01*
X129327820Y-71844951D01*
X129138414Y-71748444D01*
X129138413Y-71748443D01*
X129138412Y-71748443D01*
X128936243Y-71682754D01*
X128936241Y-71682753D01*
X128936240Y-71682753D01*
X128774957Y-71657208D01*
X128726287Y-71649500D01*
X128513713Y-71649500D01*
X128465042Y-71657208D01*
X128303760Y-71682753D01*
X128101585Y-71748444D01*
X127912179Y-71844951D01*
X127740213Y-71969890D01*
X127589890Y-72120213D01*
X127464949Y-72292182D01*
X127460484Y-72300946D01*
X127412509Y-72351742D01*
X127344688Y-72368536D01*
X127278553Y-72345998D01*
X127239516Y-72300946D01*
X127235050Y-72292182D01*
X127110109Y-72120213D01*
X126959786Y-71969890D01*
X126787820Y-71844951D01*
X126598414Y-71748444D01*
X126598413Y-71748443D01*
X126598412Y-71748443D01*
X126396243Y-71682754D01*
X126396241Y-71682753D01*
X126396240Y-71682753D01*
X126234957Y-71657208D01*
X126186287Y-71649500D01*
X125973713Y-71649500D01*
X125925042Y-71657208D01*
X125763760Y-71682753D01*
X125561585Y-71748444D01*
X125372179Y-71844951D01*
X125200213Y-71969890D01*
X125049890Y-72120213D01*
X124924949Y-72292182D01*
X124920484Y-72300946D01*
X124872509Y-72351742D01*
X124804688Y-72368536D01*
X124738553Y-72345998D01*
X124699516Y-72300946D01*
X124695050Y-72292182D01*
X124570109Y-72120213D01*
X124419786Y-71969890D01*
X124247820Y-71844951D01*
X124058414Y-71748444D01*
X124058413Y-71748443D01*
X124058412Y-71748443D01*
X123856243Y-71682754D01*
X123856241Y-71682753D01*
X123856240Y-71682753D01*
X123694957Y-71657208D01*
X123646287Y-71649500D01*
X123433713Y-71649500D01*
X123385042Y-71657208D01*
X123223760Y-71682753D01*
X123021585Y-71748444D01*
X122832179Y-71844951D01*
X122660215Y-71969889D01*
X122546285Y-72083819D01*
X122484962Y-72117303D01*
X122415270Y-72112319D01*
X122359337Y-72070447D01*
X122342422Y-72039470D01*
X122293354Y-71907913D01*
X122293350Y-71907906D01*
X122207190Y-71792812D01*
X122207187Y-71792809D01*
X122092093Y-71706649D01*
X122092086Y-71706645D01*
X121957379Y-71656403D01*
X121957372Y-71656401D01*
X121897844Y-71650000D01*
X121250000Y-71650000D01*
X121250000Y-72566988D01*
X121192993Y-72534075D01*
X121065826Y-72500000D01*
X120934174Y-72500000D01*
X120807007Y-72534075D01*
X120750000Y-72566988D01*
X120750000Y-71650000D01*
X120102155Y-71650000D01*
X120042627Y-71656401D01*
X120042620Y-71656403D01*
X119907913Y-71706645D01*
X119907906Y-71706649D01*
X119792812Y-71792809D01*
X119792809Y-71792812D01*
X119706649Y-71907906D01*
X119706645Y-71907913D01*
X119656403Y-72042620D01*
X119656401Y-72042627D01*
X119650000Y-72102155D01*
X119650000Y-72750000D01*
X120566988Y-72750000D01*
X120534075Y-72807007D01*
X120500000Y-72934174D01*
X120500000Y-73065826D01*
X120534075Y-73192993D01*
X120566988Y-73250000D01*
X119650000Y-73250000D01*
X119650000Y-73359981D01*
X119630315Y-73427020D01*
X119577511Y-73472775D01*
X119508353Y-73482719D01*
X119444797Y-73453694D01*
X119438319Y-73447662D01*
X116552338Y-70561681D01*
X116518853Y-70500358D01*
X116523837Y-70430666D01*
X116565709Y-70374733D01*
X116631173Y-70350316D01*
X116640019Y-70350000D01*
X116725000Y-70350000D01*
X116725000Y-69433012D01*
X116782007Y-69465925D01*
X116909174Y-69500000D01*
X117040826Y-69500000D01*
X117167993Y-69465925D01*
X117225000Y-69433012D01*
X117225000Y-70350000D01*
X117872828Y-70350000D01*
X117872844Y-70349999D01*
X117932372Y-70343598D01*
X117932379Y-70343596D01*
X118067086Y-70293354D01*
X118067093Y-70293350D01*
X118182187Y-70207190D01*
X118182190Y-70207187D01*
X118268350Y-70092093D01*
X118268354Y-70092086D01*
X118318596Y-69957379D01*
X118318598Y-69957372D01*
X118324999Y-69897844D01*
X118325000Y-69897827D01*
X118325000Y-69250000D01*
X117408012Y-69250000D01*
X117440925Y-69192993D01*
X117475000Y-69065826D01*
X117475000Y-68934174D01*
X117440925Y-68807007D01*
X117408012Y-68750000D01*
X118325000Y-68750000D01*
X118325000Y-68102172D01*
X118324999Y-68102155D01*
X118318598Y-68042627D01*
X118318596Y-68042620D01*
X118268354Y-67907913D01*
X118268350Y-67907906D01*
X118182190Y-67792812D01*
X118182187Y-67792809D01*
X118067093Y-67706649D01*
X118067088Y-67706646D01*
X117935528Y-67657577D01*
X117879595Y-67615705D01*
X117855178Y-67550241D01*
X117870030Y-67481968D01*
X117891175Y-67453720D01*
X118005104Y-67339792D01*
X118130051Y-67167816D01*
X118226557Y-66978412D01*
X118292246Y-66776243D01*
X118325500Y-66566287D01*
X118325500Y-66353713D01*
X118292246Y-66143757D01*
X118226557Y-65941588D01*
X118130051Y-65752184D01*
X118130049Y-65752181D01*
X118130048Y-65752179D01*
X118005109Y-65580213D01*
X117854786Y-65429890D01*
X117682820Y-65304951D01*
X117682115Y-65304591D01*
X117674054Y-65300485D01*
X117623259Y-65252512D01*
X117606463Y-65184692D01*
X117628999Y-65118556D01*
X117674054Y-65079515D01*
X117682816Y-65075051D01*
X117731463Y-65039707D01*
X117854786Y-64950109D01*
X117854788Y-64950106D01*
X117854792Y-64950104D01*
X118005104Y-64799792D01*
X118005106Y-64799788D01*
X118005109Y-64799786D01*
X118130048Y-64627820D01*
X118130047Y-64627820D01*
X118130051Y-64627816D01*
X118168612Y-64552135D01*
X124059500Y-64552135D01*
X124059500Y-66447870D01*
X124059501Y-66447876D01*
X124065908Y-66507483D01*
X124116202Y-66642328D01*
X124116206Y-66642335D01*
X124202452Y-66757544D01*
X124202455Y-66757547D01*
X124317664Y-66843793D01*
X124317671Y-66843797D01*
X124452517Y-66894091D01*
X124452516Y-66894091D01*
X124459444Y-66894835D01*
X124512127Y-66900500D01*
X126407872Y-66900499D01*
X126467483Y-66894091D01*
X126602331Y-66843796D01*
X126717546Y-66757546D01*
X126803796Y-66642331D01*
X126831429Y-66568243D01*
X126833601Y-66562420D01*
X126875471Y-66506486D01*
X126940936Y-66482068D01*
X127009209Y-66496919D01*
X127037464Y-66518071D01*
X127087636Y-66568243D01*
X127087641Y-66568247D01*
X127189603Y-66642326D01*
X127265978Y-66697815D01*
X127394375Y-66763237D01*
X127462393Y-66797895D01*
X127462396Y-66797896D01*
X127567221Y-66831955D01*
X127672049Y-66866015D01*
X127889778Y-66900500D01*
X127889779Y-66900500D01*
X128110221Y-66900500D01*
X128110222Y-66900500D01*
X128327951Y-66866015D01*
X128537606Y-66797895D01*
X128734022Y-66697815D01*
X128912365Y-66568242D01*
X129068242Y-66412365D01*
X129197815Y-66234022D01*
X129297895Y-66037606D01*
X129366015Y-65827951D01*
X129400500Y-65610222D01*
X129400500Y-65471153D01*
X129699500Y-65471153D01*
X129699500Y-65628846D01*
X129730261Y-65783489D01*
X129730264Y-65783501D01*
X129790602Y-65929172D01*
X129790609Y-65929185D01*
X129878210Y-66060288D01*
X129878213Y-66060292D01*
X129989707Y-66171786D01*
X129989711Y-66171789D01*
X130120814Y-66259390D01*
X130120827Y-66259397D01*
X130253343Y-66314286D01*
X130266503Y-66319737D01*
X130421153Y-66350499D01*
X130421156Y-66350500D01*
X130421158Y-66350500D01*
X130578844Y-66350500D01*
X130578845Y-66350499D01*
X130733497Y-66319737D01*
X130873882Y-66261588D01*
X130879172Y-66259397D01*
X130879172Y-66259396D01*
X130879179Y-66259394D01*
X131010289Y-66171789D01*
X131121789Y-66060289D01*
X131209394Y-65929179D01*
X131269737Y-65783497D01*
X131289113Y-65686085D01*
X131300638Y-65628150D01*
X131333023Y-65566239D01*
X131334518Y-65564716D01*
X132347099Y-64552135D01*
X142059500Y-64552135D01*
X142059500Y-66447870D01*
X142059501Y-66447876D01*
X142065908Y-66507483D01*
X142116202Y-66642328D01*
X142116206Y-66642335D01*
X142202452Y-66757544D01*
X142202455Y-66757547D01*
X142317664Y-66843793D01*
X142317671Y-66843797D01*
X142452517Y-66894091D01*
X142452516Y-66894091D01*
X142459444Y-66894835D01*
X142512127Y-66900500D01*
X144407872Y-66900499D01*
X144467483Y-66894091D01*
X144602331Y-66843796D01*
X144717546Y-66757546D01*
X144803796Y-66642331D01*
X144831429Y-66568243D01*
X144833601Y-66562420D01*
X144875471Y-66506486D01*
X144940936Y-66482068D01*
X145009209Y-66496919D01*
X145037464Y-66518071D01*
X145087636Y-66568243D01*
X145087641Y-66568247D01*
X145189603Y-66642326D01*
X145265978Y-66697815D01*
X145394375Y-66763237D01*
X145462393Y-66797895D01*
X145462396Y-66797896D01*
X145567221Y-66831955D01*
X145672049Y-66866015D01*
X145889778Y-66900500D01*
X145889779Y-66900500D01*
X146110221Y-66900500D01*
X146110222Y-66900500D01*
X146327951Y-66866015D01*
X146537606Y-66797895D01*
X146734022Y-66697815D01*
X146912365Y-66568242D01*
X147068242Y-66412365D01*
X147197815Y-66234022D01*
X147297895Y-66037606D01*
X147366015Y-65827951D01*
X147400500Y-65610222D01*
X147400500Y-65389778D01*
X147366015Y-65172049D01*
X147331955Y-65067221D01*
X147297896Y-64962396D01*
X147297895Y-64962393D01*
X147263237Y-64894375D01*
X147197815Y-64765978D01*
X147097438Y-64627820D01*
X147068247Y-64587641D01*
X147068243Y-64587636D01*
X146912363Y-64431756D01*
X146912358Y-64431752D01*
X146734023Y-64302185D01*
X146610657Y-64239326D01*
X146610656Y-64239326D01*
X146537606Y-64202104D01*
X146537603Y-64202103D01*
X146327952Y-64133985D01*
X146326235Y-64133713D01*
X147674500Y-64133713D01*
X147674500Y-64346286D01*
X147700497Y-64510428D01*
X147707754Y-64556243D01*
X147770547Y-64749500D01*
X147773444Y-64758414D01*
X147869951Y-64947820D01*
X147994890Y-65119786D01*
X148145213Y-65270109D01*
X148317182Y-65395050D01*
X148325946Y-65399516D01*
X148376742Y-65447491D01*
X148393536Y-65515312D01*
X148370998Y-65581447D01*
X148325946Y-65620484D01*
X148317182Y-65624949D01*
X148145213Y-65749890D01*
X147994890Y-65900213D01*
X147869951Y-66072179D01*
X147773444Y-66261585D01*
X147707753Y-66463760D01*
X147674500Y-66673713D01*
X147674500Y-66886286D01*
X147707753Y-67096239D01*
X147773444Y-67298414D01*
X147869951Y-67487820D01*
X147994890Y-67659786D01*
X148145213Y-67810109D01*
X148317182Y-67935050D01*
X148325946Y-67939516D01*
X148376742Y-67987491D01*
X148393536Y-68055312D01*
X148370998Y-68121447D01*
X148325946Y-68160484D01*
X148317182Y-68164949D01*
X148145213Y-68289890D01*
X147994890Y-68440213D01*
X147869951Y-68612179D01*
X147773444Y-68801585D01*
X147707753Y-69003760D01*
X147674500Y-69213713D01*
X147674500Y-69426286D01*
X147707753Y-69636239D01*
X147773444Y-69838414D01*
X147869951Y-70027820D01*
X147994890Y-70199786D01*
X148145213Y-70350109D01*
X148317179Y-70475048D01*
X148317181Y-70475049D01*
X148317184Y-70475051D01*
X148506588Y-70571557D01*
X148708757Y-70637246D01*
X148918713Y-70670500D01*
X148918714Y-70670500D01*
X149131286Y-70670500D01*
X149131287Y-70670500D01*
X149341243Y-70637246D01*
X149543412Y-70571557D01*
X149732816Y-70475051D01*
X149805162Y-70422489D01*
X149904786Y-70350109D01*
X149904788Y-70350106D01*
X149904792Y-70350104D01*
X150055104Y-70199792D01*
X150055106Y-70199788D01*
X150055109Y-70199786D01*
X150180048Y-70027820D01*
X150180047Y-70027820D01*
X150180051Y-70027816D01*
X150276557Y-69838412D01*
X150342246Y-69636243D01*
X150375500Y-69426287D01*
X150375500Y-69213713D01*
X150342246Y-69003757D01*
X150276557Y-68801588D01*
X150180051Y-68612184D01*
X150180049Y-68612181D01*
X150180048Y-68612179D01*
X150055109Y-68440213D01*
X149904786Y-68289890D01*
X149732820Y-68164951D01*
X149732115Y-68164591D01*
X149724054Y-68160485D01*
X149673259Y-68112512D01*
X149656463Y-68044692D01*
X149678999Y-67978556D01*
X149724054Y-67939515D01*
X149732816Y-67935051D01*
X149770178Y-67907906D01*
X149904786Y-67810109D01*
X149904788Y-67810106D01*
X149904792Y-67810104D01*
X150055104Y-67659792D01*
X150055106Y-67659788D01*
X150055109Y-67659786D01*
X150180048Y-67487820D01*
X150180047Y-67487820D01*
X150180051Y-67487816D01*
X150276557Y-67298412D01*
X150342246Y-67096243D01*
X150375500Y-66886287D01*
X150375500Y-66673713D01*
X150342246Y-66463757D01*
X150276557Y-66261588D01*
X150180051Y-66072184D01*
X150180049Y-66072181D01*
X150180048Y-66072179D01*
X150055109Y-65900213D01*
X149904786Y-65749890D01*
X149732820Y-65624951D01*
X149732115Y-65624591D01*
X149724054Y-65620485D01*
X149673259Y-65572512D01*
X149656463Y-65504692D01*
X149678999Y-65438556D01*
X149724054Y-65399515D01*
X149732816Y-65395051D01*
X149754789Y-65379086D01*
X149904786Y-65270109D01*
X149904788Y-65270106D01*
X149904792Y-65270104D01*
X150055104Y-65119792D01*
X150055106Y-65119788D01*
X150055109Y-65119786D01*
X150180048Y-64947820D01*
X150180047Y-64947820D01*
X150180051Y-64947816D01*
X150276557Y-64758412D01*
X150342246Y-64556243D01*
X150375500Y-64346287D01*
X150375500Y-64133713D01*
X150342246Y-63923757D01*
X150276557Y-63721588D01*
X150180051Y-63532184D01*
X150180049Y-63532181D01*
X150180048Y-63532179D01*
X150055109Y-63360213D01*
X149941181Y-63246285D01*
X149907696Y-63184962D01*
X149912680Y-63115270D01*
X149954552Y-63059337D01*
X149985529Y-63042422D01*
X150117086Y-62993354D01*
X150117093Y-62993350D01*
X150232187Y-62907190D01*
X150232190Y-62907187D01*
X150318350Y-62792093D01*
X150318354Y-62792086D01*
X150368596Y-62657379D01*
X150368598Y-62657372D01*
X150374999Y-62597844D01*
X150375000Y-62597827D01*
X150375000Y-61950000D01*
X149458012Y-61950000D01*
X149490925Y-61892993D01*
X149525000Y-61765826D01*
X149525000Y-61634174D01*
X149490925Y-61507007D01*
X149458012Y-61450000D01*
X150375000Y-61450000D01*
X150375000Y-60802172D01*
X150374999Y-60802155D01*
X150368598Y-60742627D01*
X150368596Y-60742620D01*
X150318354Y-60607913D01*
X150318350Y-60607906D01*
X150232190Y-60492812D01*
X150232187Y-60492809D01*
X150117093Y-60406649D01*
X150117086Y-60406645D01*
X149982379Y-60356403D01*
X149982372Y-60356401D01*
X149922844Y-60350000D01*
X149275000Y-60350000D01*
X149275000Y-61266988D01*
X149217993Y-61234075D01*
X149090826Y-61200000D01*
X148959174Y-61200000D01*
X148832007Y-61234075D01*
X148775000Y-61266988D01*
X148775000Y-60350000D01*
X148127155Y-60350000D01*
X148067627Y-60356401D01*
X148067620Y-60356403D01*
X147932913Y-60406645D01*
X147932906Y-60406649D01*
X147817812Y-60492809D01*
X147817809Y-60492812D01*
X147731649Y-60607906D01*
X147731645Y-60607913D01*
X147681403Y-60742620D01*
X147681401Y-60742627D01*
X147675000Y-60802155D01*
X147675000Y-61450000D01*
X148591988Y-61450000D01*
X148559075Y-61507007D01*
X148525000Y-61634174D01*
X148525000Y-61765826D01*
X148559075Y-61892993D01*
X148591988Y-61950000D01*
X147675000Y-61950000D01*
X147675000Y-62597844D01*
X147681401Y-62657372D01*
X147681403Y-62657379D01*
X147731645Y-62792086D01*
X147731649Y-62792093D01*
X147817809Y-62907187D01*
X147817812Y-62907190D01*
X147932906Y-62993350D01*
X147932913Y-62993354D01*
X148064470Y-63042422D01*
X148120404Y-63084293D01*
X148144821Y-63149758D01*
X148129969Y-63218031D01*
X148108819Y-63246285D01*
X147994889Y-63360215D01*
X147869951Y-63532179D01*
X147773444Y-63721585D01*
X147707753Y-63923760D01*
X147674500Y-64133713D01*
X146326235Y-64133713D01*
X146219086Y-64116742D01*
X146110222Y-64099500D01*
X145889778Y-64099500D01*
X145817201Y-64110995D01*
X145672047Y-64133985D01*
X145462396Y-64202103D01*
X145462393Y-64202104D01*
X145265974Y-64302187D01*
X145087641Y-64431752D01*
X145087636Y-64431756D01*
X145037463Y-64481929D01*
X144976140Y-64515413D01*
X144906448Y-64510428D01*
X144850515Y-64468557D01*
X144833601Y-64437580D01*
X144803797Y-64357671D01*
X144803793Y-64357664D01*
X144717547Y-64242455D01*
X144717544Y-64242452D01*
X144602335Y-64156206D01*
X144602328Y-64156202D01*
X144467482Y-64105908D01*
X144467483Y-64105908D01*
X144407883Y-64099501D01*
X144407881Y-64099500D01*
X144407873Y-64099500D01*
X144407864Y-64099500D01*
X142512129Y-64099500D01*
X142512123Y-64099501D01*
X142452516Y-64105908D01*
X142317671Y-64156202D01*
X142317664Y-64156206D01*
X142202455Y-64242452D01*
X142202452Y-64242455D01*
X142116206Y-64357664D01*
X142116202Y-64357671D01*
X142065908Y-64492517D01*
X142059501Y-64552116D01*
X142059500Y-64552135D01*
X132347099Y-64552135D01*
X134262416Y-62636819D01*
X134323739Y-62603334D01*
X134350097Y-62600500D01*
X142470234Y-62600500D01*
X142537273Y-62620185D01*
X142539125Y-62621398D01*
X142670814Y-62709390D01*
X142670827Y-62709397D01*
X142804948Y-62764951D01*
X142816503Y-62769737D01*
X142971153Y-62800499D01*
X142971156Y-62800500D01*
X142971158Y-62800500D01*
X143128844Y-62800500D01*
X143128845Y-62800499D01*
X143283497Y-62769737D01*
X143400080Y-62721447D01*
X143429172Y-62709397D01*
X143429172Y-62709396D01*
X143429179Y-62709394D01*
X143560289Y-62621789D01*
X143671789Y-62510289D01*
X143759394Y-62379179D01*
X143819737Y-62233497D01*
X143850500Y-62078842D01*
X143850500Y-61921158D01*
X143850500Y-61921155D01*
X143850499Y-61921153D01*
X143845976Y-61898414D01*
X143819737Y-61766503D01*
X143763728Y-61631284D01*
X143759397Y-61620827D01*
X143759390Y-61620814D01*
X143671398Y-61489125D01*
X143650520Y-61422447D01*
X143650500Y-61420234D01*
X143650500Y-57336878D01*
X143670185Y-57269839D01*
X143722989Y-57224084D01*
X143727930Y-57222215D01*
X143727869Y-57222068D01*
X143739690Y-57217172D01*
X143879179Y-57159394D01*
X144010289Y-57071789D01*
X144121789Y-56960289D01*
X144209394Y-56829179D01*
X144212806Y-56820943D01*
X144236185Y-56764500D01*
X144269737Y-56683497D01*
X144300500Y-56528842D01*
X144300500Y-56371158D01*
X144300500Y-56371155D01*
X144300499Y-56371153D01*
X144269738Y-56216510D01*
X144269738Y-56216508D01*
X144269737Y-56216503D01*
X144232250Y-56126000D01*
X144209397Y-56070827D01*
X144209390Y-56070814D01*
X144121789Y-55939711D01*
X144121786Y-55939707D01*
X144010292Y-55828213D01*
X144010288Y-55828210D01*
X143879185Y-55740609D01*
X143879172Y-55740602D01*
X143733501Y-55680264D01*
X143733489Y-55680261D01*
X143578845Y-55649500D01*
X143578842Y-55649500D01*
X143421158Y-55649500D01*
X143421155Y-55649500D01*
X143266510Y-55680261D01*
X143266498Y-55680264D01*
X143120827Y-55740602D01*
X143120814Y-55740609D01*
X142989711Y-55828210D01*
X142989707Y-55828213D01*
X142878213Y-55939707D01*
X142878210Y-55939711D01*
X142790609Y-56070814D01*
X142790602Y-56070827D01*
X142730264Y-56216498D01*
X142730261Y-56216508D01*
X142699362Y-56371848D01*
X142693027Y-56385146D01*
X142691609Y-56396758D01*
X142677812Y-56417086D01*
X142673163Y-56426848D01*
X142669487Y-56431276D01*
X142569480Y-56531284D01*
X142535869Y-56589501D01*
X142530615Y-56598600D01*
X142530614Y-56598602D01*
X142496392Y-56657876D01*
X142490423Y-56668215D01*
X142449499Y-56820943D01*
X142449499Y-56820945D01*
X142449499Y-56989046D01*
X142449500Y-56989059D01*
X142449500Y-61275500D01*
X142429815Y-61342539D01*
X142377011Y-61388294D01*
X142325500Y-61399500D01*
X134129057Y-61399500D01*
X133970943Y-61399500D01*
X133818215Y-61440423D01*
X133818214Y-61440423D01*
X133818212Y-61440424D01*
X133818209Y-61440425D01*
X133768096Y-61469359D01*
X133768095Y-61469360D01*
X133733861Y-61489125D01*
X133681285Y-61519479D01*
X133681282Y-61519481D01*
X130485339Y-64715425D01*
X130424016Y-64748910D01*
X130421850Y-64749361D01*
X130266508Y-64780261D01*
X130266498Y-64780264D01*
X130120827Y-64840602D01*
X130120814Y-64840609D01*
X129989711Y-64928210D01*
X129989707Y-64928213D01*
X129878213Y-65039707D01*
X129878210Y-65039711D01*
X129790609Y-65170814D01*
X129790602Y-65170827D01*
X129730264Y-65316498D01*
X129730261Y-65316510D01*
X129699500Y-65471153D01*
X129400500Y-65471153D01*
X129400500Y-65389778D01*
X129366015Y-65172049D01*
X129331955Y-65067221D01*
X129297896Y-64962396D01*
X129297895Y-64962393D01*
X129263237Y-64894375D01*
X129197815Y-64765978D01*
X129097438Y-64627820D01*
X129068247Y-64587641D01*
X129068243Y-64587636D01*
X128912363Y-64431756D01*
X128912358Y-64431752D01*
X128734025Y-64302187D01*
X128734024Y-64302186D01*
X128734022Y-64302185D01*
X128610656Y-64239326D01*
X128537606Y-64202104D01*
X128537603Y-64202103D01*
X128327952Y-64133985D01*
X128219086Y-64116742D01*
X128110222Y-64099500D01*
X127889778Y-64099500D01*
X127817201Y-64110995D01*
X127672047Y-64133985D01*
X127462396Y-64202103D01*
X127462393Y-64202104D01*
X127265974Y-64302187D01*
X127087641Y-64431752D01*
X127087636Y-64431756D01*
X127037463Y-64481929D01*
X126976140Y-64515413D01*
X126906448Y-64510428D01*
X126850515Y-64468557D01*
X126833601Y-64437580D01*
X126803797Y-64357671D01*
X126803793Y-64357664D01*
X126717547Y-64242455D01*
X126717544Y-64242452D01*
X126602335Y-64156206D01*
X126602328Y-64156202D01*
X126467482Y-64105908D01*
X126467483Y-64105908D01*
X126407883Y-64099501D01*
X126407881Y-64099500D01*
X126407873Y-64099500D01*
X126407864Y-64099500D01*
X124512129Y-64099500D01*
X124512123Y-64099501D01*
X124452516Y-64105908D01*
X124317671Y-64156202D01*
X124317664Y-64156206D01*
X124202455Y-64242452D01*
X124202452Y-64242455D01*
X124116206Y-64357664D01*
X124116202Y-64357671D01*
X124065908Y-64492517D01*
X124059501Y-64552116D01*
X124059500Y-64552135D01*
X118168612Y-64552135D01*
X118226557Y-64438412D01*
X118292246Y-64236243D01*
X118325500Y-64026287D01*
X118325500Y-63813713D01*
X118292246Y-63603757D01*
X118226557Y-63401588D01*
X118130051Y-63212184D01*
X118130049Y-63212181D01*
X118130048Y-63212179D01*
X118005109Y-63040213D01*
X117854786Y-62889890D01*
X117682820Y-62764951D01*
X117682115Y-62764591D01*
X117674054Y-62760485D01*
X117623259Y-62712512D01*
X117606463Y-62644692D01*
X117628999Y-62578556D01*
X117674054Y-62539515D01*
X117682816Y-62535051D01*
X117716900Y-62510288D01*
X117854786Y-62410109D01*
X117854788Y-62410106D01*
X117854792Y-62410104D01*
X118005104Y-62259792D01*
X118005106Y-62259788D01*
X118005109Y-62259786D01*
X118130048Y-62087820D01*
X118130047Y-62087820D01*
X118130051Y-62087816D01*
X118226557Y-61898412D01*
X118292246Y-61696243D01*
X118325500Y-61486287D01*
X118325500Y-61273713D01*
X118292246Y-61063757D01*
X118226557Y-60861588D01*
X118130051Y-60672184D01*
X118130049Y-60672181D01*
X118130048Y-60672179D01*
X118005109Y-60500213D01*
X117854786Y-60349890D01*
X117682820Y-60224951D01*
X117493414Y-60128444D01*
X117493413Y-60128443D01*
X117493412Y-60128443D01*
X117291243Y-60062754D01*
X117291241Y-60062753D01*
X117291240Y-60062753D01*
X117129957Y-60037208D01*
X117081287Y-60029500D01*
X116868713Y-60029500D01*
X116829202Y-60035757D01*
X116658759Y-60062753D01*
X116658755Y-60062754D01*
X116586817Y-60086128D01*
X116516976Y-60088123D01*
X116457143Y-60052042D01*
X116426316Y-59989341D01*
X116424500Y-59968197D01*
X116424500Y-58393713D01*
X120149500Y-58393713D01*
X120149500Y-58606286D01*
X120182753Y-58816239D01*
X120182753Y-58816241D01*
X120182754Y-58816243D01*
X120239117Y-58989711D01*
X120248444Y-59018414D01*
X120344951Y-59207820D01*
X120469890Y-59379786D01*
X120620213Y-59530109D01*
X120792179Y-59655048D01*
X120792181Y-59655049D01*
X120792184Y-59655051D01*
X120981588Y-59751557D01*
X121183757Y-59817246D01*
X121393713Y-59850500D01*
X121393714Y-59850500D01*
X121606286Y-59850500D01*
X121606287Y-59850500D01*
X121816243Y-59817246D01*
X122018412Y-59751557D01*
X122207816Y-59655051D01*
X122312707Y-59578844D01*
X122379786Y-59530109D01*
X122379788Y-59530106D01*
X122379792Y-59530104D01*
X122530104Y-59379792D01*
X122530106Y-59379788D01*
X122530109Y-59379786D01*
X122655048Y-59207820D01*
X122655047Y-59207820D01*
X122655051Y-59207816D01*
X122751557Y-59018412D01*
X122817246Y-58816243D01*
X122850500Y-58606287D01*
X122850500Y-58393713D01*
X126649500Y-58393713D01*
X126649500Y-58606286D01*
X126682753Y-58816239D01*
X126682753Y-58816241D01*
X126682754Y-58816243D01*
X126739117Y-58989711D01*
X126748444Y-59018414D01*
X126844951Y-59207820D01*
X126969890Y-59379786D01*
X127120213Y-59530109D01*
X127292179Y-59655048D01*
X127292181Y-59655049D01*
X127292184Y-59655051D01*
X127481588Y-59751557D01*
X127683757Y-59817246D01*
X127893713Y-59850500D01*
X127893714Y-59850500D01*
X128106286Y-59850500D01*
X128106287Y-59850500D01*
X128316243Y-59817246D01*
X128358523Y-59803507D01*
X128428362Y-59801511D01*
X128484521Y-59833756D01*
X128982564Y-60331800D01*
X128982566Y-60331801D01*
X128982570Y-60331804D01*
X129119489Y-60410853D01*
X129119492Y-60410855D01*
X129119496Y-60410857D01*
X129272223Y-60451781D01*
X129272225Y-60451781D01*
X129437934Y-60451781D01*
X129437950Y-60451780D01*
X136662049Y-60451780D01*
X136662065Y-60451781D01*
X136669661Y-60451781D01*
X136827772Y-60451781D01*
X136827775Y-60451781D01*
X136980503Y-60410857D01*
X137034814Y-60379500D01*
X137117434Y-60331800D01*
X137125051Y-60324182D01*
X137137577Y-60316511D01*
X137157684Y-60311077D01*
X137175963Y-60301092D01*
X137178150Y-60300637D01*
X137178839Y-60300500D01*
X137178840Y-60300500D01*
X137333495Y-60269737D01*
X137479177Y-60209394D01*
X137610287Y-60121789D01*
X137721787Y-60010289D01*
X137809392Y-59879179D01*
X137869735Y-59733497D01*
X137900498Y-59578842D01*
X137900498Y-59421158D01*
X137892946Y-59383192D01*
X137899173Y-59313601D01*
X137942035Y-59258423D01*
X138007924Y-59235178D01*
X138014563Y-59235000D01*
X138357828Y-59235000D01*
X138357844Y-59234999D01*
X138417372Y-59228598D01*
X138417379Y-59228596D01*
X138552086Y-59178354D01*
X138552093Y-59178350D01*
X138667187Y-59092190D01*
X138667190Y-59092187D01*
X138753350Y-58977093D01*
X138753354Y-58977086D01*
X138803596Y-58842379D01*
X138803598Y-58842372D01*
X138809999Y-58782844D01*
X138810000Y-58782827D01*
X138810000Y-58250000D01*
X137924000Y-58250000D01*
X137856961Y-58230315D01*
X137811206Y-58177511D01*
X137800000Y-58126000D01*
X137800000Y-57874000D01*
X137819685Y-57806961D01*
X137872489Y-57761206D01*
X137924000Y-57750000D01*
X138810000Y-57750000D01*
X138810000Y-57217172D01*
X138809999Y-57217155D01*
X138803598Y-57157627D01*
X138803597Y-57157623D01*
X138761236Y-57044049D01*
X138756252Y-56974357D01*
X138761232Y-56957391D01*
X138804091Y-56842483D01*
X138810500Y-56782873D01*
X138810499Y-55217128D01*
X138804091Y-55157517D01*
X138803171Y-55155051D01*
X138753797Y-55022671D01*
X138753793Y-55022664D01*
X138662232Y-54900355D01*
X138664944Y-54898324D01*
X138639321Y-54851342D01*
X138636500Y-54825045D01*
X138636500Y-53425059D01*
X138636501Y-53425046D01*
X138636501Y-53256945D01*
X138636501Y-53256943D01*
X138595577Y-53104215D01*
X138557318Y-53037949D01*
X138516520Y-52967284D01*
X138404716Y-52855480D01*
X138404715Y-52855479D01*
X138400385Y-52851149D01*
X138400374Y-52851139D01*
X138271818Y-52722583D01*
X138238333Y-52661260D01*
X138235499Y-52634902D01*
X138235499Y-52142129D01*
X138235498Y-52142123D01*
X138229091Y-52082516D01*
X138178797Y-51947671D01*
X138178793Y-51947664D01*
X138092547Y-51832455D01*
X138092544Y-51832452D01*
X137977335Y-51746206D01*
X137977328Y-51746202D01*
X137842482Y-51695908D01*
X137842483Y-51695908D01*
X137782883Y-51689501D01*
X137782881Y-51689500D01*
X137782873Y-51689500D01*
X137782865Y-51689500D01*
X137544000Y-51689500D01*
X137476961Y-51669815D01*
X137431206Y-51617011D01*
X137420000Y-51565500D01*
X137420000Y-51250000D01*
X136534000Y-51250000D01*
X136466961Y-51230315D01*
X136421206Y-51177511D01*
X136410000Y-51126000D01*
X136410000Y-51000000D01*
X136284000Y-51000000D01*
X136216961Y-50980315D01*
X136171206Y-50927511D01*
X136160000Y-50876000D01*
X136160000Y-50750000D01*
X136660000Y-50750000D01*
X137420000Y-50750000D01*
X137420000Y-50217172D01*
X137419999Y-50217155D01*
X137413598Y-50157627D01*
X137413596Y-50157620D01*
X137363354Y-50022913D01*
X137363350Y-50022906D01*
X137277190Y-49907812D01*
X137277187Y-49907809D01*
X137162093Y-49821649D01*
X137162086Y-49821645D01*
X137027379Y-49771403D01*
X137027372Y-49771401D01*
X136967844Y-49765000D01*
X136660000Y-49765000D01*
X136660000Y-50750000D01*
X136160000Y-50750000D01*
X136160000Y-49710000D01*
X135694500Y-49710000D01*
X135685814Y-49707449D01*
X135676853Y-49708738D01*
X135652812Y-49697759D01*
X135627461Y-49690315D01*
X135621533Y-49683474D01*
X135613297Y-49679713D01*
X135599007Y-49657478D01*
X135581706Y-49637511D01*
X135579418Y-49626996D01*
X135575523Y-49620935D01*
X135570500Y-49586000D01*
X135570500Y-49414000D01*
X135590185Y-49346961D01*
X135642989Y-49301206D01*
X135694500Y-49290000D01*
X136230000Y-49290000D01*
X136230000Y-49242172D01*
X136229999Y-49242155D01*
X136223598Y-49182627D01*
X136223596Y-49182620D01*
X136173354Y-49047913D01*
X136173350Y-49047906D01*
X136087190Y-48932812D01*
X136087187Y-48932809D01*
X135972093Y-48846649D01*
X135972086Y-48846645D01*
X135837379Y-48796403D01*
X135837372Y-48796401D01*
X135777844Y-48790000D01*
X135710000Y-48790000D01*
X135710000Y-48937206D01*
X135703322Y-48959946D01*
X135701019Y-48983539D01*
X135693659Y-48992856D01*
X135690315Y-49004245D01*
X135672403Y-49019765D01*
X135657710Y-49038367D01*
X135646482Y-49042226D01*
X135637511Y-49050000D01*
X135614051Y-49053373D01*
X135591635Y-49061078D01*
X135580103Y-49058254D01*
X135568353Y-49059944D01*
X135546791Y-49050097D01*
X135523770Y-49044460D01*
X135512502Y-49034437D01*
X135504797Y-49030919D01*
X135496074Y-49022583D01*
X135491074Y-49017317D01*
X135427546Y-48932454D01*
X135369928Y-48889321D01*
X135326319Y-48845712D01*
X135302992Y-48802992D01*
X135284423Y-48784423D01*
X135236375Y-48770315D01*
X135234523Y-48769102D01*
X135149185Y-48712080D01*
X135149172Y-48712073D01*
X135003501Y-48651735D01*
X135003489Y-48651732D01*
X134848845Y-48620971D01*
X134848842Y-48620971D01*
X134691158Y-48620971D01*
X134691155Y-48620971D01*
X134536510Y-48651732D01*
X134536498Y-48651735D01*
X134390827Y-48712073D01*
X134390814Y-48712080D01*
X134259711Y-48799681D01*
X134259707Y-48799684D01*
X134148213Y-48911178D01*
X134148210Y-48911182D01*
X134060609Y-49042285D01*
X134060602Y-49042298D01*
X134000264Y-49187969D01*
X134000261Y-49187981D01*
X133969500Y-49342624D01*
X133969500Y-49500317D01*
X134000261Y-49654960D01*
X134000264Y-49654972D01*
X134029547Y-49725668D01*
X134037016Y-49795138D01*
X134005740Y-49857617D01*
X133989298Y-49872386D01*
X133942452Y-49907455D01*
X133856206Y-50022664D01*
X133856202Y-50022671D01*
X133805908Y-50157517D01*
X133799501Y-50217116D01*
X133799500Y-50217135D01*
X133799500Y-51782870D01*
X133799501Y-51782876D01*
X133805908Y-51842483D01*
X133856202Y-51977328D01*
X133856206Y-51977335D01*
X133942452Y-52092544D01*
X133942455Y-52092547D01*
X134057664Y-52178793D01*
X134057671Y-52178797D01*
X134102618Y-52195561D01*
X134192517Y-52229091D01*
X134252127Y-52235500D01*
X134575501Y-52235499D01*
X134642539Y-52255183D01*
X134688294Y-52307987D01*
X134699500Y-52359499D01*
X134699500Y-52508844D01*
X134730261Y-52663487D01*
X134730264Y-52663499D01*
X134784243Y-52793816D01*
X134792972Y-52854520D01*
X134790000Y-52882165D01*
X134790000Y-52950000D01*
X134799194Y-52959194D01*
X134827546Y-52965554D01*
X134831179Y-52968722D01*
X134834456Y-52969685D01*
X134855663Y-52986888D01*
X134861615Y-52992917D01*
X134932454Y-53087546D01*
X135018937Y-53152287D01*
X135025453Y-53158888D01*
X135037783Y-53181820D01*
X135053389Y-53202667D01*
X135054063Y-53212098D01*
X135058541Y-53220426D01*
X135056515Y-53246385D01*
X135058373Y-53272359D01*
X135053841Y-53280657D01*
X135053106Y-53290084D01*
X135037365Y-53310829D01*
X135024887Y-53333682D01*
X135016589Y-53338212D01*
X135010874Y-53345746D01*
X134986413Y-53354689D01*
X134963564Y-53367166D01*
X134947593Y-53368883D01*
X134945253Y-53369739D01*
X134943432Y-53369330D01*
X134937207Y-53370000D01*
X134790000Y-53370000D01*
X134790000Y-53437844D01*
X134796401Y-53497372D01*
X134796403Y-53497379D01*
X134846645Y-53632086D01*
X134846649Y-53632093D01*
X134932809Y-53747187D01*
X134932812Y-53747190D01*
X135047906Y-53833350D01*
X135047913Y-53833354D01*
X135182620Y-53883596D01*
X135182627Y-53883598D01*
X135242155Y-53889999D01*
X135242172Y-53890000D01*
X135290000Y-53890000D01*
X135290000Y-53354499D01*
X135292550Y-53345813D01*
X135291262Y-53336852D01*
X135302240Y-53312811D01*
X135309685Y-53287460D01*
X135316525Y-53281532D01*
X135320287Y-53273296D01*
X135342521Y-53259006D01*
X135362489Y-53241705D01*
X135373003Y-53239417D01*
X135379065Y-53235522D01*
X135413995Y-53230499D01*
X135586001Y-53230499D01*
X135653039Y-53250184D01*
X135698794Y-53302988D01*
X135710000Y-53354499D01*
X135710000Y-53890000D01*
X135728681Y-53908681D01*
X135762166Y-53970004D01*
X135765000Y-53996362D01*
X135765000Y-54050000D01*
X136876000Y-54050000D01*
X136943039Y-54069685D01*
X136988794Y-54122489D01*
X137000000Y-54174000D01*
X137000000Y-54426000D01*
X136980315Y-54493039D01*
X136927511Y-54538794D01*
X136876000Y-54550000D01*
X135765000Y-54550000D01*
X135765000Y-54641000D01*
X135745315Y-54708039D01*
X135692511Y-54753794D01*
X135645436Y-54764034D01*
X135645463Y-54764540D01*
X135645475Y-54764644D01*
X135645469Y-54764644D01*
X135645479Y-54764823D01*
X135642155Y-54765000D01*
X135582627Y-54771401D01*
X135582620Y-54771403D01*
X135447913Y-54821645D01*
X135447906Y-54821649D01*
X135332814Y-54907808D01*
X135332806Y-54907815D01*
X135308482Y-54940310D01*
X135252549Y-54982182D01*
X135209215Y-54990000D01*
X134750000Y-54990000D01*
X134750000Y-55750000D01*
X136076000Y-55750000D01*
X136143039Y-55769685D01*
X136188794Y-55822489D01*
X136200000Y-55874000D01*
X136200000Y-56126000D01*
X136180315Y-56193039D01*
X136127511Y-56238794D01*
X136076000Y-56250000D01*
X134624000Y-56250000D01*
X134556961Y-56230315D01*
X134511206Y-56177511D01*
X134500000Y-56126000D01*
X134500000Y-56000000D01*
X134374000Y-56000000D01*
X134306961Y-55980315D01*
X134261206Y-55927511D01*
X134250000Y-55876000D01*
X134250000Y-54990000D01*
X133859000Y-54990000D01*
X133791961Y-54970315D01*
X133746206Y-54917511D01*
X133735000Y-54866000D01*
X133735000Y-54750000D01*
X131265000Y-54750000D01*
X131265000Y-55057844D01*
X131271401Y-55117372D01*
X131271403Y-55117379D01*
X131323087Y-55255952D01*
X131328071Y-55325644D01*
X131323087Y-55342618D01*
X131270908Y-55482517D01*
X131264501Y-55542116D01*
X131264500Y-55542135D01*
X131264500Y-56657870D01*
X131264501Y-56657876D01*
X131270908Y-56717483D01*
X131321202Y-56852328D01*
X131321206Y-56852335D01*
X131407452Y-56967544D01*
X131407455Y-56967547D01*
X131522664Y-57053793D01*
X131522671Y-57053797D01*
X131657517Y-57104091D01*
X131657516Y-57104091D01*
X131664444Y-57104835D01*
X131717127Y-57110500D01*
X133140500Y-57110499D01*
X133207539Y-57130184D01*
X133253294Y-57182987D01*
X133264500Y-57234499D01*
X133264500Y-58157870D01*
X133264501Y-58157876D01*
X133270908Y-58217483D01*
X133321202Y-58352328D01*
X133321206Y-58352335D01*
X133407452Y-58467544D01*
X133407455Y-58467547D01*
X133522664Y-58553793D01*
X133522671Y-58553797D01*
X133657517Y-58604091D01*
X133657516Y-58604091D01*
X133664444Y-58604835D01*
X133717127Y-58610500D01*
X135065500Y-58610499D01*
X135132539Y-58630184D01*
X135178294Y-58682987D01*
X135189500Y-58734497D01*
X135189500Y-58782868D01*
X135189501Y-58782876D01*
X135195908Y-58842483D01*
X135246202Y-58977328D01*
X135246204Y-58977331D01*
X135302452Y-59052468D01*
X135326870Y-59117933D01*
X135312019Y-59186206D01*
X135262614Y-59235612D01*
X135203186Y-59250780D01*
X129651378Y-59250780D01*
X129584339Y-59231095D01*
X129563697Y-59214461D01*
X129467169Y-59117933D01*
X129333756Y-58984521D01*
X129300272Y-58923199D01*
X129303507Y-58858523D01*
X129317246Y-58816243D01*
X129350500Y-58606287D01*
X129350500Y-58393713D01*
X129317246Y-58183757D01*
X129251557Y-57981588D01*
X129155051Y-57792184D01*
X129155049Y-57792181D01*
X129155048Y-57792179D01*
X129030109Y-57620213D01*
X128879786Y-57469890D01*
X128707820Y-57344951D01*
X128518414Y-57248444D01*
X128518413Y-57248443D01*
X128518412Y-57248443D01*
X128316243Y-57182754D01*
X128316241Y-57182753D01*
X128316240Y-57182753D01*
X128154957Y-57157208D01*
X128106287Y-57149500D01*
X127893713Y-57149500D01*
X127845042Y-57157208D01*
X127683760Y-57182753D01*
X127481585Y-57248444D01*
X127292179Y-57344951D01*
X127120213Y-57469890D01*
X126969890Y-57620213D01*
X126844951Y-57792179D01*
X126748444Y-57981585D01*
X126682753Y-58183760D01*
X126649500Y-58393713D01*
X122850500Y-58393713D01*
X122817246Y-58183757D01*
X122751557Y-57981588D01*
X122655051Y-57792184D01*
X122655049Y-57792181D01*
X122655048Y-57792179D01*
X122530109Y-57620213D01*
X122379786Y-57469890D01*
X122207820Y-57344951D01*
X122018414Y-57248444D01*
X122018413Y-57248443D01*
X122018412Y-57248443D01*
X121816243Y-57182754D01*
X121816241Y-57182753D01*
X121816240Y-57182753D01*
X121654957Y-57157208D01*
X121606287Y-57149500D01*
X121393713Y-57149500D01*
X121345042Y-57157208D01*
X121183760Y-57182753D01*
X120981585Y-57248444D01*
X120792179Y-57344951D01*
X120620213Y-57469890D01*
X120469890Y-57620213D01*
X120344951Y-57792179D01*
X120248444Y-57981585D01*
X120182753Y-58183760D01*
X120149500Y-58393713D01*
X116424500Y-58393713D01*
X116424500Y-53893713D01*
X120149500Y-53893713D01*
X120149500Y-54106287D01*
X120182754Y-54316243D01*
X120218416Y-54426000D01*
X120248444Y-54518414D01*
X120344951Y-54707820D01*
X120469890Y-54879786D01*
X120620213Y-55030109D01*
X120792179Y-55155048D01*
X120792181Y-55155049D01*
X120792184Y-55155051D01*
X120981588Y-55251557D01*
X121183757Y-55317246D01*
X121393713Y-55350500D01*
X121393714Y-55350500D01*
X121606286Y-55350500D01*
X121606287Y-55350500D01*
X121816243Y-55317246D01*
X122018412Y-55251557D01*
X122207816Y-55155051D01*
X122229789Y-55139086D01*
X122379786Y-55030109D01*
X122379788Y-55030106D01*
X122379792Y-55030104D01*
X122530104Y-54879792D01*
X122530106Y-54879788D01*
X122530109Y-54879786D01*
X122655048Y-54707820D01*
X122655047Y-54707820D01*
X122655051Y-54707816D01*
X122751557Y-54518412D01*
X122817246Y-54316243D01*
X122850500Y-54106287D01*
X122850500Y-53893713D01*
X126649500Y-53893713D01*
X126649500Y-54106287D01*
X126682754Y-54316243D01*
X126718416Y-54426000D01*
X126748444Y-54518414D01*
X126844951Y-54707820D01*
X126969890Y-54879786D01*
X127120213Y-55030109D01*
X127292179Y-55155048D01*
X127292181Y-55155049D01*
X127292184Y-55155051D01*
X127481588Y-55251557D01*
X127683757Y-55317246D01*
X127893713Y-55350500D01*
X127893714Y-55350500D01*
X128106286Y-55350500D01*
X128106287Y-55350500D01*
X128316243Y-55317246D01*
X128518412Y-55251557D01*
X128707816Y-55155051D01*
X128729789Y-55139086D01*
X128879786Y-55030109D01*
X128879788Y-55030106D01*
X128879792Y-55030104D01*
X129030104Y-54879792D01*
X129030106Y-54879788D01*
X129030109Y-54879786D01*
X129155048Y-54707820D01*
X129155047Y-54707820D01*
X129155051Y-54707816D01*
X129251557Y-54518412D01*
X129317246Y-54316243D01*
X129350500Y-54106287D01*
X129350500Y-53893713D01*
X129317246Y-53683757D01*
X129276334Y-53557844D01*
X130265000Y-53557844D01*
X130271401Y-53617372D01*
X130271403Y-53617379D01*
X130321645Y-53752086D01*
X130321649Y-53752093D01*
X130407809Y-53867187D01*
X130407812Y-53867190D01*
X130522906Y-53953350D01*
X130522913Y-53953354D01*
X130657620Y-54003596D01*
X130657627Y-54003598D01*
X130717155Y-54009999D01*
X130717172Y-54010000D01*
X131141000Y-54010000D01*
X131208039Y-54029685D01*
X131253794Y-54082489D01*
X131265000Y-54134000D01*
X131265000Y-54250000D01*
X133735000Y-54250000D01*
X133735000Y-53942172D01*
X133734999Y-53942155D01*
X133728598Y-53882627D01*
X133728596Y-53882620D01*
X133678354Y-53747913D01*
X133678350Y-53747906D01*
X133592190Y-53632812D01*
X133592187Y-53632809D01*
X133477093Y-53546649D01*
X133477086Y-53546645D01*
X133342379Y-53496403D01*
X133342372Y-53496401D01*
X133282844Y-53490000D01*
X132859000Y-53490000D01*
X132791961Y-53470315D01*
X132746206Y-53417511D01*
X132735000Y-53366000D01*
X132735000Y-53250000D01*
X130265000Y-53250000D01*
X130265000Y-53557844D01*
X129276334Y-53557844D01*
X129251557Y-53481588D01*
X129155051Y-53292184D01*
X129155049Y-53292181D01*
X129140040Y-53271522D01*
X129140039Y-53271521D01*
X129030109Y-53120214D01*
X129030105Y-53120209D01*
X128879786Y-52969890D01*
X128707820Y-52844951D01*
X128518414Y-52748444D01*
X128518413Y-52748443D01*
X128518412Y-52748443D01*
X128316243Y-52682754D01*
X128316241Y-52682753D01*
X128316240Y-52682753D01*
X128154957Y-52657208D01*
X128106287Y-52649500D01*
X127893713Y-52649500D01*
X127845042Y-52657208D01*
X127683760Y-52682753D01*
X127481585Y-52748444D01*
X127292179Y-52844951D01*
X127120213Y-52969890D01*
X126969890Y-53120213D01*
X126844951Y-53292179D01*
X126748444Y-53481585D01*
X126682753Y-53683760D01*
X126659060Y-53833354D01*
X126649500Y-53893713D01*
X122850500Y-53893713D01*
X122817246Y-53683757D01*
X122751557Y-53481588D01*
X122655051Y-53292184D01*
X122655049Y-53292181D01*
X122655048Y-53292179D01*
X122530109Y-53120213D01*
X122379786Y-52969890D01*
X122207820Y-52844951D01*
X122018414Y-52748444D01*
X122018413Y-52748443D01*
X122018412Y-52748443D01*
X121816243Y-52682754D01*
X121816241Y-52682753D01*
X121816240Y-52682753D01*
X121654957Y-52657208D01*
X121606287Y-52649500D01*
X121393713Y-52649500D01*
X121345042Y-52657208D01*
X121183760Y-52682753D01*
X120981585Y-52748444D01*
X120792179Y-52844951D01*
X120620213Y-52969890D01*
X120469890Y-53120213D01*
X120344951Y-53292179D01*
X120248444Y-53481585D01*
X120182753Y-53683760D01*
X120159060Y-53833354D01*
X120149500Y-53893713D01*
X116424500Y-53893713D01*
X116424500Y-50842135D01*
X130264500Y-50842135D01*
X130264500Y-51957870D01*
X130264501Y-51957876D01*
X130270908Y-52017483D01*
X130323087Y-52157381D01*
X130328071Y-52227073D01*
X130323087Y-52244047D01*
X130271403Y-52382619D01*
X130271401Y-52382627D01*
X130265000Y-52442155D01*
X130265000Y-52750000D01*
X132735000Y-52750000D01*
X132735000Y-52442172D01*
X132734999Y-52442155D01*
X132728598Y-52382627D01*
X132728597Y-52382623D01*
X132676911Y-52244048D01*
X132671927Y-52174356D01*
X132676911Y-52157380D01*
X132678792Y-52152335D01*
X132678796Y-52152331D01*
X132729091Y-52017483D01*
X132735500Y-51957873D01*
X132735499Y-50842128D01*
X132729091Y-50782517D01*
X132678796Y-50647669D01*
X132678795Y-50647668D01*
X132678793Y-50647664D01*
X132592547Y-50532455D01*
X132592544Y-50532452D01*
X132477335Y-50446206D01*
X132477328Y-50446202D01*
X132342482Y-50395908D01*
X132342483Y-50395908D01*
X132282883Y-50389501D01*
X132282881Y-50389500D01*
X132282873Y-50389500D01*
X132282864Y-50389500D01*
X130717129Y-50389500D01*
X130717123Y-50389501D01*
X130657516Y-50395908D01*
X130522671Y-50446202D01*
X130522664Y-50446206D01*
X130407455Y-50532452D01*
X130407452Y-50532455D01*
X130321206Y-50647664D01*
X130321202Y-50647671D01*
X130270908Y-50782517D01*
X130264501Y-50842116D01*
X130264501Y-50842123D01*
X130264500Y-50842135D01*
X116424500Y-50842135D01*
X116424500Y-50023679D01*
X116444185Y-49956640D01*
X116496989Y-49910885D01*
X116566147Y-49900941D01*
X116586813Y-49905746D01*
X116683757Y-49937246D01*
X116893713Y-49970500D01*
X116893714Y-49970500D01*
X117106286Y-49970500D01*
X117106287Y-49970500D01*
X117316243Y-49937246D01*
X117518412Y-49871557D01*
X117707816Y-49775051D01*
X117731460Y-49757873D01*
X117879786Y-49650109D01*
X117879788Y-49650106D01*
X117879792Y-49650104D01*
X118030104Y-49499792D01*
X118030106Y-49499788D01*
X118030109Y-49499786D01*
X118144292Y-49342624D01*
X118155051Y-49327816D01*
X118251557Y-49138412D01*
X118317246Y-48936243D01*
X118350500Y-48726287D01*
X118350500Y-48513713D01*
X118317246Y-48303757D01*
X118251557Y-48101588D01*
X118155051Y-47912184D01*
X118155049Y-47912181D01*
X118155048Y-47912179D01*
X118030109Y-47740213D01*
X117879786Y-47589890D01*
X117707820Y-47464951D01*
X117707115Y-47464591D01*
X117699054Y-47460485D01*
X117648259Y-47412512D01*
X117631463Y-47344692D01*
X117653999Y-47278556D01*
X117699054Y-47239515D01*
X117707816Y-47235051D01*
X117729789Y-47219086D01*
X117879786Y-47110109D01*
X117879788Y-47110106D01*
X117879792Y-47110104D01*
X118030104Y-46959792D01*
X118030106Y-46959788D01*
X118030109Y-46959786D01*
X118155048Y-46787820D01*
X118155047Y-46787820D01*
X118155051Y-46787816D01*
X118251557Y-46598412D01*
X118317246Y-46396243D01*
X118350500Y-46186287D01*
X118350500Y-45973713D01*
X118317246Y-45763757D01*
X118251557Y-45561588D01*
X118155051Y-45372184D01*
X118155049Y-45372181D01*
X118155048Y-45372179D01*
X118030109Y-45200213D01*
X117879786Y-45049890D01*
X117707820Y-44924951D01*
X117707115Y-44924591D01*
X117699054Y-44920485D01*
X117648259Y-44872512D01*
X117631463Y-44804692D01*
X117653999Y-44738556D01*
X117699054Y-44699515D01*
X117707816Y-44695051D01*
X117828486Y-44607380D01*
X117879786Y-44570109D01*
X117879788Y-44570106D01*
X117879792Y-44570104D01*
X118030104Y-44419792D01*
X118030106Y-44419788D01*
X118030109Y-44419786D01*
X118142589Y-44264969D01*
X118155051Y-44247816D01*
X118251557Y-44058412D01*
X118317246Y-43856243D01*
X118350500Y-43646287D01*
X118350500Y-43433713D01*
X118317246Y-43223757D01*
X118251557Y-43021588D01*
X118155051Y-42832184D01*
X118155049Y-42832181D01*
X118155048Y-42832179D01*
X118030109Y-42660213D01*
X117916181Y-42546285D01*
X117882696Y-42484962D01*
X117887680Y-42415270D01*
X117929552Y-42359337D01*
X117960529Y-42342422D01*
X118092086Y-42293354D01*
X118092093Y-42293350D01*
X118207187Y-42207190D01*
X118207190Y-42207187D01*
X118293350Y-42092093D01*
X118293354Y-42092086D01*
X118343596Y-41957379D01*
X118343598Y-41957372D01*
X118349999Y-41897844D01*
X118350000Y-41897827D01*
X118350000Y-41250000D01*
X117433012Y-41250000D01*
X117465925Y-41192993D01*
X117491421Y-41097844D01*
X130600000Y-41097844D01*
X130606401Y-41157372D01*
X130606403Y-41157379D01*
X130656645Y-41292086D01*
X130656649Y-41292093D01*
X130742809Y-41407187D01*
X130742812Y-41407190D01*
X130857906Y-41493350D01*
X130857913Y-41493354D01*
X130992620Y-41543596D01*
X130992627Y-41543598D01*
X131052155Y-41549999D01*
X131052172Y-41550000D01*
X131300000Y-41550000D01*
X131300000Y-40853553D01*
X131166610Y-40720163D01*
X131400000Y-40720163D01*
X131400000Y-40779837D01*
X131422836Y-40834968D01*
X131465032Y-40877164D01*
X131520163Y-40900000D01*
X131579837Y-40900000D01*
X131634968Y-40877164D01*
X131677164Y-40834968D01*
X131700000Y-40779837D01*
X131700000Y-40720163D01*
X131677164Y-40665032D01*
X131634968Y-40622836D01*
X131579837Y-40600000D01*
X131520163Y-40600000D01*
X131465032Y-40622836D01*
X131422836Y-40665032D01*
X131400000Y-40720163D01*
X131166610Y-40720163D01*
X130946447Y-40500000D01*
X130600000Y-40500000D01*
X130600000Y-41097844D01*
X117491421Y-41097844D01*
X117500000Y-41065826D01*
X117500000Y-40934174D01*
X117465925Y-40807007D01*
X117433012Y-40750000D01*
X118350000Y-40750000D01*
X118350000Y-40102172D01*
X118349999Y-40102155D01*
X118343598Y-40042627D01*
X118343596Y-40042620D01*
X118293354Y-39907913D01*
X118293350Y-39907906D01*
X118207190Y-39792812D01*
X118207187Y-39792809D01*
X118092093Y-39706649D01*
X118092086Y-39706645D01*
X117957379Y-39656403D01*
X117957372Y-39656401D01*
X117897844Y-39650000D01*
X117250000Y-39650000D01*
X117250000Y-40566988D01*
X117192993Y-40534075D01*
X117065826Y-40500000D01*
X116934174Y-40500000D01*
X116807007Y-40534075D01*
X116750000Y-40566988D01*
X116750000Y-39650000D01*
X116640018Y-39650000D01*
X116572979Y-39630315D01*
X116527224Y-39577511D01*
X116517280Y-39508353D01*
X116546305Y-39444797D01*
X116552337Y-39438319D01*
X116588501Y-39402155D01*
X130600000Y-39402155D01*
X130600000Y-40000000D01*
X130946447Y-40000000D01*
X130946447Y-39999999D01*
X131014319Y-39932127D01*
X131769500Y-39932127D01*
X131769500Y-39944797D01*
X131769500Y-39944798D01*
X131769500Y-40627870D01*
X131769501Y-40627876D01*
X131775908Y-40687483D01*
X131802866Y-40759760D01*
X131807850Y-40829452D01*
X131801246Y-40850543D01*
X131800000Y-40853551D01*
X131800000Y-41550000D01*
X132047828Y-41550000D01*
X132047844Y-41549999D01*
X132107372Y-41543598D01*
X132107379Y-41543596D01*
X132242086Y-41493354D01*
X132242093Y-41493350D01*
X132357187Y-41407190D01*
X132357190Y-41407187D01*
X132443350Y-41292093D01*
X132443354Y-41292086D01*
X132492184Y-41161167D01*
X132505454Y-41143439D01*
X132514652Y-41123299D01*
X132525982Y-41116016D01*
X132534055Y-41105233D01*
X132554801Y-41097494D01*
X132573429Y-41085523D01*
X132595348Y-41082371D01*
X132599519Y-41080816D01*
X132608364Y-41080500D01*
X132658842Y-41080500D01*
X132658844Y-41080499D01*
X132668842Y-41080499D01*
X132937871Y-41080499D01*
X132937872Y-41080499D01*
X132997483Y-41074091D01*
X133132331Y-41023796D01*
X133247546Y-40937546D01*
X133253052Y-40930191D01*
X133308985Y-40888319D01*
X133352320Y-40880500D01*
X133909575Y-40880500D01*
X133976614Y-40900185D01*
X134022369Y-40952989D01*
X134032313Y-41022147D01*
X134003288Y-41085703D01*
X133952908Y-41120682D01*
X133857671Y-41156202D01*
X133857664Y-41156206D01*
X133742455Y-41242452D01*
X133742452Y-41242455D01*
X133656206Y-41357664D01*
X133656202Y-41357671D01*
X133605908Y-41492517D01*
X133599501Y-41552116D01*
X133599500Y-41552135D01*
X133599500Y-43447870D01*
X133599501Y-43447876D01*
X133605908Y-43507483D01*
X133656202Y-43642328D01*
X133656206Y-43642335D01*
X133742452Y-43757544D01*
X133742455Y-43757547D01*
X133857664Y-43843793D01*
X133857671Y-43843797D01*
X133992517Y-43894091D01*
X133992516Y-43894091D01*
X133999444Y-43894835D01*
X134052127Y-43900500D01*
X135947872Y-43900499D01*
X136007483Y-43894091D01*
X136142331Y-43843796D01*
X136257546Y-43757546D01*
X136343796Y-43642331D01*
X136356634Y-43607910D01*
X136373601Y-43562420D01*
X136415471Y-43506486D01*
X136480936Y-43482068D01*
X136549209Y-43496919D01*
X136577464Y-43518071D01*
X136627636Y-43568243D01*
X136627641Y-43568247D01*
X136772621Y-43673580D01*
X136805978Y-43697815D01*
X136934375Y-43763237D01*
X137002393Y-43797895D01*
X137002396Y-43797896D01*
X137078017Y-43822466D01*
X137212049Y-43866015D01*
X137429778Y-43900500D01*
X137429779Y-43900500D01*
X137650221Y-43900500D01*
X137650222Y-43900500D01*
X137867951Y-43866015D01*
X138077606Y-43797895D01*
X138274022Y-43697815D01*
X138452365Y-43568242D01*
X138608242Y-43412365D01*
X138737815Y-43234022D01*
X138790435Y-43130749D01*
X138838409Y-43079955D01*
X138906229Y-43063160D01*
X138972364Y-43085697D01*
X138988600Y-43099365D01*
X144449755Y-48560520D01*
X144586686Y-48639577D01*
X144739414Y-48680501D01*
X144739417Y-48680501D01*
X144905125Y-48680501D01*
X144905141Y-48680500D01*
X147313270Y-48680500D01*
X147380309Y-48700185D01*
X147417191Y-48737866D01*
X147417349Y-48737752D01*
X147418127Y-48738823D01*
X147419000Y-48739715D01*
X147420210Y-48741690D01*
X147420213Y-48741694D01*
X147537019Y-48902464D01*
X147677536Y-49042981D01*
X147838306Y-49159787D01*
X147883132Y-49182627D01*
X148015367Y-49250005D01*
X148015370Y-49250006D01*
X148109866Y-49280709D01*
X148204364Y-49311413D01*
X148400639Y-49342500D01*
X148400640Y-49342500D01*
X148599360Y-49342500D01*
X148599361Y-49342500D01*
X148795636Y-49311413D01*
X148984632Y-49250005D01*
X149161694Y-49159787D01*
X149322464Y-49042981D01*
X149462981Y-48902464D01*
X149579787Y-48741694D01*
X149670005Y-48564632D01*
X149731413Y-48375636D01*
X149762500Y-48179361D01*
X149762500Y-47980639D01*
X149731413Y-47784364D01*
X149670005Y-47595368D01*
X149670005Y-47595367D01*
X149600937Y-47459815D01*
X149579787Y-47418306D01*
X149462981Y-47257536D01*
X149322464Y-47117019D01*
X149161694Y-47000213D01*
X149004667Y-46920203D01*
X148953872Y-46872229D01*
X148937077Y-46804408D01*
X148959614Y-46738273D01*
X149004669Y-46699234D01*
X149161422Y-46619364D01*
X149198716Y-46592268D01*
X148635942Y-46029494D01*
X148696081Y-46013381D01*
X148811920Y-45946502D01*
X148906502Y-45851920D01*
X148973381Y-45736081D01*
X148989495Y-45675942D01*
X149552268Y-46238715D01*
X149579362Y-46201425D01*
X149669542Y-46024437D01*
X149730924Y-45835523D01*
X149730924Y-45835520D01*
X149762000Y-45639321D01*
X149762000Y-45440678D01*
X149730924Y-45244479D01*
X149730924Y-45244476D01*
X149669544Y-45055568D01*
X149668018Y-45051884D01*
X149660545Y-44982415D01*
X149691815Y-44919933D01*
X149751902Y-44884277D01*
X149821727Y-44886766D01*
X149856887Y-44905157D01*
X149907906Y-44943350D01*
X149907913Y-44943354D01*
X150042620Y-44993596D01*
X150042627Y-44993598D01*
X150102155Y-44999999D01*
X150102172Y-45000000D01*
X150250000Y-45000000D01*
X150750000Y-45000000D01*
X150897828Y-45000000D01*
X150897844Y-44999999D01*
X150957372Y-44993598D01*
X150957379Y-44993596D01*
X151092086Y-44943354D01*
X151092093Y-44943350D01*
X151207187Y-44857190D01*
X151207190Y-44857187D01*
X151293350Y-44742093D01*
X151293354Y-44742086D01*
X151343596Y-44607379D01*
X151343598Y-44607372D01*
X151349999Y-44547844D01*
X151350000Y-44547827D01*
X151350000Y-44425000D01*
X150750000Y-44425000D01*
X150750000Y-45000000D01*
X150250000Y-45000000D01*
X150250000Y-44425000D01*
X149650000Y-44425000D01*
X149650000Y-44547844D01*
X149656401Y-44607372D01*
X149656403Y-44607380D01*
X149681471Y-44674591D01*
X149686455Y-44744283D01*
X149652969Y-44805606D01*
X149591646Y-44839090D01*
X149555562Y-44841542D01*
X149552269Y-44841282D01*
X148989494Y-45404057D01*
X148973381Y-45343919D01*
X148906502Y-45228080D01*
X148811920Y-45133498D01*
X148696081Y-45066619D01*
X148635942Y-45050504D01*
X149198716Y-44487731D01*
X149198715Y-44487730D01*
X149161432Y-44460641D01*
X149004668Y-44380765D01*
X148953872Y-44332790D01*
X148937077Y-44264969D01*
X148959615Y-44198834D01*
X149004667Y-44159796D01*
X149161694Y-44079787D01*
X149322464Y-43962981D01*
X149438319Y-43847126D01*
X149499642Y-43813641D01*
X149569334Y-43818625D01*
X149625267Y-43860497D01*
X149648924Y-43923924D01*
X149650000Y-43925000D01*
X151350000Y-43925000D01*
X151350000Y-43802172D01*
X151349999Y-43802155D01*
X151343598Y-43742627D01*
X151343596Y-43742620D01*
X151293354Y-43607913D01*
X151293352Y-43607910D01*
X151268512Y-43574728D01*
X151244094Y-43509264D01*
X151258945Y-43440990D01*
X151268505Y-43426114D01*
X151293796Y-43392331D01*
X151344091Y-43257483D01*
X151350500Y-43197873D01*
X151350499Y-42452128D01*
X151344091Y-42392517D01*
X151341268Y-42384949D01*
X151293797Y-42257671D01*
X151293793Y-42257664D01*
X151207547Y-42142455D01*
X151207544Y-42142452D01*
X151092335Y-42056206D01*
X151092328Y-42056202D01*
X150957482Y-42005908D01*
X150957483Y-42005908D01*
X150897883Y-41999501D01*
X150897881Y-41999500D01*
X150897873Y-41999500D01*
X150897864Y-41999500D01*
X150102129Y-41999500D01*
X150102123Y-41999501D01*
X150042516Y-42005908D01*
X149907671Y-42056202D01*
X149907664Y-42056206D01*
X149792455Y-42142452D01*
X149713077Y-42248487D01*
X149657143Y-42290357D01*
X149587451Y-42295341D01*
X149526129Y-42261855D01*
X149513493Y-42247060D01*
X149462983Y-42177539D01*
X149462978Y-42177533D01*
X149322466Y-42037021D01*
X149322464Y-42037019D01*
X149251613Y-41985542D01*
X149248273Y-41981211D01*
X149243297Y-41978939D01*
X149227166Y-41953839D01*
X149208949Y-41930214D01*
X149207696Y-41923542D01*
X149205523Y-41920161D01*
X149200500Y-41885226D01*
X149200500Y-41839263D01*
X149220185Y-41772224D01*
X149272989Y-41726469D01*
X149342147Y-41716525D01*
X149367835Y-41723082D01*
X149382619Y-41728596D01*
X149382627Y-41728598D01*
X149442155Y-41734999D01*
X149442172Y-41735000D01*
X149750000Y-41735000D01*
X150250000Y-41735000D01*
X150557828Y-41735000D01*
X150557844Y-41734999D01*
X150617372Y-41728598D01*
X150617379Y-41728596D01*
X150752086Y-41678354D01*
X150752093Y-41678350D01*
X150867187Y-41592190D01*
X150867190Y-41592187D01*
X150953350Y-41477093D01*
X150953354Y-41477086D01*
X151003596Y-41342379D01*
X151003598Y-41342372D01*
X151009999Y-41282844D01*
X151010000Y-41282827D01*
X151010000Y-40750000D01*
X150250000Y-40750000D01*
X150250000Y-41735000D01*
X149750000Y-41735000D01*
X149750000Y-40250000D01*
X150250000Y-40250000D01*
X151010000Y-40250000D01*
X151010000Y-39717172D01*
X151009999Y-39717155D01*
X151003598Y-39657627D01*
X151003596Y-39657620D01*
X150953354Y-39522913D01*
X150953350Y-39522906D01*
X150867190Y-39407812D01*
X150867187Y-39407809D01*
X150752093Y-39321649D01*
X150752086Y-39321645D01*
X150617379Y-39271403D01*
X150617372Y-39271401D01*
X150557844Y-39265000D01*
X150250000Y-39265000D01*
X150250000Y-40250000D01*
X149750000Y-40250000D01*
X149750000Y-39265000D01*
X149442155Y-39265000D01*
X149382627Y-39271401D01*
X149382619Y-39271403D01*
X149244047Y-39323087D01*
X149174355Y-39328071D01*
X149157381Y-39323087D01*
X149017482Y-39270908D01*
X149017483Y-39270908D01*
X148957883Y-39264501D01*
X148957881Y-39264500D01*
X148957873Y-39264500D01*
X148957864Y-39264500D01*
X147842129Y-39264500D01*
X147842123Y-39264501D01*
X147782516Y-39270908D01*
X147647671Y-39321202D01*
X147647664Y-39321206D01*
X147532455Y-39407452D01*
X147532452Y-39407455D01*
X147446206Y-39522664D01*
X147446202Y-39522671D01*
X147395908Y-39657517D01*
X147389501Y-39717116D01*
X147389500Y-39717135D01*
X147389500Y-41282870D01*
X147389501Y-41282876D01*
X147395908Y-41342483D01*
X147446202Y-41477328D01*
X147446206Y-41477335D01*
X147532452Y-41592544D01*
X147532455Y-41592547D01*
X147647664Y-41678793D01*
X147647673Y-41678798D01*
X147718832Y-41705338D01*
X147736558Y-41718607D01*
X147756703Y-41727807D01*
X147763984Y-41739137D01*
X147774766Y-41747208D01*
X147782504Y-41767956D01*
X147794477Y-41786585D01*
X147797628Y-41808500D01*
X147799184Y-41812672D01*
X147799500Y-41821520D01*
X147799500Y-41885226D01*
X147779815Y-41952265D01*
X147748387Y-41985542D01*
X147695750Y-42023785D01*
X147677533Y-42037021D01*
X147537021Y-42177533D01*
X147537019Y-42177536D01*
X147485542Y-42248386D01*
X147430214Y-42291051D01*
X147385226Y-42299500D01*
X147037320Y-42299500D01*
X146970281Y-42279815D01*
X146938052Y-42249809D01*
X146932548Y-42242457D01*
X146932546Y-42242454D01*
X146909619Y-42225291D01*
X146817335Y-42156206D01*
X146817328Y-42156202D01*
X146682482Y-42105908D01*
X146682483Y-42105908D01*
X146622883Y-42099501D01*
X146622881Y-42099500D01*
X146622873Y-42099500D01*
X146622864Y-42099500D01*
X144377129Y-42099500D01*
X144377123Y-42099501D01*
X144317516Y-42105908D01*
X144182671Y-42156202D01*
X144182664Y-42156206D01*
X144067455Y-42242452D01*
X144067452Y-42242455D01*
X143981206Y-42357664D01*
X143981202Y-42357671D01*
X143930908Y-42492517D01*
X143924501Y-42552116D01*
X143924500Y-42552135D01*
X143924500Y-44847870D01*
X143924501Y-44847876D01*
X143930908Y-44907483D01*
X143981202Y-45042328D01*
X143981206Y-45042335D01*
X144067452Y-45157544D01*
X144067455Y-45157547D01*
X144182664Y-45243793D01*
X144182671Y-45243797D01*
X144317517Y-45294091D01*
X144317516Y-45294091D01*
X144324444Y-45294835D01*
X144377127Y-45300500D01*
X146622872Y-45300499D01*
X146682483Y-45294091D01*
X146817331Y-45243796D01*
X146932546Y-45157546D01*
X147018796Y-45042331D01*
X147069091Y-44907483D01*
X147075500Y-44847873D01*
X147075500Y-43824500D01*
X147078050Y-43815814D01*
X147076762Y-43806853D01*
X147087740Y-43782812D01*
X147095185Y-43757461D01*
X147102025Y-43751533D01*
X147105787Y-43743297D01*
X147128021Y-43729007D01*
X147147989Y-43711706D01*
X147158503Y-43709418D01*
X147164565Y-43705523D01*
X147199500Y-43700500D01*
X147385226Y-43700500D01*
X147452265Y-43720185D01*
X147485542Y-43751612D01*
X147537019Y-43822464D01*
X147677536Y-43962981D01*
X147838306Y-44079787D01*
X147995332Y-44159796D01*
X148046127Y-44207769D01*
X148062922Y-44275590D01*
X148040385Y-44341725D01*
X147995332Y-44380764D01*
X147838566Y-44460641D01*
X147801283Y-44487729D01*
X147801282Y-44487730D01*
X148364058Y-45050504D01*
X148303919Y-45066619D01*
X148188080Y-45133498D01*
X148093498Y-45228080D01*
X148026619Y-45343919D01*
X148010504Y-45404057D01*
X147447730Y-44841282D01*
X147447729Y-44841283D01*
X147420643Y-44878564D01*
X147330457Y-45055562D01*
X147269075Y-45244476D01*
X147269075Y-45244479D01*
X147238000Y-45440678D01*
X147238000Y-45639321D01*
X147269075Y-45835520D01*
X147269075Y-45835523D01*
X147330457Y-46024437D01*
X147420641Y-46201432D01*
X147447730Y-46238715D01*
X147447731Y-46238716D01*
X148010504Y-45675942D01*
X148026619Y-45736081D01*
X148093498Y-45851920D01*
X148188080Y-45946502D01*
X148303919Y-46013381D01*
X148364057Y-46029494D01*
X147801283Y-46592268D01*
X147801283Y-46592269D01*
X147838567Y-46619358D01*
X147995331Y-46699234D01*
X148046127Y-46747209D01*
X148062922Y-46815030D01*
X148040384Y-46881165D01*
X147995331Y-46920204D01*
X147838305Y-47000213D01*
X147677533Y-47117021D01*
X147537021Y-47257533D01*
X147420210Y-47418309D01*
X147419000Y-47420285D01*
X147418343Y-47420878D01*
X147417349Y-47422248D01*
X147417061Y-47422039D01*
X147367190Y-47467163D01*
X147313270Y-47479500D01*
X145118569Y-47479500D01*
X145051530Y-47459815D01*
X145030888Y-47443181D01*
X143111194Y-45523487D01*
X141747502Y-44159795D01*
X138035550Y-40447844D01*
X143925000Y-40447844D01*
X143931401Y-40507372D01*
X143931403Y-40507379D01*
X143981645Y-40642086D01*
X143981649Y-40642093D01*
X144067809Y-40757187D01*
X144067812Y-40757190D01*
X144182906Y-40843350D01*
X144182913Y-40843354D01*
X144317620Y-40893596D01*
X144317627Y-40893598D01*
X144377155Y-40899999D01*
X144377172Y-40900000D01*
X145250000Y-40900000D01*
X145750000Y-40900000D01*
X146622828Y-40900000D01*
X146622844Y-40899999D01*
X146682372Y-40893598D01*
X146682379Y-40893596D01*
X146817086Y-40843354D01*
X146817093Y-40843350D01*
X146932187Y-40757190D01*
X146932190Y-40757187D01*
X147018350Y-40642093D01*
X147018354Y-40642086D01*
X147068596Y-40507379D01*
X147068598Y-40507372D01*
X147074999Y-40447844D01*
X147075000Y-40447827D01*
X147075000Y-39550000D01*
X145750000Y-39550000D01*
X145750000Y-40900000D01*
X145250000Y-40900000D01*
X145250000Y-39550000D01*
X143925000Y-39550000D01*
X143925000Y-40447844D01*
X138035550Y-40447844D01*
X137498992Y-39911286D01*
X137498991Y-39911284D01*
X137387187Y-39799480D01*
X137387184Y-39799478D01*
X136866846Y-39279140D01*
X136833361Y-39217817D01*
X136832910Y-39167271D01*
X136850500Y-39078842D01*
X136850500Y-38921158D01*
X136850500Y-38921155D01*
X136850499Y-38921153D01*
X136829963Y-38817913D01*
X136819737Y-38766503D01*
X136793356Y-38702812D01*
X136759397Y-38620827D01*
X136759390Y-38620814D01*
X136671789Y-38489711D01*
X136671786Y-38489707D01*
X136560292Y-38378213D01*
X136560288Y-38378210D01*
X136429185Y-38290609D01*
X136429172Y-38290602D01*
X136283501Y-38230264D01*
X136283489Y-38230261D01*
X136128845Y-38199500D01*
X136128842Y-38199500D01*
X135971158Y-38199500D01*
X135971155Y-38199500D01*
X135816510Y-38230261D01*
X135816498Y-38230264D01*
X135670827Y-38290602D01*
X135670814Y-38290609D01*
X135539711Y-38378210D01*
X135539707Y-38378213D01*
X135428213Y-38489707D01*
X135428210Y-38489711D01*
X135340609Y-38620814D01*
X135340602Y-38620827D01*
X135280264Y-38766498D01*
X135280261Y-38766510D01*
X135249500Y-38921153D01*
X135249500Y-39078846D01*
X135280261Y-39233489D01*
X135280264Y-39233501D01*
X135340602Y-39379172D01*
X135340609Y-39379185D01*
X135412388Y-39486609D01*
X135433266Y-39553287D01*
X135414782Y-39620667D01*
X135362803Y-39667357D01*
X135309286Y-39679500D01*
X133510862Y-39679500D01*
X133476195Y-39674555D01*
X133237515Y-39605055D01*
X133222379Y-39595376D01*
X133205143Y-39590315D01*
X133197871Y-39585267D01*
X133132331Y-39536204D01*
X133132328Y-39536202D01*
X132997482Y-39485908D01*
X132997483Y-39485908D01*
X132937883Y-39479501D01*
X132937881Y-39479500D01*
X132937873Y-39479500D01*
X132658843Y-39479500D01*
X132658842Y-39479500D01*
X132501158Y-39479500D01*
X132501154Y-39479500D01*
X132454000Y-39479500D01*
X132386961Y-39459815D01*
X132341206Y-39407011D01*
X132330000Y-39355500D01*
X132330000Y-39110000D01*
X132830000Y-39110000D01*
X133390000Y-39110000D01*
X133390000Y-39012172D01*
X133389999Y-39012155D01*
X133383598Y-38952627D01*
X133383596Y-38952620D01*
X133333354Y-38817913D01*
X133333350Y-38817906D01*
X133247190Y-38702812D01*
X133247187Y-38702809D01*
X133132093Y-38616649D01*
X133132086Y-38616645D01*
X132997379Y-38566403D01*
X132997372Y-38566401D01*
X132937844Y-38560000D01*
X132830000Y-38560000D01*
X132830000Y-39110000D01*
X132330000Y-39110000D01*
X132330000Y-38560000D01*
X132222155Y-38560000D01*
X132162627Y-38566401D01*
X132162620Y-38566403D01*
X132027913Y-38616645D01*
X132027906Y-38616649D01*
X131912812Y-38702809D01*
X131912809Y-38702812D01*
X131826649Y-38817906D01*
X131826645Y-38817913D01*
X131800000Y-38889354D01*
X131800000Y-39646445D01*
X131802123Y-39651571D01*
X131802157Y-39651599D01*
X131802238Y-39651850D01*
X131809439Y-39669233D01*
X131808080Y-39669795D01*
X131809552Y-39674317D01*
X131821002Y-39695286D01*
X131820169Y-39706932D01*
X131823784Y-39718037D01*
X131819779Y-39753104D01*
X131818195Y-39759140D01*
X131775909Y-39872517D01*
X131769500Y-39932127D01*
X131014319Y-39932127D01*
X131105322Y-39841125D01*
X131226283Y-39720163D01*
X131400000Y-39720163D01*
X131400000Y-39779837D01*
X131422836Y-39834968D01*
X131465032Y-39877164D01*
X131520163Y-39900000D01*
X131579837Y-39900000D01*
X131634968Y-39877164D01*
X131677164Y-39834968D01*
X131700000Y-39779837D01*
X131700000Y-39720163D01*
X131677164Y-39665032D01*
X131634968Y-39622836D01*
X131579837Y-39600000D01*
X131520163Y-39600000D01*
X131465032Y-39622836D01*
X131422836Y-39665032D01*
X131400000Y-39720163D01*
X131226283Y-39720163D01*
X131299999Y-39646446D01*
X131300000Y-39646445D01*
X131300000Y-38950000D01*
X131052155Y-38950000D01*
X130992627Y-38956401D01*
X130992620Y-38956403D01*
X130857913Y-39006645D01*
X130857906Y-39006649D01*
X130742812Y-39092809D01*
X130742809Y-39092812D01*
X130656649Y-39207906D01*
X130656645Y-39207913D01*
X130606403Y-39342620D01*
X130606401Y-39342627D01*
X130600000Y-39402155D01*
X116588501Y-39402155D01*
X119438319Y-36552337D01*
X119499642Y-36518852D01*
X119569334Y-36523836D01*
X119625267Y-36565708D01*
X119649684Y-36631172D01*
X119650000Y-36640018D01*
X119650000Y-36750000D01*
X120566988Y-36750000D01*
X120534075Y-36807007D01*
X120500000Y-36934174D01*
X120500000Y-37065826D01*
X120534075Y-37192993D01*
X120566988Y-37250000D01*
X119650000Y-37250000D01*
X119650000Y-37897844D01*
X119656401Y-37957372D01*
X119656403Y-37957379D01*
X119706645Y-38092086D01*
X119706649Y-38092093D01*
X119792809Y-38207187D01*
X119792812Y-38207190D01*
X119907906Y-38293350D01*
X119907913Y-38293354D01*
X120042620Y-38343596D01*
X120042627Y-38343598D01*
X120102155Y-38349999D01*
X120102172Y-38350000D01*
X120750000Y-38350000D01*
X120750000Y-37433012D01*
X120807007Y-37465925D01*
X120934174Y-37500000D01*
X121065826Y-37500000D01*
X121192993Y-37465925D01*
X121250000Y-37433012D01*
X121250000Y-38350000D01*
X121897828Y-38350000D01*
X121897844Y-38349999D01*
X121957372Y-38343598D01*
X121957379Y-38343596D01*
X122092086Y-38293354D01*
X122092093Y-38293350D01*
X122207187Y-38207190D01*
X122207190Y-38207187D01*
X122293350Y-38092093D01*
X122293354Y-38092086D01*
X122342422Y-37960529D01*
X122384293Y-37904595D01*
X122449757Y-37880178D01*
X122518030Y-37895030D01*
X122546285Y-37916181D01*
X122660213Y-38030109D01*
X122832179Y-38155048D01*
X122832181Y-38155049D01*
X122832184Y-38155051D01*
X123021588Y-38251557D01*
X123223757Y-38317246D01*
X123433713Y-38350500D01*
X123433714Y-38350500D01*
X123646286Y-38350500D01*
X123646287Y-38350500D01*
X123856243Y-38317246D01*
X124058412Y-38251557D01*
X124247816Y-38155051D01*
X124334478Y-38092088D01*
X124419786Y-38030109D01*
X124419788Y-38030106D01*
X124419792Y-38030104D01*
X124570104Y-37879792D01*
X124570106Y-37879788D01*
X124570109Y-37879786D01*
X124695048Y-37707820D01*
X124695047Y-37707820D01*
X124695051Y-37707816D01*
X124699514Y-37699054D01*
X124747488Y-37648259D01*
X124815308Y-37631463D01*
X124881444Y-37653999D01*
X124920486Y-37699056D01*
X124924951Y-37707820D01*
X125049890Y-37879786D01*
X125200213Y-38030109D01*
X125372179Y-38155048D01*
X125372181Y-38155049D01*
X125372184Y-38155051D01*
X125561588Y-38251557D01*
X125763757Y-38317246D01*
X125973713Y-38350500D01*
X125973714Y-38350500D01*
X126186286Y-38350500D01*
X126186287Y-38350500D01*
X126396243Y-38317246D01*
X126598412Y-38251557D01*
X126787816Y-38155051D01*
X126874478Y-38092088D01*
X126959786Y-38030109D01*
X126959788Y-38030106D01*
X126959792Y-38030104D01*
X127110104Y-37879792D01*
X127110106Y-37879788D01*
X127110109Y-37879786D01*
X127235048Y-37707820D01*
X127235047Y-37707820D01*
X127235051Y-37707816D01*
X127239514Y-37699054D01*
X127287488Y-37648259D01*
X127355308Y-37631463D01*
X127421444Y-37653999D01*
X127460486Y-37699056D01*
X127464951Y-37707820D01*
X127589890Y-37879786D01*
X127740213Y-38030109D01*
X127912179Y-38155048D01*
X127912181Y-38155049D01*
X127912184Y-38155051D01*
X128101588Y-38251557D01*
X128303757Y-38317246D01*
X128513713Y-38350500D01*
X128513714Y-38350500D01*
X128726286Y-38350500D01*
X128726287Y-38350500D01*
X128936243Y-38317246D01*
X129138412Y-38251557D01*
X129327816Y-38155051D01*
X129414478Y-38092088D01*
X129499786Y-38030109D01*
X129499788Y-38030106D01*
X129499792Y-38030104D01*
X129650104Y-37879792D01*
X129650106Y-37879788D01*
X129650109Y-37879786D01*
X129775048Y-37707820D01*
X129775047Y-37707820D01*
X129775051Y-37707816D01*
X129871557Y-37518412D01*
X129937246Y-37316243D01*
X129970500Y-37106287D01*
X129970500Y-36893713D01*
X129937246Y-36683757D01*
X129905747Y-36586816D01*
X129903753Y-36516977D01*
X129939833Y-36457144D01*
X130002534Y-36426316D01*
X130023679Y-36424500D01*
X140096321Y-36424500D01*
X140123311Y-36432425D01*
G37*
%TD.AperFunction*%
%TD*%
M02*
