%TF.GenerationSoftware,KiCad,Pcbnew,9.0.6*%
%TF.CreationDate,2025-12-07T19:24:30-08:00*%
%TF.ProjectId,redstone_repeater,72656473-746f-46e6-955f-726570656174,rev?*%
%TF.SameCoordinates,Original*%
%TF.FileFunction,Legend,Bot*%
%TF.FilePolarity,Positive*%
%FSLAX46Y46*%
G04 Gerber Fmt 4.6, Leading zero omitted, Abs format (unit mm)*
G04 Created by KiCad (PCBNEW 9.0.6) date 2025-12-07 19:24:30*
%MOMM*%
%LPD*%
G01*
G04 APERTURE LIST*
%ADD10C,0.150000*%
%ADD11C,0.508000*%
%ADD12C,0.200000*%
G04 APERTURE END LIST*
D10*
X174454819Y-58333333D02*
X173978628Y-58000000D01*
X174454819Y-57761905D02*
X173454819Y-57761905D01*
X173454819Y-57761905D02*
X173454819Y-58142857D01*
X173454819Y-58142857D02*
X173502438Y-58238095D01*
X173502438Y-58238095D02*
X173550057Y-58285714D01*
X173550057Y-58285714D02*
X173645295Y-58333333D01*
X173645295Y-58333333D02*
X173788152Y-58333333D01*
X173788152Y-58333333D02*
X173883390Y-58285714D01*
X173883390Y-58285714D02*
X173931009Y-58238095D01*
X173931009Y-58238095D02*
X173978628Y-58142857D01*
X173978628Y-58142857D02*
X173978628Y-57761905D01*
X173454819Y-59190476D02*
X173454819Y-59000000D01*
X173454819Y-59000000D02*
X173502438Y-58904762D01*
X173502438Y-58904762D02*
X173550057Y-58857143D01*
X173550057Y-58857143D02*
X173692914Y-58761905D01*
X173692914Y-58761905D02*
X173883390Y-58714286D01*
X173883390Y-58714286D02*
X174264342Y-58714286D01*
X174264342Y-58714286D02*
X174359580Y-58761905D01*
X174359580Y-58761905D02*
X174407200Y-58809524D01*
X174407200Y-58809524D02*
X174454819Y-58904762D01*
X174454819Y-58904762D02*
X174454819Y-59095238D01*
X174454819Y-59095238D02*
X174407200Y-59190476D01*
X174407200Y-59190476D02*
X174359580Y-59238095D01*
X174359580Y-59238095D02*
X174264342Y-59285714D01*
X174264342Y-59285714D02*
X174026247Y-59285714D01*
X174026247Y-59285714D02*
X173931009Y-59238095D01*
X173931009Y-59238095D02*
X173883390Y-59190476D01*
X173883390Y-59190476D02*
X173835771Y-59095238D01*
X173835771Y-59095238D02*
X173835771Y-58904762D01*
X173835771Y-58904762D02*
X173883390Y-58809524D01*
X173883390Y-58809524D02*
X173931009Y-58761905D01*
X173931009Y-58761905D02*
X174026247Y-58714286D01*
X173566666Y-51359580D02*
X173614285Y-51407200D01*
X173614285Y-51407200D02*
X173757142Y-51454819D01*
X173757142Y-51454819D02*
X173852380Y-51454819D01*
X173852380Y-51454819D02*
X173995237Y-51407200D01*
X173995237Y-51407200D02*
X174090475Y-51311961D01*
X174090475Y-51311961D02*
X174138094Y-51216723D01*
X174138094Y-51216723D02*
X174185713Y-51026247D01*
X174185713Y-51026247D02*
X174185713Y-50883390D01*
X174185713Y-50883390D02*
X174138094Y-50692914D01*
X174138094Y-50692914D02*
X174090475Y-50597676D01*
X174090475Y-50597676D02*
X173995237Y-50502438D01*
X173995237Y-50502438D02*
X173852380Y-50454819D01*
X173852380Y-50454819D02*
X173757142Y-50454819D01*
X173757142Y-50454819D02*
X173614285Y-50502438D01*
X173614285Y-50502438D02*
X173566666Y-50550057D01*
X173185713Y-50550057D02*
X173138094Y-50502438D01*
X173138094Y-50502438D02*
X173042856Y-50454819D01*
X173042856Y-50454819D02*
X172804761Y-50454819D01*
X172804761Y-50454819D02*
X172709523Y-50502438D01*
X172709523Y-50502438D02*
X172661904Y-50550057D01*
X172661904Y-50550057D02*
X172614285Y-50645295D01*
X172614285Y-50645295D02*
X172614285Y-50740533D01*
X172614285Y-50740533D02*
X172661904Y-50883390D01*
X172661904Y-50883390D02*
X173233332Y-51454819D01*
X173233332Y-51454819D02*
X172614285Y-51454819D01*
X174866666Y-42859580D02*
X174914285Y-42907200D01*
X174914285Y-42907200D02*
X175057142Y-42954819D01*
X175057142Y-42954819D02*
X175152380Y-42954819D01*
X175152380Y-42954819D02*
X175295237Y-42907200D01*
X175295237Y-42907200D02*
X175390475Y-42811961D01*
X175390475Y-42811961D02*
X175438094Y-42716723D01*
X175438094Y-42716723D02*
X175485713Y-42526247D01*
X175485713Y-42526247D02*
X175485713Y-42383390D01*
X175485713Y-42383390D02*
X175438094Y-42192914D01*
X175438094Y-42192914D02*
X175390475Y-42097676D01*
X175390475Y-42097676D02*
X175295237Y-42002438D01*
X175295237Y-42002438D02*
X175152380Y-41954819D01*
X175152380Y-41954819D02*
X175057142Y-41954819D01*
X175057142Y-41954819D02*
X174914285Y-42002438D01*
X174914285Y-42002438D02*
X174866666Y-42050057D01*
X174485713Y-42050057D02*
X174438094Y-42002438D01*
X174438094Y-42002438D02*
X174342856Y-41954819D01*
X174342856Y-41954819D02*
X174104761Y-41954819D01*
X174104761Y-41954819D02*
X174009523Y-42002438D01*
X174009523Y-42002438D02*
X173961904Y-42050057D01*
X173961904Y-42050057D02*
X173914285Y-42145295D01*
X173914285Y-42145295D02*
X173914285Y-42240533D01*
X173914285Y-42240533D02*
X173961904Y-42383390D01*
X173961904Y-42383390D02*
X174533332Y-42954819D01*
X174533332Y-42954819D02*
X173914285Y-42954819D01*
X195859580Y-57247196D02*
X195907200Y-57199577D01*
X195907200Y-57199577D02*
X195954819Y-57056720D01*
X195954819Y-57056720D02*
X195954819Y-56961482D01*
X195954819Y-56961482D02*
X195907200Y-56818625D01*
X195907200Y-56818625D02*
X195811961Y-56723387D01*
X195811961Y-56723387D02*
X195716723Y-56675768D01*
X195716723Y-56675768D02*
X195526247Y-56628149D01*
X195526247Y-56628149D02*
X195383390Y-56628149D01*
X195383390Y-56628149D02*
X195192914Y-56675768D01*
X195192914Y-56675768D02*
X195097676Y-56723387D01*
X195097676Y-56723387D02*
X195002438Y-56818625D01*
X195002438Y-56818625D02*
X194954819Y-56961482D01*
X194954819Y-56961482D02*
X194954819Y-57056720D01*
X194954819Y-57056720D02*
X195002438Y-57199577D01*
X195002438Y-57199577D02*
X195050057Y-57247196D01*
X195954819Y-58199577D02*
X195954819Y-57628149D01*
X195954819Y-57913863D02*
X194954819Y-57913863D01*
X194954819Y-57913863D02*
X195097676Y-57818625D01*
X195097676Y-57818625D02*
X195192914Y-57723387D01*
X195192914Y-57723387D02*
X195240533Y-57628149D01*
X179059580Y-48333333D02*
X179107200Y-48285714D01*
X179107200Y-48285714D02*
X179154819Y-48142857D01*
X179154819Y-48142857D02*
X179154819Y-48047619D01*
X179154819Y-48047619D02*
X179107200Y-47904762D01*
X179107200Y-47904762D02*
X179011961Y-47809524D01*
X179011961Y-47809524D02*
X178916723Y-47761905D01*
X178916723Y-47761905D02*
X178726247Y-47714286D01*
X178726247Y-47714286D02*
X178583390Y-47714286D01*
X178583390Y-47714286D02*
X178392914Y-47761905D01*
X178392914Y-47761905D02*
X178297676Y-47809524D01*
X178297676Y-47809524D02*
X178202438Y-47904762D01*
X178202438Y-47904762D02*
X178154819Y-48047619D01*
X178154819Y-48047619D02*
X178154819Y-48142857D01*
X178154819Y-48142857D02*
X178202438Y-48285714D01*
X178202438Y-48285714D02*
X178250057Y-48333333D01*
X178250057Y-48714286D02*
X178202438Y-48761905D01*
X178202438Y-48761905D02*
X178154819Y-48857143D01*
X178154819Y-48857143D02*
X178154819Y-49095238D01*
X178154819Y-49095238D02*
X178202438Y-49190476D01*
X178202438Y-49190476D02*
X178250057Y-49238095D01*
X178250057Y-49238095D02*
X178345295Y-49285714D01*
X178345295Y-49285714D02*
X178440533Y-49285714D01*
X178440533Y-49285714D02*
X178583390Y-49238095D01*
X178583390Y-49238095D02*
X179154819Y-48666667D01*
X179154819Y-48666667D02*
X179154819Y-49285714D01*
X169166666Y-45359580D02*
X169214285Y-45407200D01*
X169214285Y-45407200D02*
X169357142Y-45454819D01*
X169357142Y-45454819D02*
X169452380Y-45454819D01*
X169452380Y-45454819D02*
X169595237Y-45407200D01*
X169595237Y-45407200D02*
X169690475Y-45311961D01*
X169690475Y-45311961D02*
X169738094Y-45216723D01*
X169738094Y-45216723D02*
X169785713Y-45026247D01*
X169785713Y-45026247D02*
X169785713Y-44883390D01*
X169785713Y-44883390D02*
X169738094Y-44692914D01*
X169738094Y-44692914D02*
X169690475Y-44597676D01*
X169690475Y-44597676D02*
X169595237Y-44502438D01*
X169595237Y-44502438D02*
X169452380Y-44454819D01*
X169452380Y-44454819D02*
X169357142Y-44454819D01*
X169357142Y-44454819D02*
X169214285Y-44502438D01*
X169214285Y-44502438D02*
X169166666Y-44550057D01*
X168690475Y-45454819D02*
X168499999Y-45454819D01*
X168499999Y-45454819D02*
X168404761Y-45407200D01*
X168404761Y-45407200D02*
X168357142Y-45359580D01*
X168357142Y-45359580D02*
X168261904Y-45216723D01*
X168261904Y-45216723D02*
X168214285Y-45026247D01*
X168214285Y-45026247D02*
X168214285Y-44645295D01*
X168214285Y-44645295D02*
X168261904Y-44550057D01*
X168261904Y-44550057D02*
X168309523Y-44502438D01*
X168309523Y-44502438D02*
X168404761Y-44454819D01*
X168404761Y-44454819D02*
X168595237Y-44454819D01*
X168595237Y-44454819D02*
X168690475Y-44502438D01*
X168690475Y-44502438D02*
X168738094Y-44550057D01*
X168738094Y-44550057D02*
X168785713Y-44645295D01*
X168785713Y-44645295D02*
X168785713Y-44883390D01*
X168785713Y-44883390D02*
X168738094Y-44978628D01*
X168738094Y-44978628D02*
X168690475Y-45026247D01*
X168690475Y-45026247D02*
X168595237Y-45073866D01*
X168595237Y-45073866D02*
X168404761Y-45073866D01*
X168404761Y-45073866D02*
X168309523Y-45026247D01*
X168309523Y-45026247D02*
X168261904Y-44978628D01*
X168261904Y-44978628D02*
X168214285Y-44883390D01*
X167454819Y-58333333D02*
X166978628Y-58000000D01*
X167454819Y-57761905D02*
X166454819Y-57761905D01*
X166454819Y-57761905D02*
X166454819Y-58142857D01*
X166454819Y-58142857D02*
X166502438Y-58238095D01*
X166502438Y-58238095D02*
X166550057Y-58285714D01*
X166550057Y-58285714D02*
X166645295Y-58333333D01*
X166645295Y-58333333D02*
X166788152Y-58333333D01*
X166788152Y-58333333D02*
X166883390Y-58285714D01*
X166883390Y-58285714D02*
X166931009Y-58238095D01*
X166931009Y-58238095D02*
X166978628Y-58142857D01*
X166978628Y-58142857D02*
X166978628Y-57761905D01*
X167454819Y-59285714D02*
X167454819Y-58714286D01*
X167454819Y-59000000D02*
X166454819Y-59000000D01*
X166454819Y-59000000D02*
X166597676Y-58904762D01*
X166597676Y-58904762D02*
X166692914Y-58809524D01*
X166692914Y-58809524D02*
X166740533Y-58714286D01*
X195359580Y-66333333D02*
X195407200Y-66285714D01*
X195407200Y-66285714D02*
X195454819Y-66142857D01*
X195454819Y-66142857D02*
X195454819Y-66047619D01*
X195454819Y-66047619D02*
X195407200Y-65904762D01*
X195407200Y-65904762D02*
X195311961Y-65809524D01*
X195311961Y-65809524D02*
X195216723Y-65761905D01*
X195216723Y-65761905D02*
X195026247Y-65714286D01*
X195026247Y-65714286D02*
X194883390Y-65714286D01*
X194883390Y-65714286D02*
X194692914Y-65761905D01*
X194692914Y-65761905D02*
X194597676Y-65809524D01*
X194597676Y-65809524D02*
X194502438Y-65904762D01*
X194502438Y-65904762D02*
X194454819Y-66047619D01*
X194454819Y-66047619D02*
X194454819Y-66142857D01*
X194454819Y-66142857D02*
X194502438Y-66285714D01*
X194502438Y-66285714D02*
X194550057Y-66333333D01*
X194454819Y-66666667D02*
X194454819Y-67285714D01*
X194454819Y-67285714D02*
X194835771Y-66952381D01*
X194835771Y-66952381D02*
X194835771Y-67095238D01*
X194835771Y-67095238D02*
X194883390Y-67190476D01*
X194883390Y-67190476D02*
X194931009Y-67238095D01*
X194931009Y-67238095D02*
X195026247Y-67285714D01*
X195026247Y-67285714D02*
X195264342Y-67285714D01*
X195264342Y-67285714D02*
X195359580Y-67238095D01*
X195359580Y-67238095D02*
X195407200Y-67190476D01*
X195407200Y-67190476D02*
X195454819Y-67095238D01*
X195454819Y-67095238D02*
X195454819Y-66809524D01*
X195454819Y-66809524D02*
X195407200Y-66714286D01*
X195407200Y-66714286D02*
X195359580Y-66666667D01*
X177454819Y-65833333D02*
X176978628Y-65500000D01*
X177454819Y-65261905D02*
X176454819Y-65261905D01*
X176454819Y-65261905D02*
X176454819Y-65642857D01*
X176454819Y-65642857D02*
X176502438Y-65738095D01*
X176502438Y-65738095D02*
X176550057Y-65785714D01*
X176550057Y-65785714D02*
X176645295Y-65833333D01*
X176645295Y-65833333D02*
X176788152Y-65833333D01*
X176788152Y-65833333D02*
X176883390Y-65785714D01*
X176883390Y-65785714D02*
X176931009Y-65738095D01*
X176931009Y-65738095D02*
X176978628Y-65642857D01*
X176978628Y-65642857D02*
X176978628Y-65261905D01*
X176788152Y-66690476D02*
X177454819Y-66690476D01*
X176407200Y-66452381D02*
X177121485Y-66214286D01*
X177121485Y-66214286D02*
X177121485Y-66833333D01*
X190754819Y-64285714D02*
X189754819Y-64285714D01*
X189754819Y-64285714D02*
X189754819Y-64523809D01*
X189754819Y-64523809D02*
X189802438Y-64666666D01*
X189802438Y-64666666D02*
X189897676Y-64761904D01*
X189897676Y-64761904D02*
X189992914Y-64809523D01*
X189992914Y-64809523D02*
X190183390Y-64857142D01*
X190183390Y-64857142D02*
X190326247Y-64857142D01*
X190326247Y-64857142D02*
X190516723Y-64809523D01*
X190516723Y-64809523D02*
X190611961Y-64761904D01*
X190611961Y-64761904D02*
X190707200Y-64666666D01*
X190707200Y-64666666D02*
X190754819Y-64523809D01*
X190754819Y-64523809D02*
X190754819Y-64285714D01*
X190754819Y-65809523D02*
X190754819Y-65238095D01*
X190754819Y-65523809D02*
X189754819Y-65523809D01*
X189754819Y-65523809D02*
X189897676Y-65428571D01*
X189897676Y-65428571D02*
X189992914Y-65333333D01*
X189992914Y-65333333D02*
X190040533Y-65238095D01*
X190754819Y-66285714D02*
X190754819Y-66476190D01*
X190754819Y-66476190D02*
X190707200Y-66571428D01*
X190707200Y-66571428D02*
X190659580Y-66619047D01*
X190659580Y-66619047D02*
X190516723Y-66714285D01*
X190516723Y-66714285D02*
X190326247Y-66761904D01*
X190326247Y-66761904D02*
X189945295Y-66761904D01*
X189945295Y-66761904D02*
X189850057Y-66714285D01*
X189850057Y-66714285D02*
X189802438Y-66666666D01*
X189802438Y-66666666D02*
X189754819Y-66571428D01*
X189754819Y-66571428D02*
X189754819Y-66380952D01*
X189754819Y-66380952D02*
X189802438Y-66285714D01*
X189802438Y-66285714D02*
X189850057Y-66238095D01*
X189850057Y-66238095D02*
X189945295Y-66190476D01*
X189945295Y-66190476D02*
X190183390Y-66190476D01*
X190183390Y-66190476D02*
X190278628Y-66238095D01*
X190278628Y-66238095D02*
X190326247Y-66285714D01*
X190326247Y-66285714D02*
X190373866Y-66380952D01*
X190373866Y-66380952D02*
X190373866Y-66571428D01*
X190373866Y-66571428D02*
X190326247Y-66666666D01*
X190326247Y-66666666D02*
X190278628Y-66714285D01*
X190278628Y-66714285D02*
X190183390Y-66761904D01*
X176666666Y-50359580D02*
X176714285Y-50407200D01*
X176714285Y-50407200D02*
X176857142Y-50454819D01*
X176857142Y-50454819D02*
X176952380Y-50454819D01*
X176952380Y-50454819D02*
X177095237Y-50407200D01*
X177095237Y-50407200D02*
X177190475Y-50311961D01*
X177190475Y-50311961D02*
X177238094Y-50216723D01*
X177238094Y-50216723D02*
X177285713Y-50026247D01*
X177285713Y-50026247D02*
X177285713Y-49883390D01*
X177285713Y-49883390D02*
X177238094Y-49692914D01*
X177238094Y-49692914D02*
X177190475Y-49597676D01*
X177190475Y-49597676D02*
X177095237Y-49502438D01*
X177095237Y-49502438D02*
X176952380Y-49454819D01*
X176952380Y-49454819D02*
X176857142Y-49454819D01*
X176857142Y-49454819D02*
X176714285Y-49502438D01*
X176714285Y-49502438D02*
X176666666Y-49550057D01*
X176285713Y-49550057D02*
X176238094Y-49502438D01*
X176238094Y-49502438D02*
X176142856Y-49454819D01*
X176142856Y-49454819D02*
X175904761Y-49454819D01*
X175904761Y-49454819D02*
X175809523Y-49502438D01*
X175809523Y-49502438D02*
X175761904Y-49550057D01*
X175761904Y-49550057D02*
X175714285Y-49645295D01*
X175714285Y-49645295D02*
X175714285Y-49740533D01*
X175714285Y-49740533D02*
X175761904Y-49883390D01*
X175761904Y-49883390D02*
X176333332Y-50454819D01*
X176333332Y-50454819D02*
X175714285Y-50454819D01*
X172559580Y-41857142D02*
X172607200Y-41809523D01*
X172607200Y-41809523D02*
X172654819Y-41666666D01*
X172654819Y-41666666D02*
X172654819Y-41571428D01*
X172654819Y-41571428D02*
X172607200Y-41428571D01*
X172607200Y-41428571D02*
X172511961Y-41333333D01*
X172511961Y-41333333D02*
X172416723Y-41285714D01*
X172416723Y-41285714D02*
X172226247Y-41238095D01*
X172226247Y-41238095D02*
X172083390Y-41238095D01*
X172083390Y-41238095D02*
X171892914Y-41285714D01*
X171892914Y-41285714D02*
X171797676Y-41333333D01*
X171797676Y-41333333D02*
X171702438Y-41428571D01*
X171702438Y-41428571D02*
X171654819Y-41571428D01*
X171654819Y-41571428D02*
X171654819Y-41666666D01*
X171654819Y-41666666D02*
X171702438Y-41809523D01*
X171702438Y-41809523D02*
X171750057Y-41857142D01*
X172654819Y-42809523D02*
X172654819Y-42238095D01*
X172654819Y-42523809D02*
X171654819Y-42523809D01*
X171654819Y-42523809D02*
X171797676Y-42428571D01*
X171797676Y-42428571D02*
X171892914Y-42333333D01*
X171892914Y-42333333D02*
X171940533Y-42238095D01*
X171654819Y-43428571D02*
X171654819Y-43523809D01*
X171654819Y-43523809D02*
X171702438Y-43619047D01*
X171702438Y-43619047D02*
X171750057Y-43666666D01*
X171750057Y-43666666D02*
X171845295Y-43714285D01*
X171845295Y-43714285D02*
X172035771Y-43761904D01*
X172035771Y-43761904D02*
X172273866Y-43761904D01*
X172273866Y-43761904D02*
X172464342Y-43714285D01*
X172464342Y-43714285D02*
X172559580Y-43666666D01*
X172559580Y-43666666D02*
X172607200Y-43619047D01*
X172607200Y-43619047D02*
X172654819Y-43523809D01*
X172654819Y-43523809D02*
X172654819Y-43428571D01*
X172654819Y-43428571D02*
X172607200Y-43333333D01*
X172607200Y-43333333D02*
X172559580Y-43285714D01*
X172559580Y-43285714D02*
X172464342Y-43238095D01*
X172464342Y-43238095D02*
X172273866Y-43190476D01*
X172273866Y-43190476D02*
X172035771Y-43190476D01*
X172035771Y-43190476D02*
X171845295Y-43238095D01*
X171845295Y-43238095D02*
X171750057Y-43285714D01*
X171750057Y-43285714D02*
X171702438Y-43333333D01*
X171702438Y-43333333D02*
X171654819Y-43428571D01*
X180954819Y-65833333D02*
X180478628Y-65500000D01*
X180954819Y-65261905D02*
X179954819Y-65261905D01*
X179954819Y-65261905D02*
X179954819Y-65642857D01*
X179954819Y-65642857D02*
X180002438Y-65738095D01*
X180002438Y-65738095D02*
X180050057Y-65785714D01*
X180050057Y-65785714D02*
X180145295Y-65833333D01*
X180145295Y-65833333D02*
X180288152Y-65833333D01*
X180288152Y-65833333D02*
X180383390Y-65785714D01*
X180383390Y-65785714D02*
X180431009Y-65738095D01*
X180431009Y-65738095D02*
X180478628Y-65642857D01*
X180478628Y-65642857D02*
X180478628Y-65261905D01*
X179954819Y-66166667D02*
X179954819Y-66833333D01*
X179954819Y-66833333D02*
X180954819Y-66404762D01*
X181059580Y-42357142D02*
X181107200Y-42309523D01*
X181107200Y-42309523D02*
X181154819Y-42166666D01*
X181154819Y-42166666D02*
X181154819Y-42071428D01*
X181154819Y-42071428D02*
X181107200Y-41928571D01*
X181107200Y-41928571D02*
X181011961Y-41833333D01*
X181011961Y-41833333D02*
X180916723Y-41785714D01*
X180916723Y-41785714D02*
X180726247Y-41738095D01*
X180726247Y-41738095D02*
X180583390Y-41738095D01*
X180583390Y-41738095D02*
X180392914Y-41785714D01*
X180392914Y-41785714D02*
X180297676Y-41833333D01*
X180297676Y-41833333D02*
X180202438Y-41928571D01*
X180202438Y-41928571D02*
X180154819Y-42071428D01*
X180154819Y-42071428D02*
X180154819Y-42166666D01*
X180154819Y-42166666D02*
X180202438Y-42309523D01*
X180202438Y-42309523D02*
X180250057Y-42357142D01*
X181154819Y-43309523D02*
X181154819Y-42738095D01*
X181154819Y-43023809D02*
X180154819Y-43023809D01*
X180154819Y-43023809D02*
X180297676Y-42928571D01*
X180297676Y-42928571D02*
X180392914Y-42833333D01*
X180392914Y-42833333D02*
X180440533Y-42738095D01*
X180154819Y-43928571D02*
X180154819Y-44023809D01*
X180154819Y-44023809D02*
X180202438Y-44119047D01*
X180202438Y-44119047D02*
X180250057Y-44166666D01*
X180250057Y-44166666D02*
X180345295Y-44214285D01*
X180345295Y-44214285D02*
X180535771Y-44261904D01*
X180535771Y-44261904D02*
X180773866Y-44261904D01*
X180773866Y-44261904D02*
X180964342Y-44214285D01*
X180964342Y-44214285D02*
X181059580Y-44166666D01*
X181059580Y-44166666D02*
X181107200Y-44119047D01*
X181107200Y-44119047D02*
X181154819Y-44023809D01*
X181154819Y-44023809D02*
X181154819Y-43928571D01*
X181154819Y-43928571D02*
X181107200Y-43833333D01*
X181107200Y-43833333D02*
X181059580Y-43785714D01*
X181059580Y-43785714D02*
X180964342Y-43738095D01*
X180964342Y-43738095D02*
X180773866Y-43690476D01*
X180773866Y-43690476D02*
X180535771Y-43690476D01*
X180535771Y-43690476D02*
X180345295Y-43738095D01*
X180345295Y-43738095D02*
X180250057Y-43785714D01*
X180250057Y-43785714D02*
X180202438Y-43833333D01*
X180202438Y-43833333D02*
X180154819Y-43928571D01*
X177059580Y-41333333D02*
X177107200Y-41285714D01*
X177107200Y-41285714D02*
X177154819Y-41142857D01*
X177154819Y-41142857D02*
X177154819Y-41047619D01*
X177154819Y-41047619D02*
X177107200Y-40904762D01*
X177107200Y-40904762D02*
X177011961Y-40809524D01*
X177011961Y-40809524D02*
X176916723Y-40761905D01*
X176916723Y-40761905D02*
X176726247Y-40714286D01*
X176726247Y-40714286D02*
X176583390Y-40714286D01*
X176583390Y-40714286D02*
X176392914Y-40761905D01*
X176392914Y-40761905D02*
X176297676Y-40809524D01*
X176297676Y-40809524D02*
X176202438Y-40904762D01*
X176202438Y-40904762D02*
X176154819Y-41047619D01*
X176154819Y-41047619D02*
X176154819Y-41142857D01*
X176154819Y-41142857D02*
X176202438Y-41285714D01*
X176202438Y-41285714D02*
X176250057Y-41333333D01*
X176250057Y-41714286D02*
X176202438Y-41761905D01*
X176202438Y-41761905D02*
X176154819Y-41857143D01*
X176154819Y-41857143D02*
X176154819Y-42095238D01*
X176154819Y-42095238D02*
X176202438Y-42190476D01*
X176202438Y-42190476D02*
X176250057Y-42238095D01*
X176250057Y-42238095D02*
X176345295Y-42285714D01*
X176345295Y-42285714D02*
X176440533Y-42285714D01*
X176440533Y-42285714D02*
X176583390Y-42238095D01*
X176583390Y-42238095D02*
X177154819Y-41666667D01*
X177154819Y-41666667D02*
X177154819Y-42285714D01*
X177954819Y-58333333D02*
X177478628Y-58000000D01*
X177954819Y-57761905D02*
X176954819Y-57761905D01*
X176954819Y-57761905D02*
X176954819Y-58142857D01*
X176954819Y-58142857D02*
X177002438Y-58238095D01*
X177002438Y-58238095D02*
X177050057Y-58285714D01*
X177050057Y-58285714D02*
X177145295Y-58333333D01*
X177145295Y-58333333D02*
X177288152Y-58333333D01*
X177288152Y-58333333D02*
X177383390Y-58285714D01*
X177383390Y-58285714D02*
X177431009Y-58238095D01*
X177431009Y-58238095D02*
X177478628Y-58142857D01*
X177478628Y-58142857D02*
X177478628Y-57761905D01*
X177383390Y-58904762D02*
X177335771Y-58809524D01*
X177335771Y-58809524D02*
X177288152Y-58761905D01*
X177288152Y-58761905D02*
X177192914Y-58714286D01*
X177192914Y-58714286D02*
X177145295Y-58714286D01*
X177145295Y-58714286D02*
X177050057Y-58761905D01*
X177050057Y-58761905D02*
X177002438Y-58809524D01*
X177002438Y-58809524D02*
X176954819Y-58904762D01*
X176954819Y-58904762D02*
X176954819Y-59095238D01*
X176954819Y-59095238D02*
X177002438Y-59190476D01*
X177002438Y-59190476D02*
X177050057Y-59238095D01*
X177050057Y-59238095D02*
X177145295Y-59285714D01*
X177145295Y-59285714D02*
X177192914Y-59285714D01*
X177192914Y-59285714D02*
X177288152Y-59238095D01*
X177288152Y-59238095D02*
X177335771Y-59190476D01*
X177335771Y-59190476D02*
X177383390Y-59095238D01*
X177383390Y-59095238D02*
X177383390Y-58904762D01*
X177383390Y-58904762D02*
X177431009Y-58809524D01*
X177431009Y-58809524D02*
X177478628Y-58761905D01*
X177478628Y-58761905D02*
X177573866Y-58714286D01*
X177573866Y-58714286D02*
X177764342Y-58714286D01*
X177764342Y-58714286D02*
X177859580Y-58761905D01*
X177859580Y-58761905D02*
X177907200Y-58809524D01*
X177907200Y-58809524D02*
X177954819Y-58904762D01*
X177954819Y-58904762D02*
X177954819Y-59095238D01*
X177954819Y-59095238D02*
X177907200Y-59190476D01*
X177907200Y-59190476D02*
X177859580Y-59238095D01*
X177859580Y-59238095D02*
X177764342Y-59285714D01*
X177764342Y-59285714D02*
X177573866Y-59285714D01*
X177573866Y-59285714D02*
X177478628Y-59238095D01*
X177478628Y-59238095D02*
X177431009Y-59190476D01*
X177431009Y-59190476D02*
X177383390Y-59095238D01*
X190439580Y-70333333D02*
X190487200Y-70285714D01*
X190487200Y-70285714D02*
X190534819Y-70142857D01*
X190534819Y-70142857D02*
X190534819Y-70047619D01*
X190534819Y-70047619D02*
X190487200Y-69904762D01*
X190487200Y-69904762D02*
X190391961Y-69809524D01*
X190391961Y-69809524D02*
X190296723Y-69761905D01*
X190296723Y-69761905D02*
X190106247Y-69714286D01*
X190106247Y-69714286D02*
X189963390Y-69714286D01*
X189963390Y-69714286D02*
X189772914Y-69761905D01*
X189772914Y-69761905D02*
X189677676Y-69809524D01*
X189677676Y-69809524D02*
X189582438Y-69904762D01*
X189582438Y-69904762D02*
X189534819Y-70047619D01*
X189534819Y-70047619D02*
X189534819Y-70142857D01*
X189534819Y-70142857D02*
X189582438Y-70285714D01*
X189582438Y-70285714D02*
X189630057Y-70333333D01*
X189868152Y-71190476D02*
X190534819Y-71190476D01*
X189487200Y-70952381D02*
X190201485Y-70714286D01*
X190201485Y-70714286D02*
X190201485Y-71333333D01*
X173954819Y-65833333D02*
X173478628Y-65500000D01*
X173954819Y-65261905D02*
X172954819Y-65261905D01*
X172954819Y-65261905D02*
X172954819Y-65642857D01*
X172954819Y-65642857D02*
X173002438Y-65738095D01*
X173002438Y-65738095D02*
X173050057Y-65785714D01*
X173050057Y-65785714D02*
X173145295Y-65833333D01*
X173145295Y-65833333D02*
X173288152Y-65833333D01*
X173288152Y-65833333D02*
X173383390Y-65785714D01*
X173383390Y-65785714D02*
X173431009Y-65738095D01*
X173431009Y-65738095D02*
X173478628Y-65642857D01*
X173478628Y-65642857D02*
X173478628Y-65261905D01*
X173050057Y-66214286D02*
X173002438Y-66261905D01*
X173002438Y-66261905D02*
X172954819Y-66357143D01*
X172954819Y-66357143D02*
X172954819Y-66595238D01*
X172954819Y-66595238D02*
X173002438Y-66690476D01*
X173002438Y-66690476D02*
X173050057Y-66738095D01*
X173050057Y-66738095D02*
X173145295Y-66785714D01*
X173145295Y-66785714D02*
X173240533Y-66785714D01*
X173240533Y-66785714D02*
X173383390Y-66738095D01*
X173383390Y-66738095D02*
X173954819Y-66166667D01*
X173954819Y-66166667D02*
X173954819Y-66785714D01*
X173842857Y-47859580D02*
X173890476Y-47907200D01*
X173890476Y-47907200D02*
X174033333Y-47954819D01*
X174033333Y-47954819D02*
X174128571Y-47954819D01*
X174128571Y-47954819D02*
X174271428Y-47907200D01*
X174271428Y-47907200D02*
X174366666Y-47811961D01*
X174366666Y-47811961D02*
X174414285Y-47716723D01*
X174414285Y-47716723D02*
X174461904Y-47526247D01*
X174461904Y-47526247D02*
X174461904Y-47383390D01*
X174461904Y-47383390D02*
X174414285Y-47192914D01*
X174414285Y-47192914D02*
X174366666Y-47097676D01*
X174366666Y-47097676D02*
X174271428Y-47002438D01*
X174271428Y-47002438D02*
X174128571Y-46954819D01*
X174128571Y-46954819D02*
X174033333Y-46954819D01*
X174033333Y-46954819D02*
X173890476Y-47002438D01*
X173890476Y-47002438D02*
X173842857Y-47050057D01*
X172890476Y-47954819D02*
X173461904Y-47954819D01*
X173176190Y-47954819D02*
X173176190Y-46954819D01*
X173176190Y-46954819D02*
X173271428Y-47097676D01*
X173271428Y-47097676D02*
X173366666Y-47192914D01*
X173366666Y-47192914D02*
X173461904Y-47240533D01*
X171938095Y-47954819D02*
X172509523Y-47954819D01*
X172223809Y-47954819D02*
X172223809Y-46954819D01*
X172223809Y-46954819D02*
X172319047Y-47097676D01*
X172319047Y-47097676D02*
X172414285Y-47192914D01*
X172414285Y-47192914D02*
X172509523Y-47240533D01*
X170454819Y-65833333D02*
X169978628Y-65500000D01*
X170454819Y-65261905D02*
X169454819Y-65261905D01*
X169454819Y-65261905D02*
X169454819Y-65642857D01*
X169454819Y-65642857D02*
X169502438Y-65738095D01*
X169502438Y-65738095D02*
X169550057Y-65785714D01*
X169550057Y-65785714D02*
X169645295Y-65833333D01*
X169645295Y-65833333D02*
X169788152Y-65833333D01*
X169788152Y-65833333D02*
X169883390Y-65785714D01*
X169883390Y-65785714D02*
X169931009Y-65738095D01*
X169931009Y-65738095D02*
X169978628Y-65642857D01*
X169978628Y-65642857D02*
X169978628Y-65261905D01*
X169454819Y-66738095D02*
X169454819Y-66261905D01*
X169454819Y-66261905D02*
X169931009Y-66214286D01*
X169931009Y-66214286D02*
X169883390Y-66261905D01*
X169883390Y-66261905D02*
X169835771Y-66357143D01*
X169835771Y-66357143D02*
X169835771Y-66595238D01*
X169835771Y-66595238D02*
X169883390Y-66690476D01*
X169883390Y-66690476D02*
X169931009Y-66738095D01*
X169931009Y-66738095D02*
X170026247Y-66785714D01*
X170026247Y-66785714D02*
X170264342Y-66785714D01*
X170264342Y-66785714D02*
X170359580Y-66738095D01*
X170359580Y-66738095D02*
X170407200Y-66690476D01*
X170407200Y-66690476D02*
X170454819Y-66595238D01*
X170454819Y-66595238D02*
X170454819Y-66357143D01*
X170454819Y-66357143D02*
X170407200Y-66261905D01*
X170407200Y-66261905D02*
X170359580Y-66214286D01*
X170954819Y-58333333D02*
X170478628Y-58000000D01*
X170954819Y-57761905D02*
X169954819Y-57761905D01*
X169954819Y-57761905D02*
X169954819Y-58142857D01*
X169954819Y-58142857D02*
X170002438Y-58238095D01*
X170002438Y-58238095D02*
X170050057Y-58285714D01*
X170050057Y-58285714D02*
X170145295Y-58333333D01*
X170145295Y-58333333D02*
X170288152Y-58333333D01*
X170288152Y-58333333D02*
X170383390Y-58285714D01*
X170383390Y-58285714D02*
X170431009Y-58238095D01*
X170431009Y-58238095D02*
X170478628Y-58142857D01*
X170478628Y-58142857D02*
X170478628Y-57761905D01*
X169954819Y-58666667D02*
X169954819Y-59285714D01*
X169954819Y-59285714D02*
X170335771Y-58952381D01*
X170335771Y-58952381D02*
X170335771Y-59095238D01*
X170335771Y-59095238D02*
X170383390Y-59190476D01*
X170383390Y-59190476D02*
X170431009Y-59238095D01*
X170431009Y-59238095D02*
X170526247Y-59285714D01*
X170526247Y-59285714D02*
X170764342Y-59285714D01*
X170764342Y-59285714D02*
X170859580Y-59238095D01*
X170859580Y-59238095D02*
X170907200Y-59190476D01*
X170907200Y-59190476D02*
X170954819Y-59095238D01*
X170954819Y-59095238D02*
X170954819Y-58809524D01*
X170954819Y-58809524D02*
X170907200Y-58714286D01*
X170907200Y-58714286D02*
X170859580Y-58666667D01*
D11*
%TO.C,U2*%
X197240900Y-71500000D02*
G75*
G02*
X196478900Y-71500000I-381000J0D01*
G01*
X196478900Y-71500000D02*
G75*
G02*
X197240900Y-71500000I381000J0D01*
G01*
D12*
%TO.C,R6*%
X175175000Y-58450000D02*
X176225000Y-58450000D01*
%TO.C,R1*%
X168175000Y-58450000D02*
X169225000Y-58450000D01*
%TO.C,R4*%
X177050000Y-65025000D02*
G75*
G02*
X176950000Y-65025000I-50000J0D01*
G01*
X176950000Y-65025000D02*
G75*
G02*
X177050000Y-65025000I50000J0D01*
G01*
%TO.C,D19*%
X187600000Y-63690000D02*
X193575000Y-63690000D01*
X193000000Y-67310000D02*
X187600000Y-67310000D01*
%TO.C,R7*%
X180550000Y-65025000D02*
G75*
G02*
X180450000Y-65025000I-50000J0D01*
G01*
X180450000Y-65025000D02*
G75*
G02*
X180550000Y-65025000I50000J0D01*
G01*
%TO.C,R8*%
X178675000Y-58450000D02*
X179725000Y-58450000D01*
%TO.C,C4*%
X192080000Y-70100000D02*
X192080000Y-70900000D01*
%TO.C,R2*%
X173550000Y-65025000D02*
G75*
G02*
X173450000Y-65025000I-50000J0D01*
G01*
X173450000Y-65025000D02*
G75*
G02*
X173550000Y-65025000I50000J0D01*
G01*
%TO.C,R5*%
X170050000Y-65025000D02*
G75*
G02*
X169950000Y-65025000I-50000J0D01*
G01*
X169950000Y-65025000D02*
G75*
G02*
X170050000Y-65025000I50000J0D01*
G01*
%TO.C,R3*%
X171675000Y-58450000D02*
X172725000Y-58450000D01*
%TD*%
M02*
