%TF.GenerationSoftware,KiCad,Pcbnew,9.0.6*%
%TF.CreationDate,2025-12-07T19:24:30-08:00*%
%TF.ProjectId,redstone_repeater,72656473-746f-46e6-955f-726570656174,rev?*%
%TF.SameCoordinates,Original*%
%TF.FileFunction,Copper,L2,Bot*%
%TF.FilePolarity,Positive*%
%FSLAX46Y46*%
G04 Gerber Fmt 4.6, Leading zero omitted, Abs format (unit mm)*
G04 Created by KiCad (PCBNEW 9.0.6) date 2025-12-07 19:24:30*
%MOMM*%
%LPD*%
G01*
G04 APERTURE LIST*
%TA.AperFunction,ComponentPad*%
%ADD10C,1.524000*%
%TD*%
%TA.AperFunction,ComponentPad*%
%ADD11C,1.700000*%
%TD*%
%TA.AperFunction,ComponentPad*%
%ADD12R,1.337000X1.337000*%
%TD*%
%TA.AperFunction,ComponentPad*%
%ADD13C,1.337000*%
%TD*%
%TA.AperFunction,ComponentPad*%
%ADD14C,2.190000*%
%TD*%
%TA.AperFunction,HeatsinkPad*%
%ADD15C,0.600000*%
%TD*%
%TA.AperFunction,SMDPad,CuDef*%
%ADD16R,0.900000X1.600000*%
%TD*%
%TA.AperFunction,ComponentPad*%
%ADD17R,1.700000X1.700000*%
%TD*%
%TA.AperFunction,ComponentPad*%
%ADD18R,1.800000X1.800000*%
%TD*%
%TA.AperFunction,ComponentPad*%
%ADD19C,1.800000*%
%TD*%
%TA.AperFunction,SMDPad,CuDef*%
%ADD20R,1.450000X1.000000*%
%TD*%
%TA.AperFunction,SMDPad,CuDef*%
%ADD21R,1.020000X1.470000*%
%TD*%
%TA.AperFunction,SMDPad,CuDef*%
%ADD22R,0.620000X0.600000*%
%TD*%
%TA.AperFunction,SMDPad,CuDef*%
%ADD23R,0.460000X0.420000*%
%TD*%
%TA.AperFunction,SMDPad,CuDef*%
%ADD24R,1.470000X1.020000*%
%TD*%
%TA.AperFunction,SMDPad,CuDef*%
%ADD25R,1.250000X1.150000*%
%TD*%
%TA.AperFunction,SMDPad,CuDef*%
%ADD26R,2.200000X2.150000*%
%TD*%
%TA.AperFunction,SMDPad,CuDef*%
%ADD27R,0.650000X0.700000*%
%TD*%
%TA.AperFunction,ViaPad*%
%ADD28C,0.600000*%
%TD*%
%TA.AperFunction,Conductor*%
%ADD29C,0.600000*%
%TD*%
%TA.AperFunction,Conductor*%
%ADD30C,0.400000*%
%TD*%
%TA.AperFunction,Conductor*%
%ADD31C,0.200000*%
%TD*%
%TA.AperFunction,Conductor*%
%ADD32C,0.300000*%
%TD*%
G04 APERTURE END LIST*
D10*
%TO.P,U2,1,Vin*%
%TO.N,VCC*%
X192580000Y-68500000D03*
%TO.P,U2,2,GND*%
%TO.N,GND*%
X190040000Y-68500000D03*
%TO.P,U2,3,Vout*%
%TO.N,/5V_LOCAL*%
X187500000Y-68500000D03*
%TD*%
D11*
%TO.P,SW1,1,A*%
%TO.N,/3.3V_LOCAL*%
X184500000Y-40000000D03*
X191000000Y-40000000D03*
%TO.P,SW1,2,B*%
%TO.N,Net-(SW1-B)*%
X184500000Y-44500000D03*
X191000000Y-44500000D03*
%TD*%
D12*
%TO.P,S1,1,NC*%
%TO.N,Net-(S1-NC)*%
X169753508Y-55000000D03*
D13*
%TO.P,S1,2,NO_1*%
%TO.N,Net-(S1-NO_1)*%
X171753508Y-55000000D03*
%TO.P,S1,3,COM*%
%TO.N,GND*%
X173753508Y-55000000D03*
%TO.P,S1,4,NO_2*%
%TO.N,Net-(S1-NO_2)*%
X177753508Y-55000000D03*
%TO.P,S1,5,NO_3*%
%TO.N,Net-(S1-NO_3)*%
X179753508Y-55000000D03*
D14*
%TO.P,S1,6,MH1*%
%TO.N,unconnected-(S1-MH1-Pad6)*%
X167603508Y-55000000D03*
%TO.P,S1,7,MH2*%
%TO.N,unconnected-(S1-MH2-Pad7)*%
X181903508Y-55000000D03*
%TD*%
D15*
%TO.P,U3,9,PAD*%
%TO.N,GND*%
X194550000Y-60163863D03*
D16*
X194550000Y-59663863D03*
D15*
X194550000Y-59163863D03*
%TD*%
D17*
%TO.P,J9,1,Pin_1*%
%TO.N,GND*%
X194000000Y-48500000D03*
D11*
%TO.P,J9,2,Pin_2*%
%TO.N,Net-(J9-Pin_2)*%
X194000000Y-45960000D03*
%TO.P,J9,3,Pin_3*%
%TO.N,Net-(J9-Pin_3)*%
X194000000Y-43420000D03*
%TO.P,J9,4,Pin_4*%
%TO.N,/3.3V_LOCAL*%
X194000000Y-40880000D03*
%TD*%
D17*
%TO.P,J8,1,Pin_1*%
%TO.N,GND*%
X162000000Y-69000000D03*
D11*
%TO.P,J8,2,Pin_2*%
%TO.N,VCC*%
X162000000Y-66460000D03*
%TO.P,J8,3,Pin_3*%
%TO.N,/W_TX*%
X162000000Y-63920000D03*
%TO.P,J8,4,Pin_4*%
%TO.N,/W_RX*%
X162000000Y-61380000D03*
%TD*%
D17*
%TO.P,J4,1,Pin_1*%
%TO.N,GND*%
X197975000Y-69000000D03*
D11*
%TO.P,J4,2,Pin_2*%
%TO.N,VCC*%
X197975000Y-66460000D03*
%TO.P,J4,3,Pin_3*%
%TO.N,/E_TX*%
X197975000Y-63920000D03*
%TO.P,J4,4,Pin_4*%
%TO.N,/E_RX*%
X197975000Y-61380000D03*
%TD*%
D17*
%TO.P,J1,1,Pin_1*%
%TO.N,GND*%
X165975000Y-37000000D03*
D11*
%TO.P,J1,2,Pin_2*%
%TO.N,VCC*%
X168515000Y-37000000D03*
%TO.P,J1,3,Pin_3*%
%TO.N,/N_TX*%
X171055000Y-37000000D03*
%TO.P,J1,4,Pin_4*%
%TO.N,/N_RX*%
X173595000Y-37000000D03*
%TD*%
D17*
%TO.P,J2,1,Pin_1*%
%TO.N,GND*%
X194095000Y-37000000D03*
D11*
%TO.P,J2,2,Pin_2*%
%TO.N,VCC*%
X191555000Y-37000000D03*
%TO.P,J2,3,Pin_3*%
%TO.N,/N_TX*%
X189015000Y-37000000D03*
%TO.P,J2,4,Pin_4*%
%TO.N,/N_RX*%
X186475000Y-37000000D03*
%TD*%
D17*
%TO.P,J6,1,Pin_1*%
%TO.N,GND*%
X193975000Y-73025000D03*
D11*
%TO.P,J6,2,Pin_2*%
%TO.N,VCC*%
X191435000Y-73025000D03*
%TO.P,J6,3,Pin_3*%
%TO.N,/S_TX*%
X188895000Y-73025000D03*
%TO.P,J6,4,Pin_4*%
%TO.N,/S_RX*%
X186355000Y-73025000D03*
%TD*%
D18*
%TO.P,D5,1,K*%
%TO.N,Net-(D5-K)*%
X192403508Y-56270000D03*
D19*
%TO.P,D5,2,A*%
%TO.N,Net-(D5-A)*%
X192403508Y-53730000D03*
%TD*%
D17*
%TO.P,J5,1,Pin_1*%
%TO.N,GND*%
X165975000Y-73000000D03*
D11*
%TO.P,J5,2,Pin_2*%
%TO.N,VCC*%
X168515000Y-73000000D03*
%TO.P,J5,3,Pin_3*%
%TO.N,/S_TX*%
X171055000Y-73000000D03*
%TO.P,J5,4,Pin_4*%
%TO.N,/S_RX*%
X173595000Y-73000000D03*
%TD*%
D17*
%TO.P,J7,1,Pin_1*%
%TO.N,GND*%
X162050000Y-41000000D03*
D11*
%TO.P,J7,2,Pin_2*%
%TO.N,VCC*%
X162050000Y-43540000D03*
%TO.P,J7,3,Pin_3*%
%TO.N,/W_TX*%
X162050000Y-46080000D03*
%TO.P,J7,4,Pin_4*%
%TO.N,/W_RX*%
X162050000Y-48620000D03*
%TD*%
D17*
%TO.P,J3,1,Pin_1*%
%TO.N,GND*%
X198000000Y-41000000D03*
D11*
%TO.P,J3,2,Pin_2*%
%TO.N,VCC*%
X198000000Y-43540000D03*
%TO.P,J3,3,Pin_3*%
%TO.N,/E_TX*%
X198000000Y-46080000D03*
%TO.P,J3,4,Pin_4*%
%TO.N,/E_RX*%
X198000000Y-48620000D03*
%TD*%
D20*
%TO.P,R6,1*%
%TO.N,/5V_LOCAL*%
X175700000Y-57500000D03*
%TO.P,R6,2*%
%TO.N,Net-(D3-A)*%
X175700000Y-59400000D03*
%TD*%
D21*
%TO.P,C2,1,1*%
%TO.N,/3.3V_LOCAL*%
X172600000Y-49500000D03*
%TO.P,C2,2,2*%
%TO.N,GND*%
X174200000Y-49500000D03*
%TD*%
%TO.P,C2,1,1*%
%TO.N,/3.3V_LOCAL*%
X173900000Y-44000000D03*
%TO.P,C2,2,2*%
%TO.N,GND*%
X175500000Y-44000000D03*
%TD*%
D22*
%TO.P,C1,1,1*%
%TO.N,/5V_LOCAL*%
X195580000Y-59693863D03*
%TO.P,C1,2,2*%
%TO.N,GND*%
X195580000Y-58773863D03*
%TD*%
D21*
%TO.P,C2,1,1*%
%TO.N,/3.3V_LOCAL*%
X178800000Y-46500000D03*
%TO.P,C2,2,2*%
%TO.N,GND*%
X177200000Y-46500000D03*
%TD*%
D23*
%TO.P,C9,1,1*%
%TO.N,Net-(U1-VREG_VOUT)*%
X170929999Y-45062500D03*
%TO.P,C9,2,2*%
%TO.N,GND*%
X170269999Y-45062500D03*
%TD*%
D20*
%TO.P,R1,1*%
%TO.N,/5V_LOCAL*%
X168700000Y-57500000D03*
%TO.P,R1,2*%
%TO.N,Net-(D1-A)*%
X168700000Y-59400000D03*
%TD*%
D24*
%TO.P,C3,1,1*%
%TO.N,VCC*%
X195080000Y-68400000D03*
%TO.P,C3,2,2*%
%TO.N,GND*%
X195080000Y-70000000D03*
%TD*%
D25*
%TO.P,R4,1*%
%TO.N,Net-(Q3-B)*%
X177000000Y-64175000D03*
%TO.P,R4,2*%
%TO.N,Net-(U1-GPIO8)*%
X177000000Y-61825000D03*
%TD*%
D26*
%TO.P,D19,1,K*%
%TO.N,VCC*%
X192500000Y-65500000D03*
%TO.P,D19,2,A*%
%TO.N,GND*%
X188100000Y-65500000D03*
%TD*%
D21*
%TO.P,C2,1,1*%
%TO.N,/3.3V_LOCAL*%
X177300000Y-48500000D03*
%TO.P,C2,2,2*%
%TO.N,GND*%
X175700000Y-48500000D03*
%TD*%
D24*
%TO.P,C10,1,1*%
%TO.N,Net-(U1-VREG_VOUT)*%
X172200000Y-46190000D03*
%TO.P,C10,2,2*%
%TO.N,GND*%
X172200000Y-44590000D03*
%TD*%
D25*
%TO.P,R7,1*%
%TO.N,Net-(Q4-B)*%
X180500000Y-64175000D03*
%TO.P,R7,2*%
%TO.N,Net-(U1-GPIO9)*%
X180500000Y-61825000D03*
%TD*%
D24*
%TO.P,C10,1,1*%
%TO.N,Net-(U1-VREG_VOUT)*%
X179200000Y-44800000D03*
%TO.P,C10,2,2*%
%TO.N,GND*%
X179200000Y-43200000D03*
%TD*%
%TO.P,C2,1,1*%
%TO.N,/3.3V_LOCAL*%
X177200000Y-43200000D03*
%TO.P,C2,2,2*%
%TO.N,GND*%
X177200000Y-44800000D03*
%TD*%
D20*
%TO.P,R8,1*%
%TO.N,/5V_LOCAL*%
X179200000Y-57500000D03*
%TO.P,R8,2*%
%TO.N,Net-(D4-A)*%
X179200000Y-59400000D03*
%TD*%
D27*
%TO.P,C4,1,1*%
%TO.N,VCC*%
X192755000Y-70500000D03*
%TO.P,C4,2,2*%
%TO.N,GND*%
X191405000Y-70500000D03*
%TD*%
D25*
%TO.P,R2,1*%
%TO.N,Net-(Q2-B)*%
X173500000Y-64175000D03*
%TO.P,R2,2*%
%TO.N,Net-(U1-GPIO7)*%
X173500000Y-61825000D03*
%TD*%
D23*
%TO.P,C11,1,1*%
%TO.N,/3.3V_LOCAL*%
X173700000Y-45500000D03*
%TO.P,C11,2,2*%
%TO.N,GND*%
X174360000Y-45500000D03*
%TD*%
D25*
%TO.P,R5,1*%
%TO.N,Net-(Q1-B)*%
X170000000Y-64175000D03*
%TO.P,R5,2*%
%TO.N,Net-(U1-GPIO6)*%
X170000000Y-61825000D03*
%TD*%
D20*
%TO.P,R3,1*%
%TO.N,/5V_LOCAL*%
X172200000Y-57500000D03*
%TO.P,R3,2*%
%TO.N,Net-(D2-A)*%
X172200000Y-59400000D03*
%TD*%
D28*
%TO.N,/5V_LOCAL*%
X195580000Y-59693863D03*
X179200000Y-57500000D03*
X168700000Y-57500000D03*
X172200000Y-57500000D03*
X175700000Y-57500000D03*
%TO.N,GND*%
X177200000Y-46000000D03*
X187500000Y-55000000D03*
X169000000Y-50500000D03*
X195538845Y-58788863D03*
X195461137Y-60538863D03*
X175200000Y-47000000D03*
X181500000Y-42000000D03*
X177200000Y-47000000D03*
X181608119Y-63471168D03*
X176200000Y-45000000D03*
X171108119Y-63471168D03*
X177200000Y-45000000D03*
X176200000Y-46000000D03*
X180457819Y-47009694D03*
X175200000Y-46000000D03*
X193503362Y-58788863D03*
X174500000Y-68000000D03*
X175200000Y-45000000D03*
X177500000Y-38000000D03*
X184500000Y-61413863D03*
X196500000Y-51350000D03*
X176200000Y-47000000D03*
X174608119Y-63471168D03*
X163500000Y-55000000D03*
X178108119Y-63471168D03*
%TO.N,/3.3V_LOCAL*%
X173900000Y-43600000D03*
X178706166Y-46466793D03*
X172600000Y-49500000D03*
X177300000Y-48500000D03*
X180475735Y-49524265D03*
X177200134Y-43375302D03*
X173629998Y-45500000D03*
%TO.N,Net-(U1-VREG_VOUT)*%
X171845229Y-46000001D03*
X178700000Y-44700000D03*
%TO.N,Net-(D1-A)*%
X168700000Y-59400000D03*
%TO.N,Net-(D2-A)*%
X172200000Y-59400000D03*
%TO.N,Net-(D3-A)*%
X175700000Y-59400000D03*
%TO.N,Net-(D4-A)*%
X179200000Y-59400000D03*
%TO.N,/E_TX*%
X195500000Y-53500000D03*
%TO.N,/S_RX*%
X182988235Y-61211762D03*
X178999999Y-49442297D03*
%TO.N,/S_TX*%
X182388235Y-60611765D03*
X178724265Y-50375735D03*
%TO.N,Net-(J9-Pin_3)*%
X181157819Y-46006346D03*
X182168390Y-45318444D03*
%TO.N,Net-(Q2-B)*%
X173500000Y-64175000D03*
%TO.N,Net-(Q3-B)*%
X177000000Y-64175000D03*
%TO.N,Net-(Q4-B)*%
X180500000Y-64175000D03*
%TO.N,Net-(U1-GPIO7)*%
X177275735Y-52830685D03*
%TO.N,Net-(Q1-B)*%
X170000000Y-64175000D03*
%TO.N,Net-(U1-GPIO8)*%
X177875735Y-51224265D03*
%TO.N,Net-(U1-GPIO6)*%
X176675735Y-52005206D03*
%TO.N,Net-(U1-GPIO9)*%
X178723008Y-53276992D03*
%TD*%
D29*
%TO.N,GND*%
X176300000Y-44800000D02*
X175500000Y-44000000D01*
D30*
X179200000Y-43200000D02*
X179647000Y-43200000D01*
X180457819Y-44010819D02*
X180457819Y-47009694D01*
X179647000Y-43200000D02*
X180457819Y-44010819D01*
D31*
X172200000Y-44590000D02*
X171610000Y-44590000D01*
X174700000Y-45500000D02*
X175200000Y-46000000D01*
X174700000Y-45500000D02*
X175200000Y-45000000D01*
D30*
X171610000Y-44000000D02*
X170500000Y-44000000D01*
D31*
X177447000Y-44800000D02*
X177200000Y-44800000D01*
D32*
X179047000Y-43200000D02*
X177447000Y-44800000D01*
D29*
X177200000Y-44800000D02*
X176300000Y-44800000D01*
D31*
X174360000Y-45500000D02*
X174700000Y-45500000D01*
D30*
X172200000Y-44590000D02*
X171610000Y-44000000D01*
D31*
%TO.N,/3.3V_LOCAL*%
X173700000Y-45500000D02*
X173700000Y-44200000D01*
X179451470Y-48500000D02*
X177300000Y-48500000D01*
X173700000Y-44200000D02*
X173900000Y-44000000D01*
X180475735Y-49524265D02*
X179451470Y-48500000D01*
X176788832Y-42964000D02*
X174536000Y-42964000D01*
X174536000Y-42964000D02*
X173900000Y-43600000D01*
X178800000Y-47848530D02*
X178800000Y-46500000D01*
X177200134Y-43375302D02*
X176788832Y-42964000D01*
X179451470Y-48500000D02*
X178800000Y-47848530D01*
D30*
%TO.N,VCC*%
X191475000Y-37000000D02*
X190199000Y-35724000D01*
X169791000Y-35724000D02*
X168515000Y-37000000D01*
X197781000Y-66976000D02*
X196504000Y-66976000D01*
X197975000Y-66460000D02*
X199226000Y-67711000D01*
X161975000Y-66460000D02*
X160724000Y-65209000D01*
X199251000Y-39276000D02*
X199251000Y-42289000D01*
X192580000Y-70325000D02*
X192755000Y-70500000D01*
X160701000Y-67734000D02*
X161975000Y-66460000D01*
X160701000Y-39299000D02*
X164299000Y-35701000D01*
X191435000Y-73025000D02*
X190184000Y-74276000D01*
X199251000Y-65184000D02*
X197975000Y-66460000D01*
X168515000Y-73000000D02*
X167264000Y-74251000D01*
X191555000Y-37000000D02*
X192806000Y-35749000D01*
X160701000Y-42241000D02*
X160701000Y-39299000D01*
X167216000Y-35701000D02*
X168515000Y-37000000D01*
X192686000Y-74276000D02*
X191435000Y-73025000D01*
X195724000Y-35749000D02*
X199251000Y-39276000D01*
X199226000Y-70749000D02*
X195699000Y-74276000D01*
X199251000Y-42289000D02*
X198000000Y-43540000D01*
X195699000Y-74276000D02*
X192686000Y-74276000D01*
X160701000Y-70701000D02*
X160701000Y-67734000D01*
X199226000Y-67711000D02*
X199226000Y-70749000D01*
X197975000Y-66782000D02*
X197781000Y-66976000D01*
X196504000Y-66976000D02*
X195080000Y-68400000D01*
X169791000Y-74276000D02*
X168515000Y-73000000D01*
X192580000Y-68500000D02*
X192580000Y-65580000D01*
X162000000Y-43540000D02*
X160701000Y-42241000D01*
X164251000Y-74251000D02*
X160701000Y-70701000D01*
X192580000Y-68500000D02*
X192580000Y-70325000D01*
X199251000Y-44791000D02*
X199251000Y-65184000D01*
X192580000Y-65580000D02*
X192500000Y-65500000D01*
X192580000Y-68500000D02*
X194980000Y-68500000D01*
X192806000Y-35749000D02*
X195724000Y-35749000D01*
X164299000Y-35701000D02*
X167216000Y-35701000D01*
X160724000Y-44816000D02*
X162000000Y-43540000D01*
X194980000Y-68500000D02*
X195080000Y-68400000D01*
X197975000Y-66460000D02*
X197975000Y-66782000D01*
X160724000Y-65209000D02*
X160724000Y-44816000D01*
X190184000Y-74276000D02*
X169791000Y-74276000D01*
X167264000Y-74251000D02*
X164251000Y-74251000D01*
X198000000Y-43540000D02*
X199251000Y-44791000D01*
X190199000Y-35724000D02*
X169791000Y-35724000D01*
D31*
%TO.N,Net-(U1-VREG_VOUT)*%
X171845229Y-46000001D02*
X171845229Y-45977730D01*
X170929999Y-45084771D02*
X170929999Y-45062500D01*
X171845229Y-45977730D02*
X170929999Y-45062500D01*
%TO.N,/E_TX*%
X195500000Y-53500000D02*
X195500000Y-48580000D01*
X195500000Y-48580000D02*
X198000000Y-46080000D01*
%TO.N,/S_RX*%
X183700508Y-60499489D02*
X182988235Y-61211762D01*
X178999999Y-49442297D02*
X179009397Y-49442297D01*
X179009397Y-49442297D02*
X183700508Y-54133408D01*
X183700508Y-54133408D02*
X183700508Y-60499489D01*
%TO.N,/S_TX*%
X182388235Y-60611765D02*
X183299508Y-59700492D01*
X183299508Y-54299508D02*
X179375735Y-50375735D01*
X179375735Y-50375735D02*
X178724265Y-50375735D01*
X183299508Y-59700492D02*
X183299508Y-54299508D01*
%TO.N,Net-(J9-Pin_3)*%
X181845721Y-45318444D02*
X181157819Y-46006346D01*
X182168390Y-45318444D02*
X181845721Y-45318444D01*
%TO.N,Net-(U1-GPIO7)*%
X176383008Y-53723412D02*
X176383008Y-54308681D01*
X176383008Y-54308681D02*
X173500000Y-57191689D01*
X173500000Y-57191689D02*
X173500000Y-61825000D01*
X177275735Y-52830685D02*
X176383008Y-53723412D01*
%TO.N,Net-(U1-GPIO8)*%
X177000000Y-61825000D02*
X176784008Y-61609008D01*
X176784008Y-61609008D02*
X176784008Y-54225892D01*
X176784008Y-54225892D02*
X177875735Y-53134165D01*
X177875735Y-53134165D02*
X177875735Y-51224265D01*
%TO.N,Net-(U1-GPIO6)*%
X175982008Y-54142581D02*
X173624589Y-56500000D01*
X176675735Y-52005206D02*
X175982008Y-52698933D01*
X171500000Y-56500000D02*
X170000000Y-58000000D01*
X175982008Y-52698933D02*
X175982008Y-54142581D01*
X170000000Y-58000000D02*
X170000000Y-61825000D01*
X173624589Y-56500000D02*
X171500000Y-56500000D01*
%TO.N,Net-(U1-GPIO9)*%
X180500000Y-57117573D02*
X178941213Y-55558787D01*
X180500000Y-61825000D02*
X180500000Y-57117573D01*
X178941213Y-55558787D02*
X178784008Y-55401581D01*
X178723008Y-55340582D02*
X178941213Y-55558787D01*
X178723008Y-53276992D02*
X178723008Y-55340582D01*
%TD*%
%TA.AperFunction,Conductor*%
%TO.N,GND*%
G36*
X185098311Y-36432425D02*
G01*
X185126033Y-36437223D01*
X185131387Y-36442137D01*
X185138360Y-36444185D01*
X185156779Y-36465442D01*
X185177508Y-36484467D01*
X185179355Y-36491496D01*
X185184115Y-36496989D01*
X185188118Y-36524835D01*
X185195270Y-36552041D01*
X185193500Y-36562264D01*
X185194059Y-36566147D01*
X185189252Y-36586818D01*
X185157753Y-36683760D01*
X185147262Y-36750000D01*
X185124500Y-36893713D01*
X185124500Y-37106287D01*
X185134534Y-37169644D01*
X185157753Y-37316239D01*
X185223444Y-37518414D01*
X185319951Y-37707820D01*
X185444890Y-37879786D01*
X185595213Y-38030109D01*
X185767179Y-38155048D01*
X185767181Y-38155049D01*
X185767184Y-38155051D01*
X185956588Y-38251557D01*
X186158757Y-38317246D01*
X186368713Y-38350500D01*
X186368714Y-38350500D01*
X186581286Y-38350500D01*
X186581287Y-38350500D01*
X186791243Y-38317246D01*
X186993412Y-38251557D01*
X187182816Y-38155051D01*
X187269478Y-38092088D01*
X187354786Y-38030109D01*
X187354788Y-38030106D01*
X187354792Y-38030104D01*
X187505104Y-37879792D01*
X187505106Y-37879788D01*
X187505109Y-37879786D01*
X187630048Y-37707820D01*
X187630047Y-37707820D01*
X187630051Y-37707816D01*
X187634514Y-37699054D01*
X187682488Y-37648259D01*
X187750308Y-37631463D01*
X187816444Y-37653999D01*
X187855486Y-37699056D01*
X187859951Y-37707820D01*
X187984890Y-37879786D01*
X188135213Y-38030109D01*
X188307179Y-38155048D01*
X188307181Y-38155049D01*
X188307184Y-38155051D01*
X188496588Y-38251557D01*
X188698757Y-38317246D01*
X188908713Y-38350500D01*
X188908714Y-38350500D01*
X189121286Y-38350500D01*
X189121287Y-38350500D01*
X189331243Y-38317246D01*
X189533412Y-38251557D01*
X189722816Y-38155051D01*
X189809478Y-38092088D01*
X189894786Y-38030109D01*
X189894788Y-38030106D01*
X189894792Y-38030104D01*
X190045104Y-37879792D01*
X190045106Y-37879788D01*
X190045109Y-37879786D01*
X190170048Y-37707820D01*
X190170047Y-37707820D01*
X190170051Y-37707816D01*
X190174514Y-37699054D01*
X190222488Y-37648259D01*
X190290308Y-37631463D01*
X190356444Y-37653999D01*
X190395486Y-37699056D01*
X190399951Y-37707820D01*
X190524890Y-37879786D01*
X190675213Y-38030109D01*
X190847179Y-38155048D01*
X190847181Y-38155049D01*
X190847184Y-38155051D01*
X191036588Y-38251557D01*
X191238757Y-38317246D01*
X191448713Y-38350500D01*
X191448714Y-38350500D01*
X191661286Y-38350500D01*
X191661287Y-38350500D01*
X191871243Y-38317246D01*
X192073412Y-38251557D01*
X192262816Y-38155051D01*
X192349478Y-38092088D01*
X192434784Y-38030110D01*
X192434784Y-38030109D01*
X192434792Y-38030104D01*
X192548717Y-37916178D01*
X192610036Y-37882696D01*
X192679728Y-37887680D01*
X192735662Y-37929551D01*
X192752577Y-37960528D01*
X192801646Y-38092088D01*
X192801649Y-38092093D01*
X192887809Y-38207187D01*
X192887812Y-38207190D01*
X193002906Y-38293350D01*
X193002913Y-38293354D01*
X193137620Y-38343596D01*
X193137627Y-38343598D01*
X193197155Y-38349999D01*
X193197172Y-38350000D01*
X193845000Y-38350000D01*
X193845000Y-37433012D01*
X193902007Y-37465925D01*
X194029174Y-37500000D01*
X194160826Y-37500000D01*
X194287993Y-37465925D01*
X194345000Y-37433012D01*
X194345000Y-38350000D01*
X194992828Y-38350000D01*
X194992844Y-38349999D01*
X195052372Y-38343598D01*
X195052379Y-38343596D01*
X195187086Y-38293354D01*
X195187093Y-38293350D01*
X195302187Y-38207190D01*
X195302190Y-38207187D01*
X195388350Y-38092093D01*
X195388354Y-38092086D01*
X195438596Y-37957379D01*
X195438598Y-37957372D01*
X195444999Y-37897844D01*
X195445000Y-37897827D01*
X195445000Y-37250000D01*
X194528012Y-37250000D01*
X194560925Y-37192993D01*
X194595000Y-37065826D01*
X194595000Y-36934174D01*
X194560925Y-36807007D01*
X194528012Y-36750000D01*
X195445000Y-36750000D01*
X195449164Y-36745835D01*
X195464685Y-36692980D01*
X195517489Y-36647225D01*
X195586647Y-36637281D01*
X195650203Y-36666306D01*
X195656681Y-36672338D01*
X198422662Y-39438319D01*
X198456147Y-39499642D01*
X198451163Y-39569334D01*
X198409291Y-39625267D01*
X198343827Y-39649684D01*
X198334981Y-39650000D01*
X198250000Y-39650000D01*
X198250000Y-40566988D01*
X198192993Y-40534075D01*
X198065826Y-40500000D01*
X197934174Y-40500000D01*
X197807007Y-40534075D01*
X197750000Y-40566988D01*
X197750000Y-39650000D01*
X197102155Y-39650000D01*
X197042627Y-39656401D01*
X197042620Y-39656403D01*
X196907913Y-39706645D01*
X196907906Y-39706649D01*
X196792812Y-39792809D01*
X196792809Y-39792812D01*
X196706649Y-39907906D01*
X196706645Y-39907913D01*
X196656403Y-40042620D01*
X196656401Y-40042627D01*
X196650000Y-40102155D01*
X196650000Y-40750000D01*
X197566988Y-40750000D01*
X197534075Y-40807007D01*
X197500000Y-40934174D01*
X197500000Y-41065826D01*
X197534075Y-41192993D01*
X197566988Y-41250000D01*
X196650000Y-41250000D01*
X196650000Y-41897844D01*
X196656401Y-41957372D01*
X196656403Y-41957379D01*
X196706645Y-42092086D01*
X196706649Y-42092093D01*
X196792809Y-42207187D01*
X196792812Y-42207190D01*
X196907906Y-42293350D01*
X196907913Y-42293354D01*
X197039470Y-42342422D01*
X197095404Y-42384293D01*
X197119821Y-42449758D01*
X197104969Y-42518031D01*
X197083819Y-42546285D01*
X196969889Y-42660215D01*
X196844951Y-42832179D01*
X196748444Y-43021585D01*
X196682753Y-43223760D01*
X196649500Y-43433713D01*
X196649500Y-43646286D01*
X196679850Y-43837913D01*
X196682754Y-43856243D01*
X196744952Y-44047669D01*
X196748444Y-44058414D01*
X196844951Y-44247820D01*
X196969890Y-44419786D01*
X197120213Y-44570109D01*
X197292182Y-44695050D01*
X197300946Y-44699516D01*
X197351742Y-44747491D01*
X197368536Y-44815312D01*
X197345998Y-44881447D01*
X197300946Y-44920484D01*
X197292182Y-44924949D01*
X197120213Y-45049890D01*
X196969890Y-45200213D01*
X196844951Y-45372179D01*
X196748444Y-45561585D01*
X196682753Y-45763760D01*
X196653748Y-45946894D01*
X196649500Y-45973713D01*
X196649500Y-46186287D01*
X196657983Y-46239846D01*
X196682754Y-46396244D01*
X196682754Y-46396247D01*
X196696491Y-46438523D01*
X196698486Y-46508364D01*
X196666241Y-46564522D01*
X195560310Y-47670453D01*
X195498987Y-47703938D01*
X195429295Y-47698954D01*
X195373362Y-47657082D01*
X195349340Y-47596028D01*
X195343598Y-47542627D01*
X195343596Y-47542620D01*
X195293354Y-47407913D01*
X195293350Y-47407906D01*
X195207190Y-47292812D01*
X195207187Y-47292809D01*
X195092093Y-47206649D01*
X195092088Y-47206646D01*
X194960528Y-47157577D01*
X194904595Y-47115705D01*
X194880178Y-47050241D01*
X194895030Y-46981968D01*
X194916175Y-46953720D01*
X195030104Y-46839792D01*
X195076393Y-46776081D01*
X195120235Y-46715736D01*
X195155051Y-46667816D01*
X195251557Y-46478412D01*
X195317246Y-46276243D01*
X195350500Y-46066287D01*
X195350500Y-45853713D01*
X195317246Y-45643757D01*
X195251557Y-45441588D01*
X195155051Y-45252184D01*
X195155049Y-45252181D01*
X195155048Y-45252179D01*
X195030109Y-45080213D01*
X194879786Y-44929890D01*
X194707820Y-44804951D01*
X194707115Y-44804591D01*
X194699054Y-44800485D01*
X194648259Y-44752512D01*
X194631463Y-44684692D01*
X194653999Y-44618556D01*
X194699054Y-44579515D01*
X194707816Y-44575051D01*
X194787014Y-44517511D01*
X194879786Y-44450109D01*
X194879788Y-44450106D01*
X194879792Y-44450104D01*
X195030104Y-44299792D01*
X195030106Y-44299788D01*
X195030109Y-44299786D01*
X195155048Y-44127820D01*
X195155047Y-44127820D01*
X195155051Y-44127816D01*
X195251557Y-43938412D01*
X195317246Y-43736243D01*
X195350500Y-43526287D01*
X195350500Y-43313713D01*
X195317246Y-43103757D01*
X195251557Y-42901588D01*
X195155051Y-42712184D01*
X195155049Y-42712181D01*
X195155048Y-42712179D01*
X195030109Y-42540213D01*
X194879786Y-42389890D01*
X194707820Y-42264951D01*
X194707115Y-42264591D01*
X194699054Y-42260485D01*
X194648259Y-42212512D01*
X194631463Y-42144692D01*
X194653999Y-42078556D01*
X194699054Y-42039515D01*
X194707816Y-42035051D01*
X194729789Y-42019086D01*
X194879786Y-41910109D01*
X194879788Y-41910106D01*
X194879792Y-41910104D01*
X195030104Y-41759792D01*
X195030106Y-41759788D01*
X195030109Y-41759786D01*
X195155048Y-41587820D01*
X195155047Y-41587820D01*
X195155051Y-41587816D01*
X195251557Y-41398412D01*
X195317246Y-41196243D01*
X195350500Y-40986287D01*
X195350500Y-40773713D01*
X195317246Y-40563757D01*
X195251557Y-40361588D01*
X195155051Y-40172184D01*
X195155049Y-40172181D01*
X195154728Y-40171739D01*
X195154727Y-40171737D01*
X195154726Y-40171736D01*
X195030109Y-40000213D01*
X194879786Y-39849890D01*
X194707820Y-39724951D01*
X194518414Y-39628444D01*
X194518413Y-39628443D01*
X194518412Y-39628443D01*
X194316243Y-39562754D01*
X194316241Y-39562753D01*
X194316240Y-39562753D01*
X194154957Y-39537208D01*
X194106287Y-39529500D01*
X193893713Y-39529500D01*
X193845042Y-39537208D01*
X193683760Y-39562753D01*
X193481585Y-39628444D01*
X193292179Y-39724951D01*
X193120213Y-39849890D01*
X192969890Y-40000213D01*
X192844951Y-40172179D01*
X192748444Y-40361585D01*
X192682753Y-40563760D01*
X192649500Y-40773713D01*
X192649500Y-40986286D01*
X192682246Y-41193039D01*
X192682754Y-41196243D01*
X192732875Y-41350500D01*
X192748444Y-41398414D01*
X192844951Y-41587820D01*
X192969890Y-41759786D01*
X193120213Y-41910109D01*
X193292182Y-42035050D01*
X193300946Y-42039516D01*
X193351742Y-42087491D01*
X193368536Y-42155312D01*
X193345998Y-42221447D01*
X193300946Y-42260484D01*
X193292182Y-42264949D01*
X193120213Y-42389890D01*
X192969890Y-42540213D01*
X192844951Y-42712179D01*
X192748444Y-42901585D01*
X192682753Y-43103760D01*
X192663748Y-43223757D01*
X192649500Y-43313713D01*
X192649500Y-43526287D01*
X192658007Y-43580000D01*
X192680626Y-43722812D01*
X192682754Y-43736243D01*
X192721743Y-43856239D01*
X192748444Y-43938414D01*
X192844951Y-44127820D01*
X192969890Y-44299786D01*
X193120213Y-44450109D01*
X193292182Y-44575050D01*
X193300946Y-44579516D01*
X193351742Y-44627491D01*
X193368536Y-44695312D01*
X193345998Y-44761447D01*
X193300946Y-44800484D01*
X193292182Y-44804949D01*
X193120213Y-44929890D01*
X192969890Y-45080213D01*
X192844951Y-45252179D01*
X192748444Y-45441585D01*
X192682753Y-45643760D01*
X192656345Y-45810498D01*
X192649500Y-45853713D01*
X192649500Y-46066287D01*
X192652494Y-46085188D01*
X192681723Y-46269738D01*
X192682754Y-46276243D01*
X192735482Y-46438523D01*
X192748444Y-46478414D01*
X192844951Y-46667820D01*
X192969890Y-46839786D01*
X193083818Y-46953714D01*
X193117303Y-47015037D01*
X193112319Y-47084729D01*
X193070447Y-47140662D01*
X193039471Y-47157577D01*
X192907912Y-47206646D01*
X192907906Y-47206649D01*
X192792812Y-47292809D01*
X192792809Y-47292812D01*
X192706649Y-47407906D01*
X192706645Y-47407913D01*
X192656403Y-47542620D01*
X192656401Y-47542627D01*
X192650000Y-47602155D01*
X192650000Y-48250000D01*
X193566988Y-48250000D01*
X193534075Y-48307007D01*
X193500000Y-48434174D01*
X193500000Y-48565826D01*
X193534075Y-48692993D01*
X193566988Y-48750000D01*
X192650000Y-48750000D01*
X192650000Y-49397844D01*
X192656401Y-49457372D01*
X192656403Y-49457379D01*
X192706645Y-49592086D01*
X192706649Y-49592093D01*
X192792809Y-49707187D01*
X192792812Y-49707190D01*
X192907906Y-49793350D01*
X192907913Y-49793354D01*
X193042620Y-49843596D01*
X193042627Y-49843598D01*
X193102155Y-49849999D01*
X193102172Y-49850000D01*
X193750000Y-49850000D01*
X193750000Y-48933012D01*
X193807007Y-48965925D01*
X193934174Y-49000000D01*
X194065826Y-49000000D01*
X194192993Y-48965925D01*
X194250000Y-48933012D01*
X194250000Y-49850000D01*
X194775500Y-49850000D01*
X194842539Y-49869685D01*
X194888294Y-49922489D01*
X194899500Y-49974000D01*
X194899500Y-52920234D01*
X194879815Y-52987273D01*
X194878602Y-52989125D01*
X194790609Y-53120814D01*
X194790602Y-53120827D01*
X194730264Y-53266498D01*
X194730261Y-53266510D01*
X194699500Y-53421153D01*
X194699500Y-53578846D01*
X194730261Y-53733489D01*
X194730264Y-53733501D01*
X194790602Y-53879172D01*
X194790609Y-53879185D01*
X194878210Y-54010288D01*
X194878213Y-54010292D01*
X194989707Y-54121786D01*
X194989711Y-54121789D01*
X195120814Y-54209390D01*
X195120827Y-54209397D01*
X195261351Y-54267603D01*
X195266503Y-54269737D01*
X195421153Y-54300499D01*
X195421156Y-54300500D01*
X195421158Y-54300500D01*
X195578844Y-54300500D01*
X195578845Y-54300499D01*
X195733497Y-54269737D01*
X195871755Y-54212469D01*
X195879172Y-54209397D01*
X195879172Y-54209396D01*
X195879179Y-54209394D01*
X196010289Y-54121789D01*
X196121789Y-54010289D01*
X196209394Y-53879179D01*
X196269737Y-53733497D01*
X196300500Y-53578842D01*
X196300500Y-53421158D01*
X196300500Y-53421155D01*
X196300499Y-53421153D01*
X196287507Y-53355838D01*
X196269737Y-53266503D01*
X196269735Y-53266498D01*
X196209397Y-53120827D01*
X196209390Y-53120814D01*
X196121398Y-52989125D01*
X196100520Y-52922447D01*
X196100500Y-52920234D01*
X196100500Y-48880096D01*
X196120185Y-48813057D01*
X196136815Y-48792419D01*
X196437819Y-48491414D01*
X196499142Y-48457930D01*
X196568834Y-48462914D01*
X196624767Y-48504786D01*
X196649184Y-48570250D01*
X196649500Y-48579096D01*
X196649500Y-48726286D01*
X196677405Y-48902475D01*
X196682754Y-48936243D01*
X196692398Y-48965925D01*
X196748444Y-49138414D01*
X196844951Y-49327820D01*
X196969890Y-49499786D01*
X197120213Y-49650109D01*
X197292179Y-49775048D01*
X197292181Y-49775049D01*
X197292184Y-49775051D01*
X197481588Y-49871557D01*
X197683757Y-49937246D01*
X197893713Y-49970500D01*
X197893714Y-49970500D01*
X198106286Y-49970500D01*
X198106287Y-49970500D01*
X198316243Y-49937246D01*
X198388183Y-49913870D01*
X198458023Y-49911876D01*
X198517856Y-49947956D01*
X198548684Y-50010657D01*
X198550500Y-50031802D01*
X198550500Y-59976320D01*
X198530815Y-60043359D01*
X198478011Y-60089114D01*
X198408853Y-60099058D01*
X198388183Y-60094251D01*
X198291244Y-60062754D01*
X198291240Y-60062753D01*
X198126739Y-60036699D01*
X198081287Y-60029500D01*
X197868713Y-60029500D01*
X197823261Y-60036699D01*
X197658760Y-60062753D01*
X197456585Y-60128444D01*
X197267179Y-60224951D01*
X197095213Y-60349890D01*
X196944890Y-60500213D01*
X196819951Y-60672179D01*
X196723444Y-60861585D01*
X196657753Y-61063760D01*
X196624500Y-61273713D01*
X196624500Y-61486286D01*
X196641074Y-61590934D01*
X196657754Y-61696243D01*
X196702368Y-61833551D01*
X196723444Y-61898414D01*
X196819951Y-62087820D01*
X196944890Y-62259786D01*
X197095213Y-62410109D01*
X197267182Y-62535050D01*
X197275946Y-62539516D01*
X197326742Y-62587491D01*
X197343536Y-62655312D01*
X197320998Y-62721447D01*
X197275946Y-62760484D01*
X197267182Y-62764949D01*
X197095213Y-62889890D01*
X196944890Y-63040213D01*
X196819951Y-63212179D01*
X196723444Y-63401585D01*
X196657753Y-63603760D01*
X196624500Y-63813713D01*
X196624500Y-64026287D01*
X196631077Y-64067812D01*
X196649268Y-64182669D01*
X196657754Y-64236243D01*
X196703539Y-64377155D01*
X196723444Y-64438414D01*
X196819951Y-64627820D01*
X196944890Y-64799786D01*
X197095213Y-64950109D01*
X197267182Y-65075050D01*
X197275946Y-65079516D01*
X197326742Y-65127491D01*
X197343536Y-65195312D01*
X197320998Y-65261447D01*
X197275946Y-65300484D01*
X197267182Y-65304949D01*
X197095213Y-65429890D01*
X196944890Y-65580213D01*
X196819951Y-65752179D01*
X196723444Y-65941583D01*
X196657753Y-66143756D01*
X196653455Y-66170898D01*
X196623526Y-66234033D01*
X196564214Y-66270964D01*
X196530982Y-66275500D01*
X196435005Y-66275500D01*
X196299677Y-66302418D01*
X196299667Y-66302421D01*
X196172192Y-66355222D01*
X196057454Y-66431887D01*
X195136160Y-67353181D01*
X195074837Y-67386666D01*
X195048479Y-67389500D01*
X194297129Y-67389500D01*
X194297123Y-67389501D01*
X194237516Y-67395908D01*
X194102671Y-67446202D01*
X194102664Y-67446206D01*
X193987455Y-67532452D01*
X193987452Y-67532455D01*
X193901206Y-67647664D01*
X193901202Y-67647671D01*
X193874661Y-67718833D01*
X193861391Y-67736559D01*
X193852192Y-67756703D01*
X193840861Y-67763984D01*
X193832790Y-67774767D01*
X193812042Y-67782505D01*
X193793414Y-67794477D01*
X193771495Y-67797628D01*
X193767325Y-67799184D01*
X193758479Y-67799500D01*
X193694774Y-67799500D01*
X193627735Y-67779815D01*
X193594457Y-67748387D01*
X193542981Y-67677536D01*
X193402464Y-67537019D01*
X193331613Y-67485542D01*
X193328273Y-67481211D01*
X193323297Y-67478939D01*
X193307166Y-67453839D01*
X193288949Y-67430214D01*
X193287696Y-67423542D01*
X193285523Y-67420161D01*
X193280500Y-67385226D01*
X193280500Y-67199499D01*
X193300185Y-67132460D01*
X193352989Y-67086705D01*
X193404500Y-67075499D01*
X193647871Y-67075499D01*
X193647872Y-67075499D01*
X193707483Y-67069091D01*
X193842331Y-67018796D01*
X193957546Y-66932546D01*
X194043796Y-66817331D01*
X194094091Y-66682483D01*
X194100500Y-66622873D01*
X194100499Y-64377128D01*
X194094091Y-64317517D01*
X194063776Y-64236239D01*
X194043797Y-64182671D01*
X194043793Y-64182664D01*
X193957547Y-64067455D01*
X193957544Y-64067452D01*
X193842335Y-63981206D01*
X193842328Y-63981202D01*
X193707482Y-63930908D01*
X193707483Y-63930908D01*
X193647883Y-63924501D01*
X193647881Y-63924500D01*
X193647873Y-63924500D01*
X193647864Y-63924500D01*
X191352129Y-63924500D01*
X191352123Y-63924501D01*
X191292516Y-63930908D01*
X191157671Y-63981202D01*
X191157664Y-63981206D01*
X191042455Y-64067452D01*
X191042452Y-64067455D01*
X190956206Y-64182664D01*
X190956202Y-64182671D01*
X190905908Y-64317517D01*
X190899852Y-64373851D01*
X190899501Y-64377123D01*
X190899500Y-64377135D01*
X190899500Y-66622870D01*
X190899501Y-66622876D01*
X190905908Y-66682483D01*
X190956202Y-66817328D01*
X190956206Y-66817335D01*
X191042452Y-66932544D01*
X191042455Y-66932547D01*
X191157664Y-67018793D01*
X191157671Y-67018797D01*
X191202618Y-67035561D01*
X191292517Y-67069091D01*
X191352127Y-67075500D01*
X191755500Y-67075499D01*
X191764186Y-67078049D01*
X191773147Y-67076761D01*
X191797183Y-67087738D01*
X191822539Y-67095183D01*
X191828467Y-67102025D01*
X191836703Y-67105786D01*
X191850989Y-67128017D01*
X191868294Y-67147987D01*
X191870581Y-67158502D01*
X191874477Y-67164564D01*
X191879500Y-67199499D01*
X191879500Y-67385226D01*
X191859815Y-67452265D01*
X191828387Y-67485542D01*
X191775750Y-67523785D01*
X191757533Y-67537021D01*
X191617021Y-67677533D01*
X191500213Y-67838305D01*
X191420204Y-67995331D01*
X191372229Y-68046127D01*
X191304408Y-68062922D01*
X191238273Y-68040384D01*
X191199234Y-67995331D01*
X191119358Y-67838567D01*
X191092268Y-67801283D01*
X190529494Y-68364057D01*
X190513381Y-68303919D01*
X190446502Y-68188080D01*
X190351920Y-68093498D01*
X190236081Y-68026619D01*
X190175942Y-68010504D01*
X190738716Y-67447731D01*
X190738715Y-67447730D01*
X190701432Y-67420641D01*
X190524437Y-67330457D01*
X190335522Y-67269075D01*
X190139321Y-67238000D01*
X189940679Y-67238000D01*
X189744479Y-67269075D01*
X189744476Y-67269075D01*
X189555562Y-67330457D01*
X189378564Y-67420643D01*
X189341283Y-67447729D01*
X189341282Y-67447730D01*
X189904058Y-68010504D01*
X189843919Y-68026619D01*
X189728080Y-68093498D01*
X189633498Y-68188080D01*
X189566619Y-68303919D01*
X189550504Y-68364057D01*
X188987730Y-67801282D01*
X188987729Y-67801283D01*
X188960641Y-67838566D01*
X188880764Y-67995332D01*
X188832790Y-68046127D01*
X188764969Y-68062922D01*
X188698834Y-68040384D01*
X188659796Y-67995332D01*
X188579787Y-67838306D01*
X188462981Y-67677536D01*
X188322464Y-67537019D01*
X188161694Y-67420213D01*
X188095855Y-67386666D01*
X187984632Y-67329994D01*
X187984629Y-67329993D01*
X187883001Y-67296973D01*
X187825326Y-67257536D01*
X187798127Y-67193177D01*
X187810041Y-67124331D01*
X187833639Y-67091360D01*
X187849999Y-67075000D01*
X188350000Y-67075000D01*
X189247828Y-67075000D01*
X189247844Y-67074999D01*
X189307372Y-67068598D01*
X189307379Y-67068596D01*
X189442086Y-67018354D01*
X189442093Y-67018350D01*
X189557187Y-66932190D01*
X189557190Y-66932187D01*
X189643350Y-66817093D01*
X189643354Y-66817086D01*
X189693596Y-66682379D01*
X189693598Y-66682372D01*
X189699999Y-66622844D01*
X189700000Y-66622827D01*
X189700000Y-65750000D01*
X188350000Y-65750000D01*
X188350000Y-67075000D01*
X187849999Y-67075000D01*
X187850000Y-67074999D01*
X187850000Y-65750000D01*
X186500000Y-65750000D01*
X186500000Y-66622844D01*
X186506401Y-66682372D01*
X186506403Y-66682379D01*
X186556645Y-66817086D01*
X186556649Y-66817093D01*
X186642809Y-66932187D01*
X186642812Y-66932190D01*
X186757906Y-67018350D01*
X186757913Y-67018354D01*
X186892620Y-67068596D01*
X186892627Y-67068598D01*
X186952155Y-67074999D01*
X186952172Y-67075000D01*
X187017256Y-67075000D01*
X187084295Y-67094685D01*
X187130050Y-67147489D01*
X187139994Y-67216647D01*
X187110969Y-67280203D01*
X187055574Y-67316931D01*
X187015370Y-67329993D01*
X187015367Y-67329994D01*
X186838305Y-67420213D01*
X186677533Y-67537021D01*
X186537021Y-67677533D01*
X186420213Y-67838305D01*
X186329994Y-68015367D01*
X186329993Y-68015370D01*
X186268587Y-68204362D01*
X186237500Y-68400639D01*
X186237500Y-68599360D01*
X186268587Y-68795637D01*
X186329993Y-68984629D01*
X186329994Y-68984632D01*
X186401007Y-69124000D01*
X186420213Y-69161694D01*
X186537019Y-69322464D01*
X186677536Y-69462981D01*
X186838306Y-69579787D01*
X186861579Y-69591645D01*
X187015367Y-69670005D01*
X187015370Y-69670006D01*
X187109866Y-69700709D01*
X187204364Y-69731413D01*
X187400639Y-69762500D01*
X187400640Y-69762500D01*
X187599360Y-69762500D01*
X187599361Y-69762500D01*
X187795636Y-69731413D01*
X187984632Y-69670005D01*
X188161694Y-69579787D01*
X188322464Y-69462981D01*
X188462981Y-69322464D01*
X188579787Y-69161694D01*
X188659796Y-69004667D01*
X188707769Y-68953872D01*
X188775590Y-68937077D01*
X188841725Y-68959614D01*
X188880765Y-69004668D01*
X188960641Y-69161432D01*
X188987730Y-69198715D01*
X188987731Y-69198716D01*
X189550504Y-68635942D01*
X189566619Y-68696081D01*
X189633498Y-68811920D01*
X189728080Y-68906502D01*
X189843919Y-68973381D01*
X189904057Y-68989494D01*
X189341283Y-69552268D01*
X189341283Y-69552269D01*
X189378567Y-69579358D01*
X189555562Y-69669542D01*
X189744477Y-69730924D01*
X189940679Y-69762000D01*
X190139321Y-69762000D01*
X190335520Y-69730924D01*
X190335523Y-69730924D01*
X190524428Y-69669545D01*
X190528110Y-69668020D01*
X190597579Y-69660544D01*
X190660062Y-69691812D01*
X190695721Y-69751897D01*
X190693235Y-69821722D01*
X190674843Y-69856886D01*
X190636649Y-69907906D01*
X190636645Y-69907913D01*
X190586403Y-70042620D01*
X190586401Y-70042627D01*
X190580000Y-70102155D01*
X190580000Y-70250000D01*
X191155000Y-70250000D01*
X191155000Y-69650000D01*
X191032155Y-69650000D01*
X190972627Y-69656401D01*
X190972623Y-69656402D01*
X190905406Y-69681472D01*
X190835714Y-69686455D01*
X190774391Y-69652969D01*
X190740907Y-69591645D01*
X190738456Y-69555560D01*
X190738715Y-69552268D01*
X190175942Y-68989494D01*
X190236081Y-68973381D01*
X190351920Y-68906502D01*
X190446502Y-68811920D01*
X190513381Y-68696081D01*
X190529495Y-68635942D01*
X191092268Y-69198715D01*
X191119364Y-69161422D01*
X191199234Y-69004669D01*
X191247208Y-68953872D01*
X191315029Y-68937077D01*
X191381164Y-68959614D01*
X191420203Y-69004667D01*
X191500213Y-69161694D01*
X191617019Y-69322464D01*
X191617021Y-69322466D01*
X191732874Y-69438319D01*
X191766359Y-69499642D01*
X191761375Y-69569334D01*
X191719503Y-69625267D01*
X191656075Y-69648924D01*
X191655000Y-69650000D01*
X191655000Y-71350000D01*
X191777828Y-71350000D01*
X191777844Y-71349999D01*
X191837372Y-71343598D01*
X191837376Y-71343597D01*
X191972090Y-71293351D01*
X192005271Y-71268512D01*
X192070734Y-71244094D01*
X192139008Y-71258945D01*
X192153884Y-71268504D01*
X192187669Y-71293796D01*
X192322517Y-71344091D01*
X192382127Y-71350500D01*
X193127872Y-71350499D01*
X193187483Y-71344091D01*
X193322331Y-71293796D01*
X193437546Y-71207546D01*
X193523796Y-71092331D01*
X193574091Y-70957483D01*
X193580500Y-70897873D01*
X193580500Y-70557844D01*
X193845000Y-70557844D01*
X193851401Y-70617372D01*
X193851403Y-70617379D01*
X193901645Y-70752086D01*
X193901649Y-70752093D01*
X193987809Y-70867187D01*
X193987812Y-70867190D01*
X194102906Y-70953350D01*
X194102913Y-70953354D01*
X194237620Y-71003596D01*
X194237627Y-71003598D01*
X194297155Y-71009999D01*
X194297172Y-71010000D01*
X194830000Y-71010000D01*
X195330000Y-71010000D01*
X195862828Y-71010000D01*
X195862844Y-71009999D01*
X195922372Y-71003598D01*
X195922379Y-71003596D01*
X196057086Y-70953354D01*
X196057093Y-70953350D01*
X196172187Y-70867190D01*
X196172190Y-70867187D01*
X196258350Y-70752093D01*
X196258354Y-70752086D01*
X196308596Y-70617379D01*
X196308598Y-70617372D01*
X196314999Y-70557844D01*
X196315000Y-70557827D01*
X196315000Y-70250000D01*
X195330000Y-70250000D01*
X195330000Y-71010000D01*
X194830000Y-71010000D01*
X194830000Y-70250000D01*
X193845000Y-70250000D01*
X193845000Y-70557844D01*
X193580500Y-70557844D01*
X193580499Y-70102128D01*
X193574091Y-70042517D01*
X193523884Y-69907906D01*
X193523797Y-69907671D01*
X193523793Y-69907664D01*
X193437547Y-69792456D01*
X193437548Y-69792456D01*
X193437546Y-69792454D01*
X193331512Y-69713077D01*
X193289642Y-69657144D01*
X193284658Y-69587452D01*
X193318143Y-69526129D01*
X193332935Y-69513495D01*
X193402464Y-69462981D01*
X193542981Y-69322464D01*
X193594457Y-69251613D01*
X193598788Y-69248273D01*
X193601061Y-69243297D01*
X193626160Y-69227166D01*
X193649786Y-69208949D01*
X193656457Y-69207696D01*
X193659839Y-69205523D01*
X193694774Y-69200500D01*
X193740737Y-69200500D01*
X193807776Y-69220185D01*
X193853531Y-69272989D01*
X193863475Y-69342147D01*
X193856918Y-69367835D01*
X193851403Y-69382619D01*
X193851401Y-69382627D01*
X193845000Y-69442155D01*
X193845000Y-69750000D01*
X196315000Y-69750000D01*
X196315000Y-69442172D01*
X196314999Y-69442155D01*
X196308598Y-69382627D01*
X196308597Y-69382623D01*
X196256911Y-69244048D01*
X196255026Y-69217694D01*
X196249408Y-69191884D01*
X196251386Y-69182782D01*
X196251129Y-69180991D01*
X196252123Y-69177096D01*
X196251927Y-69174356D01*
X196256906Y-69157396D01*
X196257680Y-69155320D01*
X196257682Y-69155316D01*
X196257686Y-69155304D01*
X196258793Y-69152333D01*
X196258796Y-69152331D01*
X196309091Y-69017483D01*
X196315500Y-68957873D01*
X196315499Y-68206518D01*
X196324145Y-68177072D01*
X196330667Y-68147092D01*
X196334419Y-68142078D01*
X196335183Y-68139480D01*
X196351818Y-68118838D01*
X196413319Y-68057337D01*
X196474642Y-68023852D01*
X196544334Y-68028836D01*
X196600267Y-68070708D01*
X196624684Y-68136172D01*
X196625000Y-68145018D01*
X196625000Y-68750000D01*
X197541988Y-68750000D01*
X197509075Y-68807007D01*
X197475000Y-68934174D01*
X197475000Y-69065826D01*
X197509075Y-69192993D01*
X197541988Y-69250000D01*
X196625000Y-69250000D01*
X196625000Y-69897844D01*
X196631401Y-69957372D01*
X196631403Y-69957379D01*
X196681645Y-70092086D01*
X196681649Y-70092093D01*
X196767809Y-70207187D01*
X196767812Y-70207190D01*
X196882906Y-70293350D01*
X196882913Y-70293354D01*
X197017620Y-70343596D01*
X197017627Y-70343598D01*
X197077155Y-70349999D01*
X197077172Y-70350000D01*
X197725000Y-70350000D01*
X197725000Y-69433012D01*
X197782007Y-69465925D01*
X197909174Y-69500000D01*
X198040826Y-69500000D01*
X198167993Y-69465925D01*
X198225000Y-69433012D01*
X198225000Y-70350000D01*
X198334981Y-70350000D01*
X198402020Y-70369685D01*
X198447775Y-70422489D01*
X198457719Y-70491647D01*
X198428694Y-70555203D01*
X198422662Y-70561681D01*
X195536681Y-73447662D01*
X195475358Y-73481147D01*
X195405666Y-73476163D01*
X195349733Y-73434291D01*
X195325316Y-73368827D01*
X195325000Y-73359981D01*
X195325000Y-73275000D01*
X194408012Y-73275000D01*
X194440925Y-73217993D01*
X194475000Y-73090826D01*
X194475000Y-72959174D01*
X194440925Y-72832007D01*
X194408012Y-72775000D01*
X195325000Y-72775000D01*
X195325000Y-72127172D01*
X195324999Y-72127155D01*
X195318598Y-72067627D01*
X195318596Y-72067620D01*
X195268354Y-71932913D01*
X195268350Y-71932906D01*
X195182190Y-71817812D01*
X195182187Y-71817809D01*
X195067093Y-71731649D01*
X195067086Y-71731645D01*
X194932379Y-71681403D01*
X194932372Y-71681401D01*
X194872844Y-71675000D01*
X194225000Y-71675000D01*
X194225000Y-72591988D01*
X194167993Y-72559075D01*
X194040826Y-72525000D01*
X193909174Y-72525000D01*
X193782007Y-72559075D01*
X193725000Y-72591988D01*
X193725000Y-71675000D01*
X193077155Y-71675000D01*
X193017627Y-71681401D01*
X193017620Y-71681403D01*
X192882913Y-71731645D01*
X192882906Y-71731649D01*
X192767812Y-71817809D01*
X192767809Y-71817812D01*
X192681649Y-71932906D01*
X192681646Y-71932912D01*
X192632577Y-72064471D01*
X192590705Y-72120404D01*
X192525241Y-72144821D01*
X192456968Y-72129969D01*
X192428714Y-72108818D01*
X192314786Y-71994890D01*
X192142820Y-71869951D01*
X191953414Y-71773444D01*
X191953413Y-71773443D01*
X191953412Y-71773443D01*
X191751243Y-71707754D01*
X191751241Y-71707753D01*
X191751240Y-71707753D01*
X191589957Y-71682208D01*
X191541287Y-71674500D01*
X191328713Y-71674500D01*
X191280042Y-71682208D01*
X191118760Y-71707753D01*
X191118757Y-71707754D01*
X190940976Y-71765519D01*
X190916585Y-71773444D01*
X190727179Y-71869951D01*
X190555213Y-71994890D01*
X190404890Y-72145213D01*
X190279949Y-72317182D01*
X190275484Y-72325946D01*
X190227509Y-72376742D01*
X190159688Y-72393536D01*
X190093553Y-72370998D01*
X190054516Y-72325946D01*
X190050050Y-72317182D01*
X189925109Y-72145213D01*
X189774786Y-71994890D01*
X189602820Y-71869951D01*
X189413414Y-71773444D01*
X189413413Y-71773443D01*
X189413412Y-71773443D01*
X189211243Y-71707754D01*
X189211241Y-71707753D01*
X189211240Y-71707753D01*
X189049957Y-71682208D01*
X189001287Y-71674500D01*
X188788713Y-71674500D01*
X188740042Y-71682208D01*
X188578760Y-71707753D01*
X188578757Y-71707754D01*
X188400976Y-71765519D01*
X188376585Y-71773444D01*
X188187179Y-71869951D01*
X188015213Y-71994890D01*
X187864890Y-72145213D01*
X187739949Y-72317182D01*
X187735484Y-72325946D01*
X187687509Y-72376742D01*
X187619688Y-72393536D01*
X187553553Y-72370998D01*
X187514516Y-72325946D01*
X187510050Y-72317182D01*
X187385109Y-72145213D01*
X187234786Y-71994890D01*
X187062820Y-71869951D01*
X186873414Y-71773444D01*
X186873413Y-71773443D01*
X186873412Y-71773443D01*
X186671243Y-71707754D01*
X186671241Y-71707753D01*
X186671240Y-71707753D01*
X186509957Y-71682208D01*
X186461287Y-71674500D01*
X186248713Y-71674500D01*
X186200042Y-71682208D01*
X186038760Y-71707753D01*
X186038757Y-71707754D01*
X185860976Y-71765519D01*
X185836585Y-71773444D01*
X185647179Y-71869951D01*
X185475213Y-71994890D01*
X185324890Y-72145213D01*
X185199951Y-72317179D01*
X185103444Y-72506585D01*
X185037753Y-72708760D01*
X185004500Y-72918713D01*
X185004500Y-73131286D01*
X185033793Y-73316239D01*
X185037754Y-73341243D01*
X185043842Y-73359981D01*
X185061129Y-73413182D01*
X185063124Y-73483023D01*
X185027044Y-73542856D01*
X184964343Y-73573684D01*
X184943198Y-73575500D01*
X174998679Y-73575500D01*
X174931640Y-73555815D01*
X174885885Y-73503011D01*
X174875941Y-73433853D01*
X174880748Y-73413182D01*
X174884999Y-73400099D01*
X174912246Y-73316243D01*
X174945500Y-73106287D01*
X174945500Y-72893713D01*
X174912246Y-72683757D01*
X174846557Y-72481588D01*
X174750051Y-72292184D01*
X174750049Y-72292181D01*
X174750048Y-72292179D01*
X174625109Y-72120213D01*
X174474786Y-71969890D01*
X174302820Y-71844951D01*
X174113414Y-71748444D01*
X174113413Y-71748443D01*
X174113412Y-71748443D01*
X173911243Y-71682754D01*
X173911241Y-71682753D01*
X173911240Y-71682753D01*
X173749957Y-71657208D01*
X173701287Y-71649500D01*
X173488713Y-71649500D01*
X173440042Y-71657208D01*
X173278760Y-71682753D01*
X173076585Y-71748444D01*
X172887179Y-71844951D01*
X172715213Y-71969890D01*
X172564890Y-72120213D01*
X172439949Y-72292182D01*
X172435484Y-72300946D01*
X172387509Y-72351742D01*
X172319688Y-72368536D01*
X172253553Y-72345998D01*
X172214516Y-72300946D01*
X172210050Y-72292182D01*
X172085109Y-72120213D01*
X171934786Y-71969890D01*
X171762820Y-71844951D01*
X171573414Y-71748444D01*
X171573413Y-71748443D01*
X171573412Y-71748443D01*
X171371243Y-71682754D01*
X171371241Y-71682753D01*
X171371240Y-71682753D01*
X171209957Y-71657208D01*
X171161287Y-71649500D01*
X170948713Y-71649500D01*
X170900042Y-71657208D01*
X170738760Y-71682753D01*
X170536585Y-71748444D01*
X170347179Y-71844951D01*
X170175213Y-71969890D01*
X170024890Y-72120213D01*
X169899949Y-72292182D01*
X169895484Y-72300946D01*
X169847509Y-72351742D01*
X169779688Y-72368536D01*
X169713553Y-72345998D01*
X169674516Y-72300946D01*
X169670050Y-72292182D01*
X169545109Y-72120213D01*
X169394786Y-71969890D01*
X169222820Y-71844951D01*
X169033414Y-71748444D01*
X169033413Y-71748443D01*
X169033412Y-71748443D01*
X168831243Y-71682754D01*
X168831241Y-71682753D01*
X168831240Y-71682753D01*
X168669957Y-71657208D01*
X168621287Y-71649500D01*
X168408713Y-71649500D01*
X168360042Y-71657208D01*
X168198760Y-71682753D01*
X167996585Y-71748444D01*
X167807179Y-71844951D01*
X167635215Y-71969889D01*
X167521285Y-72083819D01*
X167459962Y-72117303D01*
X167390270Y-72112319D01*
X167334337Y-72070447D01*
X167317422Y-72039470D01*
X167268354Y-71907913D01*
X167268350Y-71907906D01*
X167182190Y-71792812D01*
X167182187Y-71792809D01*
X167067093Y-71706649D01*
X167067086Y-71706645D01*
X166932379Y-71656403D01*
X166932372Y-71656401D01*
X166872844Y-71650000D01*
X166225000Y-71650000D01*
X166225000Y-72566988D01*
X166167993Y-72534075D01*
X166040826Y-72500000D01*
X165909174Y-72500000D01*
X165782007Y-72534075D01*
X165725000Y-72566988D01*
X165725000Y-71650000D01*
X165077155Y-71650000D01*
X165017627Y-71656401D01*
X165017620Y-71656403D01*
X164882913Y-71706645D01*
X164882906Y-71706649D01*
X164767812Y-71792809D01*
X164767809Y-71792812D01*
X164681649Y-71907906D01*
X164681645Y-71907913D01*
X164631403Y-72042620D01*
X164631401Y-72042627D01*
X164625000Y-72102155D01*
X164625000Y-72750000D01*
X165541988Y-72750000D01*
X165509075Y-72807007D01*
X165475000Y-72934174D01*
X165475000Y-73065826D01*
X165509075Y-73192993D01*
X165541988Y-73250000D01*
X164625000Y-73250000D01*
X164625000Y-73334981D01*
X164605315Y-73402020D01*
X164552511Y-73447775D01*
X164483353Y-73457719D01*
X164419797Y-73428694D01*
X164413319Y-73422662D01*
X161888501Y-70897844D01*
X190580000Y-70897844D01*
X190586401Y-70957372D01*
X190586403Y-70957379D01*
X190636645Y-71092086D01*
X190636649Y-71092093D01*
X190722809Y-71207187D01*
X190722812Y-71207190D01*
X190837906Y-71293350D01*
X190837913Y-71293354D01*
X190972620Y-71343596D01*
X190972627Y-71343598D01*
X191032155Y-71349999D01*
X191032172Y-71350000D01*
X191155000Y-71350000D01*
X191155000Y-70750000D01*
X190580000Y-70750000D01*
X190580000Y-70897844D01*
X161888501Y-70897844D01*
X161552338Y-70561681D01*
X161518853Y-70500358D01*
X161523837Y-70430666D01*
X161565709Y-70374733D01*
X161631173Y-70350316D01*
X161640019Y-70350000D01*
X161750000Y-70350000D01*
X161750000Y-69433012D01*
X161807007Y-69465925D01*
X161934174Y-69500000D01*
X162065826Y-69500000D01*
X162192993Y-69465925D01*
X162250000Y-69433012D01*
X162250000Y-70350000D01*
X162897828Y-70350000D01*
X162897844Y-70349999D01*
X162957372Y-70343598D01*
X162957379Y-70343596D01*
X163092086Y-70293354D01*
X163092093Y-70293350D01*
X163207187Y-70207190D01*
X163207190Y-70207187D01*
X163293350Y-70092093D01*
X163293354Y-70092086D01*
X163343596Y-69957379D01*
X163343598Y-69957372D01*
X163349999Y-69897844D01*
X163350000Y-69897827D01*
X163350000Y-69250000D01*
X162433012Y-69250000D01*
X162465925Y-69192993D01*
X162500000Y-69065826D01*
X162500000Y-68934174D01*
X162465925Y-68807007D01*
X162433012Y-68750000D01*
X163350000Y-68750000D01*
X163350000Y-68102172D01*
X163349999Y-68102155D01*
X163343598Y-68042627D01*
X163343596Y-68042620D01*
X163293354Y-67907913D01*
X163293350Y-67907906D01*
X163207190Y-67792812D01*
X163207187Y-67792809D01*
X163092093Y-67706649D01*
X163092088Y-67706646D01*
X162960528Y-67657577D01*
X162904595Y-67615705D01*
X162880178Y-67550241D01*
X162895030Y-67481968D01*
X162916175Y-67453720D01*
X163030104Y-67339792D01*
X163037224Y-67329993D01*
X163155048Y-67167820D01*
X163155047Y-67167820D01*
X163155051Y-67167816D01*
X163251557Y-66978412D01*
X163317246Y-66776243D01*
X163350500Y-66566287D01*
X163350500Y-66353713D01*
X163317246Y-66143757D01*
X163251557Y-65941588D01*
X163155051Y-65752184D01*
X163155049Y-65752181D01*
X163155048Y-65752179D01*
X163030109Y-65580213D01*
X162879786Y-65429890D01*
X162707820Y-65304951D01*
X162707115Y-65304591D01*
X162699054Y-65300485D01*
X162648259Y-65252512D01*
X162631463Y-65184692D01*
X162653999Y-65118556D01*
X162699054Y-65079515D01*
X162707816Y-65075051D01*
X162821666Y-64992335D01*
X162879786Y-64950109D01*
X162879788Y-64950106D01*
X162879792Y-64950104D01*
X163030104Y-64799792D01*
X163030106Y-64799788D01*
X163030109Y-64799786D01*
X163155048Y-64627820D01*
X163155047Y-64627820D01*
X163155051Y-64627816D01*
X163251557Y-64438412D01*
X163317246Y-64236243D01*
X163350500Y-64026287D01*
X163350500Y-63813713D01*
X163317246Y-63603757D01*
X163251557Y-63401588D01*
X163155051Y-63212184D01*
X163155049Y-63212181D01*
X163155048Y-63212179D01*
X163030109Y-63040213D01*
X162879786Y-62889890D01*
X162707820Y-62764951D01*
X162707115Y-62764591D01*
X162699054Y-62760485D01*
X162648259Y-62712512D01*
X162631463Y-62644692D01*
X162653999Y-62578556D01*
X162699054Y-62539515D01*
X162707816Y-62535051D01*
X162745762Y-62507482D01*
X162879786Y-62410109D01*
X162879788Y-62410106D01*
X162879792Y-62410104D01*
X163030104Y-62259792D01*
X163030106Y-62259788D01*
X163030109Y-62259786D01*
X163155048Y-62087820D01*
X163155047Y-62087820D01*
X163155051Y-62087816D01*
X163251557Y-61898412D01*
X163317246Y-61696243D01*
X163350500Y-61486287D01*
X163350500Y-61273713D01*
X163317246Y-61063757D01*
X163251557Y-60861588D01*
X163155051Y-60672184D01*
X163155049Y-60672181D01*
X163155048Y-60672179D01*
X163030109Y-60500213D01*
X162879786Y-60349890D01*
X162707820Y-60224951D01*
X162518414Y-60128444D01*
X162518413Y-60128443D01*
X162518412Y-60128443D01*
X162316243Y-60062754D01*
X162316241Y-60062753D01*
X162316240Y-60062753D01*
X162151739Y-60036699D01*
X162106287Y-60029500D01*
X161893713Y-60029500D01*
X161854202Y-60035757D01*
X161683759Y-60062753D01*
X161683755Y-60062754D01*
X161586817Y-60094251D01*
X161516976Y-60096246D01*
X161457144Y-60060165D01*
X161426316Y-59997464D01*
X161424500Y-59976320D01*
X161424500Y-54874425D01*
X166008008Y-54874425D01*
X166008008Y-55125574D01*
X166047293Y-55373614D01*
X166124901Y-55612464D01*
X166200867Y-55761553D01*
X166222998Y-55804988D01*
X166238916Y-55836227D01*
X166386522Y-56039393D01*
X166564114Y-56216985D01*
X166678023Y-56299743D01*
X166767284Y-56364594D01*
X166889784Y-56427011D01*
X166991043Y-56478606D01*
X166991045Y-56478606D01*
X166991048Y-56478608D01*
X167229894Y-56556214D01*
X167381220Y-56580181D01*
X167435565Y-56588789D01*
X167498700Y-56618718D01*
X167535631Y-56678030D01*
X167534633Y-56747892D01*
X167532349Y-56754594D01*
X167480909Y-56892514D01*
X167480908Y-56892516D01*
X167474501Y-56952116D01*
X167474500Y-56952135D01*
X167474500Y-58047870D01*
X167474501Y-58047876D01*
X167480908Y-58107483D01*
X167531202Y-58242328D01*
X167531206Y-58242335D01*
X167617452Y-58357544D01*
X167622227Y-58362319D01*
X167655712Y-58423642D01*
X167650728Y-58493334D01*
X167622227Y-58537681D01*
X167617452Y-58542455D01*
X167531206Y-58657664D01*
X167531202Y-58657671D01*
X167480908Y-58792517D01*
X167474501Y-58852116D01*
X167474500Y-58852135D01*
X167474500Y-59947870D01*
X167474501Y-59947876D01*
X167480908Y-60007483D01*
X167531202Y-60142328D01*
X167531206Y-60142335D01*
X167617452Y-60257544D01*
X167617455Y-60257547D01*
X167732664Y-60343793D01*
X167732671Y-60343797D01*
X167867517Y-60394091D01*
X167867516Y-60394091D01*
X167874444Y-60394835D01*
X167927127Y-60400500D01*
X169275500Y-60400499D01*
X169284185Y-60403049D01*
X169293147Y-60401761D01*
X169317187Y-60412739D01*
X169342539Y-60420184D01*
X169348466Y-60427024D01*
X169356703Y-60430786D01*
X169370990Y-60453018D01*
X169388294Y-60472987D01*
X169390581Y-60483502D01*
X169394477Y-60489564D01*
X169399500Y-60524499D01*
X169399500Y-60630336D01*
X169379815Y-60697375D01*
X169327011Y-60743130D01*
X169288754Y-60753626D01*
X169267516Y-60755909D01*
X169132671Y-60806202D01*
X169132664Y-60806206D01*
X169017455Y-60892452D01*
X169017452Y-60892455D01*
X168931206Y-61007664D01*
X168931202Y-61007671D01*
X168880908Y-61142517D01*
X168875504Y-61192789D01*
X168874501Y-61202123D01*
X168874500Y-61202135D01*
X168874500Y-62447870D01*
X168874501Y-62447876D01*
X168880908Y-62507483D01*
X168931202Y-62642328D01*
X168931206Y-62642335D01*
X169017452Y-62757544D01*
X169017455Y-62757547D01*
X169132664Y-62843793D01*
X169132671Y-62843797D01*
X169239972Y-62883818D01*
X169295906Y-62925689D01*
X169320323Y-62991154D01*
X169305471Y-63059427D01*
X169256066Y-63108832D01*
X169239972Y-63116182D01*
X169132671Y-63156202D01*
X169132664Y-63156206D01*
X169017455Y-63242452D01*
X169017452Y-63242455D01*
X168931206Y-63357664D01*
X168931202Y-63357671D01*
X168880908Y-63492517D01*
X168874501Y-63552116D01*
X168874501Y-63552123D01*
X168874500Y-63552135D01*
X168874500Y-64797870D01*
X168874501Y-64797876D01*
X168880908Y-64857483D01*
X168931202Y-64992328D01*
X168931206Y-64992335D01*
X169017452Y-65107544D01*
X169017455Y-65107547D01*
X169132664Y-65193793D01*
X169132671Y-65193797D01*
X169267517Y-65244091D01*
X169267516Y-65244091D01*
X169274444Y-65244835D01*
X169327127Y-65250500D01*
X170672872Y-65250499D01*
X170732483Y-65244091D01*
X170867331Y-65193796D01*
X170982546Y-65107546D01*
X171068796Y-64992331D01*
X171119091Y-64857483D01*
X171125500Y-64797873D01*
X171125499Y-63552128D01*
X171119091Y-63492517D01*
X171068796Y-63357669D01*
X171068795Y-63357668D01*
X171068793Y-63357664D01*
X170982547Y-63242455D01*
X170982544Y-63242452D01*
X170867335Y-63156206D01*
X170867328Y-63156202D01*
X170760027Y-63116182D01*
X170704093Y-63074311D01*
X170679676Y-63008847D01*
X170694527Y-62940574D01*
X170743932Y-62891168D01*
X170760027Y-62883818D01*
X170867328Y-62843797D01*
X170867327Y-62843797D01*
X170867331Y-62843796D01*
X170982546Y-62757546D01*
X171068796Y-62642331D01*
X171119091Y-62507483D01*
X171125500Y-62447873D01*
X171125499Y-61202128D01*
X171119091Y-61142517D01*
X171089715Y-61063757D01*
X171068797Y-61007671D01*
X171068793Y-61007664D01*
X170982547Y-60892455D01*
X170982544Y-60892452D01*
X170867335Y-60806206D01*
X170867328Y-60806202D01*
X170732483Y-60755908D01*
X170711243Y-60753625D01*
X170646692Y-60726886D01*
X170606845Y-60669493D01*
X170600500Y-60630336D01*
X170600500Y-58300096D01*
X170609144Y-58270655D01*
X170615668Y-58240669D01*
X170619422Y-58235653D01*
X170620185Y-58233057D01*
X170636815Y-58212419D01*
X170779506Y-58069728D01*
X170840828Y-58036244D01*
X170910520Y-58041228D01*
X170966453Y-58083100D01*
X170983368Y-58114077D01*
X171031202Y-58242328D01*
X171031206Y-58242335D01*
X171117452Y-58357544D01*
X171122227Y-58362319D01*
X171155712Y-58423642D01*
X171150728Y-58493334D01*
X171122227Y-58537681D01*
X171117452Y-58542455D01*
X171031206Y-58657664D01*
X171031202Y-58657671D01*
X170980908Y-58792517D01*
X170974501Y-58852116D01*
X170974500Y-58852135D01*
X170974500Y-59947870D01*
X170974501Y-59947876D01*
X170980908Y-60007483D01*
X171031202Y-60142328D01*
X171031206Y-60142335D01*
X171117452Y-60257544D01*
X171117455Y-60257547D01*
X171232664Y-60343793D01*
X171232671Y-60343797D01*
X171367517Y-60394091D01*
X171367516Y-60394091D01*
X171374444Y-60394835D01*
X171427127Y-60400500D01*
X172775500Y-60400499D01*
X172784185Y-60403049D01*
X172793147Y-60401761D01*
X172817187Y-60412739D01*
X172842539Y-60420184D01*
X172848466Y-60427024D01*
X172856703Y-60430786D01*
X172870990Y-60453018D01*
X172888294Y-60472987D01*
X172890581Y-60483502D01*
X172894477Y-60489564D01*
X172899500Y-60524499D01*
X172899500Y-60630336D01*
X172879815Y-60697375D01*
X172827011Y-60743130D01*
X172788754Y-60753626D01*
X172767516Y-60755909D01*
X172632671Y-60806202D01*
X172632664Y-60806206D01*
X172517455Y-60892452D01*
X172517452Y-60892455D01*
X172431206Y-61007664D01*
X172431202Y-61007671D01*
X172380908Y-61142517D01*
X172375504Y-61192789D01*
X172374501Y-61202123D01*
X172374500Y-61202135D01*
X172374500Y-62447870D01*
X172374501Y-62447876D01*
X172380908Y-62507483D01*
X172431202Y-62642328D01*
X172431206Y-62642335D01*
X172517452Y-62757544D01*
X172517455Y-62757547D01*
X172632664Y-62843793D01*
X172632671Y-62843797D01*
X172739972Y-62883818D01*
X172795906Y-62925689D01*
X172820323Y-62991154D01*
X172805471Y-63059427D01*
X172756066Y-63108832D01*
X172739972Y-63116182D01*
X172632671Y-63156202D01*
X172632664Y-63156206D01*
X172517455Y-63242452D01*
X172517452Y-63242455D01*
X172431206Y-63357664D01*
X172431202Y-63357671D01*
X172380908Y-63492517D01*
X172374501Y-63552116D01*
X172374501Y-63552123D01*
X172374500Y-63552135D01*
X172374500Y-64797870D01*
X172374501Y-64797876D01*
X172380908Y-64857483D01*
X172431202Y-64992328D01*
X172431206Y-64992335D01*
X172517452Y-65107544D01*
X172517455Y-65107547D01*
X172632664Y-65193793D01*
X172632671Y-65193797D01*
X172767517Y-65244091D01*
X172767516Y-65244091D01*
X172774444Y-65244835D01*
X172827127Y-65250500D01*
X174172872Y-65250499D01*
X174232483Y-65244091D01*
X174367331Y-65193796D01*
X174482546Y-65107546D01*
X174568796Y-64992331D01*
X174619091Y-64857483D01*
X174625500Y-64797873D01*
X174625499Y-63552128D01*
X174619091Y-63492517D01*
X174568796Y-63357669D01*
X174568795Y-63357668D01*
X174568793Y-63357664D01*
X174482547Y-63242455D01*
X174482544Y-63242452D01*
X174367335Y-63156206D01*
X174367328Y-63156202D01*
X174260027Y-63116182D01*
X174204093Y-63074311D01*
X174179676Y-63008847D01*
X174194527Y-62940574D01*
X174243932Y-62891168D01*
X174260027Y-62883818D01*
X174367328Y-62843797D01*
X174367327Y-62843797D01*
X174367331Y-62843796D01*
X174482546Y-62757546D01*
X174568796Y-62642331D01*
X174619091Y-62507483D01*
X174625500Y-62447873D01*
X174625499Y-61202128D01*
X174619091Y-61142517D01*
X174589715Y-61063757D01*
X174568797Y-61007671D01*
X174568793Y-61007664D01*
X174482547Y-60892455D01*
X174482544Y-60892452D01*
X174367335Y-60806206D01*
X174367328Y-60806202D01*
X174232483Y-60755908D01*
X174211243Y-60753625D01*
X174146692Y-60726886D01*
X174106845Y-60669493D01*
X174100500Y-60630336D01*
X174100500Y-57491785D01*
X174109144Y-57462344D01*
X174115668Y-57432358D01*
X174119422Y-57427342D01*
X174120185Y-57424746D01*
X174136815Y-57404108D01*
X174262820Y-57278103D01*
X174324142Y-57244619D01*
X174393834Y-57249603D01*
X174449767Y-57291475D01*
X174474184Y-57356939D01*
X174474500Y-57365785D01*
X174474500Y-58047870D01*
X174474501Y-58047876D01*
X174480908Y-58107483D01*
X174531202Y-58242328D01*
X174531206Y-58242335D01*
X174617452Y-58357544D01*
X174622227Y-58362319D01*
X174655712Y-58423642D01*
X174650728Y-58493334D01*
X174622227Y-58537681D01*
X174617452Y-58542455D01*
X174531206Y-58657664D01*
X174531202Y-58657671D01*
X174480908Y-58792517D01*
X174474501Y-58852116D01*
X174474500Y-58852135D01*
X174474500Y-59947870D01*
X174474501Y-59947876D01*
X174480908Y-60007483D01*
X174531202Y-60142328D01*
X174531206Y-60142335D01*
X174617452Y-60257544D01*
X174617455Y-60257547D01*
X174732664Y-60343793D01*
X174732671Y-60343797D01*
X174867517Y-60394091D01*
X174867516Y-60394091D01*
X174874444Y-60394835D01*
X174927127Y-60400500D01*
X176059508Y-60400499D01*
X176068193Y-60403049D01*
X176077155Y-60401761D01*
X176101195Y-60412739D01*
X176126547Y-60420184D01*
X176132474Y-60427024D01*
X176140711Y-60430786D01*
X176154998Y-60453018D01*
X176172302Y-60472987D01*
X176174589Y-60483502D01*
X176178485Y-60489564D01*
X176183508Y-60524499D01*
X176183508Y-60706076D01*
X176163823Y-60773115D01*
X176133819Y-60805342D01*
X176017455Y-60892452D01*
X176017452Y-60892455D01*
X175931206Y-61007664D01*
X175931202Y-61007671D01*
X175880908Y-61142517D01*
X175875504Y-61192789D01*
X175874501Y-61202123D01*
X175874500Y-61202135D01*
X175874500Y-62447870D01*
X175874501Y-62447876D01*
X175880908Y-62507483D01*
X175931202Y-62642328D01*
X175931206Y-62642335D01*
X176017452Y-62757544D01*
X176017455Y-62757547D01*
X176132664Y-62843793D01*
X176132671Y-62843797D01*
X176239972Y-62883818D01*
X176295906Y-62925689D01*
X176320323Y-62991154D01*
X176305471Y-63059427D01*
X176256066Y-63108832D01*
X176239972Y-63116182D01*
X176132671Y-63156202D01*
X176132664Y-63156206D01*
X176017455Y-63242452D01*
X176017452Y-63242455D01*
X175931206Y-63357664D01*
X175931202Y-63357671D01*
X175880908Y-63492517D01*
X175874501Y-63552116D01*
X175874501Y-63552123D01*
X175874500Y-63552135D01*
X175874500Y-64797870D01*
X175874501Y-64797876D01*
X175880908Y-64857483D01*
X175931202Y-64992328D01*
X175931206Y-64992335D01*
X176017452Y-65107544D01*
X176017455Y-65107547D01*
X176132664Y-65193793D01*
X176132671Y-65193797D01*
X176267517Y-65244091D01*
X176267516Y-65244091D01*
X176274444Y-65244835D01*
X176327127Y-65250500D01*
X177672872Y-65250499D01*
X177732483Y-65244091D01*
X177867331Y-65193796D01*
X177982546Y-65107546D01*
X178068796Y-64992331D01*
X178119091Y-64857483D01*
X178125500Y-64797873D01*
X178125499Y-63552128D01*
X178119091Y-63492517D01*
X178068796Y-63357669D01*
X178068795Y-63357668D01*
X178068793Y-63357664D01*
X177982547Y-63242455D01*
X177982544Y-63242452D01*
X177867335Y-63156206D01*
X177867328Y-63156202D01*
X177760027Y-63116182D01*
X177704093Y-63074311D01*
X177679676Y-63008847D01*
X177694527Y-62940574D01*
X177743932Y-62891168D01*
X177760027Y-62883818D01*
X177867328Y-62843797D01*
X177867327Y-62843797D01*
X177867331Y-62843796D01*
X177982546Y-62757546D01*
X178068796Y-62642331D01*
X178119091Y-62507483D01*
X178125500Y-62447873D01*
X178125499Y-61202128D01*
X178119091Y-61142517D01*
X178089715Y-61063757D01*
X178068797Y-61007671D01*
X178068793Y-61007664D01*
X177982547Y-60892455D01*
X177982544Y-60892452D01*
X177867335Y-60806206D01*
X177867328Y-60806202D01*
X177732482Y-60755908D01*
X177732483Y-60755908D01*
X177672883Y-60749501D01*
X177672881Y-60749500D01*
X177672873Y-60749500D01*
X177672865Y-60749500D01*
X177508508Y-60749500D01*
X177441469Y-60729815D01*
X177395714Y-60677011D01*
X177384508Y-60625500D01*
X177384508Y-56270313D01*
X177404193Y-56203274D01*
X177456997Y-56157519D01*
X177526155Y-56147575D01*
X177527846Y-56147831D01*
X177581026Y-56156253D01*
X177661502Y-56169000D01*
X177661506Y-56169000D01*
X177845514Y-56169000D01*
X177936380Y-56154608D01*
X178027250Y-56140216D01*
X178202248Y-56083355D01*
X178366198Y-55999819D01*
X178377133Y-55991873D01*
X178409221Y-55980424D01*
X178441171Y-55968507D01*
X178442070Y-55968702D01*
X178442939Y-55968393D01*
X178476143Y-55976114D01*
X178509445Y-55983358D01*
X178510413Y-55984083D01*
X178510993Y-55984218D01*
X178537699Y-56004509D01*
X178572495Y-56039305D01*
X178572496Y-56039305D01*
X178579564Y-56046373D01*
X178821010Y-56287819D01*
X178854495Y-56349142D01*
X178849511Y-56418834D01*
X178807639Y-56474767D01*
X178742175Y-56499184D01*
X178733329Y-56499500D01*
X178427130Y-56499500D01*
X178427123Y-56499501D01*
X178367516Y-56505908D01*
X178232671Y-56556202D01*
X178232664Y-56556206D01*
X178117455Y-56642452D01*
X178117452Y-56642455D01*
X178031206Y-56757664D01*
X178031202Y-56757671D01*
X177980908Y-56892517D01*
X177974501Y-56952116D01*
X177974500Y-56952135D01*
X177974500Y-58047870D01*
X177974501Y-58047876D01*
X177980908Y-58107483D01*
X178031202Y-58242328D01*
X178031206Y-58242335D01*
X178117452Y-58357544D01*
X178122227Y-58362319D01*
X178155712Y-58423642D01*
X178150728Y-58493334D01*
X178122227Y-58537681D01*
X178117452Y-58542455D01*
X178031206Y-58657664D01*
X178031202Y-58657671D01*
X177980908Y-58792517D01*
X177974501Y-58852116D01*
X177974500Y-58852135D01*
X177974500Y-59947870D01*
X177974501Y-59947876D01*
X177980908Y-60007483D01*
X178031202Y-60142328D01*
X178031206Y-60142335D01*
X178117452Y-60257544D01*
X178117455Y-60257547D01*
X178232664Y-60343793D01*
X178232671Y-60343797D01*
X178367517Y-60394091D01*
X178367516Y-60394091D01*
X178374444Y-60394835D01*
X178427127Y-60400500D01*
X179775500Y-60400499D01*
X179784185Y-60403049D01*
X179793147Y-60401761D01*
X179817187Y-60412739D01*
X179842539Y-60420184D01*
X179848466Y-60427024D01*
X179856703Y-60430786D01*
X179870990Y-60453018D01*
X179888294Y-60472987D01*
X179890581Y-60483502D01*
X179894477Y-60489564D01*
X179899500Y-60524499D01*
X179899500Y-60630336D01*
X179879815Y-60697375D01*
X179827011Y-60743130D01*
X179788754Y-60753626D01*
X179767516Y-60755909D01*
X179632671Y-60806202D01*
X179632664Y-60806206D01*
X179517455Y-60892452D01*
X179517452Y-60892455D01*
X179431206Y-61007664D01*
X179431202Y-61007671D01*
X179380908Y-61142517D01*
X179375504Y-61192789D01*
X179374501Y-61202123D01*
X179374500Y-61202135D01*
X179374500Y-62447870D01*
X179374501Y-62447876D01*
X179380908Y-62507483D01*
X179431202Y-62642328D01*
X179431206Y-62642335D01*
X179517452Y-62757544D01*
X179517455Y-62757547D01*
X179632664Y-62843793D01*
X179632671Y-62843797D01*
X179739972Y-62883818D01*
X179795906Y-62925689D01*
X179820323Y-62991154D01*
X179805471Y-63059427D01*
X179756066Y-63108832D01*
X179739972Y-63116182D01*
X179632671Y-63156202D01*
X179632664Y-63156206D01*
X179517455Y-63242452D01*
X179517452Y-63242455D01*
X179431206Y-63357664D01*
X179431202Y-63357671D01*
X179380908Y-63492517D01*
X179374501Y-63552116D01*
X179374501Y-63552123D01*
X179374500Y-63552135D01*
X179374500Y-64797870D01*
X179374501Y-64797876D01*
X179380908Y-64857483D01*
X179431202Y-64992328D01*
X179431206Y-64992335D01*
X179517452Y-65107544D01*
X179517455Y-65107547D01*
X179632664Y-65193793D01*
X179632671Y-65193797D01*
X179767517Y-65244091D01*
X179767516Y-65244091D01*
X179774444Y-65244835D01*
X179827127Y-65250500D01*
X181172872Y-65250499D01*
X181232483Y-65244091D01*
X181367331Y-65193796D01*
X181482546Y-65107546D01*
X181568796Y-64992331D01*
X181619091Y-64857483D01*
X181625500Y-64797873D01*
X181625499Y-64377155D01*
X186500000Y-64377155D01*
X186500000Y-65250000D01*
X187850000Y-65250000D01*
X188350000Y-65250000D01*
X189700000Y-65250000D01*
X189700000Y-64377172D01*
X189699999Y-64377155D01*
X189693598Y-64317627D01*
X189693596Y-64317620D01*
X189643354Y-64182913D01*
X189643350Y-64182906D01*
X189557190Y-64067812D01*
X189557187Y-64067809D01*
X189442093Y-63981649D01*
X189442086Y-63981645D01*
X189307379Y-63931403D01*
X189307372Y-63931401D01*
X189247844Y-63925000D01*
X188350000Y-63925000D01*
X188350000Y-65250000D01*
X187850000Y-65250000D01*
X187850000Y-63925000D01*
X186952155Y-63925000D01*
X186892627Y-63931401D01*
X186892620Y-63931403D01*
X186757913Y-63981645D01*
X186757906Y-63981649D01*
X186642812Y-64067809D01*
X186642809Y-64067812D01*
X186556649Y-64182906D01*
X186556645Y-64182913D01*
X186506403Y-64317620D01*
X186506401Y-64317627D01*
X186500000Y-64377155D01*
X181625499Y-64377155D01*
X181625499Y-64067812D01*
X181625499Y-63552129D01*
X181625498Y-63552123D01*
X181625497Y-63552116D01*
X181619091Y-63492517D01*
X181568796Y-63357669D01*
X181568795Y-63357668D01*
X181568793Y-63357664D01*
X181482547Y-63242455D01*
X181482544Y-63242452D01*
X181367335Y-63156206D01*
X181367328Y-63156202D01*
X181260027Y-63116182D01*
X181204093Y-63074311D01*
X181179676Y-63008847D01*
X181194527Y-62940574D01*
X181243932Y-62891168D01*
X181260027Y-62883818D01*
X181367328Y-62843797D01*
X181367327Y-62843797D01*
X181367331Y-62843796D01*
X181482546Y-62757546D01*
X181568796Y-62642331D01*
X181619091Y-62507483D01*
X181625500Y-62447873D01*
X181625499Y-61280469D01*
X181645184Y-61213431D01*
X181697987Y-61167676D01*
X181767146Y-61157732D01*
X181830702Y-61186757D01*
X181837180Y-61192789D01*
X181877942Y-61233551D01*
X181877946Y-61233554D01*
X182009049Y-61321155D01*
X182009053Y-61321157D01*
X182009056Y-61321159D01*
X182152374Y-61380523D01*
X182206775Y-61424361D01*
X182219480Y-61447630D01*
X182278837Y-61590934D01*
X182278844Y-61590947D01*
X182366445Y-61722050D01*
X182366448Y-61722054D01*
X182477942Y-61833548D01*
X182477946Y-61833551D01*
X182609049Y-61921152D01*
X182609062Y-61921159D01*
X182754733Y-61981497D01*
X182754738Y-61981499D01*
X182909388Y-62012261D01*
X182909391Y-62012262D01*
X182909393Y-62012262D01*
X183067079Y-62012262D01*
X183067080Y-62012261D01*
X183221732Y-61981499D01*
X183367414Y-61921156D01*
X183498524Y-61833551D01*
X183610024Y-61722051D01*
X183697629Y-61590941D01*
X183757972Y-61445259D01*
X183788735Y-61290604D01*
X183788873Y-61289912D01*
X183821258Y-61228001D01*
X183822760Y-61226471D01*
X184059014Y-60990216D01*
X184059019Y-60990213D01*
X184069222Y-60980009D01*
X184069224Y-60980009D01*
X184181028Y-60868205D01*
X184245862Y-60755909D01*
X184260085Y-60731274D01*
X184301008Y-60578546D01*
X184301008Y-60511707D01*
X193600000Y-60511707D01*
X193606401Y-60571235D01*
X193606403Y-60571242D01*
X193656645Y-60705949D01*
X193656649Y-60705956D01*
X193742809Y-60821050D01*
X193742812Y-60821053D01*
X193857906Y-60907213D01*
X193857913Y-60907217D01*
X193992620Y-60957459D01*
X193992627Y-60957461D01*
X194052155Y-60963862D01*
X194052172Y-60963863D01*
X194300000Y-60963863D01*
X194300000Y-60267416D01*
X194166610Y-60134026D01*
X194400000Y-60134026D01*
X194400000Y-60193700D01*
X194422836Y-60248831D01*
X194465032Y-60291027D01*
X194520163Y-60313863D01*
X194579837Y-60313863D01*
X194634968Y-60291027D01*
X194677164Y-60248831D01*
X194700000Y-60193700D01*
X194700000Y-60134026D01*
X194677164Y-60078895D01*
X194634968Y-60036699D01*
X194579837Y-60013863D01*
X194520163Y-60013863D01*
X194465032Y-60036699D01*
X194422836Y-60078895D01*
X194400000Y-60134026D01*
X194166610Y-60134026D01*
X193946447Y-59913863D01*
X193600000Y-59913863D01*
X193600000Y-60511707D01*
X184301008Y-60511707D01*
X184301008Y-60420432D01*
X184301008Y-58816018D01*
X193600000Y-58816018D01*
X193600000Y-59413863D01*
X193946447Y-59413863D01*
X193946447Y-59413862D01*
X194014319Y-59345990D01*
X194769500Y-59345990D01*
X194769500Y-59358660D01*
X194769500Y-59358661D01*
X194769500Y-60041733D01*
X194769501Y-60041739D01*
X194775908Y-60101346D01*
X194802866Y-60173623D01*
X194807850Y-60243315D01*
X194801246Y-60264406D01*
X194800000Y-60267414D01*
X194800000Y-60963863D01*
X195047828Y-60963863D01*
X195047844Y-60963862D01*
X195107372Y-60957461D01*
X195107379Y-60957459D01*
X195242086Y-60907217D01*
X195242093Y-60907213D01*
X195357187Y-60821053D01*
X195357190Y-60821050D01*
X195443350Y-60705956D01*
X195443354Y-60705949D01*
X195492184Y-60575030D01*
X195505454Y-60557302D01*
X195514652Y-60537162D01*
X195525982Y-60529879D01*
X195534055Y-60519096D01*
X195554801Y-60511357D01*
X195573429Y-60499386D01*
X195595348Y-60496234D01*
X195599519Y-60494679D01*
X195608364Y-60494363D01*
X195658842Y-60494363D01*
X195658844Y-60494362D01*
X195668842Y-60494362D01*
X195937871Y-60494362D01*
X195937872Y-60494362D01*
X195997483Y-60487954D01*
X196132331Y-60437659D01*
X196247546Y-60351409D01*
X196333796Y-60236194D01*
X196384091Y-60101346D01*
X196390500Y-60041736D01*
X196390499Y-59345991D01*
X196384091Y-59286380D01*
X196380400Y-59276486D01*
X196375412Y-59206795D01*
X196380402Y-59189803D01*
X196383598Y-59181234D01*
X196389999Y-59121707D01*
X196390000Y-59121690D01*
X196390000Y-59023863D01*
X196272182Y-59023863D01*
X196205143Y-59004178D01*
X196197871Y-58999130D01*
X196132331Y-58950067D01*
X196132328Y-58950065D01*
X195997482Y-58899771D01*
X195997483Y-58899771D01*
X195937883Y-58893364D01*
X195937881Y-58893363D01*
X195937873Y-58893363D01*
X195658843Y-58893363D01*
X195658842Y-58893363D01*
X195501158Y-58893363D01*
X195501154Y-58893363D01*
X195454000Y-58893363D01*
X195386961Y-58873678D01*
X195341206Y-58820874D01*
X195330000Y-58769363D01*
X195330000Y-58523863D01*
X195830000Y-58523863D01*
X196390000Y-58523863D01*
X196390000Y-58426035D01*
X196389999Y-58426018D01*
X196383598Y-58366490D01*
X196383596Y-58366483D01*
X196333354Y-58231776D01*
X196333350Y-58231769D01*
X196247190Y-58116675D01*
X196247187Y-58116672D01*
X196132093Y-58030512D01*
X196132086Y-58030508D01*
X195997379Y-57980266D01*
X195997372Y-57980264D01*
X195937844Y-57973863D01*
X195830000Y-57973863D01*
X195830000Y-58523863D01*
X195330000Y-58523863D01*
X195330000Y-57973863D01*
X195222155Y-57973863D01*
X195162627Y-57980264D01*
X195162620Y-57980266D01*
X195027913Y-58030508D01*
X195027906Y-58030512D01*
X194912812Y-58116672D01*
X194912809Y-58116675D01*
X194826649Y-58231769D01*
X194826645Y-58231776D01*
X194800000Y-58303217D01*
X194800000Y-59060308D01*
X194802123Y-59065434D01*
X194802157Y-59065462D01*
X194802238Y-59065713D01*
X194809439Y-59083096D01*
X194808080Y-59083658D01*
X194809552Y-59088180D01*
X194821002Y-59109149D01*
X194820169Y-59120795D01*
X194823784Y-59131900D01*
X194819779Y-59166967D01*
X194818195Y-59173003D01*
X194775909Y-59286380D01*
X194769500Y-59345990D01*
X194014319Y-59345990D01*
X194105322Y-59254988D01*
X194226283Y-59134026D01*
X194400000Y-59134026D01*
X194400000Y-59193700D01*
X194422836Y-59248831D01*
X194465032Y-59291027D01*
X194520163Y-59313863D01*
X194579837Y-59313863D01*
X194634968Y-59291027D01*
X194677164Y-59248831D01*
X194700000Y-59193700D01*
X194700000Y-59134026D01*
X194677164Y-59078895D01*
X194634968Y-59036699D01*
X194579837Y-59013863D01*
X194520163Y-59013863D01*
X194465032Y-59036699D01*
X194422836Y-59078895D01*
X194400000Y-59134026D01*
X194226283Y-59134026D01*
X194299999Y-59060309D01*
X194300000Y-59060308D01*
X194300000Y-58363863D01*
X194052155Y-58363863D01*
X193992627Y-58370264D01*
X193992620Y-58370266D01*
X193857913Y-58420508D01*
X193857906Y-58420512D01*
X193742812Y-58506672D01*
X193742809Y-58506675D01*
X193656649Y-58621769D01*
X193656645Y-58621776D01*
X193606403Y-58756483D01*
X193606401Y-58756490D01*
X193600000Y-58816018D01*
X184301008Y-58816018D01*
X184301008Y-54222468D01*
X184301009Y-54222455D01*
X184301009Y-54054353D01*
X184301009Y-54054351D01*
X184260085Y-53901623D01*
X184181028Y-53764692D01*
X184036114Y-53619778D01*
X191003008Y-53619778D01*
X191003008Y-53840222D01*
X191011501Y-53893846D01*
X191037493Y-54057952D01*
X191105611Y-54267603D01*
X191105612Y-54267606D01*
X191205695Y-54464025D01*
X191335260Y-54642358D01*
X191335264Y-54642363D01*
X191385436Y-54692535D01*
X191418921Y-54753858D01*
X191413937Y-54823550D01*
X191372065Y-54879483D01*
X191341089Y-54896398D01*
X191261177Y-54926203D01*
X191261172Y-54926206D01*
X191145963Y-55012452D01*
X191145960Y-55012455D01*
X191059714Y-55127664D01*
X191059710Y-55127671D01*
X191009416Y-55262517D01*
X191003009Y-55322116D01*
X191003009Y-55322123D01*
X191003008Y-55322135D01*
X191003008Y-57217870D01*
X191003009Y-57217876D01*
X191009416Y-57277483D01*
X191059710Y-57412328D01*
X191059714Y-57412335D01*
X191145960Y-57527544D01*
X191145963Y-57527547D01*
X191261172Y-57613793D01*
X191261179Y-57613797D01*
X191396025Y-57664091D01*
X191396024Y-57664091D01*
X191402952Y-57664835D01*
X191455635Y-57670500D01*
X193351380Y-57670499D01*
X193410991Y-57664091D01*
X193545839Y-57613796D01*
X193661054Y-57527546D01*
X193747304Y-57412331D01*
X193797599Y-57277483D01*
X193804008Y-57217873D01*
X193804007Y-55322128D01*
X193797599Y-55262517D01*
X193789001Y-55239465D01*
X193747305Y-55127671D01*
X193747301Y-55127664D01*
X193661055Y-55012455D01*
X193661052Y-55012452D01*
X193545843Y-54926206D01*
X193545836Y-54926202D01*
X193465927Y-54896398D01*
X193409993Y-54854527D01*
X193385576Y-54789062D01*
X193400428Y-54720789D01*
X193421577Y-54692537D01*
X193471750Y-54642365D01*
X193601323Y-54464022D01*
X193701403Y-54267606D01*
X193769523Y-54057951D01*
X193804008Y-53840222D01*
X193804008Y-53619778D01*
X193769523Y-53402049D01*
X193725482Y-53266503D01*
X193701404Y-53192396D01*
X193701403Y-53192393D01*
X193664931Y-53120814D01*
X193601323Y-52995978D01*
X193530007Y-52897819D01*
X193471755Y-52817641D01*
X193471751Y-52817636D01*
X193315871Y-52661756D01*
X193315866Y-52661752D01*
X193137533Y-52532187D01*
X193137532Y-52532186D01*
X193137530Y-52532185D01*
X193035933Y-52480418D01*
X192941114Y-52432104D01*
X192941111Y-52432103D01*
X192731460Y-52363985D01*
X192622594Y-52346742D01*
X192513730Y-52329500D01*
X192293286Y-52329500D01*
X192220709Y-52340995D01*
X192075555Y-52363985D01*
X191865904Y-52432103D01*
X191865901Y-52432104D01*
X191669482Y-52532187D01*
X191491149Y-52661752D01*
X191491144Y-52661756D01*
X191335264Y-52817636D01*
X191335260Y-52817641D01*
X191205695Y-52995974D01*
X191105612Y-53192393D01*
X191105611Y-53192396D01*
X191037493Y-53402047D01*
X191030882Y-53443786D01*
X191003008Y-53619778D01*
X184036114Y-53619778D01*
X180838912Y-50422577D01*
X180805428Y-50361255D01*
X180810412Y-50291563D01*
X180852284Y-50235630D01*
X180857704Y-50231795D01*
X180908102Y-50198119D01*
X180986024Y-50146054D01*
X181097524Y-50034554D01*
X181185129Y-49903444D01*
X181245472Y-49757762D01*
X181276235Y-49603107D01*
X181276235Y-49445423D01*
X181276235Y-49445420D01*
X181276234Y-49445418D01*
X181245473Y-49290775D01*
X181245472Y-49290768D01*
X181242201Y-49282872D01*
X181185132Y-49145092D01*
X181185125Y-49145079D01*
X181097524Y-49013976D01*
X181097521Y-49013972D01*
X180986027Y-48902478D01*
X180986023Y-48902475D01*
X180854920Y-48814874D01*
X180854910Y-48814869D01*
X180850878Y-48813199D01*
X180850876Y-48813198D01*
X180709236Y-48754529D01*
X180709226Y-48754526D01*
X180553884Y-48723626D01*
X180491973Y-48691241D01*
X180490395Y-48689690D01*
X179939060Y-48138355D01*
X179939058Y-48138352D01*
X179611869Y-47811164D01*
X179578384Y-47749841D01*
X179583368Y-47680150D01*
X179625237Y-47624218D01*
X179667546Y-47592546D01*
X179753796Y-47477331D01*
X179804091Y-47342483D01*
X179810500Y-47282873D01*
X179810499Y-45934498D01*
X179830184Y-45867460D01*
X179882987Y-45821705D01*
X179934499Y-45810499D01*
X179982871Y-45810499D01*
X179982872Y-45810499D01*
X180042483Y-45804091D01*
X180177331Y-45753796D01*
X180177334Y-45753793D01*
X180185114Y-45749546D01*
X180186945Y-45752900D01*
X180235352Y-45734642D01*
X180303679Y-45749240D01*
X180353267Y-45798462D01*
X180368372Y-45866680D01*
X180366274Y-45882482D01*
X180357319Y-45927504D01*
X180357319Y-46085192D01*
X180388080Y-46239835D01*
X180388083Y-46239847D01*
X180448421Y-46385518D01*
X180448428Y-46385531D01*
X180536029Y-46516634D01*
X180536032Y-46516638D01*
X180647526Y-46628132D01*
X180647530Y-46628135D01*
X180778633Y-46715736D01*
X180778646Y-46715743D01*
X180924317Y-46776081D01*
X180924322Y-46776083D01*
X181078972Y-46806845D01*
X181078975Y-46806846D01*
X181078977Y-46806846D01*
X181236663Y-46806846D01*
X181236664Y-46806845D01*
X181391316Y-46776083D01*
X181536998Y-46715740D01*
X181668108Y-46628135D01*
X181779608Y-46516635D01*
X181867213Y-46385525D01*
X181927556Y-46239843D01*
X181932663Y-46214166D01*
X181965046Y-46152257D01*
X182025761Y-46117682D01*
X182078473Y-46116741D01*
X182089548Y-46118944D01*
X182247234Y-46118944D01*
X182247235Y-46118943D01*
X182401887Y-46088181D01*
X182514556Y-46041511D01*
X182547562Y-46027841D01*
X182547562Y-46027840D01*
X182547569Y-46027838D01*
X182678679Y-45940233D01*
X182790179Y-45828733D01*
X182877784Y-45697623D01*
X182938127Y-45551941D01*
X182968890Y-45397286D01*
X182968890Y-45239602D01*
X182968890Y-45239599D01*
X182968889Y-45239597D01*
X182966799Y-45229091D01*
X182938127Y-45084947D01*
X182923606Y-45049890D01*
X182877787Y-44939271D01*
X182877780Y-44939258D01*
X182790179Y-44808155D01*
X182790176Y-44808151D01*
X182678682Y-44696657D01*
X182678678Y-44696654D01*
X182547575Y-44609053D01*
X182547562Y-44609046D01*
X182401891Y-44548708D01*
X182401879Y-44548705D01*
X182247235Y-44517944D01*
X182247232Y-44517944D01*
X182089548Y-44517944D01*
X182089545Y-44517944D01*
X181934900Y-44548705D01*
X181934888Y-44548708D01*
X181789217Y-44609046D01*
X181789204Y-44609053D01*
X181658104Y-44696652D01*
X181658099Y-44696656D01*
X181582776Y-44771978D01*
X181557096Y-44791683D01*
X181477008Y-44837921D01*
X181477002Y-44837926D01*
X181143158Y-45171771D01*
X181081835Y-45205256D01*
X181079669Y-45205707D01*
X180924327Y-45236607D01*
X180924317Y-45236610D01*
X180778646Y-45296948D01*
X180778633Y-45296955D01*
X180647530Y-45384556D01*
X180647526Y-45384559D01*
X180647171Y-45384915D01*
X180646939Y-45385041D01*
X180642820Y-45388422D01*
X180642178Y-45387640D01*
X180585844Y-45418393D01*
X180516153Y-45413401D01*
X180460224Y-45371524D01*
X180435814Y-45306057D01*
X180435499Y-45297250D01*
X180435499Y-44393713D01*
X183149500Y-44393713D01*
X183149500Y-44606287D01*
X183159534Y-44669644D01*
X183182606Y-44815312D01*
X183182754Y-44816243D01*
X183247709Y-45016154D01*
X183248444Y-45018414D01*
X183344951Y-45207820D01*
X183469890Y-45379786D01*
X183620213Y-45530109D01*
X183792179Y-45655048D01*
X183792181Y-45655049D01*
X183792184Y-45655051D01*
X183981588Y-45751557D01*
X184183757Y-45817246D01*
X184393713Y-45850500D01*
X184393714Y-45850500D01*
X184606286Y-45850500D01*
X184606287Y-45850500D01*
X184816243Y-45817246D01*
X185018412Y-45751557D01*
X185207816Y-45655051D01*
X185341047Y-45558254D01*
X185379786Y-45530109D01*
X185379788Y-45530106D01*
X185379792Y-45530104D01*
X185530104Y-45379792D01*
X185530106Y-45379788D01*
X185530109Y-45379786D01*
X185655048Y-45207820D01*
X185655047Y-45207820D01*
X185655051Y-45207816D01*
X185751557Y-45018412D01*
X185817246Y-44816243D01*
X185850500Y-44606287D01*
X185850500Y-44393713D01*
X189649500Y-44393713D01*
X189649500Y-44606287D01*
X189659534Y-44669644D01*
X189682606Y-44815312D01*
X189682754Y-44816243D01*
X189747709Y-45016154D01*
X189748444Y-45018414D01*
X189844951Y-45207820D01*
X189969890Y-45379786D01*
X190120213Y-45530109D01*
X190292179Y-45655048D01*
X190292181Y-45655049D01*
X190292184Y-45655051D01*
X190481588Y-45751557D01*
X190683757Y-45817246D01*
X190893713Y-45850500D01*
X190893714Y-45850500D01*
X191106286Y-45850500D01*
X191106287Y-45850500D01*
X191316243Y-45817246D01*
X191518412Y-45751557D01*
X191707816Y-45655051D01*
X191841047Y-45558254D01*
X191879786Y-45530109D01*
X191879788Y-45530106D01*
X191879792Y-45530104D01*
X192030104Y-45379792D01*
X192030106Y-45379788D01*
X192030109Y-45379786D01*
X192155048Y-45207820D01*
X192155047Y-45207820D01*
X192155051Y-45207816D01*
X192251557Y-45018412D01*
X192317246Y-44816243D01*
X192350500Y-44606287D01*
X192350500Y-44393713D01*
X192317246Y-44183757D01*
X192251557Y-43981588D01*
X192155051Y-43792184D01*
X192155049Y-43792181D01*
X192155048Y-43792179D01*
X192030109Y-43620213D01*
X191879786Y-43469890D01*
X191707820Y-43344951D01*
X191518414Y-43248444D01*
X191518413Y-43248443D01*
X191518412Y-43248443D01*
X191316243Y-43182754D01*
X191316241Y-43182753D01*
X191316240Y-43182753D01*
X191154957Y-43157208D01*
X191106287Y-43149500D01*
X190893713Y-43149500D01*
X190845042Y-43157208D01*
X190683760Y-43182753D01*
X190481585Y-43248444D01*
X190292179Y-43344951D01*
X190120213Y-43469890D01*
X189969890Y-43620213D01*
X189844951Y-43792179D01*
X189748444Y-43981585D01*
X189748443Y-43981587D01*
X189748443Y-43981588D01*
X189736064Y-44019685D01*
X189682753Y-44183760D01*
X189655405Y-44356431D01*
X189649500Y-44393713D01*
X185850500Y-44393713D01*
X185817246Y-44183757D01*
X185751557Y-43981588D01*
X185655051Y-43792184D01*
X185655049Y-43792181D01*
X185655048Y-43792179D01*
X185530109Y-43620213D01*
X185379786Y-43469890D01*
X185207820Y-43344951D01*
X185018414Y-43248444D01*
X185018413Y-43248443D01*
X185018412Y-43248443D01*
X184816243Y-43182754D01*
X184816241Y-43182753D01*
X184816240Y-43182753D01*
X184654957Y-43157208D01*
X184606287Y-43149500D01*
X184393713Y-43149500D01*
X184345042Y-43157208D01*
X184183760Y-43182753D01*
X183981585Y-43248444D01*
X183792179Y-43344951D01*
X183620213Y-43469890D01*
X183469890Y-43620213D01*
X183344951Y-43792179D01*
X183248444Y-43981585D01*
X183248443Y-43981587D01*
X183248443Y-43981588D01*
X183236064Y-44019685D01*
X183182753Y-44183760D01*
X183155405Y-44356431D01*
X183149500Y-44393713D01*
X180435499Y-44393713D01*
X180435499Y-44242128D01*
X180429091Y-44182517D01*
X180378796Y-44047669D01*
X180378793Y-44047665D01*
X180376911Y-44042619D01*
X180371927Y-43972927D01*
X180376911Y-43955951D01*
X180428597Y-43817376D01*
X180428598Y-43817372D01*
X180434999Y-43757844D01*
X180435000Y-43757827D01*
X180435000Y-43450000D01*
X179324000Y-43450000D01*
X179256961Y-43430315D01*
X179211206Y-43377511D01*
X179200000Y-43326000D01*
X179200000Y-43200000D01*
X179074000Y-43200000D01*
X179006961Y-43180315D01*
X178961206Y-43127511D01*
X178950000Y-43076000D01*
X178950000Y-42950000D01*
X179450000Y-42950000D01*
X180435000Y-42950000D01*
X180435000Y-42642172D01*
X180434999Y-42642155D01*
X180428598Y-42582627D01*
X180428596Y-42582620D01*
X180378354Y-42447913D01*
X180378350Y-42447906D01*
X180292190Y-42332812D01*
X180292187Y-42332809D01*
X180177093Y-42246649D01*
X180177086Y-42246645D01*
X180042379Y-42196403D01*
X180042372Y-42196401D01*
X179982844Y-42190000D01*
X179450000Y-42190000D01*
X179450000Y-42950000D01*
X178950000Y-42950000D01*
X178950000Y-42190000D01*
X178417155Y-42190000D01*
X178357627Y-42196401D01*
X178357620Y-42196403D01*
X178244047Y-42238763D01*
X178174355Y-42243747D01*
X178157381Y-42238763D01*
X178042482Y-42195908D01*
X178042483Y-42195908D01*
X177982883Y-42189501D01*
X177982881Y-42189500D01*
X177982873Y-42189500D01*
X177982864Y-42189500D01*
X176417129Y-42189500D01*
X176417123Y-42189501D01*
X176357516Y-42195908D01*
X176222671Y-42246202D01*
X176222664Y-42246206D01*
X176100355Y-42337768D01*
X176098319Y-42335048D01*
X176051404Y-42360666D01*
X176025046Y-42363500D01*
X174622669Y-42363500D01*
X174622653Y-42363499D01*
X174615057Y-42363499D01*
X174456943Y-42363499D01*
X174358452Y-42389890D01*
X174304210Y-42404424D01*
X174304209Y-42404425D01*
X174254096Y-42433359D01*
X174254095Y-42433360D01*
X174225693Y-42449758D01*
X174167285Y-42483479D01*
X174167282Y-42483481D01*
X174055480Y-42595283D01*
X174055480Y-42595284D01*
X174055478Y-42595286D01*
X173938585Y-42712179D01*
X173922582Y-42728182D01*
X173861259Y-42761666D01*
X173834901Y-42764500D01*
X173342129Y-42764500D01*
X173342123Y-42764501D01*
X173282516Y-42770908D01*
X173147671Y-42821202D01*
X173147664Y-42821206D01*
X173032455Y-42907452D01*
X173032452Y-42907455D01*
X172946206Y-43022664D01*
X172946202Y-43022671D01*
X172895908Y-43157517D01*
X172889501Y-43217116D01*
X172889500Y-43217135D01*
X172889500Y-43456000D01*
X172869815Y-43523039D01*
X172817011Y-43568794D01*
X172765500Y-43580000D01*
X172450000Y-43580000D01*
X172450000Y-44466000D01*
X172430315Y-44533039D01*
X172377511Y-44578794D01*
X172326000Y-44590000D01*
X172074000Y-44590000D01*
X172006961Y-44570315D01*
X171961206Y-44517511D01*
X171950000Y-44466000D01*
X171950000Y-43580000D01*
X171417155Y-43580000D01*
X171357627Y-43586401D01*
X171357620Y-43586403D01*
X171222913Y-43636645D01*
X171222906Y-43636649D01*
X171107812Y-43722809D01*
X171107809Y-43722812D01*
X171021649Y-43837906D01*
X171021645Y-43837913D01*
X170971403Y-43972620D01*
X170971401Y-43972627D01*
X170965000Y-44032155D01*
X170965000Y-44228000D01*
X170962820Y-44235420D01*
X170964083Y-44243051D01*
X170953115Y-44268474D01*
X170945315Y-44295039D01*
X170939470Y-44300103D01*
X170936407Y-44307205D01*
X170913432Y-44322665D01*
X170892511Y-44340794D01*
X170883396Y-44342877D01*
X170878440Y-44346213D01*
X170848705Y-44350809D01*
X170843619Y-44351972D01*
X170842262Y-44352000D01*
X170652127Y-44352001D01*
X170605623Y-44356999D01*
X170600272Y-44357113D01*
X170597754Y-44356431D01*
X170584401Y-44356431D01*
X170547833Y-44352500D01*
X170479999Y-44352500D01*
X170470804Y-44361694D01*
X170464444Y-44390047D01*
X170461276Y-44393679D01*
X170460314Y-44396956D01*
X170443111Y-44418164D01*
X170437085Y-44424112D01*
X170342453Y-44494954D01*
X170277711Y-44581437D01*
X170271111Y-44587953D01*
X170248175Y-44600284D01*
X170227331Y-44615888D01*
X170217900Y-44616562D01*
X170209573Y-44621040D01*
X170183612Y-44619014D01*
X170157639Y-44620872D01*
X170149340Y-44616340D01*
X170139915Y-44615605D01*
X170119171Y-44599866D01*
X170096316Y-44587386D01*
X170091784Y-44579087D01*
X170084253Y-44573373D01*
X170075310Y-44548916D01*
X170062832Y-44526062D01*
X170061115Y-44510091D01*
X170060260Y-44507752D01*
X170060668Y-44505932D01*
X170059999Y-44499706D01*
X170059999Y-44352500D01*
X169992154Y-44352500D01*
X169932626Y-44358901D01*
X169932619Y-44358903D01*
X169797912Y-44409145D01*
X169797905Y-44409149D01*
X169682811Y-44495309D01*
X169682808Y-44495312D01*
X169596648Y-44610406D01*
X169596644Y-44610413D01*
X169546402Y-44745120D01*
X169546400Y-44745127D01*
X169539999Y-44804655D01*
X169539999Y-44852500D01*
X170075499Y-44852500D01*
X170084184Y-44855050D01*
X170093145Y-44853762D01*
X170117183Y-44864740D01*
X170142538Y-44872185D01*
X170148465Y-44879026D01*
X170156701Y-44882787D01*
X170170989Y-44905020D01*
X170188293Y-44924989D01*
X170190580Y-44935502D01*
X170194476Y-44941564D01*
X170199499Y-44976499D01*
X170199500Y-45148499D01*
X170179816Y-45215539D01*
X170127012Y-45261294D01*
X170075500Y-45272500D01*
X169539999Y-45272500D01*
X169539999Y-45320344D01*
X169546400Y-45379872D01*
X169546402Y-45379879D01*
X169596644Y-45514586D01*
X169596648Y-45514593D01*
X169682808Y-45629687D01*
X169682811Y-45629690D01*
X169797905Y-45715850D01*
X169797912Y-45715854D01*
X169932619Y-45766096D01*
X169932626Y-45766098D01*
X169992154Y-45772499D01*
X169992171Y-45772500D01*
X170059999Y-45772500D01*
X170059999Y-45625293D01*
X170079684Y-45558254D01*
X170132488Y-45512499D01*
X170201646Y-45502555D01*
X170265202Y-45531580D01*
X170271111Y-45537046D01*
X170277708Y-45543558D01*
X170342453Y-45630046D01*
X170437089Y-45700890D01*
X170443111Y-45706835D01*
X170456112Y-45730283D01*
X170472181Y-45751749D01*
X170474190Y-45762888D01*
X170476992Y-45767941D01*
X170476897Y-45769398D01*
X170479999Y-45772500D01*
X170547818Y-45772500D01*
X170547832Y-45772499D01*
X170584394Y-45768568D01*
X170602130Y-45767938D01*
X170606520Y-45768096D01*
X170652126Y-45773000D01*
X170742148Y-45772999D01*
X170744380Y-45773080D01*
X170775486Y-45783448D01*
X170806939Y-45792683D01*
X170809580Y-45794811D01*
X170810665Y-45795173D01*
X170811840Y-45796632D01*
X170827582Y-45809318D01*
X170928181Y-45909917D01*
X170961666Y-45971240D01*
X170964500Y-45997598D01*
X170964500Y-46747870D01*
X170964501Y-46747876D01*
X170970908Y-46807483D01*
X171021202Y-46942328D01*
X171021206Y-46942335D01*
X171107452Y-47057544D01*
X171107455Y-47057547D01*
X171222664Y-47143793D01*
X171222671Y-47143797D01*
X171357517Y-47194091D01*
X171357516Y-47194091D01*
X171364444Y-47194835D01*
X171417127Y-47200500D01*
X172982872Y-47200499D01*
X173042483Y-47194091D01*
X173177331Y-47143796D01*
X173292546Y-47057546D01*
X173378796Y-46942331D01*
X173429091Y-46807483D01*
X173435500Y-46747873D01*
X173435499Y-46424498D01*
X173455183Y-46357461D01*
X173507987Y-46311706D01*
X173559499Y-46300500D01*
X173708842Y-46300500D01*
X173708843Y-46300499D01*
X173863495Y-46269737D01*
X173993818Y-46215755D01*
X174054524Y-46207027D01*
X174082177Y-46209999D01*
X174082182Y-46210000D01*
X174150000Y-46210000D01*
X174159194Y-46200805D01*
X174165555Y-46172452D01*
X174168722Y-46168819D01*
X174169685Y-46165543D01*
X174186888Y-46144335D01*
X174192909Y-46138390D01*
X174287546Y-46067546D01*
X174352290Y-45981058D01*
X174358888Y-45974546D01*
X174381823Y-45962214D01*
X174402667Y-45946611D01*
X174412098Y-45945936D01*
X174420426Y-45941459D01*
X174446385Y-45943484D01*
X174472359Y-45941627D01*
X174480657Y-45946158D01*
X174490084Y-45946894D01*
X174510829Y-45962634D01*
X174533682Y-45975113D01*
X174538212Y-45983410D01*
X174545746Y-45989126D01*
X174554689Y-46013586D01*
X174567166Y-46036436D01*
X174568883Y-46052406D01*
X174569739Y-46054747D01*
X174569330Y-46056567D01*
X174570000Y-46062793D01*
X174570000Y-46210000D01*
X174637828Y-46210000D01*
X174637844Y-46209999D01*
X174697372Y-46203598D01*
X174697379Y-46203596D01*
X174832086Y-46153354D01*
X174832093Y-46153350D01*
X174947187Y-46067190D01*
X174947190Y-46067187D01*
X175033350Y-45952093D01*
X175033354Y-45952086D01*
X175083596Y-45817379D01*
X175083598Y-45817372D01*
X175089999Y-45757844D01*
X175090000Y-45757827D01*
X175090000Y-45710000D01*
X174554500Y-45710000D01*
X174545814Y-45707449D01*
X174536854Y-45708738D01*
X174512815Y-45697759D01*
X174487461Y-45690315D01*
X174481533Y-45683473D01*
X174473298Y-45679713D01*
X174459009Y-45657479D01*
X174441706Y-45637511D01*
X174439418Y-45626997D01*
X174435523Y-45620936D01*
X174430500Y-45586001D01*
X174430499Y-45414001D01*
X174450183Y-45346961D01*
X174502987Y-45301206D01*
X174554499Y-45290000D01*
X175090000Y-45290000D01*
X175108681Y-45271319D01*
X175170004Y-45237834D01*
X175196362Y-45235000D01*
X175250000Y-45235000D01*
X175250000Y-44124000D01*
X175269685Y-44056961D01*
X175322489Y-44011206D01*
X175374000Y-44000000D01*
X175626000Y-44000000D01*
X175693039Y-44019685D01*
X175738794Y-44072489D01*
X175750000Y-44124000D01*
X175750000Y-45235000D01*
X175841000Y-45235000D01*
X175908039Y-45254685D01*
X175953794Y-45307489D01*
X175964034Y-45354563D01*
X175964540Y-45354536D01*
X175964644Y-45354525D01*
X175964644Y-45354530D01*
X175964823Y-45354521D01*
X175965000Y-45357844D01*
X175971401Y-45417372D01*
X175971403Y-45417379D01*
X176021645Y-45552086D01*
X176021647Y-45552088D01*
X176107809Y-45667186D01*
X176107808Y-45667186D01*
X176140310Y-45691516D01*
X176182181Y-45747450D01*
X176190000Y-45790784D01*
X176190000Y-46250000D01*
X176950000Y-46250000D01*
X176950000Y-44924000D01*
X176969685Y-44856961D01*
X177022489Y-44811206D01*
X177074000Y-44800000D01*
X177326000Y-44800000D01*
X177393039Y-44819685D01*
X177438794Y-44872489D01*
X177450000Y-44924000D01*
X177450000Y-46376000D01*
X177430315Y-46443039D01*
X177377511Y-46488794D01*
X177326000Y-46500000D01*
X177200000Y-46500000D01*
X177200000Y-46626000D01*
X177180315Y-46693039D01*
X177127511Y-46738794D01*
X177076000Y-46750000D01*
X176190000Y-46750000D01*
X176190000Y-47141000D01*
X176170315Y-47208039D01*
X176117511Y-47253794D01*
X176066000Y-47265000D01*
X175950000Y-47265000D01*
X175950000Y-49735000D01*
X176257828Y-49735000D01*
X176257844Y-49734999D01*
X176317372Y-49728598D01*
X176317376Y-49728597D01*
X176455951Y-49676911D01*
X176525642Y-49671927D01*
X176542619Y-49676911D01*
X176547665Y-49678793D01*
X176547669Y-49678796D01*
X176682517Y-49729091D01*
X176742127Y-49735500D01*
X177857872Y-49735499D01*
X177917483Y-49729091D01*
X177925481Y-49726107D01*
X177995172Y-49721124D01*
X178056495Y-49754608D01*
X178089980Y-49815931D01*
X178084996Y-49885623D01*
X178071916Y-49911181D01*
X178014874Y-49996549D01*
X178014867Y-49996562D01*
X177954529Y-50142233D01*
X177954526Y-50142245D01*
X177923765Y-50296888D01*
X177923765Y-50299765D01*
X177923339Y-50301215D01*
X177923168Y-50302953D01*
X177922838Y-50302920D01*
X177904080Y-50366804D01*
X177851276Y-50412559D01*
X177802943Y-50423073D01*
X177802953Y-50423168D01*
X177802142Y-50423247D01*
X177799765Y-50423765D01*
X177796890Y-50423765D01*
X177642245Y-50454526D01*
X177642233Y-50454529D01*
X177496562Y-50514867D01*
X177496549Y-50514874D01*
X177365446Y-50602475D01*
X177365442Y-50602478D01*
X177253948Y-50713972D01*
X177253945Y-50713976D01*
X177166344Y-50845079D01*
X177166337Y-50845092D01*
X177105999Y-50990763D01*
X177105996Y-50990773D01*
X177075527Y-51143950D01*
X177043142Y-51205861D01*
X176982426Y-51240435D01*
X176915182Y-51236829D01*
X176915059Y-51237237D01*
X176913400Y-51236733D01*
X176912656Y-51236694D01*
X176910318Y-51235799D01*
X176909235Y-51235470D01*
X176909232Y-51235469D01*
X176909227Y-51235468D01*
X176909224Y-51235467D01*
X176754580Y-51204706D01*
X176754577Y-51204706D01*
X176596893Y-51204706D01*
X176596890Y-51204706D01*
X176442245Y-51235467D01*
X176442233Y-51235470D01*
X176296562Y-51295808D01*
X176296549Y-51295815D01*
X176165446Y-51383416D01*
X176165442Y-51383419D01*
X176053948Y-51494913D01*
X176053945Y-51494917D01*
X175966344Y-51626020D01*
X175966337Y-51626033D01*
X175905999Y-51771704D01*
X175905996Y-51771714D01*
X175875096Y-51927056D01*
X175842711Y-51988967D01*
X175841160Y-51990545D01*
X175501489Y-52330215D01*
X175451952Y-52416016D01*
X175422432Y-52467145D01*
X175422431Y-52467146D01*
X175401969Y-52543512D01*
X175381507Y-52619876D01*
X175381507Y-52619878D01*
X175381507Y-52787979D01*
X175381508Y-52787992D01*
X175381508Y-53842483D01*
X175361823Y-53909522D01*
X175345189Y-53930164D01*
X174912318Y-54363034D01*
X174850995Y-54396519D01*
X174781303Y-54391535D01*
X174751491Y-54369217D01*
X174738838Y-54368221D01*
X174143508Y-54963551D01*
X174143508Y-54948656D01*
X174116930Y-54849466D01*
X174065585Y-54760535D01*
X173992973Y-54687923D01*
X173904042Y-54636578D01*
X173804852Y-54610000D01*
X173789955Y-54610000D01*
X174385285Y-54014669D01*
X174385284Y-54014668D01*
X174365935Y-54000609D01*
X174202056Y-53917109D01*
X174202053Y-53917107D01*
X174027134Y-53860273D01*
X173845470Y-53831500D01*
X173661546Y-53831500D01*
X173479882Y-53860273D01*
X173479879Y-53860273D01*
X173304962Y-53917107D01*
X173304959Y-53917108D01*
X173141078Y-54000610D01*
X173121730Y-54014667D01*
X173121730Y-54014668D01*
X173717062Y-54610000D01*
X173702164Y-54610000D01*
X173602974Y-54636578D01*
X173514043Y-54687923D01*
X173441431Y-54760535D01*
X173390086Y-54849466D01*
X173363508Y-54948656D01*
X173363508Y-54963554D01*
X172752797Y-54352843D01*
X172741859Y-54350545D01*
X172737167Y-54346805D01*
X172733828Y-54345837D01*
X172722063Y-54334764D01*
X172707076Y-54322816D01*
X172703447Y-54318657D01*
X172645171Y-54238447D01*
X172515061Y-54108337D01*
X172366198Y-54000181D01*
X172202248Y-53916645D01*
X172027250Y-53859784D01*
X172027248Y-53859783D01*
X172027247Y-53859783D01*
X171845514Y-53831000D01*
X171845510Y-53831000D01*
X171661506Y-53831000D01*
X171661502Y-53831000D01*
X171479769Y-53859783D01*
X171304765Y-53916646D01*
X171140817Y-54000181D01*
X171018435Y-54089098D01*
X170952628Y-54112578D01*
X170884574Y-54096753D01*
X170846283Y-54063092D01*
X170810033Y-54014669D01*
X170779554Y-53973954D01*
X170779552Y-53973953D01*
X170779552Y-53973952D01*
X170664343Y-53887706D01*
X170664336Y-53887702D01*
X170529490Y-53837408D01*
X170529491Y-53837408D01*
X170469891Y-53831001D01*
X170469889Y-53831000D01*
X170469881Y-53831000D01*
X170469872Y-53831000D01*
X169037137Y-53831000D01*
X169037131Y-53831001D01*
X168977524Y-53837408D01*
X168848086Y-53885686D01*
X168778394Y-53890670D01*
X168717072Y-53857185D01*
X168642901Y-53783014D01*
X168439735Y-53635408D01*
X168439734Y-53635407D01*
X168439732Y-53635406D01*
X168369855Y-53599801D01*
X168215972Y-53521393D01*
X167977122Y-53443785D01*
X167729082Y-53404500D01*
X167729077Y-53404500D01*
X167477939Y-53404500D01*
X167477934Y-53404500D01*
X167229893Y-53443785D01*
X166991043Y-53521393D01*
X166767280Y-53635408D01*
X166564114Y-53783014D01*
X166386522Y-53960606D01*
X166238916Y-54163772D01*
X166124901Y-54387535D01*
X166047293Y-54626385D01*
X166008008Y-54874425D01*
X161424500Y-54874425D01*
X161424500Y-50007433D01*
X161444185Y-49940394D01*
X161496989Y-49894639D01*
X161566147Y-49884695D01*
X161586813Y-49889500D01*
X161733757Y-49937246D01*
X161943713Y-49970500D01*
X161943714Y-49970500D01*
X162156286Y-49970500D01*
X162156287Y-49970500D01*
X162366243Y-49937246D01*
X162568412Y-49871557D01*
X162757816Y-49775051D01*
X162812255Y-49735499D01*
X162929786Y-49650109D01*
X162929788Y-49650106D01*
X162929792Y-49650104D01*
X163080104Y-49499792D01*
X163080106Y-49499788D01*
X163080109Y-49499786D01*
X163205048Y-49327820D01*
X163205047Y-49327820D01*
X163205051Y-49327816D01*
X163301557Y-49138412D01*
X163367246Y-48936243D01*
X163400500Y-48726287D01*
X163400500Y-48717135D01*
X171589500Y-48717135D01*
X171589500Y-50282870D01*
X171589501Y-50282876D01*
X171595908Y-50342483D01*
X171646202Y-50477328D01*
X171646206Y-50477335D01*
X171732452Y-50592544D01*
X171732455Y-50592547D01*
X171847664Y-50678793D01*
X171847671Y-50678797D01*
X171982517Y-50729091D01*
X171982516Y-50729091D01*
X171989444Y-50729835D01*
X172042127Y-50735500D01*
X173157872Y-50735499D01*
X173217483Y-50729091D01*
X173352331Y-50678796D01*
X173352335Y-50678792D01*
X173357380Y-50676911D01*
X173427071Y-50671927D01*
X173444048Y-50676911D01*
X173582623Y-50728597D01*
X173582627Y-50728598D01*
X173642155Y-50734999D01*
X173642172Y-50735000D01*
X173950000Y-50735000D01*
X173950000Y-48265000D01*
X174450000Y-48265000D01*
X174450000Y-50735000D01*
X174757828Y-50735000D01*
X174757844Y-50734999D01*
X174817372Y-50728598D01*
X174817379Y-50728596D01*
X174952086Y-50678354D01*
X174952093Y-50678350D01*
X175067187Y-50592190D01*
X175067190Y-50592187D01*
X175153350Y-50477093D01*
X175153354Y-50477086D01*
X175203596Y-50342379D01*
X175203598Y-50342372D01*
X175209999Y-50282844D01*
X175210000Y-50282827D01*
X175210000Y-49859000D01*
X175229685Y-49791961D01*
X175282489Y-49746206D01*
X175334000Y-49735000D01*
X175450000Y-49735000D01*
X175450000Y-47265000D01*
X175142155Y-47265000D01*
X175082627Y-47271401D01*
X175082620Y-47271403D01*
X174947913Y-47321645D01*
X174947906Y-47321649D01*
X174832812Y-47407809D01*
X174832809Y-47407812D01*
X174746649Y-47522906D01*
X174746645Y-47522913D01*
X174696403Y-47657620D01*
X174696401Y-47657627D01*
X174690000Y-47717155D01*
X174690000Y-48141000D01*
X174670315Y-48208039D01*
X174617511Y-48253794D01*
X174566000Y-48265000D01*
X174450000Y-48265000D01*
X173950000Y-48265000D01*
X173642155Y-48265000D01*
X173582627Y-48271401D01*
X173582619Y-48271403D01*
X173444047Y-48323087D01*
X173374355Y-48328071D01*
X173357381Y-48323087D01*
X173217482Y-48270908D01*
X173217483Y-48270908D01*
X173157883Y-48264501D01*
X173157881Y-48264500D01*
X173157873Y-48264500D01*
X173157864Y-48264500D01*
X172042129Y-48264500D01*
X172042123Y-48264501D01*
X171982516Y-48270908D01*
X171847671Y-48321202D01*
X171847664Y-48321206D01*
X171732455Y-48407452D01*
X171732452Y-48407455D01*
X171646206Y-48522664D01*
X171646202Y-48522671D01*
X171595908Y-48657517D01*
X171589501Y-48717116D01*
X171589500Y-48717135D01*
X163400500Y-48717135D01*
X163400500Y-48513713D01*
X163367246Y-48303757D01*
X163301557Y-48101588D01*
X163205051Y-47912184D01*
X163205049Y-47912181D01*
X163205048Y-47912179D01*
X163080109Y-47740213D01*
X162929786Y-47589890D01*
X162757820Y-47464951D01*
X162757115Y-47464591D01*
X162749054Y-47460485D01*
X162698259Y-47412512D01*
X162681463Y-47344692D01*
X162703999Y-47278556D01*
X162749054Y-47239515D01*
X162757816Y-47235051D01*
X162796908Y-47206649D01*
X162929786Y-47110109D01*
X162929788Y-47110106D01*
X162929792Y-47110104D01*
X163080104Y-46959792D01*
X163080106Y-46959788D01*
X163080109Y-46959786D01*
X163205048Y-46787820D01*
X163205047Y-46787820D01*
X163205051Y-46787816D01*
X163301557Y-46598412D01*
X163367246Y-46396243D01*
X163400500Y-46186287D01*
X163400500Y-45973713D01*
X163367246Y-45763757D01*
X163301557Y-45561588D01*
X163205051Y-45372184D01*
X163205049Y-45372181D01*
X163205048Y-45372179D01*
X163080109Y-45200213D01*
X162929786Y-45049890D01*
X162757820Y-44924951D01*
X162755953Y-44924000D01*
X162749054Y-44920485D01*
X162698259Y-44872512D01*
X162681463Y-44804692D01*
X162703999Y-44738556D01*
X162749054Y-44699515D01*
X162757816Y-44695051D01*
X162859522Y-44621158D01*
X162929786Y-44570109D01*
X162929788Y-44570106D01*
X162929792Y-44570104D01*
X163080104Y-44419792D01*
X163080106Y-44419788D01*
X163080109Y-44419786D01*
X163205048Y-44247820D01*
X163205047Y-44247820D01*
X163205051Y-44247816D01*
X163301557Y-44058412D01*
X163367246Y-43856243D01*
X163400500Y-43646287D01*
X163400500Y-43433713D01*
X163367246Y-43223757D01*
X163301557Y-43021588D01*
X163205051Y-42832184D01*
X163205049Y-42832181D01*
X163205048Y-42832179D01*
X163080109Y-42660213D01*
X162966181Y-42546285D01*
X162932696Y-42484962D01*
X162937680Y-42415270D01*
X162979552Y-42359337D01*
X163010529Y-42342422D01*
X163142086Y-42293354D01*
X163142093Y-42293350D01*
X163257187Y-42207190D01*
X163257190Y-42207187D01*
X163343350Y-42092093D01*
X163343354Y-42092086D01*
X163393596Y-41957379D01*
X163393598Y-41957372D01*
X163399999Y-41897844D01*
X163400000Y-41897827D01*
X163400000Y-41250000D01*
X162483012Y-41250000D01*
X162515925Y-41192993D01*
X162550000Y-41065826D01*
X162550000Y-40934174D01*
X162515925Y-40807007D01*
X162483012Y-40750000D01*
X163400000Y-40750000D01*
X163400000Y-40102172D01*
X163399999Y-40102155D01*
X163393598Y-40042627D01*
X163393596Y-40042620D01*
X163352403Y-39932174D01*
X163343354Y-39907913D01*
X163343350Y-39907906D01*
X163332725Y-39893713D01*
X183149500Y-39893713D01*
X183149500Y-40106286D01*
X183182753Y-40316239D01*
X183248444Y-40518414D01*
X183344951Y-40707820D01*
X183469890Y-40879786D01*
X183620213Y-41030109D01*
X183792179Y-41155048D01*
X183792181Y-41155049D01*
X183792184Y-41155051D01*
X183981588Y-41251557D01*
X184183757Y-41317246D01*
X184393713Y-41350500D01*
X184393714Y-41350500D01*
X184606286Y-41350500D01*
X184606287Y-41350500D01*
X184816243Y-41317246D01*
X185018412Y-41251557D01*
X185207816Y-41155051D01*
X185330625Y-41065826D01*
X185379786Y-41030109D01*
X185379788Y-41030106D01*
X185379792Y-41030104D01*
X185530104Y-40879792D01*
X185530106Y-40879788D01*
X185530109Y-40879786D01*
X185655048Y-40707820D01*
X185655047Y-40707820D01*
X185655051Y-40707816D01*
X185751557Y-40518412D01*
X185817246Y-40316243D01*
X185850500Y-40106287D01*
X185850500Y-39893713D01*
X189649500Y-39893713D01*
X189649500Y-40106286D01*
X189682753Y-40316239D01*
X189748444Y-40518414D01*
X189844951Y-40707820D01*
X189969890Y-40879786D01*
X190120213Y-41030109D01*
X190292179Y-41155048D01*
X190292181Y-41155049D01*
X190292184Y-41155051D01*
X190481588Y-41251557D01*
X190683757Y-41317246D01*
X190893713Y-41350500D01*
X190893714Y-41350500D01*
X191106286Y-41350500D01*
X191106287Y-41350500D01*
X191316243Y-41317246D01*
X191518412Y-41251557D01*
X191707816Y-41155051D01*
X191830625Y-41065826D01*
X191879786Y-41030109D01*
X191879788Y-41030106D01*
X191879792Y-41030104D01*
X192030104Y-40879792D01*
X192030106Y-40879788D01*
X192030109Y-40879786D01*
X192155048Y-40707820D01*
X192155047Y-40707820D01*
X192155051Y-40707816D01*
X192251557Y-40518412D01*
X192317246Y-40316243D01*
X192350500Y-40106287D01*
X192350500Y-39893713D01*
X192317246Y-39683757D01*
X192251557Y-39481588D01*
X192155051Y-39292184D01*
X192155049Y-39292181D01*
X192155048Y-39292179D01*
X192030109Y-39120213D01*
X191879786Y-38969890D01*
X191707820Y-38844951D01*
X191518414Y-38748444D01*
X191518413Y-38748443D01*
X191518412Y-38748443D01*
X191316243Y-38682754D01*
X191316241Y-38682753D01*
X191316240Y-38682753D01*
X191154957Y-38657208D01*
X191106287Y-38649500D01*
X190893713Y-38649500D01*
X190845042Y-38657208D01*
X190683760Y-38682753D01*
X190481585Y-38748444D01*
X190292179Y-38844951D01*
X190120213Y-38969890D01*
X189969890Y-39120213D01*
X189844951Y-39292179D01*
X189748444Y-39481585D01*
X189748443Y-39481587D01*
X189748443Y-39481588D01*
X189732875Y-39529500D01*
X189682753Y-39683760D01*
X189649500Y-39893713D01*
X185850500Y-39893713D01*
X185817246Y-39683757D01*
X185751557Y-39481588D01*
X185655051Y-39292184D01*
X185655049Y-39292181D01*
X185655048Y-39292179D01*
X185530109Y-39120213D01*
X185379786Y-38969890D01*
X185207820Y-38844951D01*
X185018414Y-38748444D01*
X185018413Y-38748443D01*
X185018412Y-38748443D01*
X184816243Y-38682754D01*
X184816241Y-38682753D01*
X184816240Y-38682753D01*
X184654957Y-38657208D01*
X184606287Y-38649500D01*
X184393713Y-38649500D01*
X184345042Y-38657208D01*
X184183760Y-38682753D01*
X183981585Y-38748444D01*
X183792179Y-38844951D01*
X183620213Y-38969890D01*
X183469890Y-39120213D01*
X183344951Y-39292179D01*
X183248444Y-39481585D01*
X183248443Y-39481587D01*
X183248443Y-39481588D01*
X183232875Y-39529500D01*
X183182753Y-39683760D01*
X183149500Y-39893713D01*
X163332725Y-39893713D01*
X163257190Y-39792812D01*
X163257187Y-39792809D01*
X163142093Y-39706649D01*
X163142086Y-39706645D01*
X163007379Y-39656403D01*
X163007372Y-39656401D01*
X162947844Y-39650000D01*
X162300000Y-39650000D01*
X162300000Y-40566988D01*
X162242993Y-40534075D01*
X162115826Y-40500000D01*
X161984174Y-40500000D01*
X161857007Y-40534075D01*
X161800000Y-40566988D01*
X161800000Y-39650000D01*
X161640018Y-39650000D01*
X161572979Y-39630315D01*
X161527224Y-39577511D01*
X161517280Y-39508353D01*
X161546305Y-39444797D01*
X161552337Y-39438319D01*
X164413319Y-36577337D01*
X164474642Y-36543852D01*
X164544334Y-36548836D01*
X164600267Y-36590708D01*
X164624684Y-36656172D01*
X164625000Y-36665018D01*
X164625000Y-36750000D01*
X165541988Y-36750000D01*
X165509075Y-36807007D01*
X165475000Y-36934174D01*
X165475000Y-37065826D01*
X165509075Y-37192993D01*
X165541988Y-37250000D01*
X164625000Y-37250000D01*
X164625000Y-37897844D01*
X164631401Y-37957372D01*
X164631403Y-37957379D01*
X164681645Y-38092086D01*
X164681649Y-38092093D01*
X164767809Y-38207187D01*
X164767812Y-38207190D01*
X164882906Y-38293350D01*
X164882913Y-38293354D01*
X165017620Y-38343596D01*
X165017627Y-38343598D01*
X165077155Y-38349999D01*
X165077172Y-38350000D01*
X165725000Y-38350000D01*
X165725000Y-37433012D01*
X165782007Y-37465925D01*
X165909174Y-37500000D01*
X166040826Y-37500000D01*
X166167993Y-37465925D01*
X166225000Y-37433012D01*
X166225000Y-38350000D01*
X166872828Y-38350000D01*
X166872844Y-38349999D01*
X166932372Y-38343598D01*
X166932379Y-38343596D01*
X167067086Y-38293354D01*
X167067093Y-38293350D01*
X167182187Y-38207190D01*
X167182190Y-38207187D01*
X167268350Y-38092093D01*
X167268354Y-38092086D01*
X167317422Y-37960529D01*
X167359293Y-37904595D01*
X167424757Y-37880178D01*
X167493030Y-37895030D01*
X167521285Y-37916181D01*
X167635213Y-38030109D01*
X167807179Y-38155048D01*
X167807181Y-38155049D01*
X167807184Y-38155051D01*
X167996588Y-38251557D01*
X168198757Y-38317246D01*
X168408713Y-38350500D01*
X168408714Y-38350500D01*
X168621286Y-38350500D01*
X168621287Y-38350500D01*
X168831243Y-38317246D01*
X169033412Y-38251557D01*
X169222816Y-38155051D01*
X169309478Y-38092088D01*
X169394786Y-38030109D01*
X169394788Y-38030106D01*
X169394792Y-38030104D01*
X169545104Y-37879792D01*
X169545106Y-37879788D01*
X169545109Y-37879786D01*
X169670048Y-37707820D01*
X169670047Y-37707820D01*
X169670051Y-37707816D01*
X169674514Y-37699054D01*
X169722488Y-37648259D01*
X169790308Y-37631463D01*
X169856444Y-37653999D01*
X169895486Y-37699056D01*
X169899951Y-37707820D01*
X170024890Y-37879786D01*
X170175213Y-38030109D01*
X170347179Y-38155048D01*
X170347181Y-38155049D01*
X170347184Y-38155051D01*
X170536588Y-38251557D01*
X170738757Y-38317246D01*
X170948713Y-38350500D01*
X170948714Y-38350500D01*
X171161286Y-38350500D01*
X171161287Y-38350500D01*
X171371243Y-38317246D01*
X171573412Y-38251557D01*
X171762816Y-38155051D01*
X171849478Y-38092088D01*
X171934786Y-38030109D01*
X171934788Y-38030106D01*
X171934792Y-38030104D01*
X172085104Y-37879792D01*
X172085106Y-37879788D01*
X172085109Y-37879786D01*
X172210048Y-37707820D01*
X172210047Y-37707820D01*
X172210051Y-37707816D01*
X172214514Y-37699054D01*
X172262488Y-37648259D01*
X172330308Y-37631463D01*
X172396444Y-37653999D01*
X172435486Y-37699056D01*
X172439951Y-37707820D01*
X172564890Y-37879786D01*
X172715213Y-38030109D01*
X172887179Y-38155048D01*
X172887181Y-38155049D01*
X172887184Y-38155051D01*
X173076588Y-38251557D01*
X173278757Y-38317246D01*
X173488713Y-38350500D01*
X173488714Y-38350500D01*
X173701286Y-38350500D01*
X173701287Y-38350500D01*
X173911243Y-38317246D01*
X174113412Y-38251557D01*
X174302816Y-38155051D01*
X174389478Y-38092088D01*
X174474786Y-38030109D01*
X174474788Y-38030106D01*
X174474792Y-38030104D01*
X174625104Y-37879792D01*
X174625106Y-37879788D01*
X174625109Y-37879786D01*
X174750048Y-37707820D01*
X174750047Y-37707820D01*
X174750051Y-37707816D01*
X174846557Y-37518412D01*
X174912246Y-37316243D01*
X174945500Y-37106287D01*
X174945500Y-36893713D01*
X174912246Y-36683757D01*
X174880747Y-36586816D01*
X174878753Y-36516977D01*
X174914833Y-36457144D01*
X174977534Y-36426316D01*
X174998679Y-36424500D01*
X185071321Y-36424500D01*
X185098311Y-36432425D01*
G37*
%TD.AperFunction*%
%TD*%
M02*
