%TF.GenerationSoftware,KiCad,Pcbnew,9.0.6*%
%TF.CreationDate,2025-12-07T19:24:30-08:00*%
%TF.ProjectId,redstone_repeater,72656473-746f-46e6-955f-726570656174,rev?*%
%TF.SameCoordinates,Original*%
%TF.FileFunction,Legend,Top*%
%TF.FilePolarity,Positive*%
%FSLAX46Y46*%
G04 Gerber Fmt 4.6, Leading zero omitted, Abs format (unit mm)*
G04 Created by KiCad (PCBNEW 9.0.6) date 2025-12-07 19:24:30*
%MOMM*%
%LPD*%
G01*
G04 APERTURE LIST*
%ADD10C,0.150000*%
%ADD11C,0.152400*%
%ADD12C,0.508000*%
%ADD13C,0.120000*%
%ADD14C,0.200000*%
%ADD15C,0.100000*%
G04 APERTURE END LIST*
D10*
X191869819Y-50163220D02*
X190869819Y-50163220D01*
X190869819Y-50163220D02*
X190869819Y-49782268D01*
X190869819Y-49782268D02*
X190917438Y-49687030D01*
X190917438Y-49687030D02*
X190965057Y-49639411D01*
X190965057Y-49639411D02*
X191060295Y-49591792D01*
X191060295Y-49591792D02*
X191203152Y-49591792D01*
X191203152Y-49591792D02*
X191298390Y-49639411D01*
X191298390Y-49639411D02*
X191346009Y-49687030D01*
X191346009Y-49687030D02*
X191393628Y-49782268D01*
X191393628Y-49782268D02*
X191393628Y-50163220D01*
X190917438Y-48639411D02*
X190869819Y-48734649D01*
X190869819Y-48734649D02*
X190869819Y-48877506D01*
X190869819Y-48877506D02*
X190917438Y-49020363D01*
X190917438Y-49020363D02*
X191012676Y-49115601D01*
X191012676Y-49115601D02*
X191107914Y-49163220D01*
X191107914Y-49163220D02*
X191298390Y-49210839D01*
X191298390Y-49210839D02*
X191441247Y-49210839D01*
X191441247Y-49210839D02*
X191631723Y-49163220D01*
X191631723Y-49163220D02*
X191726961Y-49115601D01*
X191726961Y-49115601D02*
X191822200Y-49020363D01*
X191822200Y-49020363D02*
X191869819Y-48877506D01*
X191869819Y-48877506D02*
X191869819Y-48782268D01*
X191869819Y-48782268D02*
X191822200Y-48639411D01*
X191822200Y-48639411D02*
X191774580Y-48591792D01*
X191774580Y-48591792D02*
X191441247Y-48591792D01*
X191441247Y-48591792D02*
X191441247Y-48782268D01*
X191869819Y-48163220D02*
X190869819Y-48163220D01*
X190869819Y-48163220D02*
X191584104Y-47829887D01*
X191584104Y-47829887D02*
X190869819Y-47496554D01*
X190869819Y-47496554D02*
X191869819Y-47496554D01*
X185625180Y-66238095D02*
X184815657Y-66238095D01*
X184815657Y-66238095D02*
X184720419Y-66285714D01*
X184720419Y-66285714D02*
X184672800Y-66333333D01*
X184672800Y-66333333D02*
X184625180Y-66428571D01*
X184625180Y-66428571D02*
X184625180Y-66619047D01*
X184625180Y-66619047D02*
X184672800Y-66714285D01*
X184672800Y-66714285D02*
X184720419Y-66761904D01*
X184720419Y-66761904D02*
X184815657Y-66809523D01*
X184815657Y-66809523D02*
X185625180Y-66809523D01*
X185529942Y-67238095D02*
X185577561Y-67285714D01*
X185577561Y-67285714D02*
X185625180Y-67380952D01*
X185625180Y-67380952D02*
X185625180Y-67619047D01*
X185625180Y-67619047D02*
X185577561Y-67714285D01*
X185577561Y-67714285D02*
X185529942Y-67761904D01*
X185529942Y-67761904D02*
X185434704Y-67809523D01*
X185434704Y-67809523D02*
X185339466Y-67809523D01*
X185339466Y-67809523D02*
X185196609Y-67761904D01*
X185196609Y-67761904D02*
X184625180Y-67190476D01*
X184625180Y-67190476D02*
X184625180Y-67809523D01*
X181050057Y-65595238D02*
X181002438Y-65690476D01*
X181002438Y-65690476D02*
X180907200Y-65785714D01*
X180907200Y-65785714D02*
X180764342Y-65928571D01*
X180764342Y-65928571D02*
X180716723Y-66023809D01*
X180716723Y-66023809D02*
X180716723Y-66119047D01*
X180954819Y-66071428D02*
X180907200Y-66166666D01*
X180907200Y-66166666D02*
X180811961Y-66261904D01*
X180811961Y-66261904D02*
X180621485Y-66309523D01*
X180621485Y-66309523D02*
X180288152Y-66309523D01*
X180288152Y-66309523D02*
X180097676Y-66261904D01*
X180097676Y-66261904D02*
X180002438Y-66166666D01*
X180002438Y-66166666D02*
X179954819Y-66071428D01*
X179954819Y-66071428D02*
X179954819Y-65880952D01*
X179954819Y-65880952D02*
X180002438Y-65785714D01*
X180002438Y-65785714D02*
X180097676Y-65690476D01*
X180097676Y-65690476D02*
X180288152Y-65642857D01*
X180288152Y-65642857D02*
X180621485Y-65642857D01*
X180621485Y-65642857D02*
X180811961Y-65690476D01*
X180811961Y-65690476D02*
X180907200Y-65785714D01*
X180907200Y-65785714D02*
X180954819Y-65880952D01*
X180954819Y-65880952D02*
X180954819Y-66071428D01*
X180288152Y-64785714D02*
X180954819Y-64785714D01*
X179907200Y-65023809D02*
X180621485Y-65261904D01*
X180621485Y-65261904D02*
X180621485Y-64642857D01*
X186550057Y-56032738D02*
X186502438Y-56127976D01*
X186502438Y-56127976D02*
X186407200Y-56223214D01*
X186407200Y-56223214D02*
X186264342Y-56366071D01*
X186264342Y-56366071D02*
X186216723Y-56461309D01*
X186216723Y-56461309D02*
X186216723Y-56556547D01*
X186454819Y-56508928D02*
X186407200Y-56604166D01*
X186407200Y-56604166D02*
X186311961Y-56699404D01*
X186311961Y-56699404D02*
X186121485Y-56747023D01*
X186121485Y-56747023D02*
X185788152Y-56747023D01*
X185788152Y-56747023D02*
X185597676Y-56699404D01*
X185597676Y-56699404D02*
X185502438Y-56604166D01*
X185502438Y-56604166D02*
X185454819Y-56508928D01*
X185454819Y-56508928D02*
X185454819Y-56318452D01*
X185454819Y-56318452D02*
X185502438Y-56223214D01*
X185502438Y-56223214D02*
X185597676Y-56127976D01*
X185597676Y-56127976D02*
X185788152Y-56080357D01*
X185788152Y-56080357D02*
X186121485Y-56080357D01*
X186121485Y-56080357D02*
X186311961Y-56127976D01*
X186311961Y-56127976D02*
X186407200Y-56223214D01*
X186407200Y-56223214D02*
X186454819Y-56318452D01*
X186454819Y-56318452D02*
X186454819Y-56508928D01*
X185454819Y-55175595D02*
X185454819Y-55651785D01*
X185454819Y-55651785D02*
X185931009Y-55699404D01*
X185931009Y-55699404D02*
X185883390Y-55651785D01*
X185883390Y-55651785D02*
X185835771Y-55556547D01*
X185835771Y-55556547D02*
X185835771Y-55318452D01*
X185835771Y-55318452D02*
X185883390Y-55223214D01*
X185883390Y-55223214D02*
X185931009Y-55175595D01*
X185931009Y-55175595D02*
X186026247Y-55127976D01*
X186026247Y-55127976D02*
X186264342Y-55127976D01*
X186264342Y-55127976D02*
X186359580Y-55175595D01*
X186359580Y-55175595D02*
X186407200Y-55223214D01*
X186407200Y-55223214D02*
X186454819Y-55318452D01*
X186454819Y-55318452D02*
X186454819Y-55556547D01*
X186454819Y-55556547D02*
X186407200Y-55651785D01*
X186407200Y-55651785D02*
X186359580Y-55699404D01*
X175238095Y-55407200D02*
X175380952Y-55454819D01*
X175380952Y-55454819D02*
X175619047Y-55454819D01*
X175619047Y-55454819D02*
X175714285Y-55407200D01*
X175714285Y-55407200D02*
X175761904Y-55359580D01*
X175761904Y-55359580D02*
X175809523Y-55264342D01*
X175809523Y-55264342D02*
X175809523Y-55169104D01*
X175809523Y-55169104D02*
X175761904Y-55073866D01*
X175761904Y-55073866D02*
X175714285Y-55026247D01*
X175714285Y-55026247D02*
X175619047Y-54978628D01*
X175619047Y-54978628D02*
X175428571Y-54931009D01*
X175428571Y-54931009D02*
X175333333Y-54883390D01*
X175333333Y-54883390D02*
X175285714Y-54835771D01*
X175285714Y-54835771D02*
X175238095Y-54740533D01*
X175238095Y-54740533D02*
X175238095Y-54645295D01*
X175238095Y-54645295D02*
X175285714Y-54550057D01*
X175285714Y-54550057D02*
X175333333Y-54502438D01*
X175333333Y-54502438D02*
X175428571Y-54454819D01*
X175428571Y-54454819D02*
X175666666Y-54454819D01*
X175666666Y-54454819D02*
X175809523Y-54502438D01*
X176761904Y-55454819D02*
X176190476Y-55454819D01*
X176476190Y-55454819D02*
X176476190Y-54454819D01*
X176476190Y-54454819D02*
X176380952Y-54597676D01*
X176380952Y-54597676D02*
X176285714Y-54692914D01*
X176285714Y-54692914D02*
X176190476Y-54740533D01*
X183333333Y-42859580D02*
X183285714Y-42907200D01*
X183285714Y-42907200D02*
X183142857Y-42954819D01*
X183142857Y-42954819D02*
X183047619Y-42954819D01*
X183047619Y-42954819D02*
X182904762Y-42907200D01*
X182904762Y-42907200D02*
X182809524Y-42811961D01*
X182809524Y-42811961D02*
X182761905Y-42716723D01*
X182761905Y-42716723D02*
X182714286Y-42526247D01*
X182714286Y-42526247D02*
X182714286Y-42383390D01*
X182714286Y-42383390D02*
X182761905Y-42192914D01*
X182761905Y-42192914D02*
X182809524Y-42097676D01*
X182809524Y-42097676D02*
X182904762Y-42002438D01*
X182904762Y-42002438D02*
X183047619Y-41954819D01*
X183047619Y-41954819D02*
X183142857Y-41954819D01*
X183142857Y-41954819D02*
X183285714Y-42002438D01*
X183285714Y-42002438D02*
X183333333Y-42050057D01*
X183666667Y-41954819D02*
X184333333Y-41954819D01*
X184333333Y-41954819D02*
X183904762Y-42954819D01*
X192833333Y-61754819D02*
X192357143Y-61754819D01*
X192357143Y-61754819D02*
X192357143Y-60754819D01*
X193690476Y-61754819D02*
X193119048Y-61754819D01*
X193404762Y-61754819D02*
X193404762Y-60754819D01*
X193404762Y-60754819D02*
X193309524Y-60897676D01*
X193309524Y-60897676D02*
X193214286Y-60992914D01*
X193214286Y-60992914D02*
X193119048Y-61040533D01*
X170550057Y-65595238D02*
X170502438Y-65690476D01*
X170502438Y-65690476D02*
X170407200Y-65785714D01*
X170407200Y-65785714D02*
X170264342Y-65928571D01*
X170264342Y-65928571D02*
X170216723Y-66023809D01*
X170216723Y-66023809D02*
X170216723Y-66119047D01*
X170454819Y-66071428D02*
X170407200Y-66166666D01*
X170407200Y-66166666D02*
X170311961Y-66261904D01*
X170311961Y-66261904D02*
X170121485Y-66309523D01*
X170121485Y-66309523D02*
X169788152Y-66309523D01*
X169788152Y-66309523D02*
X169597676Y-66261904D01*
X169597676Y-66261904D02*
X169502438Y-66166666D01*
X169502438Y-66166666D02*
X169454819Y-66071428D01*
X169454819Y-66071428D02*
X169454819Y-65880952D01*
X169454819Y-65880952D02*
X169502438Y-65785714D01*
X169502438Y-65785714D02*
X169597676Y-65690476D01*
X169597676Y-65690476D02*
X169788152Y-65642857D01*
X169788152Y-65642857D02*
X170121485Y-65642857D01*
X170121485Y-65642857D02*
X170311961Y-65690476D01*
X170311961Y-65690476D02*
X170407200Y-65785714D01*
X170407200Y-65785714D02*
X170454819Y-65880952D01*
X170454819Y-65880952D02*
X170454819Y-66071428D01*
X170454819Y-64690476D02*
X170454819Y-65261904D01*
X170454819Y-64976190D02*
X169454819Y-64976190D01*
X169454819Y-64976190D02*
X169597676Y-65071428D01*
X169597676Y-65071428D02*
X169692914Y-65166666D01*
X169692914Y-65166666D02*
X169740533Y-65261904D01*
X182833333Y-60273443D02*
X182785714Y-60321063D01*
X182785714Y-60321063D02*
X182642857Y-60368682D01*
X182642857Y-60368682D02*
X182547619Y-60368682D01*
X182547619Y-60368682D02*
X182404762Y-60321063D01*
X182404762Y-60321063D02*
X182309524Y-60225824D01*
X182309524Y-60225824D02*
X182261905Y-60130586D01*
X182261905Y-60130586D02*
X182214286Y-59940110D01*
X182214286Y-59940110D02*
X182214286Y-59797253D01*
X182214286Y-59797253D02*
X182261905Y-59606777D01*
X182261905Y-59606777D02*
X182309524Y-59511539D01*
X182309524Y-59511539D02*
X182404762Y-59416301D01*
X182404762Y-59416301D02*
X182547619Y-59368682D01*
X182547619Y-59368682D02*
X182642857Y-59368682D01*
X182642857Y-59368682D02*
X182785714Y-59416301D01*
X182785714Y-59416301D02*
X182833333Y-59463920D01*
X183738095Y-59368682D02*
X183261905Y-59368682D01*
X183261905Y-59368682D02*
X183214286Y-59844872D01*
X183214286Y-59844872D02*
X183261905Y-59797253D01*
X183261905Y-59797253D02*
X183357143Y-59749634D01*
X183357143Y-59749634D02*
X183595238Y-59749634D01*
X183595238Y-59749634D02*
X183690476Y-59797253D01*
X183690476Y-59797253D02*
X183738095Y-59844872D01*
X183738095Y-59844872D02*
X183785714Y-59940110D01*
X183785714Y-59940110D02*
X183785714Y-60178205D01*
X183785714Y-60178205D02*
X183738095Y-60273443D01*
X183738095Y-60273443D02*
X183690476Y-60321063D01*
X183690476Y-60321063D02*
X183595238Y-60368682D01*
X183595238Y-60368682D02*
X183357143Y-60368682D01*
X183357143Y-60368682D02*
X183261905Y-60321063D01*
X183261905Y-60321063D02*
X183214286Y-60273443D01*
X197954819Y-57092857D02*
X197478628Y-57426190D01*
X197954819Y-57664285D02*
X196954819Y-57664285D01*
X196954819Y-57664285D02*
X196954819Y-57283333D01*
X196954819Y-57283333D02*
X197002438Y-57188095D01*
X197002438Y-57188095D02*
X197050057Y-57140476D01*
X197050057Y-57140476D02*
X197145295Y-57092857D01*
X197145295Y-57092857D02*
X197288152Y-57092857D01*
X197288152Y-57092857D02*
X197383390Y-57140476D01*
X197383390Y-57140476D02*
X197431009Y-57188095D01*
X197431009Y-57188095D02*
X197478628Y-57283333D01*
X197478628Y-57283333D02*
X197478628Y-57664285D01*
X197954819Y-56140476D02*
X197954819Y-56711904D01*
X197954819Y-56426190D02*
X196954819Y-56426190D01*
X196954819Y-56426190D02*
X197097676Y-56521428D01*
X197097676Y-56521428D02*
X197192914Y-56616666D01*
X197192914Y-56616666D02*
X197240533Y-56711904D01*
X196954819Y-55521428D02*
X196954819Y-55426190D01*
X196954819Y-55426190D02*
X197002438Y-55330952D01*
X197002438Y-55330952D02*
X197050057Y-55283333D01*
X197050057Y-55283333D02*
X197145295Y-55235714D01*
X197145295Y-55235714D02*
X197335771Y-55188095D01*
X197335771Y-55188095D02*
X197573866Y-55188095D01*
X197573866Y-55188095D02*
X197764342Y-55235714D01*
X197764342Y-55235714D02*
X197859580Y-55283333D01*
X197859580Y-55283333D02*
X197907200Y-55330952D01*
X197907200Y-55330952D02*
X197954819Y-55426190D01*
X197954819Y-55426190D02*
X197954819Y-55521428D01*
X197954819Y-55521428D02*
X197907200Y-55616666D01*
X197907200Y-55616666D02*
X197859580Y-55664285D01*
X197859580Y-55664285D02*
X197764342Y-55711904D01*
X197764342Y-55711904D02*
X197573866Y-55759523D01*
X197573866Y-55759523D02*
X197335771Y-55759523D01*
X197335771Y-55759523D02*
X197145295Y-55711904D01*
X197145295Y-55711904D02*
X197050057Y-55664285D01*
X197050057Y-55664285D02*
X197002438Y-55616666D01*
X197002438Y-55616666D02*
X196954819Y-55521428D01*
X183857142Y-62954819D02*
X183523809Y-62478628D01*
X183285714Y-62954819D02*
X183285714Y-61954819D01*
X183285714Y-61954819D02*
X183666666Y-61954819D01*
X183666666Y-61954819D02*
X183761904Y-62002438D01*
X183761904Y-62002438D02*
X183809523Y-62050057D01*
X183809523Y-62050057D02*
X183857142Y-62145295D01*
X183857142Y-62145295D02*
X183857142Y-62288152D01*
X183857142Y-62288152D02*
X183809523Y-62383390D01*
X183809523Y-62383390D02*
X183761904Y-62431009D01*
X183761904Y-62431009D02*
X183666666Y-62478628D01*
X183666666Y-62478628D02*
X183285714Y-62478628D01*
X184809523Y-62954819D02*
X184238095Y-62954819D01*
X184523809Y-62954819D02*
X184523809Y-61954819D01*
X184523809Y-61954819D02*
X184428571Y-62097676D01*
X184428571Y-62097676D02*
X184333333Y-62192914D01*
X184333333Y-62192914D02*
X184238095Y-62240533D01*
X185142857Y-61954819D02*
X185809523Y-61954819D01*
X185809523Y-61954819D02*
X185380952Y-62954819D01*
X174050057Y-65595238D02*
X174002438Y-65690476D01*
X174002438Y-65690476D02*
X173907200Y-65785714D01*
X173907200Y-65785714D02*
X173764342Y-65928571D01*
X173764342Y-65928571D02*
X173716723Y-66023809D01*
X173716723Y-66023809D02*
X173716723Y-66119047D01*
X173954819Y-66071428D02*
X173907200Y-66166666D01*
X173907200Y-66166666D02*
X173811961Y-66261904D01*
X173811961Y-66261904D02*
X173621485Y-66309523D01*
X173621485Y-66309523D02*
X173288152Y-66309523D01*
X173288152Y-66309523D02*
X173097676Y-66261904D01*
X173097676Y-66261904D02*
X173002438Y-66166666D01*
X173002438Y-66166666D02*
X172954819Y-66071428D01*
X172954819Y-66071428D02*
X172954819Y-65880952D01*
X172954819Y-65880952D02*
X173002438Y-65785714D01*
X173002438Y-65785714D02*
X173097676Y-65690476D01*
X173097676Y-65690476D02*
X173288152Y-65642857D01*
X173288152Y-65642857D02*
X173621485Y-65642857D01*
X173621485Y-65642857D02*
X173811961Y-65690476D01*
X173811961Y-65690476D02*
X173907200Y-65785714D01*
X173907200Y-65785714D02*
X173954819Y-65880952D01*
X173954819Y-65880952D02*
X173954819Y-66071428D01*
X173050057Y-65261904D02*
X173002438Y-65214285D01*
X173002438Y-65214285D02*
X172954819Y-65119047D01*
X172954819Y-65119047D02*
X172954819Y-64880952D01*
X172954819Y-64880952D02*
X173002438Y-64785714D01*
X173002438Y-64785714D02*
X173050057Y-64738095D01*
X173050057Y-64738095D02*
X173145295Y-64690476D01*
X173145295Y-64690476D02*
X173240533Y-64690476D01*
X173240533Y-64690476D02*
X173383390Y-64738095D01*
X173383390Y-64738095D02*
X173954819Y-65309523D01*
X173954819Y-65309523D02*
X173954819Y-64690476D01*
X166554818Y-47824404D02*
X167364341Y-47824404D01*
X167364341Y-47824404D02*
X167459579Y-47776785D01*
X167459579Y-47776785D02*
X167507199Y-47729166D01*
X167507199Y-47729166D02*
X167554818Y-47633928D01*
X167554818Y-47633928D02*
X167554818Y-47443452D01*
X167554818Y-47443452D02*
X167507199Y-47348214D01*
X167507199Y-47348214D02*
X167459579Y-47300595D01*
X167459579Y-47300595D02*
X167364341Y-47252976D01*
X167364341Y-47252976D02*
X166554818Y-47252976D01*
X166554818Y-46300595D02*
X166554818Y-46776785D01*
X166554818Y-46776785D02*
X167031008Y-46824404D01*
X167031008Y-46824404D02*
X166983389Y-46776785D01*
X166983389Y-46776785D02*
X166935770Y-46681547D01*
X166935770Y-46681547D02*
X166935770Y-46443452D01*
X166935770Y-46443452D02*
X166983389Y-46348214D01*
X166983389Y-46348214D02*
X167031008Y-46300595D01*
X167031008Y-46300595D02*
X167126246Y-46252976D01*
X167126246Y-46252976D02*
X167364341Y-46252976D01*
X167364341Y-46252976D02*
X167459579Y-46300595D01*
X167459579Y-46300595D02*
X167507199Y-46348214D01*
X167507199Y-46348214D02*
X167554818Y-46443452D01*
X167554818Y-46443452D02*
X167554818Y-46681547D01*
X167554818Y-46681547D02*
X167507199Y-46776785D01*
X167507199Y-46776785D02*
X167459579Y-46824404D01*
X181333333Y-41159580D02*
X181285714Y-41207200D01*
X181285714Y-41207200D02*
X181142857Y-41254819D01*
X181142857Y-41254819D02*
X181047619Y-41254819D01*
X181047619Y-41254819D02*
X180904762Y-41207200D01*
X180904762Y-41207200D02*
X180809524Y-41111961D01*
X180809524Y-41111961D02*
X180761905Y-41016723D01*
X180761905Y-41016723D02*
X180714286Y-40826247D01*
X180714286Y-40826247D02*
X180714286Y-40683390D01*
X180714286Y-40683390D02*
X180761905Y-40492914D01*
X180761905Y-40492914D02*
X180809524Y-40397676D01*
X180809524Y-40397676D02*
X180904762Y-40302438D01*
X180904762Y-40302438D02*
X181047619Y-40254819D01*
X181047619Y-40254819D02*
X181142857Y-40254819D01*
X181142857Y-40254819D02*
X181285714Y-40302438D01*
X181285714Y-40302438D02*
X181333333Y-40350057D01*
X182190476Y-40254819D02*
X182000000Y-40254819D01*
X182000000Y-40254819D02*
X181904762Y-40302438D01*
X181904762Y-40302438D02*
X181857143Y-40350057D01*
X181857143Y-40350057D02*
X181761905Y-40492914D01*
X181761905Y-40492914D02*
X181714286Y-40683390D01*
X181714286Y-40683390D02*
X181714286Y-41064342D01*
X181714286Y-41064342D02*
X181761905Y-41159580D01*
X181761905Y-41159580D02*
X181809524Y-41207200D01*
X181809524Y-41207200D02*
X181904762Y-41254819D01*
X181904762Y-41254819D02*
X182095238Y-41254819D01*
X182095238Y-41254819D02*
X182190476Y-41207200D01*
X182190476Y-41207200D02*
X182238095Y-41159580D01*
X182238095Y-41159580D02*
X182285714Y-41064342D01*
X182285714Y-41064342D02*
X182285714Y-40826247D01*
X182285714Y-40826247D02*
X182238095Y-40731009D01*
X182238095Y-40731009D02*
X182190476Y-40683390D01*
X182190476Y-40683390D02*
X182095238Y-40635771D01*
X182095238Y-40635771D02*
X181904762Y-40635771D01*
X181904762Y-40635771D02*
X181809524Y-40683390D01*
X181809524Y-40683390D02*
X181761905Y-40731009D01*
X181761905Y-40731009D02*
X181714286Y-40826247D01*
X191761905Y-52454819D02*
X191761905Y-51454819D01*
X191761905Y-51454819D02*
X192000000Y-51454819D01*
X192000000Y-51454819D02*
X192142857Y-51502438D01*
X192142857Y-51502438D02*
X192238095Y-51597676D01*
X192238095Y-51597676D02*
X192285714Y-51692914D01*
X192285714Y-51692914D02*
X192333333Y-51883390D01*
X192333333Y-51883390D02*
X192333333Y-52026247D01*
X192333333Y-52026247D02*
X192285714Y-52216723D01*
X192285714Y-52216723D02*
X192238095Y-52311961D01*
X192238095Y-52311961D02*
X192142857Y-52407200D01*
X192142857Y-52407200D02*
X192000000Y-52454819D01*
X192000000Y-52454819D02*
X191761905Y-52454819D01*
X193238095Y-51454819D02*
X192761905Y-51454819D01*
X192761905Y-51454819D02*
X192714286Y-51931009D01*
X192714286Y-51931009D02*
X192761905Y-51883390D01*
X192761905Y-51883390D02*
X192857143Y-51835771D01*
X192857143Y-51835771D02*
X193095238Y-51835771D01*
X193095238Y-51835771D02*
X193190476Y-51883390D01*
X193190476Y-51883390D02*
X193238095Y-51931009D01*
X193238095Y-51931009D02*
X193285714Y-52026247D01*
X193285714Y-52026247D02*
X193285714Y-52264342D01*
X193285714Y-52264342D02*
X193238095Y-52359580D01*
X193238095Y-52359580D02*
X193190476Y-52407200D01*
X193190476Y-52407200D02*
X193095238Y-52454819D01*
X193095238Y-52454819D02*
X192857143Y-52454819D01*
X192857143Y-52454819D02*
X192761905Y-52407200D01*
X192761905Y-52407200D02*
X192714286Y-52359580D01*
X177550057Y-65595238D02*
X177502438Y-65690476D01*
X177502438Y-65690476D02*
X177407200Y-65785714D01*
X177407200Y-65785714D02*
X177264342Y-65928571D01*
X177264342Y-65928571D02*
X177216723Y-66023809D01*
X177216723Y-66023809D02*
X177216723Y-66119047D01*
X177454819Y-66071428D02*
X177407200Y-66166666D01*
X177407200Y-66166666D02*
X177311961Y-66261904D01*
X177311961Y-66261904D02*
X177121485Y-66309523D01*
X177121485Y-66309523D02*
X176788152Y-66309523D01*
X176788152Y-66309523D02*
X176597676Y-66261904D01*
X176597676Y-66261904D02*
X176502438Y-66166666D01*
X176502438Y-66166666D02*
X176454819Y-66071428D01*
X176454819Y-66071428D02*
X176454819Y-65880952D01*
X176454819Y-65880952D02*
X176502438Y-65785714D01*
X176502438Y-65785714D02*
X176597676Y-65690476D01*
X176597676Y-65690476D02*
X176788152Y-65642857D01*
X176788152Y-65642857D02*
X177121485Y-65642857D01*
X177121485Y-65642857D02*
X177311961Y-65690476D01*
X177311961Y-65690476D02*
X177407200Y-65785714D01*
X177407200Y-65785714D02*
X177454819Y-65880952D01*
X177454819Y-65880952D02*
X177454819Y-66071428D01*
X176454819Y-65309523D02*
X176454819Y-64690476D01*
X176454819Y-64690476D02*
X176835771Y-65023809D01*
X176835771Y-65023809D02*
X176835771Y-64880952D01*
X176835771Y-64880952D02*
X176883390Y-64785714D01*
X176883390Y-64785714D02*
X176931009Y-64738095D01*
X176931009Y-64738095D02*
X177026247Y-64690476D01*
X177026247Y-64690476D02*
X177264342Y-64690476D01*
X177264342Y-64690476D02*
X177359580Y-64738095D01*
X177359580Y-64738095D02*
X177407200Y-64785714D01*
X177407200Y-64785714D02*
X177454819Y-64880952D01*
X177454819Y-64880952D02*
X177454819Y-65166666D01*
X177454819Y-65166666D02*
X177407200Y-65261904D01*
X177407200Y-65261904D02*
X177359580Y-65309523D01*
X187454819Y-51491666D02*
X186978628Y-51824999D01*
X187454819Y-52063094D02*
X186454819Y-52063094D01*
X186454819Y-52063094D02*
X186454819Y-51682142D01*
X186454819Y-51682142D02*
X186502438Y-51586904D01*
X186502438Y-51586904D02*
X186550057Y-51539285D01*
X186550057Y-51539285D02*
X186645295Y-51491666D01*
X186645295Y-51491666D02*
X186788152Y-51491666D01*
X186788152Y-51491666D02*
X186883390Y-51539285D01*
X186883390Y-51539285D02*
X186931009Y-51586904D01*
X186931009Y-51586904D02*
X186978628Y-51682142D01*
X186978628Y-51682142D02*
X186978628Y-52063094D01*
X187454819Y-51015475D02*
X187454819Y-50824999D01*
X187454819Y-50824999D02*
X187407200Y-50729761D01*
X187407200Y-50729761D02*
X187359580Y-50682142D01*
X187359580Y-50682142D02*
X187216723Y-50586904D01*
X187216723Y-50586904D02*
X187026247Y-50539285D01*
X187026247Y-50539285D02*
X186645295Y-50539285D01*
X186645295Y-50539285D02*
X186550057Y-50586904D01*
X186550057Y-50586904D02*
X186502438Y-50634523D01*
X186502438Y-50634523D02*
X186454819Y-50729761D01*
X186454819Y-50729761D02*
X186454819Y-50920237D01*
X186454819Y-50920237D02*
X186502438Y-51015475D01*
X186502438Y-51015475D02*
X186550057Y-51063094D01*
X186550057Y-51063094D02*
X186645295Y-51110713D01*
X186645295Y-51110713D02*
X186883390Y-51110713D01*
X186883390Y-51110713D02*
X186978628Y-51063094D01*
X186978628Y-51063094D02*
X187026247Y-51015475D01*
X187026247Y-51015475D02*
X187073866Y-50920237D01*
X187073866Y-50920237D02*
X187073866Y-50729761D01*
X187073866Y-50729761D02*
X187026247Y-50634523D01*
X187026247Y-50634523D02*
X186978628Y-50586904D01*
X186978628Y-50586904D02*
X186883390Y-50539285D01*
D11*
%TO.C,U2*%
X184109100Y-63166000D02*
X184109100Y-71014600D01*
X184109100Y-71014600D02*
X195970900Y-71014600D01*
X195970900Y-63166000D02*
X184109100Y-63166000D01*
X195970900Y-71014600D02*
X195970900Y-63166000D01*
D12*
X197240900Y-71500000D02*
G75*
G02*
X196478900Y-71500000I-381000J0D01*
G01*
X196478900Y-71500000D02*
G75*
G02*
X197240900Y-71500000I381000J0D01*
G01*
D13*
%TO.C,Q4*%
X178940000Y-61740000D02*
X179940000Y-61740000D01*
X178940000Y-63260000D02*
X178940000Y-61740000D01*
X178990000Y-63260000D02*
X178940000Y-63260000D01*
X180890000Y-63260000D02*
X180110000Y-63260000D01*
X181060000Y-61740000D02*
X182060000Y-61740000D01*
X182060000Y-61740000D02*
X182060000Y-63260000D01*
X182060000Y-63260000D02*
X182010000Y-63260000D01*
X180450000Y-64040000D02*
X180120000Y-63800000D01*
X180450000Y-63560000D01*
X180450000Y-64040000D01*
G36*
X180450000Y-64040000D02*
G01*
X180120000Y-63800000D01*
X180450000Y-63560000D01*
X180450000Y-64040000D01*
G37*
D14*
%TO.C,D3*%
X175400000Y-60350000D02*
X177825000Y-60350000D01*
X177825000Y-58650000D02*
X175400000Y-58650000D01*
X177825000Y-60350000D02*
X177825000Y-58650000D01*
D13*
%TO.C,Q5*%
X186890000Y-55177500D02*
X186940000Y-55177500D01*
X186890000Y-56697500D02*
X186890000Y-55177500D01*
X187890000Y-56697500D02*
X186890000Y-56697500D01*
X188060000Y-55177500D02*
X188840000Y-55177500D01*
X189960000Y-55177500D02*
X190010000Y-55177500D01*
X190010000Y-55177500D02*
X190010000Y-56697500D01*
X190010000Y-56697500D02*
X189010000Y-56697500D01*
X188830000Y-54637500D02*
X188500000Y-54877500D01*
X188500000Y-54397500D01*
X188830000Y-54637500D01*
G36*
X188830000Y-54637500D02*
G01*
X188500000Y-54877500D01*
X188500000Y-54397500D01*
X188830000Y-54637500D01*
G37*
%TO.C,SW1*%
X184630000Y-43350000D02*
X184630000Y-41150000D01*
X185250000Y-39130000D02*
X190250000Y-39130000D01*
X185250000Y-45370000D02*
X190250000Y-45370000D01*
X190870000Y-41150000D02*
X190870000Y-43350000D01*
X189500000Y-42250000D02*
G75*
G02*
X186000000Y-42250000I-1750000J0D01*
G01*
X186000000Y-42250000D02*
G75*
G02*
X189500000Y-42250000I1750000J0D01*
G01*
D14*
%TO.C,S1*%
X167403508Y-52800000D02*
X182103508Y-52800000D01*
X167403508Y-53500000D02*
X167403508Y-52800000D01*
X167403508Y-56500000D02*
X167403508Y-57200000D01*
X167403508Y-57200000D02*
X182103508Y-57200000D01*
D15*
X169753508Y-57700000D02*
X169753508Y-57700000D01*
X169753508Y-57800000D02*
X169753508Y-57800000D01*
D14*
X182103508Y-52800000D02*
X182103508Y-53500000D01*
X182103508Y-57200000D02*
X182103508Y-56500000D01*
D15*
X169753508Y-57700000D02*
G75*
G02*
X169753508Y-57800000I0J-50000D01*
G01*
X169753508Y-57800000D02*
G75*
G02*
X169753508Y-57700000I0J50000D01*
G01*
D13*
%TO.C,U3*%
X195550000Y-58523863D02*
X193550000Y-58523863D01*
X195560000Y-60803863D02*
X193560000Y-60803863D01*
X195920000Y-61013863D02*
X195920000Y-60733863D01*
X196200000Y-60733863D01*
X195920000Y-61013863D01*
G36*
X195920000Y-61013863D02*
G01*
X195920000Y-60733863D01*
X196200000Y-60733863D01*
X195920000Y-61013863D01*
G37*
%TO.C,J9*%
X192670000Y-47230000D02*
X192670000Y-39550000D01*
X192670000Y-49830000D02*
X192670000Y-48500000D01*
X194000000Y-49830000D02*
X192670000Y-49830000D01*
X195330000Y-39550000D02*
X192670000Y-39550000D01*
X195330000Y-47230000D02*
X192670000Y-47230000D01*
X195330000Y-47230000D02*
X195330000Y-39550000D01*
%TO.C,J8*%
X160670000Y-67730000D02*
X160670000Y-60050000D01*
X160670000Y-70330000D02*
X160670000Y-69000000D01*
X162000000Y-70330000D02*
X160670000Y-70330000D01*
X163330000Y-60050000D02*
X160670000Y-60050000D01*
X163330000Y-67730000D02*
X160670000Y-67730000D01*
X163330000Y-67730000D02*
X163330000Y-60050000D01*
D14*
%TO.C,D4*%
X178900000Y-60350000D02*
X181325000Y-60350000D01*
X181325000Y-58650000D02*
X178900000Y-58650000D01*
X181325000Y-60350000D02*
X181325000Y-58650000D01*
D13*
%TO.C,J4*%
X196645000Y-67730000D02*
X196645000Y-60050000D01*
X196645000Y-70330000D02*
X196645000Y-69000000D01*
X197975000Y-70330000D02*
X196645000Y-70330000D01*
X199305000Y-60050000D02*
X196645000Y-60050000D01*
X199305000Y-67730000D02*
X196645000Y-67730000D01*
X199305000Y-67730000D02*
X199305000Y-60050000D01*
D15*
%TO.C,L1*%
X191000000Y-58200000D02*
X191000000Y-58200000D01*
X191000000Y-58300000D02*
X191000000Y-58300000D01*
X191000000Y-58200000D02*
G75*
G02*
X191000000Y-58300000I0J-50000D01*
G01*
X191000000Y-58300000D02*
G75*
G02*
X191000000Y-58200000I0J50000D01*
G01*
D14*
%TO.C,D18*%
X195000000Y-54100000D02*
X195000000Y-53000000D01*
X195025000Y-52250000D02*
X197975000Y-52250000D01*
X195025000Y-52650000D02*
X195025000Y-52250000D01*
X197975000Y-52250000D02*
X197975000Y-52650000D01*
X197975000Y-52650000D02*
X195025000Y-52650000D01*
%TO.C,D1*%
X168400000Y-60350000D02*
X170825000Y-60350000D01*
X170825000Y-58650000D02*
X168400000Y-58650000D01*
X170825000Y-60350000D02*
X170825000Y-58650000D01*
D13*
%TO.C,Q1*%
X168440000Y-61740000D02*
X169440000Y-61740000D01*
X168440000Y-63260000D02*
X168440000Y-61740000D01*
X168490000Y-63260000D02*
X168440000Y-63260000D01*
X170390000Y-63260000D02*
X169610000Y-63260000D01*
X170560000Y-61740000D02*
X171560000Y-61740000D01*
X171560000Y-61740000D02*
X171560000Y-63260000D01*
X171560000Y-63260000D02*
X171510000Y-63260000D01*
X169950000Y-64040000D02*
X169620000Y-63800000D01*
X169950000Y-63560000D01*
X169950000Y-64040000D01*
G36*
X169950000Y-64040000D02*
G01*
X169620000Y-63800000D01*
X169950000Y-63560000D01*
X169950000Y-64040000D01*
G37*
%TO.C,J1*%
X164645000Y-35670000D02*
X165975000Y-35670000D01*
X164645000Y-37000000D02*
X164645000Y-35670000D01*
X167245000Y-35670000D02*
X174925000Y-35670000D01*
X167245000Y-38330000D02*
X167245000Y-35670000D01*
X167245000Y-38330000D02*
X174925000Y-38330000D01*
X174925000Y-38330000D02*
X174925000Y-35670000D01*
D14*
%TO.C,C5*%
X184900000Y-60588863D02*
X184100000Y-60588863D01*
%TO.C,R10*%
X195475000Y-56450000D02*
X196525000Y-56450000D01*
%TO.C,R17*%
X188650000Y-60500000D02*
X186350000Y-60500000D01*
D13*
%TO.C,J2*%
X185145000Y-35670000D02*
X185145000Y-38330000D01*
X192825000Y-35670000D02*
X185145000Y-35670000D01*
X192825000Y-35670000D02*
X192825000Y-38330000D01*
X192825000Y-38330000D02*
X185145000Y-38330000D01*
X195425000Y-37000000D02*
X195425000Y-38330000D01*
X195425000Y-38330000D02*
X194095000Y-38330000D01*
D14*
%TO.C,D21*%
X162025000Y-53800000D02*
X164975000Y-53800000D01*
X162025000Y-54200000D02*
X162025000Y-53800000D01*
X164975000Y-53800000D02*
X164975000Y-54200000D01*
X164975000Y-54200000D02*
X162025000Y-54200000D01*
X165000000Y-52350000D02*
X165000000Y-53450000D01*
%TO.C,D2*%
X171900000Y-60350000D02*
X174325000Y-60350000D01*
X174325000Y-58650000D02*
X171900000Y-58650000D01*
X174325000Y-60350000D02*
X174325000Y-58650000D01*
D13*
%TO.C,Q2*%
X171940000Y-61740000D02*
X172940000Y-61740000D01*
X171940000Y-63260000D02*
X171940000Y-61740000D01*
X171990000Y-63260000D02*
X171940000Y-63260000D01*
X173890000Y-63260000D02*
X173110000Y-63260000D01*
X174060000Y-61740000D02*
X175060000Y-61740000D01*
X175060000Y-61740000D02*
X175060000Y-63260000D01*
X175060000Y-63260000D02*
X175010000Y-63260000D01*
X173450000Y-64040000D02*
X173120000Y-63800000D01*
X173450000Y-63560000D01*
X173450000Y-64040000D01*
G36*
X173450000Y-64040000D02*
G01*
X173120000Y-63800000D01*
X173450000Y-63560000D01*
X173450000Y-64040000D01*
G37*
%TO.C,U5*%
X164339999Y-44302500D02*
X164609999Y-44302500D01*
X164339999Y-49822500D02*
X164339999Y-44302500D01*
X164609999Y-49822500D02*
X164339999Y-49822500D01*
X169589999Y-44302500D02*
X169859999Y-44302500D01*
X169859999Y-44302500D02*
X169859999Y-49822500D01*
X169859999Y-49822500D02*
X169589999Y-49822500D01*
X164599999Y-50652500D02*
X164129999Y-50992500D01*
X164129999Y-50312500D01*
X164599999Y-50652500D01*
G36*
X164599999Y-50652500D02*
G01*
X164129999Y-50992500D01*
X164129999Y-50312500D01*
X164599999Y-50652500D01*
G37*
%TO.C,J6*%
X185025000Y-71695000D02*
X185025000Y-74355000D01*
X192705000Y-71695000D02*
X185025000Y-71695000D01*
X192705000Y-71695000D02*
X192705000Y-74355000D01*
X192705000Y-74355000D02*
X185025000Y-74355000D01*
X195305000Y-73025000D02*
X195305000Y-74355000D01*
X195305000Y-74355000D02*
X193975000Y-74355000D01*
%TO.C,U1*%
X172590000Y-42390000D02*
X173239999Y-42390000D01*
X172590000Y-43039999D02*
X172590000Y-42390000D01*
X172590000Y-49610000D02*
X172590000Y-48960001D01*
X173239999Y-49610000D02*
X172590000Y-49610000D01*
X179160001Y-42390000D02*
X179810000Y-42390000D01*
X179810000Y-42390000D02*
X179810000Y-43039999D01*
X179810000Y-48960001D02*
X179810000Y-49610000D01*
X179810000Y-49610000D02*
X179160001Y-49610000D01*
X173840000Y-50470000D02*
X173360000Y-50470000D01*
X173599999Y-50140000D01*
X173840000Y-50470000D01*
G36*
X173840000Y-50470000D02*
G01*
X173360000Y-50470000D01*
X173599999Y-50140000D01*
X173840000Y-50470000D01*
G37*
%TO.C,D5*%
X191167508Y-56560000D02*
X191323508Y-56560000D01*
X193483508Y-56560000D02*
X193639508Y-56560000D01*
X191167992Y-56560000D02*
G75*
G02*
X191323508Y-53328563I1235516J1560000D01*
G01*
X191323508Y-56040961D02*
G75*
G02*
X191323508Y-53959039I1080000J1040961D01*
G01*
X193483508Y-53328563D02*
G75*
G02*
X193639024Y-56560000I-1080000J-1671437D01*
G01*
X193483508Y-53959039D02*
G75*
G02*
X193483508Y-56040961I-1080000J-1040961D01*
G01*
%TO.C,J5*%
X164645000Y-71670000D02*
X165975000Y-71670000D01*
X164645000Y-73000000D02*
X164645000Y-71670000D01*
X167245000Y-71670000D02*
X174925000Y-71670000D01*
X167245000Y-74330000D02*
X167245000Y-71670000D01*
X167245000Y-74330000D02*
X174925000Y-74330000D01*
X174925000Y-74330000D02*
X174925000Y-71670000D01*
D14*
%TO.C,D17*%
X176000000Y-40650000D02*
X176000000Y-39550000D01*
X176025000Y-38800000D02*
X178975000Y-38800000D01*
X176025000Y-39200000D02*
X176025000Y-38800000D01*
X178975000Y-38800000D02*
X178975000Y-39200000D01*
X178975000Y-39200000D02*
X176025000Y-39200000D01*
%TO.C,D20*%
X173000000Y-70650000D02*
X173000000Y-69550000D01*
X173025000Y-68800000D02*
X175975000Y-68800000D01*
X173025000Y-69200000D02*
X173025000Y-68800000D01*
X175975000Y-68800000D02*
X175975000Y-69200000D01*
X175975000Y-69200000D02*
X173025000Y-69200000D01*
D13*
%TO.C,J7*%
X160720000Y-42270000D02*
X160720000Y-49950000D01*
X160720000Y-42270000D02*
X163380000Y-42270000D01*
X160720000Y-49950000D02*
X163380000Y-49950000D01*
X162050000Y-39670000D02*
X163380000Y-39670000D01*
X163380000Y-39670000D02*
X163380000Y-41000000D01*
X163380000Y-42270000D02*
X163380000Y-49950000D01*
%TO.C,Q3*%
X175440000Y-61740000D02*
X176440000Y-61740000D01*
X175440000Y-63260000D02*
X175440000Y-61740000D01*
X175490000Y-63260000D02*
X175440000Y-63260000D01*
X177390000Y-63260000D02*
X176610000Y-63260000D01*
X177560000Y-61740000D02*
X178560000Y-61740000D01*
X178560000Y-61740000D02*
X178560000Y-63260000D01*
X178560000Y-63260000D02*
X178510000Y-63260000D01*
X176950000Y-64040000D02*
X176620000Y-63800000D01*
X176950000Y-63560000D01*
X176950000Y-64040000D01*
G36*
X176950000Y-64040000D02*
G01*
X176620000Y-63800000D01*
X176950000Y-63560000D01*
X176950000Y-64040000D01*
G37*
%TO.C,J3*%
X196670000Y-42270000D02*
X196670000Y-49950000D01*
X196670000Y-42270000D02*
X199330000Y-42270000D01*
X196670000Y-49950000D02*
X199330000Y-49950000D01*
X198000000Y-39670000D02*
X199330000Y-39670000D01*
X199330000Y-39670000D02*
X199330000Y-41000000D01*
X199330000Y-42270000D02*
X199330000Y-49950000D01*
D14*
%TO.C,R9*%
X188550000Y-53350000D02*
G75*
G02*
X188450000Y-53350000I-50000J0D01*
G01*
X188450000Y-53350000D02*
G75*
G02*
X188550000Y-53350000I50000J0D01*
G01*
%TD*%
M02*
