%TF.GenerationSoftware,KiCad,Pcbnew,9.0.6*%
%TF.CreationDate,2025-12-07T19:20:43-08:00*%
%TF.ProjectId,redstone,72656473-746f-46e6-952e-6b696361645f,rev?*%
%TF.SameCoordinates,Original*%
%TF.FileFunction,Legend,Top*%
%TF.FilePolarity,Positive*%
%FSLAX46Y46*%
G04 Gerber Fmt 4.6, Leading zero omitted, Abs format (unit mm)*
G04 Created by KiCad (PCBNEW 9.0.6) date 2025-12-07 19:20:43*
%MOMM*%
%LPD*%
G01*
G04 APERTURE LIST*
%ADD10C,0.150000*%
%ADD11C,0.200000*%
%ADD12C,0.152400*%
%ADD13C,0.508000*%
%ADD14C,0.120000*%
%ADD15C,0.100000*%
G04 APERTURE END LIST*
D10*
X133119048Y-61073866D02*
X133880953Y-61073866D01*
X133500000Y-61454819D02*
X133500000Y-60692914D01*
X119869819Y-70163220D02*
X118869819Y-70163220D01*
X118869819Y-70163220D02*
X118869819Y-69782268D01*
X118869819Y-69782268D02*
X118917438Y-69687030D01*
X118917438Y-69687030D02*
X118965057Y-69639411D01*
X118965057Y-69639411D02*
X119060295Y-69591792D01*
X119060295Y-69591792D02*
X119203152Y-69591792D01*
X119203152Y-69591792D02*
X119298390Y-69639411D01*
X119298390Y-69639411D02*
X119346009Y-69687030D01*
X119346009Y-69687030D02*
X119393628Y-69782268D01*
X119393628Y-69782268D02*
X119393628Y-70163220D01*
X118917438Y-68639411D02*
X118869819Y-68734649D01*
X118869819Y-68734649D02*
X118869819Y-68877506D01*
X118869819Y-68877506D02*
X118917438Y-69020363D01*
X118917438Y-69020363D02*
X119012676Y-69115601D01*
X119012676Y-69115601D02*
X119107914Y-69163220D01*
X119107914Y-69163220D02*
X119298390Y-69210839D01*
X119298390Y-69210839D02*
X119441247Y-69210839D01*
X119441247Y-69210839D02*
X119631723Y-69163220D01*
X119631723Y-69163220D02*
X119726961Y-69115601D01*
X119726961Y-69115601D02*
X119822200Y-69020363D01*
X119822200Y-69020363D02*
X119869819Y-68877506D01*
X119869819Y-68877506D02*
X119869819Y-68782268D01*
X119869819Y-68782268D02*
X119822200Y-68639411D01*
X119822200Y-68639411D02*
X119774580Y-68591792D01*
X119774580Y-68591792D02*
X119441247Y-68591792D01*
X119441247Y-68591792D02*
X119441247Y-68782268D01*
X119869819Y-68163220D02*
X118869819Y-68163220D01*
X118869819Y-68163220D02*
X119584104Y-67829887D01*
X119584104Y-67829887D02*
X118869819Y-67496554D01*
X118869819Y-67496554D02*
X119869819Y-67496554D01*
X146238095Y-49954819D02*
X146238095Y-50764342D01*
X146238095Y-50764342D02*
X146285714Y-50859580D01*
X146285714Y-50859580D02*
X146333333Y-50907200D01*
X146333333Y-50907200D02*
X146428571Y-50954819D01*
X146428571Y-50954819D02*
X146619047Y-50954819D01*
X146619047Y-50954819D02*
X146714285Y-50907200D01*
X146714285Y-50907200D02*
X146761904Y-50859580D01*
X146761904Y-50859580D02*
X146809523Y-50764342D01*
X146809523Y-50764342D02*
X146809523Y-49954819D01*
X147238095Y-50050057D02*
X147285714Y-50002438D01*
X147285714Y-50002438D02*
X147380952Y-49954819D01*
X147380952Y-49954819D02*
X147619047Y-49954819D01*
X147619047Y-49954819D02*
X147714285Y-50002438D01*
X147714285Y-50002438D02*
X147761904Y-50050057D01*
X147761904Y-50050057D02*
X147809523Y-50145295D01*
X147809523Y-50145295D02*
X147809523Y-50240533D01*
X147809523Y-50240533D02*
X147761904Y-50383390D01*
X147761904Y-50383390D02*
X147190476Y-50954819D01*
X147190476Y-50954819D02*
X147809523Y-50954819D01*
X130404761Y-63050057D02*
X130309523Y-63002438D01*
X130309523Y-63002438D02*
X130214285Y-62907200D01*
X130214285Y-62907200D02*
X130071428Y-62764342D01*
X130071428Y-62764342D02*
X129976190Y-62716723D01*
X129976190Y-62716723D02*
X129880952Y-62716723D01*
X129928571Y-62954819D02*
X129833333Y-62907200D01*
X129833333Y-62907200D02*
X129738095Y-62811961D01*
X129738095Y-62811961D02*
X129690476Y-62621485D01*
X129690476Y-62621485D02*
X129690476Y-62288152D01*
X129690476Y-62288152D02*
X129738095Y-62097676D01*
X129738095Y-62097676D02*
X129833333Y-62002438D01*
X129833333Y-62002438D02*
X129928571Y-61954819D01*
X129928571Y-61954819D02*
X130119047Y-61954819D01*
X130119047Y-61954819D02*
X130214285Y-62002438D01*
X130214285Y-62002438D02*
X130309523Y-62097676D01*
X130309523Y-62097676D02*
X130357142Y-62288152D01*
X130357142Y-62288152D02*
X130357142Y-62621485D01*
X130357142Y-62621485D02*
X130309523Y-62811961D01*
X130309523Y-62811961D02*
X130214285Y-62907200D01*
X130214285Y-62907200D02*
X130119047Y-62954819D01*
X130119047Y-62954819D02*
X129928571Y-62954819D01*
X130690476Y-61954819D02*
X131309523Y-61954819D01*
X131309523Y-61954819D02*
X130976190Y-62335771D01*
X130976190Y-62335771D02*
X131119047Y-62335771D01*
X131119047Y-62335771D02*
X131214285Y-62383390D01*
X131214285Y-62383390D02*
X131261904Y-62431009D01*
X131261904Y-62431009D02*
X131309523Y-62526247D01*
X131309523Y-62526247D02*
X131309523Y-62764342D01*
X131309523Y-62764342D02*
X131261904Y-62859580D01*
X131261904Y-62859580D02*
X131214285Y-62907200D01*
X131214285Y-62907200D02*
X131119047Y-62954819D01*
X131119047Y-62954819D02*
X130833333Y-62954819D01*
X130833333Y-62954819D02*
X130738095Y-62907200D01*
X130738095Y-62907200D02*
X130690476Y-62859580D01*
X145150057Y-58157738D02*
X145102438Y-58252976D01*
X145102438Y-58252976D02*
X145007200Y-58348214D01*
X145007200Y-58348214D02*
X144864342Y-58491071D01*
X144864342Y-58491071D02*
X144816723Y-58586309D01*
X144816723Y-58586309D02*
X144816723Y-58681547D01*
X145054819Y-58633928D02*
X145007200Y-58729166D01*
X145007200Y-58729166D02*
X144911961Y-58824404D01*
X144911961Y-58824404D02*
X144721485Y-58872023D01*
X144721485Y-58872023D02*
X144388152Y-58872023D01*
X144388152Y-58872023D02*
X144197676Y-58824404D01*
X144197676Y-58824404D02*
X144102438Y-58729166D01*
X144102438Y-58729166D02*
X144054819Y-58633928D01*
X144054819Y-58633928D02*
X144054819Y-58443452D01*
X144054819Y-58443452D02*
X144102438Y-58348214D01*
X144102438Y-58348214D02*
X144197676Y-58252976D01*
X144197676Y-58252976D02*
X144388152Y-58205357D01*
X144388152Y-58205357D02*
X144721485Y-58205357D01*
X144721485Y-58205357D02*
X144911961Y-58252976D01*
X144911961Y-58252976D02*
X145007200Y-58348214D01*
X145007200Y-58348214D02*
X145054819Y-58443452D01*
X145054819Y-58443452D02*
X145054819Y-58633928D01*
X144150057Y-57824404D02*
X144102438Y-57776785D01*
X144102438Y-57776785D02*
X144054819Y-57681547D01*
X144054819Y-57681547D02*
X144054819Y-57443452D01*
X144054819Y-57443452D02*
X144102438Y-57348214D01*
X144102438Y-57348214D02*
X144150057Y-57300595D01*
X144150057Y-57300595D02*
X144245295Y-57252976D01*
X144245295Y-57252976D02*
X144340533Y-57252976D01*
X144340533Y-57252976D02*
X144483390Y-57300595D01*
X144483390Y-57300595D02*
X145054819Y-57872023D01*
X145054819Y-57872023D02*
X145054819Y-57252976D01*
X140833333Y-61359580D02*
X140785714Y-61407200D01*
X140785714Y-61407200D02*
X140642857Y-61454819D01*
X140642857Y-61454819D02*
X140547619Y-61454819D01*
X140547619Y-61454819D02*
X140404762Y-61407200D01*
X140404762Y-61407200D02*
X140309524Y-61311961D01*
X140309524Y-61311961D02*
X140261905Y-61216723D01*
X140261905Y-61216723D02*
X140214286Y-61026247D01*
X140214286Y-61026247D02*
X140214286Y-60883390D01*
X140214286Y-60883390D02*
X140261905Y-60692914D01*
X140261905Y-60692914D02*
X140309524Y-60597676D01*
X140309524Y-60597676D02*
X140404762Y-60502438D01*
X140404762Y-60502438D02*
X140547619Y-60454819D01*
X140547619Y-60454819D02*
X140642857Y-60454819D01*
X140642857Y-60454819D02*
X140785714Y-60502438D01*
X140785714Y-60502438D02*
X140833333Y-60550057D01*
X141166667Y-60454819D02*
X141833333Y-60454819D01*
X141833333Y-60454819D02*
X141404762Y-61454819D01*
X129833333Y-42954819D02*
X129357143Y-42954819D01*
X129357143Y-42954819D02*
X129357143Y-41954819D01*
X130690476Y-42954819D02*
X130119048Y-42954819D01*
X130404762Y-42954819D02*
X130404762Y-41954819D01*
X130404762Y-41954819D02*
X130309524Y-42097676D01*
X130309524Y-42097676D02*
X130214286Y-42192914D01*
X130214286Y-42192914D02*
X130119048Y-42240533D01*
X127857142Y-60454819D02*
X127523809Y-59978628D01*
X127285714Y-60454819D02*
X127285714Y-59454819D01*
X127285714Y-59454819D02*
X127666666Y-59454819D01*
X127666666Y-59454819D02*
X127761904Y-59502438D01*
X127761904Y-59502438D02*
X127809523Y-59550057D01*
X127809523Y-59550057D02*
X127857142Y-59645295D01*
X127857142Y-59645295D02*
X127857142Y-59788152D01*
X127857142Y-59788152D02*
X127809523Y-59883390D01*
X127809523Y-59883390D02*
X127761904Y-59931009D01*
X127761904Y-59931009D02*
X127666666Y-59978628D01*
X127666666Y-59978628D02*
X127285714Y-59978628D01*
X128238095Y-59550057D02*
X128285714Y-59502438D01*
X128285714Y-59502438D02*
X128380952Y-59454819D01*
X128380952Y-59454819D02*
X128619047Y-59454819D01*
X128619047Y-59454819D02*
X128714285Y-59502438D01*
X128714285Y-59502438D02*
X128761904Y-59550057D01*
X128761904Y-59550057D02*
X128809523Y-59645295D01*
X128809523Y-59645295D02*
X128809523Y-59740533D01*
X128809523Y-59740533D02*
X128761904Y-59883390D01*
X128761904Y-59883390D02*
X128190476Y-60454819D01*
X128190476Y-60454819D02*
X128809523Y-60454819D01*
X129761904Y-60454819D02*
X129190476Y-60454819D01*
X129476190Y-60454819D02*
X129476190Y-59454819D01*
X129476190Y-59454819D02*
X129380952Y-59597676D01*
X129380952Y-59597676D02*
X129285714Y-59692914D01*
X129285714Y-59692914D02*
X129190476Y-59740533D01*
X121150057Y-58032738D02*
X121102438Y-58127976D01*
X121102438Y-58127976D02*
X121007200Y-58223214D01*
X121007200Y-58223214D02*
X120864342Y-58366071D01*
X120864342Y-58366071D02*
X120816723Y-58461309D01*
X120816723Y-58461309D02*
X120816723Y-58556547D01*
X121054819Y-58508928D02*
X121007200Y-58604166D01*
X121007200Y-58604166D02*
X120911961Y-58699404D01*
X120911961Y-58699404D02*
X120721485Y-58747023D01*
X120721485Y-58747023D02*
X120388152Y-58747023D01*
X120388152Y-58747023D02*
X120197676Y-58699404D01*
X120197676Y-58699404D02*
X120102438Y-58604166D01*
X120102438Y-58604166D02*
X120054819Y-58508928D01*
X120054819Y-58508928D02*
X120054819Y-58318452D01*
X120054819Y-58318452D02*
X120102438Y-58223214D01*
X120102438Y-58223214D02*
X120197676Y-58127976D01*
X120197676Y-58127976D02*
X120388152Y-58080357D01*
X120388152Y-58080357D02*
X120721485Y-58080357D01*
X120721485Y-58080357D02*
X120911961Y-58127976D01*
X120911961Y-58127976D02*
X121007200Y-58223214D01*
X121007200Y-58223214D02*
X121054819Y-58318452D01*
X121054819Y-58318452D02*
X121054819Y-58508928D01*
X120388152Y-57223214D02*
X121054819Y-57223214D01*
X120007200Y-57461309D02*
X120721485Y-57699404D01*
X120721485Y-57699404D02*
X120721485Y-57080357D01*
X119833333Y-40859580D02*
X119785714Y-40907200D01*
X119785714Y-40907200D02*
X119642857Y-40954819D01*
X119642857Y-40954819D02*
X119547619Y-40954819D01*
X119547619Y-40954819D02*
X119404762Y-40907200D01*
X119404762Y-40907200D02*
X119309524Y-40811961D01*
X119309524Y-40811961D02*
X119261905Y-40716723D01*
X119261905Y-40716723D02*
X119214286Y-40526247D01*
X119214286Y-40526247D02*
X119214286Y-40383390D01*
X119214286Y-40383390D02*
X119261905Y-40192914D01*
X119261905Y-40192914D02*
X119309524Y-40097676D01*
X119309524Y-40097676D02*
X119404762Y-40002438D01*
X119404762Y-40002438D02*
X119547619Y-39954819D01*
X119547619Y-39954819D02*
X119642857Y-39954819D01*
X119642857Y-39954819D02*
X119785714Y-40002438D01*
X119785714Y-40002438D02*
X119833333Y-40050057D01*
X120738095Y-39954819D02*
X120261905Y-39954819D01*
X120261905Y-39954819D02*
X120214286Y-40431009D01*
X120214286Y-40431009D02*
X120261905Y-40383390D01*
X120261905Y-40383390D02*
X120357143Y-40335771D01*
X120357143Y-40335771D02*
X120595238Y-40335771D01*
X120595238Y-40335771D02*
X120690476Y-40383390D01*
X120690476Y-40383390D02*
X120738095Y-40431009D01*
X120738095Y-40431009D02*
X120785714Y-40526247D01*
X120785714Y-40526247D02*
X120785714Y-40764342D01*
X120785714Y-40764342D02*
X120738095Y-40859580D01*
X120738095Y-40859580D02*
X120690476Y-40907200D01*
X120690476Y-40907200D02*
X120595238Y-40954819D01*
X120595238Y-40954819D02*
X120357143Y-40954819D01*
X120357143Y-40954819D02*
X120261905Y-40907200D01*
X120261905Y-40907200D02*
X120214286Y-40859580D01*
X120857142Y-43954819D02*
X120523809Y-43478628D01*
X120285714Y-43954819D02*
X120285714Y-42954819D01*
X120285714Y-42954819D02*
X120666666Y-42954819D01*
X120666666Y-42954819D02*
X120761904Y-43002438D01*
X120761904Y-43002438D02*
X120809523Y-43050057D01*
X120809523Y-43050057D02*
X120857142Y-43145295D01*
X120857142Y-43145295D02*
X120857142Y-43288152D01*
X120857142Y-43288152D02*
X120809523Y-43383390D01*
X120809523Y-43383390D02*
X120761904Y-43431009D01*
X120761904Y-43431009D02*
X120666666Y-43478628D01*
X120666666Y-43478628D02*
X120285714Y-43478628D01*
X121809523Y-43954819D02*
X121238095Y-43954819D01*
X121523809Y-43954819D02*
X121523809Y-42954819D01*
X121523809Y-42954819D02*
X121428571Y-43097676D01*
X121428571Y-43097676D02*
X121333333Y-43192914D01*
X121333333Y-43192914D02*
X121238095Y-43240533D01*
X122142857Y-42954819D02*
X122809523Y-42954819D01*
X122809523Y-42954819D02*
X122380952Y-43954819D01*
X126738095Y-46359819D02*
X126738095Y-47169342D01*
X126738095Y-47169342D02*
X126785714Y-47264580D01*
X126785714Y-47264580D02*
X126833333Y-47312200D01*
X126833333Y-47312200D02*
X126928571Y-47359819D01*
X126928571Y-47359819D02*
X127119047Y-47359819D01*
X127119047Y-47359819D02*
X127214285Y-47312200D01*
X127214285Y-47312200D02*
X127261904Y-47264580D01*
X127261904Y-47264580D02*
X127309523Y-47169342D01*
X127309523Y-47169342D02*
X127309523Y-46359819D01*
X128261904Y-46359819D02*
X127785714Y-46359819D01*
X127785714Y-46359819D02*
X127738095Y-46836009D01*
X127738095Y-46836009D02*
X127785714Y-46788390D01*
X127785714Y-46788390D02*
X127880952Y-46740771D01*
X127880952Y-46740771D02*
X128119047Y-46740771D01*
X128119047Y-46740771D02*
X128214285Y-46788390D01*
X128214285Y-46788390D02*
X128261904Y-46836009D01*
X128261904Y-46836009D02*
X128309523Y-46931247D01*
X128309523Y-46931247D02*
X128309523Y-47169342D01*
X128309523Y-47169342D02*
X128261904Y-47264580D01*
X128261904Y-47264580D02*
X128214285Y-47312200D01*
X128214285Y-47312200D02*
X128119047Y-47359819D01*
X128119047Y-47359819D02*
X127880952Y-47359819D01*
X127880952Y-47359819D02*
X127785714Y-47312200D01*
X127785714Y-47312200D02*
X127738095Y-47264580D01*
X137833333Y-63359580D02*
X137785714Y-63407200D01*
X137785714Y-63407200D02*
X137642857Y-63454819D01*
X137642857Y-63454819D02*
X137547619Y-63454819D01*
X137547619Y-63454819D02*
X137404762Y-63407200D01*
X137404762Y-63407200D02*
X137309524Y-63311961D01*
X137309524Y-63311961D02*
X137261905Y-63216723D01*
X137261905Y-63216723D02*
X137214286Y-63026247D01*
X137214286Y-63026247D02*
X137214286Y-62883390D01*
X137214286Y-62883390D02*
X137261905Y-62692914D01*
X137261905Y-62692914D02*
X137309524Y-62597676D01*
X137309524Y-62597676D02*
X137404762Y-62502438D01*
X137404762Y-62502438D02*
X137547619Y-62454819D01*
X137547619Y-62454819D02*
X137642857Y-62454819D01*
X137642857Y-62454819D02*
X137785714Y-62502438D01*
X137785714Y-62502438D02*
X137833333Y-62550057D01*
X138690476Y-62454819D02*
X138500000Y-62454819D01*
X138500000Y-62454819D02*
X138404762Y-62502438D01*
X138404762Y-62502438D02*
X138357143Y-62550057D01*
X138357143Y-62550057D02*
X138261905Y-62692914D01*
X138261905Y-62692914D02*
X138214286Y-62883390D01*
X138214286Y-62883390D02*
X138214286Y-63264342D01*
X138214286Y-63264342D02*
X138261905Y-63359580D01*
X138261905Y-63359580D02*
X138309524Y-63407200D01*
X138309524Y-63407200D02*
X138404762Y-63454819D01*
X138404762Y-63454819D02*
X138595238Y-63454819D01*
X138595238Y-63454819D02*
X138690476Y-63407200D01*
X138690476Y-63407200D02*
X138738095Y-63359580D01*
X138738095Y-63359580D02*
X138785714Y-63264342D01*
X138785714Y-63264342D02*
X138785714Y-63026247D01*
X138785714Y-63026247D02*
X138738095Y-62931009D01*
X138738095Y-62931009D02*
X138690476Y-62883390D01*
X138690476Y-62883390D02*
X138595238Y-62835771D01*
X138595238Y-62835771D02*
X138404762Y-62835771D01*
X138404762Y-62835771D02*
X138309524Y-62883390D01*
X138309524Y-62883390D02*
X138261905Y-62931009D01*
X138261905Y-62931009D02*
X138214286Y-63026247D01*
X144356667Y-64407200D02*
X144499524Y-64454819D01*
X144499524Y-64454819D02*
X144737619Y-64454819D01*
X144737619Y-64454819D02*
X144832857Y-64407200D01*
X144832857Y-64407200D02*
X144880476Y-64359580D01*
X144880476Y-64359580D02*
X144928095Y-64264342D01*
X144928095Y-64264342D02*
X144928095Y-64169104D01*
X144928095Y-64169104D02*
X144880476Y-64073866D01*
X144880476Y-64073866D02*
X144832857Y-64026247D01*
X144832857Y-64026247D02*
X144737619Y-63978628D01*
X144737619Y-63978628D02*
X144547143Y-63931009D01*
X144547143Y-63931009D02*
X144451905Y-63883390D01*
X144451905Y-63883390D02*
X144404286Y-63835771D01*
X144404286Y-63835771D02*
X144356667Y-63740533D01*
X144356667Y-63740533D02*
X144356667Y-63645295D01*
X144356667Y-63645295D02*
X144404286Y-63550057D01*
X144404286Y-63550057D02*
X144451905Y-63502438D01*
X144451905Y-63502438D02*
X144547143Y-63454819D01*
X144547143Y-63454819D02*
X144785238Y-63454819D01*
X144785238Y-63454819D02*
X144928095Y-63502438D01*
X145261429Y-63454819D02*
X145499524Y-64454819D01*
X145499524Y-64454819D02*
X145690000Y-63740533D01*
X145690000Y-63740533D02*
X145880476Y-64454819D01*
X145880476Y-64454819D02*
X146118572Y-63454819D01*
X146451905Y-63550057D02*
X146499524Y-63502438D01*
X146499524Y-63502438D02*
X146594762Y-63454819D01*
X146594762Y-63454819D02*
X146832857Y-63454819D01*
X146832857Y-63454819D02*
X146928095Y-63502438D01*
X146928095Y-63502438D02*
X146975714Y-63550057D01*
X146975714Y-63550057D02*
X147023333Y-63645295D01*
X147023333Y-63645295D02*
X147023333Y-63740533D01*
X147023333Y-63740533D02*
X146975714Y-63883390D01*
X146975714Y-63883390D02*
X146404286Y-64454819D01*
X146404286Y-64454819D02*
X147023333Y-64454819D01*
X137650057Y-46095238D02*
X137602438Y-46190476D01*
X137602438Y-46190476D02*
X137507200Y-46285714D01*
X137507200Y-46285714D02*
X137364342Y-46428571D01*
X137364342Y-46428571D02*
X137316723Y-46523809D01*
X137316723Y-46523809D02*
X137316723Y-46619047D01*
X137554819Y-46571428D02*
X137507200Y-46666666D01*
X137507200Y-46666666D02*
X137411961Y-46761904D01*
X137411961Y-46761904D02*
X137221485Y-46809523D01*
X137221485Y-46809523D02*
X136888152Y-46809523D01*
X136888152Y-46809523D02*
X136697676Y-46761904D01*
X136697676Y-46761904D02*
X136602438Y-46666666D01*
X136602438Y-46666666D02*
X136554819Y-46571428D01*
X136554819Y-46571428D02*
X136554819Y-46380952D01*
X136554819Y-46380952D02*
X136602438Y-46285714D01*
X136602438Y-46285714D02*
X136697676Y-46190476D01*
X136697676Y-46190476D02*
X136888152Y-46142857D01*
X136888152Y-46142857D02*
X137221485Y-46142857D01*
X137221485Y-46142857D02*
X137411961Y-46190476D01*
X137411961Y-46190476D02*
X137507200Y-46285714D01*
X137507200Y-46285714D02*
X137554819Y-46380952D01*
X137554819Y-46380952D02*
X137554819Y-46571428D01*
X137554819Y-45190476D02*
X137554819Y-45761904D01*
X137554819Y-45476190D02*
X136554819Y-45476190D01*
X136554819Y-45476190D02*
X136697676Y-45571428D01*
X136697676Y-45571428D02*
X136792914Y-45666666D01*
X136792914Y-45666666D02*
X136840533Y-45761904D01*
D11*
%TO.C,D5*%
X151650000Y-54200000D02*
X151650000Y-56625000D01*
X151650000Y-56625000D02*
X153350000Y-56625000D01*
X153350000Y-56625000D02*
X153350000Y-54200000D01*
D12*
%TO.C,U2*%
X143166000Y-39609100D02*
X143166000Y-51470900D01*
X143166000Y-51470900D02*
X151014600Y-51470900D01*
X151014600Y-39609100D02*
X143166000Y-39609100D01*
X151014600Y-51470900D02*
X151014600Y-39609100D01*
D13*
X148881000Y-38720100D02*
G75*
G02*
X148119000Y-38720100I-381000J0D01*
G01*
X148119000Y-38720100D02*
G75*
G02*
X148881000Y-38720100I381000J0D01*
G01*
D11*
%TO.C,D2*%
X133375000Y-40150000D02*
X133375000Y-41850000D01*
X133375000Y-41850000D02*
X135800000Y-41850000D01*
X135800000Y-40150000D02*
X133375000Y-40150000D01*
%TO.C,D4*%
X133375000Y-47150000D02*
X133375000Y-48850000D01*
X133375000Y-48850000D02*
X135800000Y-48850000D01*
X135800000Y-47150000D02*
X133375000Y-47150000D01*
%TO.C,D8*%
X141150000Y-54200000D02*
X141150000Y-56625000D01*
X141150000Y-56625000D02*
X142850000Y-56625000D01*
X142850000Y-56625000D02*
X142850000Y-54200000D01*
%TO.C,D3*%
X133375000Y-43650000D02*
X133375000Y-45350000D01*
X133375000Y-45350000D02*
X135800000Y-45350000D01*
X135800000Y-43650000D02*
X133375000Y-43650000D01*
D14*
%TO.C,Q3*%
X128990000Y-64177500D02*
X129040000Y-64177500D01*
X128990000Y-65697500D02*
X128990000Y-64177500D01*
X129990000Y-65697500D02*
X128990000Y-65697500D01*
X130160000Y-64177500D02*
X130940000Y-64177500D01*
X132060000Y-64177500D02*
X132110000Y-64177500D01*
X132110000Y-64177500D02*
X132110000Y-65697500D01*
X132110000Y-65697500D02*
X131110000Y-65697500D01*
X130930000Y-63637500D02*
X130600000Y-63877500D01*
X130600000Y-63397500D01*
X130930000Y-63637500D01*
G36*
X130930000Y-63637500D02*
G01*
X130600000Y-63877500D01*
X130600000Y-63397500D01*
X130930000Y-63637500D01*
G37*
%TO.C,SW1*%
X120380000Y-64600000D02*
X120380000Y-62400000D01*
X126000000Y-60380000D02*
X121000000Y-60380000D01*
X126000000Y-66620000D02*
X121000000Y-66620000D01*
X126620000Y-62400000D02*
X126620000Y-64600000D01*
X125250000Y-63500000D02*
G75*
G02*
X121750000Y-63500000I-1750000J0D01*
G01*
X121750000Y-63500000D02*
G75*
G02*
X125250000Y-63500000I1750000J0D01*
G01*
%TO.C,U3*%
X132550000Y-39110000D02*
X130550000Y-39110000D01*
X132560000Y-41390000D02*
X130560000Y-41390000D01*
X132920000Y-41600000D02*
X132920000Y-41320000D01*
X133200000Y-41320000D01*
X132920000Y-41600000D01*
G36*
X132920000Y-41600000D02*
G01*
X132920000Y-41320000D01*
X133200000Y-41320000D01*
X132920000Y-41600000D01*
G37*
%TO.C,Q2*%
X145440000Y-57302500D02*
X146440000Y-57302500D01*
X145440000Y-58822500D02*
X145440000Y-57302500D01*
X145490000Y-58822500D02*
X145440000Y-58822500D01*
X147390000Y-58822500D02*
X146610000Y-58822500D01*
X147560000Y-57302500D02*
X148560000Y-57302500D01*
X148560000Y-57302500D02*
X148560000Y-58822500D01*
X148560000Y-58822500D02*
X148510000Y-58822500D01*
X146950000Y-59602500D02*
X146620000Y-59362500D01*
X146950000Y-59122500D01*
X146950000Y-59602500D01*
G36*
X146950000Y-59602500D02*
G01*
X146620000Y-59362500D01*
X146950000Y-59122500D01*
X146950000Y-59602500D01*
G37*
%TO.C,J9*%
X120050000Y-67670000D02*
X121380000Y-67670000D01*
X120050000Y-69000000D02*
X120050000Y-67670000D01*
X122650000Y-67670000D02*
X130330000Y-67670000D01*
X122650000Y-70330000D02*
X122650000Y-67670000D01*
X122650000Y-70330000D02*
X130330000Y-70330000D01*
X130330000Y-70330000D02*
X130330000Y-67670000D01*
%TO.C,J8*%
X115645000Y-67730000D02*
X115645000Y-60050000D01*
X115645000Y-70330000D02*
X115645000Y-69000000D01*
X116975000Y-70330000D02*
X115645000Y-70330000D01*
X118305000Y-60050000D02*
X115645000Y-60050000D01*
X118305000Y-67730000D02*
X115645000Y-67730000D01*
X118305000Y-67730000D02*
X118305000Y-60050000D01*
%TO.C,J4*%
X151670000Y-67730000D02*
X151670000Y-60050000D01*
X151670000Y-70330000D02*
X151670000Y-69000000D01*
X153000000Y-70330000D02*
X151670000Y-70330000D01*
X154330000Y-60050000D02*
X151670000Y-60050000D01*
X154330000Y-67730000D02*
X151670000Y-67730000D01*
X154330000Y-67730000D02*
X154330000Y-60050000D01*
D15*
%TO.C,L1*%
X128000000Y-39400000D02*
X128000000Y-39400000D01*
X128000000Y-39500000D02*
X128000000Y-39500000D01*
X128000000Y-39400000D02*
G75*
G02*
X128000000Y-39500000I0J-50000D01*
G01*
X128000000Y-39500000D02*
G75*
G02*
X128000000Y-39400000I0J50000D01*
G01*
D11*
%TO.C,R21*%
X126350000Y-58500000D02*
G75*
G02*
X126250000Y-58500000I-50000J0D01*
G01*
X126250000Y-58500000D02*
G75*
G02*
X126350000Y-58500000I50000J0D01*
G01*
%TO.C,D1*%
X133375000Y-36650000D02*
X133375000Y-38350000D01*
X133375000Y-38350000D02*
X135800000Y-38350000D01*
X135800000Y-36650000D02*
X133375000Y-36650000D01*
D14*
%TO.C,Q4*%
X121440000Y-57177500D02*
X122440000Y-57177500D01*
X121440000Y-58697500D02*
X121440000Y-57177500D01*
X121490000Y-58697500D02*
X121440000Y-58697500D01*
X123390000Y-58697500D02*
X122610000Y-58697500D01*
X123560000Y-57177500D02*
X124560000Y-57177500D01*
X124560000Y-57177500D02*
X124560000Y-58697500D01*
X124560000Y-58697500D02*
X124510000Y-58697500D01*
X122950000Y-59477500D02*
X122620000Y-59237500D01*
X122950000Y-58997500D01*
X122950000Y-59477500D01*
G36*
X122950000Y-59477500D02*
G01*
X122620000Y-59237500D01*
X122950000Y-58997500D01*
X122950000Y-59477500D01*
G37*
%TO.C,J1*%
X119670000Y-35670000D02*
X121000000Y-35670000D01*
X119670000Y-37000000D02*
X119670000Y-35670000D01*
X122270000Y-35670000D02*
X129950000Y-35670000D01*
X122270000Y-38330000D02*
X122270000Y-35670000D01*
X122270000Y-38330000D02*
X129950000Y-38330000D01*
X129950000Y-38330000D02*
X129950000Y-35670000D01*
D11*
%TO.C,D10*%
X134200000Y-69850000D02*
X136625000Y-69850000D01*
X136625000Y-68150000D02*
X134200000Y-68150000D01*
X136625000Y-69850000D02*
X136625000Y-68150000D01*
%TO.C,C5*%
X121900000Y-41175000D02*
X121100000Y-41175000D01*
%TO.C,D16*%
X127150000Y-53375000D02*
X127150000Y-55800000D01*
X128850000Y-53375000D02*
X127150000Y-53375000D01*
X128850000Y-55800000D02*
X128850000Y-53375000D01*
%TO.C,R17*%
X125650000Y-41500000D02*
X123350000Y-41500000D01*
D14*
%TO.C,J2*%
X140170000Y-35670000D02*
X140170000Y-38330000D01*
X147850000Y-35670000D02*
X140170000Y-35670000D01*
X147850000Y-35670000D02*
X147850000Y-38330000D01*
X147850000Y-38330000D02*
X140170000Y-38330000D01*
X150450000Y-37000000D02*
X150450000Y-38330000D01*
X150450000Y-38330000D02*
X149120000Y-38330000D01*
D11*
%TO.C,D21*%
X119450000Y-49950000D02*
X120550000Y-49950000D01*
X120900000Y-49975000D02*
X121300000Y-49975000D01*
X120900000Y-52925000D02*
X120900000Y-49975000D01*
X121300000Y-49975000D02*
X121300000Y-52925000D01*
X121300000Y-52925000D02*
X120900000Y-52925000D01*
%TO.C,D13*%
X116650000Y-53375000D02*
X116650000Y-55800000D01*
X118350000Y-53375000D02*
X116650000Y-53375000D01*
X118350000Y-55800000D02*
X118350000Y-53375000D01*
%TO.C,D9*%
X134200000Y-73350000D02*
X136625000Y-73350000D01*
X136625000Y-71650000D02*
X134200000Y-71650000D01*
X136625000Y-73350000D02*
X136625000Y-71650000D01*
%TO.C,D12*%
X134200000Y-62850000D02*
X136625000Y-62850000D01*
X136625000Y-61150000D02*
X134200000Y-61150000D01*
X136625000Y-62850000D02*
X136625000Y-61150000D01*
%TO.C,D6*%
X148150000Y-54200000D02*
X148150000Y-56625000D01*
X148150000Y-56625000D02*
X149850000Y-56625000D01*
X149850000Y-56625000D02*
X149850000Y-54200000D01*
%TO.C,D15*%
X123650000Y-53375000D02*
X123650000Y-55800000D01*
X125350000Y-53375000D02*
X123650000Y-53375000D01*
X125350000Y-55800000D02*
X125350000Y-53375000D01*
%TO.C,D11*%
X134200000Y-66350000D02*
X136625000Y-66350000D01*
X136625000Y-64650000D02*
X134200000Y-64650000D01*
X136625000Y-66350000D02*
X136625000Y-64650000D01*
D14*
%TO.C,U5*%
X124740000Y-44145000D02*
X130260000Y-44145000D01*
X124740000Y-44415000D02*
X124740000Y-44145000D01*
X124740000Y-49665000D02*
X124740000Y-49395000D01*
X130260000Y-44145000D02*
X130260000Y-44415000D01*
X130260000Y-49395000D02*
X130260000Y-49665000D01*
X130260000Y-49665000D02*
X124740000Y-49665000D01*
X123910000Y-44405000D02*
X123570000Y-43935000D01*
X124250000Y-43935000D01*
X123910000Y-44405000D01*
G36*
X123910000Y-44405000D02*
G01*
X123570000Y-43935000D01*
X124250000Y-43935000D01*
X123910000Y-44405000D01*
G37*
%TO.C,J6*%
X140050000Y-71695000D02*
X140050000Y-74355000D01*
X147730000Y-71695000D02*
X140050000Y-71695000D01*
X147730000Y-71695000D02*
X147730000Y-74355000D01*
X147730000Y-74355000D02*
X140050000Y-74355000D01*
X150330000Y-73025000D02*
X150330000Y-74355000D01*
X150330000Y-74355000D02*
X149000000Y-74355000D01*
%TO.C,U1*%
X131390000Y-51390000D02*
X132039999Y-51390000D01*
X131390000Y-52039999D02*
X131390000Y-51390000D01*
X131390000Y-58610000D02*
X131390000Y-57960001D01*
X132039999Y-58610000D02*
X131390000Y-58610000D01*
X137960001Y-51390000D02*
X138610000Y-51390000D01*
X138610000Y-51390000D02*
X138610000Y-52039999D01*
X138610000Y-57960001D02*
X138610000Y-58610000D01*
X138610000Y-58610000D02*
X137960001Y-58610000D01*
X130860000Y-52399999D02*
X130530000Y-52640000D01*
X130530000Y-52160000D01*
X130860000Y-52399999D01*
G36*
X130860000Y-52399999D02*
G01*
X130530000Y-52640000D01*
X130530000Y-52160000D01*
X130860000Y-52399999D01*
G37*
%TO.C,J5*%
X119670000Y-71670000D02*
X121000000Y-71670000D01*
X119670000Y-73000000D02*
X119670000Y-71670000D01*
X122270000Y-71670000D02*
X129950000Y-71670000D01*
X122270000Y-74330000D02*
X122270000Y-71670000D01*
X122270000Y-74330000D02*
X129950000Y-74330000D01*
X129950000Y-74330000D02*
X129950000Y-71670000D01*
D11*
%TO.C,D17*%
X138475000Y-40800000D02*
X141425000Y-40800000D01*
X138475000Y-41200000D02*
X138475000Y-40800000D01*
X141425000Y-40800000D02*
X141425000Y-41200000D01*
X141425000Y-41200000D02*
X138475000Y-41200000D01*
X141450000Y-39350000D02*
X141450000Y-40450000D01*
D14*
%TO.C,J7*%
X115670000Y-42270000D02*
X115670000Y-49950000D01*
X115670000Y-42270000D02*
X118330000Y-42270000D01*
X115670000Y-49950000D02*
X118330000Y-49950000D01*
X117000000Y-39670000D02*
X118330000Y-39670000D01*
X118330000Y-39670000D02*
X118330000Y-41000000D01*
X118330000Y-42270000D02*
X118330000Y-49950000D01*
D11*
%TO.C,SW2*%
X141890000Y-62845000D02*
X141890000Y-62845000D01*
X141890000Y-63045000D02*
X141890000Y-63045000D01*
D15*
X143190000Y-62845000D02*
X148190000Y-62845000D01*
X143190000Y-65155000D02*
X143190000Y-62845000D01*
X148190000Y-62845000D02*
X148190000Y-65155000D01*
X148190000Y-65155000D02*
X143190000Y-65155000D01*
D11*
X141890000Y-62845000D02*
G75*
G02*
X141890000Y-63045000I0J-100000D01*
G01*
X141890000Y-63045000D02*
G75*
G02*
X141890000Y-62845000I0J100000D01*
G01*
D14*
%TO.C,Q1*%
X137940000Y-45240000D02*
X138940000Y-45240000D01*
X137940000Y-46760000D02*
X137940000Y-45240000D01*
X137990000Y-46760000D02*
X137940000Y-46760000D01*
X139890000Y-46760000D02*
X139110000Y-46760000D01*
X140060000Y-45240000D02*
X141060000Y-45240000D01*
X141060000Y-45240000D02*
X141060000Y-46760000D01*
X141060000Y-46760000D02*
X141010000Y-46760000D01*
X139450000Y-47540000D02*
X139120000Y-47300000D01*
X139450000Y-47060000D01*
X139450000Y-47540000D01*
G36*
X139450000Y-47540000D02*
G01*
X139120000Y-47300000D01*
X139450000Y-47060000D01*
X139450000Y-47540000D01*
G37*
%TO.C,J3*%
X151695000Y-42270000D02*
X151695000Y-49950000D01*
X151695000Y-42270000D02*
X154355000Y-42270000D01*
X151695000Y-49950000D02*
X154355000Y-49950000D01*
X153025000Y-39670000D02*
X154355000Y-39670000D01*
X154355000Y-39670000D02*
X154355000Y-41000000D01*
X154355000Y-42270000D02*
X154355000Y-49950000D01*
D11*
%TO.C,D14*%
X120150000Y-53375000D02*
X120150000Y-55800000D01*
X121850000Y-53375000D02*
X120150000Y-53375000D01*
X121850000Y-55800000D02*
X121850000Y-53375000D01*
%TO.C,D7*%
X144650000Y-54200000D02*
X144650000Y-56625000D01*
X144650000Y-56625000D02*
X146350000Y-56625000D01*
X146350000Y-56625000D02*
X146350000Y-54200000D01*
%TD*%
M02*
