%TF.GenerationSoftware,KiCad,Pcbnew,9.0.6*%
%TF.CreationDate,2025-12-07T19:20:43-08:00*%
%TF.ProjectId,redstone,72656473-746f-46e6-952e-6b696361645f,rev?*%
%TF.SameCoordinates,Original*%
%TF.FileFunction,Copper,L2,Bot*%
%TF.FilePolarity,Positive*%
%FSLAX46Y46*%
G04 Gerber Fmt 4.6, Leading zero omitted, Abs format (unit mm)*
G04 Created by KiCad (PCBNEW 9.0.6) date 2025-12-07 19:20:43*
%MOMM*%
%LPD*%
G01*
G04 APERTURE LIST*
%TA.AperFunction,ComponentPad*%
%ADD10C,1.524000*%
%TD*%
%TA.AperFunction,ComponentPad*%
%ADD11C,1.700000*%
%TD*%
%TA.AperFunction,HeatsinkPad*%
%ADD12C,0.600000*%
%TD*%
%TA.AperFunction,SMDPad,CuDef*%
%ADD13R,0.900000X1.600000*%
%TD*%
%TA.AperFunction,ComponentPad*%
%ADD14R,1.700000X1.700000*%
%TD*%
%TA.AperFunction,SMDPad,CuDef*%
%ADD15R,1.450000X1.000000*%
%TD*%
%TA.AperFunction,SMDPad,CuDef*%
%ADD16R,1.000000X1.450000*%
%TD*%
%TA.AperFunction,SMDPad,CuDef*%
%ADD17R,1.470000X1.020000*%
%TD*%
%TA.AperFunction,SMDPad,CuDef*%
%ADD18R,0.620000X0.600000*%
%TD*%
%TA.AperFunction,SMDPad,CuDef*%
%ADD19R,0.460000X0.420000*%
%TD*%
%TA.AperFunction,SMDPad,CuDef*%
%ADD20R,1.020000X1.470000*%
%TD*%
%TA.AperFunction,SMDPad,CuDef*%
%ADD21R,2.150000X2.200000*%
%TD*%
%TA.AperFunction,SMDPad,CuDef*%
%ADD22R,1.100000X0.600000*%
%TD*%
%TA.AperFunction,SMDPad,CuDef*%
%ADD23R,1.150000X1.250000*%
%TD*%
%TA.AperFunction,SMDPad,CuDef*%
%ADD24R,1.250000X1.150000*%
%TD*%
%TA.AperFunction,SMDPad,CuDef*%
%ADD25R,0.600000X1.100000*%
%TD*%
%TA.AperFunction,SMDPad,CuDef*%
%ADD26R,0.700000X0.650000*%
%TD*%
%TA.AperFunction,SMDPad,CuDef*%
%ADD27R,0.420000X0.460000*%
%TD*%
%TA.AperFunction,ViaPad*%
%ADD28C,0.600000*%
%TD*%
%TA.AperFunction,Conductor*%
%ADD29C,0.200000*%
%TD*%
%TA.AperFunction,Conductor*%
%ADD30C,0.600000*%
%TD*%
%TA.AperFunction,Conductor*%
%ADD31C,0.400000*%
%TD*%
%TA.AperFunction,Conductor*%
%ADD32C,0.300000*%
%TD*%
G04 APERTURE END LIST*
D10*
%TO.P,U2,1,Vin*%
%TO.N,VCC*%
X148500000Y-43000000D03*
%TO.P,U2,2,GND*%
%TO.N,GND*%
X148500000Y-45540000D03*
%TO.P,U2,3,Vout*%
%TO.N,/5V_LOCAL*%
X148500000Y-48080000D03*
%TD*%
D11*
%TO.P,SW1,1,A*%
%TO.N,/3.3V_LOCAL*%
X126750000Y-65750000D03*
X120250000Y-65750000D03*
%TO.P,SW1,2,B*%
%TO.N,Net-(SW1-B)*%
X126750000Y-61250000D03*
X120250000Y-61250000D03*
%TD*%
D12*
%TO.P,U3,9,PAD*%
%TO.N,GND*%
X131550000Y-40750000D03*
D13*
X131550000Y-40250000D03*
D12*
X131550000Y-39750000D03*
%TD*%
D14*
%TO.P,J9,1,Pin_1*%
%TO.N,GND*%
X121380000Y-69000000D03*
D11*
%TO.P,J9,2,Pin_2*%
%TO.N,Net-(J9-Pin_2)*%
X123920000Y-69000000D03*
%TO.P,J9,3,Pin_3*%
%TO.N,Net-(J9-Pin_3)*%
X126460000Y-69000000D03*
%TO.P,J9,4,Pin_4*%
%TO.N,/3.3V_LOCAL*%
X129000000Y-69000000D03*
%TD*%
D14*
%TO.P,J8,1,Pin_1*%
%TO.N,GND*%
X116975000Y-69000000D03*
D11*
%TO.P,J8,2,Pin_2*%
%TO.N,VCC*%
X116975000Y-66460000D03*
%TO.P,J8,3,Pin_3*%
%TO.N,/W_TX*%
X116975000Y-63920000D03*
%TO.P,J8,4,Pin_4*%
%TO.N,/W_RX*%
X116975000Y-61380000D03*
%TD*%
D14*
%TO.P,J4,1,Pin_1*%
%TO.N,GND*%
X153000000Y-69000000D03*
D11*
%TO.P,J4,2,Pin_2*%
%TO.N,VCC*%
X153000000Y-66460000D03*
%TO.P,J4,3,Pin_3*%
%TO.N,/E_TX*%
X153000000Y-63920000D03*
%TO.P,J4,4,Pin_4*%
%TO.N,/E_RX*%
X153000000Y-61380000D03*
%TD*%
D14*
%TO.P,J1,1,Pin_1*%
%TO.N,GND*%
X121000000Y-37000000D03*
D11*
%TO.P,J1,2,Pin_2*%
%TO.N,VCC*%
X123540000Y-37000000D03*
%TO.P,J1,3,Pin_3*%
%TO.N,/N_TX*%
X126080000Y-37000000D03*
%TO.P,J1,4,Pin_4*%
%TO.N,/N_RX*%
X128620000Y-37000000D03*
%TD*%
D14*
%TO.P,J2,1,Pin_1*%
%TO.N,GND*%
X149120000Y-37000000D03*
D11*
%TO.P,J2,2,Pin_2*%
%TO.N,VCC*%
X146580000Y-37000000D03*
%TO.P,J2,3,Pin_3*%
%TO.N,/N_TX*%
X144040000Y-37000000D03*
%TO.P,J2,4,Pin_4*%
%TO.N,/N_RX*%
X141500000Y-37000000D03*
%TD*%
D14*
%TO.P,J6,1,Pin_1*%
%TO.N,GND*%
X149000000Y-73025000D03*
D11*
%TO.P,J6,2,Pin_2*%
%TO.N,VCC*%
X146460000Y-73025000D03*
%TO.P,J6,3,Pin_3*%
%TO.N,/S_TX*%
X143920000Y-73025000D03*
%TO.P,J6,4,Pin_4*%
%TO.N,/S_RX*%
X141380000Y-73025000D03*
%TD*%
D14*
%TO.P,J5,1,Pin_1*%
%TO.N,GND*%
X121000000Y-73000000D03*
D11*
%TO.P,J5,2,Pin_2*%
%TO.N,VCC*%
X123540000Y-73000000D03*
%TO.P,J5,3,Pin_3*%
%TO.N,/S_TX*%
X126080000Y-73000000D03*
%TO.P,J5,4,Pin_4*%
%TO.N,/S_RX*%
X128620000Y-73000000D03*
%TD*%
D14*
%TO.P,J7,1,Pin_1*%
%TO.N,GND*%
X117000000Y-41000000D03*
D11*
%TO.P,J7,2,Pin_2*%
%TO.N,VCC*%
X117000000Y-43540000D03*
%TO.P,J7,3,Pin_3*%
%TO.N,/W_TX*%
X117000000Y-46080000D03*
%TO.P,J7,4,Pin_4*%
%TO.N,/W_RX*%
X117000000Y-48620000D03*
%TD*%
D14*
%TO.P,J3,1,Pin_1*%
%TO.N,GND*%
X153025000Y-41000000D03*
D11*
%TO.P,J3,2,Pin_2*%
%TO.N,VCC*%
X153025000Y-43540000D03*
%TO.P,J3,3,Pin_3*%
%TO.N,/E_TX*%
X153025000Y-46080000D03*
%TO.P,J3,4,Pin_4*%
%TO.N,/E_RX*%
X153025000Y-48620000D03*
%TD*%
D15*
%TO.P,R15,1*%
%TO.N,/5V_LOCAL*%
X124500000Y-57450000D03*
%TO.P,R15,2*%
%TO.N,Net-(D15-A)*%
X124500000Y-55550000D03*
%TD*%
D16*
%TO.P,R11,1*%
%TO.N,/5V_LOCAL*%
X135950000Y-65500000D03*
%TO.P,R11,2*%
%TO.N,Net-(D11-A)*%
X134050000Y-65500000D03*
%TD*%
D17*
%TO.P,C2,1,1*%
%TO.N,/3.3V_LOCAL*%
X131500000Y-51400000D03*
%TO.P,C2,2,2*%
%TO.N,GND*%
X131500000Y-53000000D03*
%TD*%
%TO.P,C2,1,1*%
%TO.N,/3.3V_LOCAL*%
X137000000Y-52700000D03*
%TO.P,C2,2,2*%
%TO.N,GND*%
X137000000Y-54300000D03*
%TD*%
D15*
%TO.P,R7,1*%
%TO.N,/5V_LOCAL*%
X145500000Y-52550000D03*
%TO.P,R7,2*%
%TO.N,Net-(D7-A)*%
X145500000Y-54450000D03*
%TD*%
D16*
%TO.P,R10,1*%
%TO.N,/5V_LOCAL*%
X135950000Y-69000000D03*
%TO.P,R10,2*%
%TO.N,Net-(D10-A)*%
X134050000Y-69000000D03*
%TD*%
D18*
%TO.P,C1,1,1*%
%TO.N,/5V_LOCAL*%
X132580000Y-40280000D03*
%TO.P,C1,2,2*%
%TO.N,GND*%
X132580000Y-39360000D03*
%TD*%
D17*
%TO.P,C2,1,1*%
%TO.N,/3.3V_LOCAL*%
X134500000Y-57600000D03*
%TO.P,C2,2,2*%
%TO.N,GND*%
X134500000Y-56000000D03*
%TD*%
D19*
%TO.P,C9,1,1*%
%TO.N,Net-(U1-VREG_VOUT)*%
X134840000Y-49500000D03*
%TO.P,C9,2,2*%
%TO.N,GND*%
X135500000Y-49500000D03*
%TD*%
D16*
%TO.P,R9,1*%
%TO.N,/5V_LOCAL*%
X135950000Y-72500000D03*
%TO.P,R9,2*%
%TO.N,Net-(D9-A)*%
X134050000Y-72500000D03*
%TD*%
D15*
%TO.P,R6,1*%
%TO.N,/5V_LOCAL*%
X149000000Y-52550000D03*
%TO.P,R6,2*%
%TO.N,Net-(D6-A)*%
X149000000Y-54450000D03*
%TD*%
D16*
%TO.P,R1,1*%
%TO.N,/5V_LOCAL*%
X137450000Y-37500000D03*
%TO.P,R1,2*%
%TO.N,Net-(D1-A)*%
X135550000Y-37500000D03*
%TD*%
D20*
%TO.P,C3,1,1*%
%TO.N,VCC*%
X148400000Y-40500000D03*
%TO.P,C3,2,2*%
%TO.N,GND*%
X150000000Y-40500000D03*
%TD*%
D21*
%TO.P,D19,1,K*%
%TO.N,VCC*%
X145500000Y-43700000D03*
%TO.P,D19,2,A*%
%TO.N,GND*%
X145500000Y-39300000D03*
%TD*%
D22*
%TO.P,D18,1,K1*%
%TO.N,/E_TX*%
X151600000Y-57050000D03*
%TO.P,D18,2,K2*%
%TO.N,/E_RX*%
X151600000Y-58950000D03*
%TO.P,D18,3,COM_A*%
%TO.N,GND*%
X149400000Y-58000000D03*
%TD*%
D15*
%TO.P,R16,1*%
%TO.N,/5V_LOCAL*%
X128000000Y-57450000D03*
%TO.P,R16,2*%
%TO.N,Net-(D16-A)*%
X128000000Y-55550000D03*
%TD*%
D17*
%TO.P,C2,1,1*%
%TO.N,/3.3V_LOCAL*%
X132500000Y-56100000D03*
%TO.P,C2,2,2*%
%TO.N,GND*%
X132500000Y-54500000D03*
%TD*%
D15*
%TO.P,R8,1*%
%TO.N,/5V_LOCAL*%
X142000000Y-52550000D03*
%TO.P,R8,2*%
%TO.N,Net-(D8-A)*%
X142000000Y-54450000D03*
%TD*%
D20*
%TO.P,C10,1,1*%
%TO.N,Net-(U1-VREG_VOUT)*%
X134810000Y-51000000D03*
%TO.P,C10,2,2*%
%TO.N,GND*%
X136410000Y-51000000D03*
%TD*%
D23*
%TO.P,R18,1*%
%TO.N,Net-(Q1-B)*%
X139650000Y-50000000D03*
%TO.P,R18,2*%
%TO.N,Net-(U1-GPIO23)*%
X142000000Y-50000000D03*
%TD*%
D15*
%TO.P,R13,1*%
%TO.N,/5V_LOCAL*%
X117500000Y-57450000D03*
%TO.P,R13,2*%
%TO.N,Net-(D13-A)*%
X117500000Y-55550000D03*
%TD*%
%TO.P,R5,1*%
%TO.N,/5V_LOCAL*%
X152500000Y-52550000D03*
%TO.P,R5,2*%
%TO.N,Net-(D5-A)*%
X152500000Y-54450000D03*
%TD*%
D16*
%TO.P,R2,1*%
%TO.N,/5V_LOCAL*%
X137450000Y-41000000D03*
%TO.P,R2,2*%
%TO.N,Net-(D2-A)*%
X135550000Y-41000000D03*
%TD*%
D23*
%TO.P,R19,1*%
%TO.N,Net-(Q2-B)*%
X142500000Y-59500000D03*
%TO.P,R19,2*%
%TO.N,Net-(U1-GPIO17)*%
X140150000Y-59500000D03*
%TD*%
D20*
%TO.P,C10,1,1*%
%TO.N,Net-(U1-VREG_VOUT)*%
X136200000Y-58000000D03*
%TO.P,C10,2,2*%
%TO.N,GND*%
X137800000Y-58000000D03*
%TD*%
%TO.P,C2,1,1*%
%TO.N,/3.3V_LOCAL*%
X137800000Y-56000000D03*
%TO.P,C2,2,2*%
%TO.N,GND*%
X136200000Y-56000000D03*
%TD*%
D24*
%TO.P,R20,1*%
%TO.N,Net-(Q3-B)*%
X131500000Y-62850000D03*
%TO.P,R20,2*%
%TO.N,Net-(U1-GPIO12)*%
X131500000Y-60500000D03*
%TD*%
D16*
%TO.P,R4,1*%
%TO.N,/5V_LOCAL*%
X137450000Y-48000000D03*
%TO.P,R4,2*%
%TO.N,Net-(D4-A)*%
X135550000Y-48000000D03*
%TD*%
D15*
%TO.P,R14,1*%
%TO.N,/5V_LOCAL*%
X121000000Y-57450000D03*
%TO.P,R14,2*%
%TO.N,Net-(D14-A)*%
X121000000Y-55550000D03*
%TD*%
D25*
%TO.P,D20,1,K1*%
%TO.N,/S_TX*%
X130550000Y-69400000D03*
%TO.P,D20,2,K2*%
%TO.N,/S_RX*%
X132450000Y-69400000D03*
%TO.P,D20,3,COM_A*%
%TO.N,GND*%
X131500000Y-71600000D03*
%TD*%
D26*
%TO.P,C4,1,1*%
%TO.N,VCC*%
X150500000Y-42825000D03*
%TO.P,C4,2,2*%
%TO.N,GND*%
X150500000Y-44175000D03*
%TD*%
D16*
%TO.P,R3,1*%
%TO.N,/5V_LOCAL*%
X137450000Y-44500000D03*
%TO.P,R3,2*%
%TO.N,Net-(D3-A)*%
X135550000Y-44500000D03*
%TD*%
D27*
%TO.P,C11,1,1*%
%TO.N,/3.3V_LOCAL*%
X135500000Y-52500000D03*
%TO.P,C11,2,2*%
%TO.N,GND*%
X135500000Y-53160000D03*
%TD*%
D16*
%TO.P,R12,1*%
%TO.N,/5V_LOCAL*%
X135950000Y-62000000D03*
%TO.P,R12,2*%
%TO.N,Net-(D12-A)*%
X134050000Y-62000000D03*
%TD*%
D28*
%TO.N,/5V_LOCAL*%
X132580000Y-40280000D03*
X137450000Y-48000000D03*
X137450000Y-41000000D03*
X141036492Y-61068109D03*
X137500000Y-37500000D03*
X149000000Y-52550000D03*
X137000000Y-62610002D03*
X152500000Y-52550000D03*
X137450000Y-44500000D03*
%TO.N,GND*%
X135000000Y-56000000D03*
X132538845Y-39375000D03*
X132461137Y-41125000D03*
X134000000Y-54000000D03*
X134000000Y-56000000D03*
X136000000Y-55000000D03*
X136000000Y-56000000D03*
X139454556Y-61570000D03*
X122000000Y-51500000D03*
X135000000Y-55000000D03*
X135000000Y-54000000D03*
X130503362Y-39375000D03*
X136000000Y-54000000D03*
X148000000Y-59000000D03*
X121500000Y-42000000D03*
X134000000Y-55000000D03*
X149500000Y-64000000D03*
X133994967Y-59254202D03*
X140500000Y-47000000D03*
X138000000Y-61500000D03*
X139950000Y-42100000D03*
X124000000Y-59000000D03*
X124000000Y-49000000D03*
X129500000Y-64000000D03*
%TO.N,/3.3V_LOCAL*%
X137400000Y-52700000D03*
X134533207Y-57506166D03*
X132500000Y-56100000D03*
X131500000Y-51400000D03*
X137624698Y-56000134D03*
X135500000Y-52429998D03*
%TO.N,Net-(U1-VREG_VOUT)*%
X134770000Y-49421471D03*
X134999999Y-50645229D03*
X136300000Y-57500000D03*
%TO.N,Net-(D1-A)*%
X135550000Y-37500000D03*
%TO.N,Net-(D2-A)*%
X135550000Y-41000000D03*
%TO.N,Net-(D3-A)*%
X135550000Y-44500000D03*
%TO.N,Net-(D4-A)*%
X135550000Y-48000000D03*
%TO.N,Net-(D5-A)*%
X152500000Y-54450000D03*
%TO.N,Net-(D6-A)*%
X149000000Y-54450000D03*
%TO.N,Net-(D7-A)*%
X145500000Y-54450000D03*
%TO.N,Net-(D8-A)*%
X142000000Y-54450000D03*
%TO.N,Net-(D9-A)*%
X134200000Y-72500000D03*
%TO.N,Net-(D10-A)*%
X134200000Y-69000000D03*
%TO.N,Net-(D11-A)*%
X134200000Y-65500000D03*
%TO.N,Net-(D12-A)*%
X134200000Y-62000000D03*
%TO.N,Net-(D13-A)*%
X117500000Y-55550000D03*
%TO.N,Net-(D14-A)*%
X121000000Y-55550000D03*
%TO.N,Net-(D15-A)*%
X124500000Y-55550000D03*
%TO.N,Net-(D16-A)*%
X128000000Y-55550000D03*
%TO.N,/E_TX*%
X151600000Y-57050000D03*
%TO.N,/E_RX*%
X151600000Y-58950000D03*
%TO.N,/S_RX*%
X132450000Y-69400000D03*
X132583255Y-66400000D03*
%TO.N,/S_TX*%
X130550000Y-69400000D03*
X131734728Y-66400000D03*
%TO.N,Net-(J9-Pin_3)*%
X133102000Y-63428974D03*
%TO.N,Net-(J9-Pin_2)*%
X135574528Y-60374000D03*
%TO.N,Net-(Q1-B)*%
X138550000Y-46937500D03*
%TO.N,Net-(Q2-B)*%
X146050000Y-59000000D03*
%TO.N,Net-(Q3-B)*%
X131500000Y-62850000D03*
%TO.N,Net-(U1-GPIO17)*%
X140150000Y-59500000D03*
%TO.N,Net-(U1-GPIO23)*%
X142000000Y-50000000D03*
%TO.N,Net-(U1-GPIO12)*%
X131500000Y-60500000D03*
%TO.N,Net-(SW1-B)*%
X131725735Y-59424998D03*
X137811085Y-59758819D03*
%TD*%
D29*
%TO.N,/5V_LOCAL*%
X139000000Y-42500000D02*
X137450000Y-42500000D01*
X136560002Y-62610002D02*
X135950000Y-62000000D01*
X121000000Y-57450000D02*
X121000000Y-57223000D01*
X147000000Y-52550000D02*
X149000000Y-52550000D01*
X126500000Y-57450000D02*
X128000000Y-57450000D01*
X121000000Y-57223000D02*
X132697000Y-45526000D01*
X132580000Y-40280000D02*
X134800000Y-42500000D01*
X141036492Y-58536492D02*
X141036492Y-61068109D01*
X117500000Y-57450000D02*
X126000000Y-57450000D01*
X137450000Y-42500000D02*
X137450000Y-44500000D01*
X140500000Y-58000000D02*
X141036492Y-58536492D01*
X148500000Y-48080000D02*
X144580000Y-48080000D01*
X137450000Y-42500000D02*
X137450000Y-41000000D01*
X134800000Y-42500000D02*
X137450000Y-42500000D01*
X132697000Y-45526000D02*
X136424000Y-45526000D01*
X142000000Y-52550000D02*
X147000000Y-52550000D01*
X135950000Y-62000000D02*
X135950000Y-72500000D01*
X137450000Y-37500000D02*
X137500000Y-37500000D01*
X136424000Y-45526000D02*
X137450000Y-44500000D01*
X140500000Y-54050000D02*
X140500000Y-58000000D01*
X144580000Y-48080000D02*
X139000000Y-42500000D01*
X142000000Y-52550000D02*
X140500000Y-54050000D01*
X126000000Y-57450000D02*
X126500000Y-57450000D01*
X137000000Y-62610002D02*
X136560002Y-62610002D01*
D30*
%TO.N,GND*%
X136200000Y-55100000D02*
X137000000Y-54300000D01*
D31*
X133998584Y-59257819D02*
X133994967Y-59254202D01*
X136989181Y-59257819D02*
X133998584Y-59257819D01*
D29*
X136410000Y-51000000D02*
X136410000Y-50410000D01*
X135500000Y-53500000D02*
X135000000Y-54000000D01*
X135500000Y-53500000D02*
X136000000Y-54000000D01*
X136200000Y-56247000D02*
X136200000Y-56000000D01*
D32*
X137800000Y-57847000D02*
X136200000Y-56247000D01*
D31*
X136989181Y-59257819D02*
X137800000Y-58447000D01*
D29*
X136410000Y-50410000D02*
X135500000Y-49500000D01*
D31*
X137800000Y-58447000D02*
X137800000Y-58000000D01*
D30*
X136200000Y-56000000D02*
X136200000Y-55100000D01*
D29*
X135500000Y-53160000D02*
X135500000Y-53500000D01*
%TO.N,/3.3V_LOCAL*%
X139000000Y-59500000D02*
X139000000Y-57375436D01*
X129385200Y-67901000D02*
X133286200Y-64000000D01*
X137526000Y-60974000D02*
X139000000Y-59500000D01*
X135500000Y-52500000D02*
X136800000Y-52500000D01*
X129383785Y-67901000D02*
X129385200Y-67901000D01*
X135124943Y-60974000D02*
X137526000Y-60974000D01*
X134000000Y-64000000D02*
X134851000Y-63149000D01*
X136800000Y-52500000D02*
X137000000Y-52700000D01*
X129000000Y-68284785D02*
X129383785Y-67901000D01*
X138036000Y-55588832D02*
X138036000Y-53336000D01*
X134851000Y-63149000D02*
X134851000Y-61247943D01*
X139000000Y-57375436D02*
X137624698Y-56000134D01*
X134851000Y-61247943D02*
X135124943Y-60974000D01*
X129000000Y-69000000D02*
X129000000Y-68284785D01*
X138036000Y-53336000D02*
X137400000Y-52700000D01*
X133286200Y-64000000D02*
X134000000Y-64000000D01*
X137624698Y-56000134D02*
X138036000Y-55588832D01*
D31*
%TO.N,VCC*%
X146500000Y-37000000D02*
X145224000Y-35724000D01*
X153025000Y-43540000D02*
X154276000Y-44791000D01*
X124816000Y-35724000D02*
X123540000Y-37000000D01*
X150749000Y-35749000D02*
X152250000Y-37250000D01*
X153000000Y-66460000D02*
X154251000Y-67711000D01*
X119251000Y-74251000D02*
X115701000Y-70701000D01*
X123540000Y-73000000D02*
X122289000Y-74251000D01*
X154299000Y-65161000D02*
X153000000Y-66460000D01*
X154276000Y-39276000D02*
X154276000Y-42289000D01*
X122241000Y-35701000D02*
X123540000Y-37000000D01*
X150325000Y-43000000D02*
X150500000Y-42825000D01*
X146460000Y-73025000D02*
X145209000Y-74276000D01*
X146580000Y-37000000D02*
X146500000Y-37000000D01*
X146580000Y-37000000D02*
X147831000Y-35749000D01*
X147711000Y-74276000D02*
X146460000Y-73025000D01*
X154276000Y-54624000D02*
X154299000Y-54647000D01*
X154251000Y-70749000D02*
X150724000Y-74276000D01*
X154276000Y-42289000D02*
X153025000Y-43540000D01*
X150724000Y-74276000D02*
X147711000Y-74276000D01*
X154251000Y-67711000D02*
X154251000Y-70749000D01*
X124816000Y-74276000D02*
X123540000Y-73000000D01*
X116975000Y-66460000D02*
X115724000Y-65209000D01*
X115701000Y-70701000D02*
X115701000Y-67734000D01*
X115701000Y-39299000D02*
X119299000Y-35701000D01*
X148500000Y-43000000D02*
X150325000Y-43000000D01*
X148500000Y-43000000D02*
X148500000Y-40600000D01*
X147831000Y-35749000D02*
X150749000Y-35749000D01*
X154299000Y-54647000D02*
X154299000Y-65161000D01*
X154276000Y-44791000D02*
X154276000Y-54624000D01*
X148500000Y-40600000D02*
X148400000Y-40500000D01*
X115724000Y-65209000D02*
X115724000Y-44816000D01*
X119299000Y-35701000D02*
X122241000Y-35701000D01*
X146200000Y-43000000D02*
X145500000Y-43700000D01*
X122289000Y-74251000D02*
X119251000Y-74251000D01*
X115701000Y-67734000D02*
X116975000Y-66460000D01*
X152250000Y-37250000D02*
X154276000Y-39276000D01*
X115724000Y-44816000D02*
X117000000Y-43540000D01*
X115701000Y-42241000D02*
X115701000Y-39299000D01*
X145209000Y-74276000D02*
X124816000Y-74276000D01*
X117000000Y-43540000D02*
X115701000Y-42241000D01*
X145224000Y-35724000D02*
X124816000Y-35724000D01*
X148500000Y-43000000D02*
X146200000Y-43000000D01*
D29*
%TO.N,Net-(U1-VREG_VOUT)*%
X134770000Y-50415230D02*
X134999999Y-50645229D01*
X134770000Y-49421471D02*
X134770000Y-50415230D01*
%TO.N,/E_TX*%
X151600000Y-57050000D02*
X151650000Y-57000000D01*
%TO.N,/E_RX*%
X153526000Y-49121000D02*
X153025000Y-48620000D01*
X153476000Y-58950000D02*
X153526000Y-59000000D01*
X151600000Y-58950000D02*
X153476000Y-58950000D01*
X153000000Y-61380000D02*
X153526000Y-60854000D01*
X153526000Y-60854000D02*
X153526000Y-59000000D01*
X153526000Y-59000000D02*
X153526000Y-49121000D01*
%TO.N,/S_RX*%
X132583255Y-66400000D02*
X132450000Y-66533255D01*
X132450000Y-66533255D02*
X132450000Y-69400000D01*
%TO.N,/S_TX*%
X130550000Y-67584728D02*
X130550000Y-69400000D01*
X131734728Y-66400000D02*
X130550000Y-67584728D01*
%TO.N,Net-(J9-Pin_3)*%
X133102000Y-63617100D02*
X133102000Y-63428974D01*
X132901000Y-63818100D02*
X129219100Y-67500000D01*
X132901000Y-63818100D02*
X133102000Y-63617100D01*
X127960000Y-67500000D02*
X126460000Y-69000000D01*
X129219100Y-67500000D02*
X127960000Y-67500000D01*
%TO.N,Net-(J9-Pin_2)*%
X135574528Y-60374000D02*
X135448527Y-60500000D01*
X133000000Y-62681031D02*
X132501000Y-63180031D01*
X135448527Y-60500000D02*
X133500000Y-60500000D01*
X125821000Y-67099000D02*
X123920000Y-69000000D01*
X133500000Y-60500000D02*
X133000000Y-61000000D01*
X132501000Y-63651000D02*
X129053000Y-67099000D01*
X132501000Y-63180031D02*
X132501000Y-63651000D01*
X129053000Y-67099000D02*
X125821000Y-67099000D01*
X133000000Y-61000000D02*
X133000000Y-62681031D01*
%TO.N,Net-(Q1-B)*%
X138550000Y-47050000D02*
X138550000Y-46937500D01*
X139650000Y-50000000D02*
X139650000Y-48037500D01*
X139650000Y-48037500D02*
X138550000Y-46937500D01*
%TO.N,Net-(Q2-B)*%
X145550000Y-59500000D02*
X142500000Y-59500000D01*
X146050000Y-59000000D02*
X145550000Y-59500000D01*
%TO.N,Net-(SW1-B)*%
X133746024Y-59855202D02*
X133393967Y-59503145D01*
X133393967Y-59500000D02*
X133392238Y-59500000D01*
X137811085Y-59758819D02*
X134340293Y-59758819D01*
X134340293Y-59758819D02*
X134243910Y-59855202D01*
X133392238Y-59500000D02*
X133317236Y-59424998D01*
X134243910Y-59855202D02*
X133746024Y-59855202D01*
X133317236Y-59424998D02*
X131725735Y-59424998D01*
X133393967Y-59503145D02*
X133393967Y-59500000D01*
%TD*%
%TA.AperFunction,Conductor*%
%TO.N,GND*%
G36*
X134534994Y-36444185D02*
G01*
X134580749Y-36496989D01*
X134590693Y-36566147D01*
X134584137Y-36591833D01*
X134555908Y-36667517D01*
X134549501Y-36727116D01*
X134549501Y-36727123D01*
X134549500Y-36727135D01*
X134549500Y-38272870D01*
X134549501Y-38272876D01*
X134555908Y-38332483D01*
X134606202Y-38467328D01*
X134606206Y-38467335D01*
X134692452Y-38582544D01*
X134692455Y-38582547D01*
X134807664Y-38668793D01*
X134807671Y-38668797D01*
X134942517Y-38719091D01*
X134942516Y-38719091D01*
X134949444Y-38719835D01*
X135002127Y-38725500D01*
X136097872Y-38725499D01*
X136157483Y-38719091D01*
X136292331Y-38668796D01*
X136407546Y-38582546D01*
X136407548Y-38582542D01*
X136412319Y-38577773D01*
X136473642Y-38544288D01*
X136543334Y-38549272D01*
X136587681Y-38577773D01*
X136592455Y-38582547D01*
X136707664Y-38668793D01*
X136707671Y-38668797D01*
X136842517Y-38719091D01*
X136842516Y-38719091D01*
X136849444Y-38719835D01*
X136902127Y-38725500D01*
X137997872Y-38725499D01*
X138057483Y-38719091D01*
X138192331Y-38668796D01*
X138307546Y-38582546D01*
X138393796Y-38467331D01*
X138444091Y-38332483D01*
X138450500Y-38272873D01*
X138450499Y-36727128D01*
X138444091Y-36667517D01*
X138443639Y-36666306D01*
X138415863Y-36591833D01*
X138410879Y-36522141D01*
X138444364Y-36460818D01*
X138505688Y-36427334D01*
X138532045Y-36424500D01*
X140096321Y-36424500D01*
X140163360Y-36444185D01*
X140209115Y-36496989D01*
X140219059Y-36566147D01*
X140214252Y-36586818D01*
X140182753Y-36683760D01*
X140172262Y-36750000D01*
X140149500Y-36893713D01*
X140149500Y-37106287D01*
X140159534Y-37169644D01*
X140182753Y-37316239D01*
X140248444Y-37518414D01*
X140344951Y-37707820D01*
X140469890Y-37879786D01*
X140620213Y-38030109D01*
X140792179Y-38155048D01*
X140792181Y-38155049D01*
X140792184Y-38155051D01*
X140981588Y-38251557D01*
X141183757Y-38317246D01*
X141393713Y-38350500D01*
X141393714Y-38350500D01*
X141606286Y-38350500D01*
X141606287Y-38350500D01*
X141816243Y-38317246D01*
X142018412Y-38251557D01*
X142207816Y-38155051D01*
X142294478Y-38092088D01*
X142379786Y-38030109D01*
X142379788Y-38030106D01*
X142379792Y-38030104D01*
X142530104Y-37879792D01*
X142530106Y-37879788D01*
X142530109Y-37879786D01*
X142655048Y-37707820D01*
X142655047Y-37707820D01*
X142655051Y-37707816D01*
X142659514Y-37699054D01*
X142707488Y-37648259D01*
X142775308Y-37631463D01*
X142841444Y-37653999D01*
X142880486Y-37699056D01*
X142884951Y-37707820D01*
X143009890Y-37879786D01*
X143160213Y-38030109D01*
X143332179Y-38155048D01*
X143332181Y-38155049D01*
X143332184Y-38155051D01*
X143417861Y-38198705D01*
X143521583Y-38251555D01*
X143521585Y-38251555D01*
X143521588Y-38251557D01*
X143598416Y-38276520D01*
X143723756Y-38317246D01*
X143752126Y-38321739D01*
X143820398Y-38332552D01*
X143883532Y-38362481D01*
X143920464Y-38421792D01*
X143925000Y-38455025D01*
X143925000Y-39050000D01*
X147075000Y-39050000D01*
X147075000Y-38339473D01*
X147094685Y-38272434D01*
X147142706Y-38228988D01*
X147287816Y-38155051D01*
X147459792Y-38030104D01*
X147573717Y-37916178D01*
X147635036Y-37882696D01*
X147704728Y-37887680D01*
X147760662Y-37929551D01*
X147777577Y-37960528D01*
X147826646Y-38092088D01*
X147826649Y-38092093D01*
X147912809Y-38207187D01*
X147912812Y-38207190D01*
X148027906Y-38293350D01*
X148027913Y-38293354D01*
X148162620Y-38343596D01*
X148162627Y-38343598D01*
X148222155Y-38349999D01*
X148222172Y-38350000D01*
X148870000Y-38350000D01*
X148870000Y-37433012D01*
X148927007Y-37465925D01*
X149054174Y-37500000D01*
X149185826Y-37500000D01*
X149312993Y-37465925D01*
X149370000Y-37433012D01*
X149370000Y-38350000D01*
X150017828Y-38350000D01*
X150017844Y-38349999D01*
X150077372Y-38343598D01*
X150077379Y-38343596D01*
X150212086Y-38293354D01*
X150212093Y-38293350D01*
X150327187Y-38207190D01*
X150327190Y-38207187D01*
X150413350Y-38092093D01*
X150413354Y-38092086D01*
X150463596Y-37957379D01*
X150463598Y-37957372D01*
X150469999Y-37897844D01*
X150470000Y-37897827D01*
X150470000Y-37250000D01*
X149553012Y-37250000D01*
X149585925Y-37192993D01*
X149620000Y-37065826D01*
X149620000Y-36934174D01*
X149585925Y-36807007D01*
X149553012Y-36750000D01*
X150470000Y-36750000D01*
X150474164Y-36745835D01*
X150489685Y-36692980D01*
X150542489Y-36647225D01*
X150611647Y-36637281D01*
X150675203Y-36666306D01*
X150681681Y-36672338D01*
X153447662Y-39438319D01*
X153481147Y-39499642D01*
X153476163Y-39569334D01*
X153434291Y-39625267D01*
X153368827Y-39649684D01*
X153359981Y-39650000D01*
X153275000Y-39650000D01*
X153275000Y-40566988D01*
X153217993Y-40534075D01*
X153090826Y-40500000D01*
X152959174Y-40500000D01*
X152832007Y-40534075D01*
X152775000Y-40566988D01*
X152775000Y-39650000D01*
X152127155Y-39650000D01*
X152067627Y-39656401D01*
X152067620Y-39656403D01*
X151932913Y-39706645D01*
X151932906Y-39706649D01*
X151817812Y-39792809D01*
X151817809Y-39792812D01*
X151731649Y-39907906D01*
X151731645Y-39907913D01*
X151681403Y-40042620D01*
X151681401Y-40042627D01*
X151675000Y-40102155D01*
X151675000Y-40750000D01*
X152591988Y-40750000D01*
X152559075Y-40807007D01*
X152525000Y-40934174D01*
X152525000Y-41065826D01*
X152559075Y-41192993D01*
X152591988Y-41250000D01*
X151675000Y-41250000D01*
X151675000Y-41897844D01*
X151681401Y-41957372D01*
X151681403Y-41957379D01*
X151731645Y-42092086D01*
X151731649Y-42092093D01*
X151817809Y-42207187D01*
X151817812Y-42207190D01*
X151932906Y-42293350D01*
X151932913Y-42293354D01*
X152064470Y-42342422D01*
X152120404Y-42384293D01*
X152144821Y-42449758D01*
X152129969Y-42518031D01*
X152108819Y-42546285D01*
X151994889Y-42660215D01*
X151869951Y-42832179D01*
X151773444Y-43021585D01*
X151707753Y-43223760D01*
X151674500Y-43433713D01*
X151674500Y-43646286D01*
X151701350Y-43815814D01*
X151707754Y-43856243D01*
X151742435Y-43962981D01*
X151773444Y-44058414D01*
X151869951Y-44247820D01*
X151994890Y-44419786D01*
X152145213Y-44570109D01*
X152317182Y-44695050D01*
X152325946Y-44699516D01*
X152376742Y-44747491D01*
X152393536Y-44815312D01*
X152370998Y-44881447D01*
X152325946Y-44920484D01*
X152317182Y-44924949D01*
X152145213Y-45049890D01*
X151994890Y-45200213D01*
X151869951Y-45372179D01*
X151773444Y-45561585D01*
X151707753Y-45763760D01*
X151696387Y-45835523D01*
X151674500Y-45973713D01*
X151674500Y-46186287D01*
X151707754Y-46396243D01*
X151760414Y-46558314D01*
X151773444Y-46598414D01*
X151869951Y-46787820D01*
X151994890Y-46959786D01*
X152145213Y-47110109D01*
X152317182Y-47235050D01*
X152325946Y-47239516D01*
X152376742Y-47287491D01*
X152393536Y-47355312D01*
X152370998Y-47421447D01*
X152325946Y-47460484D01*
X152317182Y-47464949D01*
X152145213Y-47589890D01*
X152145209Y-47589894D01*
X151994897Y-47740207D01*
X151994890Y-47740213D01*
X151869951Y-47912179D01*
X151773444Y-48101585D01*
X151707753Y-48303760D01*
X151702394Y-48337597D01*
X151674500Y-48513713D01*
X151674500Y-48726287D01*
X151684534Y-48789644D01*
X151706955Y-48931203D01*
X151707754Y-48936243D01*
X151771575Y-49132664D01*
X151773444Y-49138414D01*
X151869951Y-49327820D01*
X151994890Y-49499786D01*
X152145213Y-49650109D01*
X152317179Y-49775048D01*
X152317181Y-49775049D01*
X152317184Y-49775051D01*
X152506588Y-49871557D01*
X152708757Y-49937246D01*
X152708760Y-49937246D01*
X152708761Y-49937247D01*
X152765528Y-49946237D01*
X152820898Y-49955007D01*
X152884032Y-49984936D01*
X152920964Y-50044247D01*
X152925500Y-50077480D01*
X152925500Y-51425500D01*
X152905815Y-51492539D01*
X152853011Y-51538294D01*
X152801500Y-51549500D01*
X151727129Y-51549500D01*
X151727123Y-51549501D01*
X151667516Y-51555908D01*
X151532671Y-51606202D01*
X151532664Y-51606206D01*
X151417455Y-51692452D01*
X151417452Y-51692455D01*
X151331206Y-51807664D01*
X151331202Y-51807671D01*
X151280908Y-51942517D01*
X151274501Y-52002116D01*
X151274501Y-52002123D01*
X151274500Y-52002135D01*
X151274500Y-53097870D01*
X151274501Y-53097876D01*
X151280908Y-53157483D01*
X151331202Y-53292328D01*
X151331206Y-53292335D01*
X151417452Y-53407544D01*
X151422227Y-53412319D01*
X151455712Y-53473642D01*
X151450728Y-53543334D01*
X151422227Y-53587681D01*
X151417452Y-53592455D01*
X151331206Y-53707664D01*
X151331202Y-53707671D01*
X151280908Y-53842517D01*
X151274501Y-53902116D01*
X151274501Y-53902123D01*
X151274500Y-53902135D01*
X151274500Y-54997870D01*
X151274501Y-54997876D01*
X151280908Y-55057483D01*
X151331202Y-55192328D01*
X151331206Y-55192335D01*
X151417452Y-55307544D01*
X151417455Y-55307547D01*
X151532664Y-55393793D01*
X151532671Y-55393797D01*
X151667517Y-55444091D01*
X151667516Y-55444091D01*
X151674444Y-55444835D01*
X151727127Y-55450500D01*
X152801500Y-55450499D01*
X152868539Y-55470183D01*
X152914294Y-55522987D01*
X152925500Y-55574499D01*
X152925500Y-58225500D01*
X152905815Y-58292539D01*
X152853011Y-58338294D01*
X152801500Y-58349500D01*
X152612320Y-58349500D01*
X152545281Y-58329815D01*
X152513052Y-58299809D01*
X152513051Y-58299808D01*
X152507546Y-58292454D01*
X152501938Y-58288256D01*
X152392335Y-58206206D01*
X152392328Y-58206202D01*
X152257482Y-58155908D01*
X152257483Y-58155908D01*
X152197883Y-58149501D01*
X152197881Y-58149500D01*
X152197873Y-58149500D01*
X151678844Y-58149500D01*
X151678842Y-58149500D01*
X151521158Y-58149500D01*
X151521155Y-58149500D01*
X151002129Y-58149500D01*
X151002123Y-58149501D01*
X150942516Y-58155908D01*
X150807671Y-58206202D01*
X150807664Y-58206206D01*
X150692455Y-58292452D01*
X150673266Y-58318086D01*
X150617332Y-58359956D01*
X150547640Y-58364940D01*
X150486318Y-58331454D01*
X150452833Y-58270131D01*
X150450749Y-58250749D01*
X150450000Y-58250000D01*
X149650000Y-58250000D01*
X149650000Y-58800000D01*
X149997828Y-58800000D01*
X149997844Y-58799999D01*
X150057372Y-58793598D01*
X150057379Y-58793596D01*
X150192086Y-58743354D01*
X150192093Y-58743350D01*
X150307187Y-58657190D01*
X150307188Y-58657189D01*
X150326233Y-58631749D01*
X150382166Y-58589877D01*
X150451858Y-58584893D01*
X150513181Y-58618378D01*
X150546666Y-58679701D01*
X150549500Y-58706059D01*
X150549500Y-59297870D01*
X150549501Y-59297876D01*
X150555908Y-59357483D01*
X150606202Y-59492328D01*
X150606206Y-59492335D01*
X150692452Y-59607544D01*
X150692455Y-59607547D01*
X150807664Y-59693793D01*
X150807671Y-59693797D01*
X150849479Y-59709390D01*
X150942517Y-59744091D01*
X151002127Y-59750500D01*
X151521155Y-59750499D01*
X151521158Y-59750500D01*
X151678842Y-59750500D01*
X151678844Y-59750499D01*
X152197872Y-59750499D01*
X152257483Y-59744091D01*
X152392331Y-59693796D01*
X152507546Y-59607546D01*
X152513052Y-59600191D01*
X152516708Y-59597453D01*
X152518607Y-59593297D01*
X152544424Y-59576705D01*
X152568985Y-59558319D01*
X152574614Y-59557303D01*
X152577385Y-59555523D01*
X152612320Y-59550500D01*
X152801500Y-59550500D01*
X152868539Y-59570185D01*
X152914294Y-59622989D01*
X152925500Y-59674500D01*
X152925500Y-59918559D01*
X152905815Y-59985598D01*
X152853011Y-60031353D01*
X152820899Y-60041032D01*
X152683759Y-60062753D01*
X152481585Y-60128444D01*
X152292179Y-60224951D01*
X152120213Y-60349890D01*
X151969890Y-60500213D01*
X151844951Y-60672179D01*
X151748444Y-60861585D01*
X151682753Y-61063760D01*
X151649500Y-61273712D01*
X151649500Y-61273713D01*
X151649500Y-61486287D01*
X151654649Y-61518796D01*
X151681748Y-61689895D01*
X151682754Y-61696243D01*
X151738759Y-61868609D01*
X151748444Y-61898414D01*
X151844951Y-62087820D01*
X151969890Y-62259786D01*
X152120213Y-62410109D01*
X152292182Y-62535050D01*
X152300946Y-62539516D01*
X152351742Y-62587491D01*
X152368536Y-62655312D01*
X152345998Y-62721447D01*
X152300946Y-62760484D01*
X152292182Y-62764949D01*
X152120213Y-62889890D01*
X151969890Y-63040213D01*
X151844951Y-63212179D01*
X151748444Y-63401585D01*
X151682753Y-63603760D01*
X151654437Y-63782544D01*
X151649500Y-63813713D01*
X151649500Y-64026287D01*
X151659534Y-64089644D01*
X151675779Y-64192209D01*
X151682754Y-64236243D01*
X151746604Y-64432753D01*
X151748444Y-64438414D01*
X151844951Y-64627820D01*
X151969890Y-64799786D01*
X152120213Y-64950109D01*
X152292182Y-65075050D01*
X152300946Y-65079516D01*
X152351742Y-65127491D01*
X152368536Y-65195312D01*
X152345998Y-65261447D01*
X152300946Y-65300484D01*
X152292182Y-65304949D01*
X152120213Y-65429890D01*
X151969890Y-65580213D01*
X151844951Y-65752179D01*
X151748444Y-65941585D01*
X151682753Y-66143760D01*
X151649500Y-66353713D01*
X151649500Y-66566286D01*
X151682416Y-66774113D01*
X151682754Y-66776243D01*
X151726309Y-66910292D01*
X151748444Y-66978414D01*
X151844951Y-67167820D01*
X151969890Y-67339786D01*
X152083818Y-67453714D01*
X152117303Y-67515037D01*
X152112319Y-67584729D01*
X152070447Y-67640662D01*
X152039471Y-67657577D01*
X151907912Y-67706646D01*
X151907906Y-67706649D01*
X151792812Y-67792809D01*
X151792809Y-67792812D01*
X151706649Y-67907906D01*
X151706645Y-67907913D01*
X151656403Y-68042620D01*
X151656401Y-68042627D01*
X151650000Y-68102155D01*
X151650000Y-68750000D01*
X152566988Y-68750000D01*
X152534075Y-68807007D01*
X152500000Y-68934174D01*
X152500000Y-69065826D01*
X152534075Y-69192993D01*
X152566988Y-69250000D01*
X151650000Y-69250000D01*
X151650000Y-69897844D01*
X151656401Y-69957372D01*
X151656403Y-69957379D01*
X151706645Y-70092086D01*
X151706649Y-70092093D01*
X151792809Y-70207187D01*
X151792812Y-70207190D01*
X151907906Y-70293350D01*
X151907913Y-70293354D01*
X152042620Y-70343596D01*
X152042627Y-70343598D01*
X152102155Y-70349999D01*
X152102172Y-70350000D01*
X152750000Y-70350000D01*
X152750000Y-69433012D01*
X152807007Y-69465925D01*
X152934174Y-69500000D01*
X153065826Y-69500000D01*
X153192993Y-69465925D01*
X153250000Y-69433012D01*
X153250000Y-70350000D01*
X153359981Y-70350000D01*
X153427020Y-70369685D01*
X153472775Y-70422489D01*
X153482719Y-70491647D01*
X153453694Y-70555203D01*
X153447662Y-70561681D01*
X150561681Y-73447662D01*
X150500358Y-73481147D01*
X150430666Y-73476163D01*
X150374733Y-73434291D01*
X150350316Y-73368827D01*
X150350000Y-73359981D01*
X150350000Y-73275000D01*
X149433012Y-73275000D01*
X149465925Y-73217993D01*
X149500000Y-73090826D01*
X149500000Y-72959174D01*
X149465925Y-72832007D01*
X149433012Y-72775000D01*
X150350000Y-72775000D01*
X150350000Y-72127172D01*
X150349999Y-72127155D01*
X150343598Y-72067627D01*
X150343596Y-72067620D01*
X150293354Y-71932913D01*
X150293350Y-71932906D01*
X150207190Y-71817812D01*
X150207187Y-71817809D01*
X150092093Y-71731649D01*
X150092086Y-71731645D01*
X149957379Y-71681403D01*
X149957372Y-71681401D01*
X149897844Y-71675000D01*
X149250000Y-71675000D01*
X149250000Y-72591988D01*
X149192993Y-72559075D01*
X149065826Y-72525000D01*
X148934174Y-72525000D01*
X148807007Y-72559075D01*
X148750000Y-72591988D01*
X148750000Y-71675000D01*
X148102155Y-71675000D01*
X148042627Y-71681401D01*
X148042620Y-71681403D01*
X147907913Y-71731645D01*
X147907906Y-71731649D01*
X147792812Y-71817809D01*
X147792809Y-71817812D01*
X147706649Y-71932906D01*
X147706646Y-71932912D01*
X147657577Y-72064471D01*
X147615705Y-72120404D01*
X147550241Y-72144821D01*
X147481968Y-72129969D01*
X147453714Y-72108818D01*
X147339786Y-71994890D01*
X147167820Y-71869951D01*
X146978414Y-71773444D01*
X146978413Y-71773443D01*
X146978412Y-71773443D01*
X146776243Y-71707754D01*
X146776241Y-71707753D01*
X146776240Y-71707753D01*
X146614957Y-71682208D01*
X146566287Y-71674500D01*
X146353713Y-71674500D01*
X146305042Y-71682208D01*
X146143760Y-71707753D01*
X145941585Y-71773444D01*
X145752179Y-71869951D01*
X145580213Y-71994890D01*
X145429890Y-72145213D01*
X145304949Y-72317182D01*
X145300484Y-72325946D01*
X145252509Y-72376742D01*
X145184688Y-72393536D01*
X145118553Y-72370998D01*
X145079516Y-72325946D01*
X145075050Y-72317182D01*
X144950109Y-72145213D01*
X144799786Y-71994890D01*
X144627820Y-71869951D01*
X144438414Y-71773444D01*
X144438413Y-71773443D01*
X144438412Y-71773443D01*
X144236243Y-71707754D01*
X144236241Y-71707753D01*
X144236240Y-71707753D01*
X144074957Y-71682208D01*
X144026287Y-71674500D01*
X143813713Y-71674500D01*
X143765042Y-71682208D01*
X143603760Y-71707753D01*
X143401585Y-71773444D01*
X143212179Y-71869951D01*
X143040213Y-71994890D01*
X142889890Y-72145213D01*
X142764949Y-72317182D01*
X142760484Y-72325946D01*
X142712509Y-72376742D01*
X142644688Y-72393536D01*
X142578553Y-72370998D01*
X142539516Y-72325946D01*
X142535050Y-72317182D01*
X142410109Y-72145213D01*
X142259786Y-71994890D01*
X142087820Y-71869951D01*
X141898414Y-71773444D01*
X141898413Y-71773443D01*
X141898412Y-71773443D01*
X141696243Y-71707754D01*
X141696241Y-71707753D01*
X141696240Y-71707753D01*
X141534957Y-71682208D01*
X141486287Y-71674500D01*
X141273713Y-71674500D01*
X141225042Y-71682208D01*
X141063760Y-71707753D01*
X140861585Y-71773444D01*
X140672179Y-71869951D01*
X140500213Y-71994890D01*
X140349890Y-72145213D01*
X140224951Y-72317179D01*
X140128444Y-72506585D01*
X140062753Y-72708760D01*
X140029500Y-72918713D01*
X140029500Y-73131286D01*
X140061366Y-73332483D01*
X140062754Y-73341243D01*
X140084499Y-73408167D01*
X140086129Y-73413182D01*
X140088124Y-73483023D01*
X140052044Y-73542856D01*
X139989343Y-73573684D01*
X139968198Y-73575500D01*
X137032045Y-73575500D01*
X136965006Y-73555815D01*
X136919251Y-73503011D01*
X136909307Y-73433853D01*
X136915863Y-73408167D01*
X136933835Y-73359981D01*
X136944091Y-73332483D01*
X136950500Y-73272873D01*
X136950499Y-71727128D01*
X136944091Y-71667517D01*
X136893796Y-71532669D01*
X136893795Y-71532668D01*
X136893793Y-71532664D01*
X136807547Y-71417455D01*
X136807544Y-71417452D01*
X136692335Y-71331206D01*
X136692328Y-71331202D01*
X136631167Y-71308391D01*
X136575233Y-71266520D01*
X136550816Y-71201056D01*
X136550500Y-71192209D01*
X136550500Y-70307790D01*
X136570185Y-70240751D01*
X136622989Y-70194996D01*
X136631146Y-70191616D01*
X136692331Y-70168796D01*
X136807546Y-70082546D01*
X136893796Y-69967331D01*
X136944091Y-69832483D01*
X136950500Y-69772873D01*
X136950499Y-69000000D01*
X136950499Y-68227129D01*
X136950498Y-68227123D01*
X136944091Y-68167516D01*
X136893797Y-68032671D01*
X136893793Y-68032664D01*
X136807547Y-67917455D01*
X136807544Y-67917452D01*
X136692335Y-67831206D01*
X136692328Y-67831202D01*
X136631167Y-67808391D01*
X136575233Y-67766520D01*
X136550816Y-67701056D01*
X136550500Y-67692209D01*
X136550500Y-66807790D01*
X136570185Y-66740751D01*
X136622989Y-66694996D01*
X136631146Y-66691616D01*
X136692331Y-66668796D01*
X136807546Y-66582546D01*
X136893796Y-66467331D01*
X136944091Y-66332483D01*
X136950500Y-66272873D01*
X136950499Y-64727128D01*
X136944091Y-64667517D01*
X136929283Y-64627816D01*
X136893797Y-64532671D01*
X136893793Y-64532664D01*
X136807547Y-64417455D01*
X136807544Y-64417452D01*
X136692335Y-64331206D01*
X136692328Y-64331202D01*
X136631167Y-64308391D01*
X136575233Y-64266520D01*
X136550816Y-64201056D01*
X136550500Y-64192209D01*
X136550500Y-63475846D01*
X136570185Y-63408807D01*
X136622989Y-63363052D01*
X136692147Y-63353108D01*
X136721944Y-63361282D01*
X136766503Y-63379739D01*
X136876330Y-63401585D01*
X136921153Y-63410501D01*
X136921156Y-63410502D01*
X136921158Y-63410502D01*
X137078844Y-63410502D01*
X137078845Y-63410501D01*
X137233497Y-63379739D01*
X137379179Y-63319396D01*
X137510289Y-63231791D01*
X137621789Y-63120291D01*
X137709394Y-62989181D01*
X137769737Y-62843499D01*
X137800500Y-62688844D01*
X137800500Y-62531160D01*
X137800500Y-62531157D01*
X137800499Y-62531155D01*
X137769737Y-62376505D01*
X137729807Y-62280104D01*
X137709397Y-62230829D01*
X137709390Y-62230816D01*
X137621789Y-62099713D01*
X137621786Y-62099709D01*
X137510292Y-61988215D01*
X137510288Y-61988212D01*
X137379185Y-61900611D01*
X137379172Y-61900604D01*
X137233501Y-61840266D01*
X137233489Y-61840263D01*
X137132210Y-61820117D01*
X137070299Y-61787732D01*
X137035724Y-61727016D01*
X137039464Y-61657247D01*
X137080331Y-61600575D01*
X137145349Y-61574994D01*
X137156401Y-61574500D01*
X137439331Y-61574500D01*
X137439347Y-61574501D01*
X137446943Y-61574501D01*
X137605054Y-61574501D01*
X137605057Y-61574501D01*
X137757785Y-61533577D01*
X137825080Y-61494724D01*
X137894716Y-61454520D01*
X138006520Y-61342716D01*
X138006520Y-61342714D01*
X138016724Y-61332511D01*
X138016727Y-61332506D01*
X138966098Y-60383135D01*
X139027420Y-60349652D01*
X139097112Y-60354636D01*
X139153044Y-60396506D01*
X139217455Y-60482547D01*
X139332664Y-60568793D01*
X139332671Y-60568797D01*
X139467517Y-60619091D01*
X139467516Y-60619091D01*
X139474444Y-60619835D01*
X139527127Y-60625500D01*
X140167793Y-60625499D01*
X140234832Y-60645183D01*
X140280587Y-60697987D01*
X140290531Y-60767146D01*
X140282355Y-60796947D01*
X140266755Y-60834612D01*
X140266754Y-60834615D01*
X140266754Y-60834616D01*
X140266753Y-60834619D01*
X140235992Y-60989262D01*
X140235992Y-61146955D01*
X140266753Y-61301598D01*
X140266756Y-61301610D01*
X140327094Y-61447281D01*
X140327101Y-61447294D01*
X140414702Y-61578397D01*
X140414705Y-61578401D01*
X140526199Y-61689895D01*
X140526203Y-61689898D01*
X140657306Y-61777499D01*
X140657319Y-61777506D01*
X140786964Y-61831206D01*
X140802995Y-61837846D01*
X140957645Y-61868608D01*
X140957648Y-61868609D01*
X140957650Y-61868609D01*
X141115336Y-61868609D01*
X141115337Y-61868608D01*
X141269989Y-61837846D01*
X141415671Y-61777503D01*
X141546781Y-61689898D01*
X141658281Y-61578398D01*
X141745886Y-61447288D01*
X141806229Y-61301606D01*
X141836992Y-61146951D01*
X141836992Y-60989267D01*
X141836992Y-60989264D01*
X141836991Y-60989262D01*
X141806230Y-60834619D01*
X141806229Y-60834612D01*
X141790628Y-60796949D01*
X141783161Y-60727481D01*
X141814437Y-60665002D01*
X141874526Y-60629350D01*
X141905183Y-60625499D01*
X143122872Y-60625499D01*
X143182483Y-60619091D01*
X143317331Y-60568796D01*
X143432546Y-60482546D01*
X143518796Y-60367331D01*
X143569091Y-60232483D01*
X143569901Y-60224949D01*
X143571375Y-60211243D01*
X143598114Y-60146692D01*
X143655507Y-60106845D01*
X143694664Y-60100500D01*
X145463331Y-60100500D01*
X145463347Y-60100501D01*
X145470943Y-60100501D01*
X145629054Y-60100501D01*
X145629057Y-60100501D01*
X145781785Y-60059577D01*
X145781787Y-60059575D01*
X145781789Y-60059575D01*
X145781790Y-60059574D01*
X145840810Y-60025499D01*
X145840811Y-60025498D01*
X145918716Y-59980520D01*
X146030520Y-59868716D01*
X146030521Y-59868714D01*
X146064662Y-59834572D01*
X146125983Y-59801089D01*
X146128150Y-59800638D01*
X146186085Y-59789113D01*
X146283497Y-59769737D01*
X146429179Y-59709394D01*
X146560289Y-59621789D01*
X146671789Y-59510289D01*
X146759394Y-59379179D01*
X146819737Y-59233497D01*
X146850500Y-59078842D01*
X146850500Y-58921158D01*
X146850500Y-58921155D01*
X146850499Y-58921153D01*
X146827116Y-58803600D01*
X146819737Y-58766503D01*
X146819735Y-58766498D01*
X146759397Y-58620827D01*
X146759390Y-58620814D01*
X146671789Y-58489711D01*
X146671786Y-58489707D01*
X146560292Y-58378213D01*
X146560288Y-58378210D01*
X146514842Y-58347844D01*
X148350000Y-58347844D01*
X148356401Y-58407372D01*
X148356403Y-58407379D01*
X148406645Y-58542086D01*
X148406649Y-58542093D01*
X148492809Y-58657187D01*
X148492812Y-58657190D01*
X148607906Y-58743350D01*
X148607913Y-58743354D01*
X148742620Y-58793596D01*
X148742627Y-58793598D01*
X148802155Y-58799999D01*
X148802172Y-58800000D01*
X149150000Y-58800000D01*
X149150000Y-58250000D01*
X148350000Y-58250000D01*
X148350000Y-58347844D01*
X146514842Y-58347844D01*
X146445843Y-58301740D01*
X146429185Y-58290609D01*
X146429172Y-58290602D01*
X146283501Y-58230264D01*
X146283489Y-58230261D01*
X146128845Y-58199500D01*
X146128842Y-58199500D01*
X145971158Y-58199500D01*
X145971155Y-58199500D01*
X145816510Y-58230261D01*
X145816498Y-58230264D01*
X145670827Y-58290602D01*
X145670814Y-58290609D01*
X145539711Y-58378210D01*
X145539707Y-58378213D01*
X145428213Y-58489707D01*
X145428210Y-58489711D01*
X145340609Y-58620814D01*
X145340602Y-58620827D01*
X145280264Y-58766498D01*
X145280261Y-58766510D01*
X145273661Y-58799691D01*
X145241276Y-58861602D01*
X145180561Y-58896176D01*
X145152044Y-58899500D01*
X143694664Y-58899500D01*
X143627625Y-58879815D01*
X143581870Y-58827011D01*
X143571374Y-58788754D01*
X143570742Y-58782873D01*
X143569091Y-58767517D01*
X143518796Y-58632669D01*
X143518795Y-58632668D01*
X143518793Y-58632664D01*
X143432547Y-58517455D01*
X143432544Y-58517452D01*
X143317335Y-58431206D01*
X143317328Y-58431202D01*
X143182482Y-58380908D01*
X143182483Y-58380908D01*
X143122883Y-58374501D01*
X143122881Y-58374500D01*
X143122873Y-58374500D01*
X143122864Y-58374500D01*
X141877129Y-58374500D01*
X141877123Y-58374501D01*
X141817517Y-58380908D01*
X141762553Y-58401408D01*
X141692861Y-58406391D01*
X141631539Y-58372904D01*
X141608370Y-58340793D01*
X141602716Y-58329513D01*
X141596069Y-58304707D01*
X141553967Y-58231785D01*
X141550338Y-58225500D01*
X141517014Y-58167779D01*
X141517013Y-58167778D01*
X141517012Y-58167776D01*
X141405208Y-58055972D01*
X141405207Y-58055971D01*
X141400877Y-58051641D01*
X141400866Y-58051631D01*
X141136819Y-57787584D01*
X141122115Y-57760656D01*
X141105523Y-57734838D01*
X141104631Y-57728637D01*
X141103334Y-57726261D01*
X141100500Y-57699903D01*
X141100500Y-57652155D01*
X148350000Y-57652155D01*
X148350000Y-57750000D01*
X149150000Y-57750000D01*
X149150000Y-57200000D01*
X149650000Y-57200000D01*
X149650000Y-57750000D01*
X150450000Y-57750000D01*
X150452587Y-57747412D01*
X150469685Y-57689186D01*
X150522489Y-57643431D01*
X150591647Y-57633487D01*
X150655203Y-57662512D01*
X150673265Y-57681912D01*
X150692453Y-57707544D01*
X150692454Y-57707546D01*
X150692455Y-57707547D01*
X150807664Y-57793793D01*
X150807671Y-57793797D01*
X150852618Y-57810561D01*
X150942517Y-57844091D01*
X151002127Y-57850500D01*
X151521155Y-57850499D01*
X151521158Y-57850500D01*
X151678842Y-57850500D01*
X151678844Y-57850499D01*
X152197872Y-57850499D01*
X152257483Y-57844091D01*
X152392331Y-57793796D01*
X152507546Y-57707546D01*
X152593796Y-57592331D01*
X152644091Y-57457483D01*
X152650500Y-57397873D01*
X152650499Y-56702128D01*
X152644091Y-56642517D01*
X152626707Y-56595909D01*
X152593797Y-56507671D01*
X152593793Y-56507664D01*
X152507547Y-56392455D01*
X152507544Y-56392452D01*
X152392335Y-56306206D01*
X152392328Y-56306202D01*
X152257482Y-56255908D01*
X152257483Y-56255908D01*
X152197883Y-56249501D01*
X152197881Y-56249500D01*
X152197873Y-56249500D01*
X151678844Y-56249500D01*
X151678842Y-56249500D01*
X151521158Y-56249500D01*
X151521155Y-56249500D01*
X151002129Y-56249500D01*
X151002123Y-56249501D01*
X150942516Y-56255908D01*
X150807671Y-56306202D01*
X150807664Y-56306206D01*
X150692455Y-56392452D01*
X150692452Y-56392455D01*
X150606206Y-56507664D01*
X150606202Y-56507671D01*
X150557661Y-56637819D01*
X150555909Y-56642517D01*
X150549500Y-56702127D01*
X150549500Y-56702134D01*
X150549500Y-56702135D01*
X150549500Y-57293941D01*
X150529815Y-57360980D01*
X150477011Y-57406735D01*
X150407853Y-57416679D01*
X150344297Y-57387654D01*
X150326233Y-57368251D01*
X150307188Y-57342810D01*
X150307187Y-57342809D01*
X150192093Y-57256649D01*
X150192086Y-57256645D01*
X150057379Y-57206403D01*
X150057372Y-57206401D01*
X149997844Y-57200000D01*
X149650000Y-57200000D01*
X149150000Y-57200000D01*
X148802155Y-57200000D01*
X148742627Y-57206401D01*
X148742620Y-57206403D01*
X148607913Y-57256645D01*
X148607906Y-57256649D01*
X148492812Y-57342809D01*
X148492809Y-57342812D01*
X148406649Y-57457906D01*
X148406645Y-57457913D01*
X148356403Y-57592620D01*
X148356401Y-57592627D01*
X148350000Y-57652155D01*
X141100500Y-57652155D01*
X141100500Y-55574499D01*
X141120185Y-55507460D01*
X141172989Y-55461705D01*
X141224500Y-55450499D01*
X141227118Y-55450499D01*
X141227127Y-55450500D01*
X142772872Y-55450499D01*
X142832483Y-55444091D01*
X142967331Y-55393796D01*
X143082546Y-55307546D01*
X143168796Y-55192331D01*
X143219091Y-55057483D01*
X143225500Y-54997873D01*
X143225499Y-53902128D01*
X143219091Y-53842517D01*
X143215673Y-53833354D01*
X143168797Y-53707671D01*
X143168793Y-53707664D01*
X143082547Y-53592455D01*
X143077773Y-53587681D01*
X143044288Y-53526358D01*
X143049272Y-53456666D01*
X143077773Y-53412319D01*
X143082542Y-53407548D01*
X143082546Y-53407546D01*
X143168796Y-53292331D01*
X143176245Y-53272359D01*
X143191609Y-53231167D01*
X143233480Y-53175233D01*
X143298944Y-53150816D01*
X143307791Y-53150500D01*
X144192209Y-53150500D01*
X144259248Y-53170185D01*
X144305003Y-53222989D01*
X144308391Y-53231167D01*
X144331202Y-53292328D01*
X144331206Y-53292335D01*
X144417452Y-53407544D01*
X144422227Y-53412319D01*
X144455712Y-53473642D01*
X144450728Y-53543334D01*
X144422227Y-53587681D01*
X144417452Y-53592455D01*
X144331206Y-53707664D01*
X144331202Y-53707671D01*
X144280908Y-53842517D01*
X144274501Y-53902116D01*
X144274501Y-53902123D01*
X144274500Y-53902135D01*
X144274500Y-54997870D01*
X144274501Y-54997876D01*
X144280908Y-55057483D01*
X144331202Y-55192328D01*
X144331206Y-55192335D01*
X144417452Y-55307544D01*
X144417455Y-55307547D01*
X144532664Y-55393793D01*
X144532671Y-55393797D01*
X144667517Y-55444091D01*
X144667516Y-55444091D01*
X144674444Y-55444835D01*
X144727127Y-55450500D01*
X146272872Y-55450499D01*
X146332483Y-55444091D01*
X146467331Y-55393796D01*
X146582546Y-55307546D01*
X146668796Y-55192331D01*
X146719091Y-55057483D01*
X146725500Y-54997873D01*
X146725499Y-53902128D01*
X146719091Y-53842517D01*
X146715673Y-53833354D01*
X146668797Y-53707671D01*
X146668793Y-53707664D01*
X146582547Y-53592455D01*
X146577773Y-53587681D01*
X146544288Y-53526358D01*
X146549272Y-53456666D01*
X146577773Y-53412319D01*
X146582542Y-53407548D01*
X146582546Y-53407546D01*
X146668796Y-53292331D01*
X146676245Y-53272359D01*
X146691609Y-53231167D01*
X146733480Y-53175233D01*
X146798944Y-53150816D01*
X146807791Y-53150500D01*
X146920943Y-53150500D01*
X147692209Y-53150500D01*
X147759248Y-53170185D01*
X147805003Y-53222989D01*
X147808391Y-53231167D01*
X147831202Y-53292328D01*
X147831206Y-53292335D01*
X147917452Y-53407544D01*
X147922227Y-53412319D01*
X147955712Y-53473642D01*
X147950728Y-53543334D01*
X147922227Y-53587681D01*
X147917452Y-53592455D01*
X147831206Y-53707664D01*
X147831202Y-53707671D01*
X147780908Y-53842517D01*
X147774501Y-53902116D01*
X147774501Y-53902123D01*
X147774500Y-53902135D01*
X147774500Y-54997870D01*
X147774501Y-54997876D01*
X147780908Y-55057483D01*
X147831202Y-55192328D01*
X147831206Y-55192335D01*
X147917452Y-55307544D01*
X147917455Y-55307547D01*
X148032664Y-55393793D01*
X148032671Y-55393797D01*
X148167517Y-55444091D01*
X148167516Y-55444091D01*
X148174444Y-55444835D01*
X148227127Y-55450500D01*
X149772872Y-55450499D01*
X149832483Y-55444091D01*
X149967331Y-55393796D01*
X150082546Y-55307546D01*
X150168796Y-55192331D01*
X150219091Y-55057483D01*
X150225500Y-54997873D01*
X150225499Y-53902128D01*
X150219091Y-53842517D01*
X150215673Y-53833354D01*
X150168797Y-53707671D01*
X150168793Y-53707664D01*
X150082547Y-53592455D01*
X150077773Y-53587681D01*
X150044288Y-53526358D01*
X150049272Y-53456666D01*
X150077773Y-53412319D01*
X150082542Y-53407548D01*
X150082546Y-53407546D01*
X150168796Y-53292331D01*
X150219091Y-53157483D01*
X150225500Y-53097873D01*
X150225499Y-52002128D01*
X150219091Y-51942517D01*
X150214353Y-51929815D01*
X150168797Y-51807671D01*
X150168793Y-51807664D01*
X150082547Y-51692455D01*
X150082544Y-51692452D01*
X149967335Y-51606206D01*
X149967328Y-51606202D01*
X149832482Y-51555908D01*
X149832483Y-51555908D01*
X149772883Y-51549501D01*
X149772881Y-51549500D01*
X149772873Y-51549500D01*
X149772864Y-51549500D01*
X148227129Y-51549500D01*
X148227123Y-51549501D01*
X148167516Y-51555908D01*
X148032671Y-51606202D01*
X148032664Y-51606206D01*
X147917455Y-51692452D01*
X147917452Y-51692455D01*
X147831206Y-51807664D01*
X147831202Y-51807671D01*
X147808391Y-51868833D01*
X147766520Y-51924767D01*
X147701056Y-51949184D01*
X147692209Y-51949500D01*
X146807791Y-51949500D01*
X146740752Y-51929815D01*
X146694997Y-51877011D01*
X146691609Y-51868833D01*
X146668797Y-51807671D01*
X146668793Y-51807664D01*
X146582547Y-51692455D01*
X146582544Y-51692452D01*
X146467335Y-51606206D01*
X146467328Y-51606202D01*
X146332482Y-51555908D01*
X146332483Y-51555908D01*
X146272883Y-51549501D01*
X146272881Y-51549500D01*
X146272873Y-51549500D01*
X146272864Y-51549500D01*
X144727129Y-51549500D01*
X144727123Y-51549501D01*
X144667516Y-51555908D01*
X144532671Y-51606202D01*
X144532664Y-51606206D01*
X144417455Y-51692452D01*
X144417452Y-51692455D01*
X144331206Y-51807664D01*
X144331202Y-51807671D01*
X144308391Y-51868833D01*
X144266520Y-51924767D01*
X144201056Y-51949184D01*
X144192209Y-51949500D01*
X143307791Y-51949500D01*
X143240752Y-51929815D01*
X143194997Y-51877011D01*
X143191609Y-51868833D01*
X143168797Y-51807671D01*
X143168793Y-51807664D01*
X143082547Y-51692455D01*
X143082544Y-51692452D01*
X142967335Y-51606206D01*
X142967328Y-51606202D01*
X142832482Y-51555908D01*
X142832483Y-51555908D01*
X142772883Y-51549501D01*
X142772881Y-51549500D01*
X142772873Y-51549500D01*
X142772864Y-51549500D01*
X141227129Y-51549500D01*
X141227123Y-51549501D01*
X141167516Y-51555908D01*
X141032671Y-51606202D01*
X141032664Y-51606206D01*
X140917455Y-51692452D01*
X140917452Y-51692455D01*
X140831206Y-51807664D01*
X140831202Y-51807671D01*
X140780908Y-51942517D01*
X140774501Y-52002116D01*
X140774501Y-52002123D01*
X140774500Y-52002135D01*
X140774500Y-52874902D01*
X140754815Y-52941941D01*
X140738181Y-52962583D01*
X140019481Y-53681282D01*
X140019479Y-53681284D01*
X140002613Y-53710499D01*
X139985231Y-53740606D01*
X139940423Y-53818215D01*
X139899499Y-53970943D01*
X139899499Y-53970945D01*
X139899499Y-54139046D01*
X139899500Y-54139059D01*
X139899500Y-57913330D01*
X139899499Y-57913348D01*
X139899499Y-58079056D01*
X139936838Y-58218407D01*
X139935175Y-58288256D01*
X139896013Y-58346119D01*
X139831784Y-58373623D01*
X139817063Y-58374500D01*
X139724500Y-58374500D01*
X139657461Y-58354815D01*
X139611706Y-58302011D01*
X139600500Y-58250500D01*
X139600500Y-57464496D01*
X139600501Y-57464483D01*
X139600501Y-57296380D01*
X139600501Y-57296379D01*
X139559577Y-57143652D01*
X139507699Y-57053796D01*
X139480524Y-57006726D01*
X139480518Y-57006718D01*
X138846818Y-56373018D01*
X138813333Y-56311695D01*
X138810499Y-56285337D01*
X138810499Y-55217129D01*
X138810498Y-55217123D01*
X138804091Y-55157516D01*
X138753797Y-55022671D01*
X138753793Y-55022664D01*
X138662232Y-54900355D01*
X138664944Y-54898324D01*
X138639321Y-54851342D01*
X138636500Y-54825045D01*
X138636500Y-53425059D01*
X138636501Y-53425046D01*
X138636501Y-53256945D01*
X138636501Y-53256943D01*
X138595577Y-53104215D01*
X138553029Y-53030520D01*
X138516520Y-52967284D01*
X138404716Y-52855480D01*
X138404715Y-52855479D01*
X138400385Y-52851149D01*
X138400374Y-52851139D01*
X138271818Y-52722583D01*
X138238333Y-52661260D01*
X138235499Y-52634902D01*
X138235499Y-52142129D01*
X138235498Y-52142123D01*
X138229091Y-52082516D01*
X138178797Y-51947671D01*
X138178793Y-51947664D01*
X138092547Y-51832455D01*
X138092544Y-51832452D01*
X137977335Y-51746206D01*
X137977328Y-51746202D01*
X137842482Y-51695908D01*
X137842483Y-51695908D01*
X137782883Y-51689501D01*
X137782881Y-51689500D01*
X137782873Y-51689500D01*
X137782865Y-51689500D01*
X137544000Y-51689500D01*
X137476961Y-51669815D01*
X137431206Y-51617011D01*
X137420000Y-51565500D01*
X137420000Y-51250000D01*
X136534000Y-51250000D01*
X136466961Y-51230315D01*
X136421206Y-51177511D01*
X136410000Y-51126000D01*
X136410000Y-51000000D01*
X136284000Y-51000000D01*
X136216961Y-50980315D01*
X136171206Y-50927511D01*
X136160000Y-50876000D01*
X136160000Y-50750000D01*
X136660000Y-50750000D01*
X137420000Y-50750000D01*
X137420000Y-50217172D01*
X137419999Y-50217155D01*
X137413598Y-50157627D01*
X137413596Y-50157620D01*
X137363354Y-50022913D01*
X137363350Y-50022906D01*
X137277190Y-49907812D01*
X137277187Y-49907809D01*
X137162093Y-49821649D01*
X137162086Y-49821645D01*
X137027379Y-49771403D01*
X137027372Y-49771401D01*
X136967844Y-49765000D01*
X136660000Y-49765000D01*
X136660000Y-50750000D01*
X136160000Y-50750000D01*
X136160000Y-49710000D01*
X135694500Y-49710000D01*
X135685814Y-49707449D01*
X135676853Y-49708738D01*
X135652812Y-49697759D01*
X135627461Y-49690315D01*
X135621533Y-49683474D01*
X135613297Y-49679713D01*
X135599007Y-49657478D01*
X135581706Y-49637511D01*
X135579418Y-49626996D01*
X135575523Y-49620935D01*
X135570500Y-49586000D01*
X135570500Y-49414000D01*
X135590185Y-49346961D01*
X135642989Y-49301206D01*
X135694500Y-49290000D01*
X136230000Y-49290000D01*
X136230000Y-49276404D01*
X136249685Y-49209365D01*
X136278974Y-49177677D01*
X136289050Y-49170019D01*
X136292331Y-49168796D01*
X136407546Y-49082546D01*
X136412017Y-49076573D01*
X136424974Y-49066727D01*
X136450070Y-49057159D01*
X136473642Y-49044288D01*
X136482221Y-49044901D01*
X136490260Y-49041837D01*
X136516544Y-49047356D01*
X136543334Y-49049272D01*
X136551906Y-49054781D01*
X136558639Y-49056195D01*
X136567133Y-49064567D01*
X136587681Y-49077773D01*
X136592455Y-49082547D01*
X136707664Y-49168793D01*
X136707671Y-49168797D01*
X136842517Y-49219091D01*
X136842516Y-49219091D01*
X136849444Y-49219835D01*
X136902127Y-49225500D01*
X137997872Y-49225499D01*
X138057483Y-49219091D01*
X138192331Y-49168796D01*
X138307546Y-49082546D01*
X138393796Y-48967331D01*
X138444091Y-48832483D01*
X138450500Y-48772873D01*
X138450499Y-47986595D01*
X138470183Y-47919557D01*
X138522987Y-47873802D01*
X138592146Y-47863858D01*
X138655702Y-47892883D01*
X138662180Y-47898915D01*
X139013181Y-48249916D01*
X139046666Y-48311239D01*
X139049500Y-48337597D01*
X139049500Y-48764235D01*
X139029815Y-48831274D01*
X138977011Y-48877029D01*
X138968834Y-48880417D01*
X138832669Y-48931203D01*
X138832664Y-48931206D01*
X138717455Y-49017452D01*
X138717452Y-49017455D01*
X138631206Y-49132664D01*
X138631202Y-49132671D01*
X138580908Y-49267517D01*
X138574501Y-49327116D01*
X138574501Y-49327123D01*
X138574500Y-49327135D01*
X138574500Y-50672870D01*
X138574501Y-50672876D01*
X138580908Y-50732483D01*
X138631202Y-50867328D01*
X138631206Y-50867335D01*
X138717452Y-50982544D01*
X138717455Y-50982547D01*
X138832664Y-51068793D01*
X138832671Y-51068797D01*
X138967517Y-51119091D01*
X138967516Y-51119091D01*
X138974444Y-51119835D01*
X139027127Y-51125500D01*
X140272872Y-51125499D01*
X140332483Y-51119091D01*
X140467331Y-51068796D01*
X140582546Y-50982546D01*
X140668796Y-50867331D01*
X140708818Y-50760027D01*
X140750689Y-50704093D01*
X140816153Y-50679676D01*
X140884426Y-50694527D01*
X140933832Y-50743932D01*
X140941182Y-50760027D01*
X140981202Y-50867328D01*
X140981206Y-50867335D01*
X141067452Y-50982544D01*
X141067455Y-50982547D01*
X141182664Y-51068793D01*
X141182671Y-51068797D01*
X141317517Y-51119091D01*
X141317516Y-51119091D01*
X141324444Y-51119835D01*
X141377127Y-51125500D01*
X142622872Y-51125499D01*
X142682483Y-51119091D01*
X142817331Y-51068796D01*
X142932546Y-50982546D01*
X143018796Y-50867331D01*
X143069091Y-50732483D01*
X143075500Y-50672873D01*
X143075499Y-49327128D01*
X143069091Y-49267517D01*
X143062559Y-49250005D01*
X143018797Y-49132671D01*
X143018793Y-49132664D01*
X142932547Y-49017455D01*
X142932544Y-49017452D01*
X142817335Y-48931206D01*
X142817328Y-48931202D01*
X142682482Y-48880908D01*
X142682483Y-48880908D01*
X142622883Y-48874501D01*
X142622881Y-48874500D01*
X142622873Y-48874500D01*
X142622864Y-48874500D01*
X141377129Y-48874500D01*
X141377123Y-48874501D01*
X141317516Y-48880908D01*
X141182671Y-48931202D01*
X141182664Y-48931206D01*
X141067455Y-49017452D01*
X141067452Y-49017455D01*
X140981206Y-49132664D01*
X140981202Y-49132671D01*
X140941182Y-49239972D01*
X140899311Y-49295906D01*
X140833846Y-49320323D01*
X140765573Y-49305471D01*
X140716168Y-49256066D01*
X140708818Y-49239972D01*
X140668797Y-49132671D01*
X140668793Y-49132664D01*
X140582547Y-49017455D01*
X140582544Y-49017452D01*
X140467335Y-48931206D01*
X140467330Y-48931203D01*
X140331166Y-48880417D01*
X140275233Y-48838545D01*
X140250816Y-48773081D01*
X140250500Y-48764235D01*
X140250500Y-48126559D01*
X140250501Y-48126546D01*
X140250501Y-47958445D01*
X140250501Y-47958443D01*
X140209577Y-47805715D01*
X140171756Y-47740208D01*
X140171756Y-47740207D01*
X140130522Y-47668787D01*
X140130521Y-47668786D01*
X140130520Y-47668784D01*
X140018716Y-47556980D01*
X140018715Y-47556979D01*
X140014385Y-47552649D01*
X140014374Y-47552639D01*
X139384574Y-46922839D01*
X139351089Y-46861516D01*
X139350638Y-46859349D01*
X139319738Y-46704010D01*
X139319737Y-46704003D01*
X139276001Y-46598414D01*
X139259397Y-46558327D01*
X139259390Y-46558314D01*
X139171789Y-46427211D01*
X139171786Y-46427207D01*
X139060292Y-46315713D01*
X139060288Y-46315710D01*
X138929185Y-46228109D01*
X138929172Y-46228102D01*
X138783501Y-46167764D01*
X138783489Y-46167761D01*
X138628845Y-46137000D01*
X138628842Y-46137000D01*
X138471158Y-46137000D01*
X138471155Y-46137000D01*
X138316510Y-46167761D01*
X138316498Y-46167764D01*
X138170827Y-46228102D01*
X138170814Y-46228109D01*
X138039711Y-46315710D01*
X138039707Y-46315713D01*
X137928213Y-46427207D01*
X137928210Y-46427211D01*
X137840609Y-46558314D01*
X137840602Y-46558327D01*
X137782769Y-46697952D01*
X137738928Y-46752356D01*
X137672634Y-46774421D01*
X137668208Y-46774500D01*
X136902129Y-46774500D01*
X136902123Y-46774501D01*
X136842516Y-46780908D01*
X136707671Y-46831202D01*
X136707664Y-46831206D01*
X136592455Y-46917452D01*
X136587681Y-46922227D01*
X136526358Y-46955712D01*
X136456666Y-46950728D01*
X136412319Y-46922227D01*
X136407544Y-46917452D01*
X136292335Y-46831206D01*
X136292328Y-46831202D01*
X136157482Y-46780908D01*
X136157483Y-46780908D01*
X136097883Y-46774501D01*
X136097881Y-46774500D01*
X136097873Y-46774500D01*
X136097864Y-46774500D01*
X135002129Y-46774500D01*
X135002123Y-46774501D01*
X134942516Y-46780908D01*
X134807671Y-46831202D01*
X134807664Y-46831206D01*
X134692455Y-46917452D01*
X134692452Y-46917455D01*
X134606206Y-47032664D01*
X134606202Y-47032671D01*
X134555908Y-47167517D01*
X134549501Y-47227116D01*
X134549500Y-47227135D01*
X134549500Y-48563495D01*
X134529815Y-48630534D01*
X134477011Y-48676289D01*
X134472953Y-48678056D01*
X134390824Y-48712075D01*
X134390814Y-48712080D01*
X134259711Y-48799681D01*
X134259707Y-48799684D01*
X134148213Y-48911178D01*
X134148210Y-48911182D01*
X134060609Y-49042285D01*
X134060602Y-49042298D01*
X134000264Y-49187969D01*
X134000261Y-49187981D01*
X133969500Y-49342624D01*
X133969500Y-49500317D01*
X134000261Y-49654960D01*
X134000264Y-49654972D01*
X134029547Y-49725668D01*
X134037016Y-49795138D01*
X134005740Y-49857617D01*
X133989298Y-49872386D01*
X133942452Y-49907455D01*
X133856206Y-50022664D01*
X133856202Y-50022671D01*
X133805908Y-50157517D01*
X133799501Y-50217116D01*
X133799500Y-50217135D01*
X133799500Y-51782870D01*
X133799501Y-51782876D01*
X133805908Y-51842483D01*
X133856202Y-51977328D01*
X133856206Y-51977335D01*
X133942452Y-52092544D01*
X133942455Y-52092547D01*
X134057664Y-52178793D01*
X134057671Y-52178797D01*
X134102618Y-52195561D01*
X134192517Y-52229091D01*
X134252127Y-52235500D01*
X134575501Y-52235499D01*
X134642539Y-52255183D01*
X134688294Y-52307987D01*
X134699500Y-52359499D01*
X134699500Y-52508844D01*
X134730261Y-52663487D01*
X134730264Y-52663499D01*
X134784243Y-52793816D01*
X134792972Y-52854520D01*
X134790000Y-52882165D01*
X134790000Y-52950000D01*
X134799194Y-52959194D01*
X134827546Y-52965554D01*
X134831179Y-52968722D01*
X134834456Y-52969685D01*
X134855663Y-52986888D01*
X134861615Y-52992917D01*
X134932454Y-53087546D01*
X135018937Y-53152287D01*
X135025453Y-53158888D01*
X135037783Y-53181820D01*
X135053389Y-53202667D01*
X135054063Y-53212098D01*
X135058541Y-53220426D01*
X135056515Y-53246385D01*
X135058373Y-53272359D01*
X135053841Y-53280657D01*
X135053106Y-53290084D01*
X135037365Y-53310829D01*
X135024887Y-53333682D01*
X135016589Y-53338212D01*
X135010874Y-53345746D01*
X134986413Y-53354689D01*
X134963564Y-53367166D01*
X134947593Y-53368883D01*
X134945253Y-53369739D01*
X134943432Y-53369330D01*
X134937207Y-53370000D01*
X134790000Y-53370000D01*
X134790000Y-53437844D01*
X134796401Y-53497372D01*
X134796403Y-53497379D01*
X134846645Y-53632086D01*
X134846649Y-53632093D01*
X134932809Y-53747187D01*
X134932812Y-53747190D01*
X135047906Y-53833350D01*
X135047913Y-53833354D01*
X135182620Y-53883596D01*
X135182627Y-53883598D01*
X135242155Y-53889999D01*
X135242172Y-53890000D01*
X135290000Y-53890000D01*
X135290000Y-53354499D01*
X135292550Y-53345813D01*
X135291262Y-53336852D01*
X135302240Y-53312811D01*
X135309685Y-53287460D01*
X135316525Y-53281532D01*
X135320287Y-53273296D01*
X135342521Y-53259006D01*
X135362489Y-53241705D01*
X135373003Y-53239417D01*
X135379065Y-53235522D01*
X135413995Y-53230499D01*
X135586001Y-53230499D01*
X135653039Y-53250184D01*
X135698794Y-53302988D01*
X135710000Y-53354499D01*
X135710000Y-53890000D01*
X135728681Y-53908681D01*
X135762166Y-53970004D01*
X135765000Y-53996362D01*
X135765000Y-54050000D01*
X136876000Y-54050000D01*
X136943039Y-54069685D01*
X136988794Y-54122489D01*
X137000000Y-54174000D01*
X137000000Y-54426000D01*
X136980315Y-54493039D01*
X136927511Y-54538794D01*
X136876000Y-54550000D01*
X135765000Y-54550000D01*
X135765000Y-54641000D01*
X135745315Y-54708039D01*
X135692511Y-54753794D01*
X135645436Y-54764034D01*
X135645463Y-54764540D01*
X135645475Y-54764644D01*
X135645469Y-54764644D01*
X135645479Y-54764823D01*
X135642155Y-54765000D01*
X135582627Y-54771401D01*
X135582620Y-54771403D01*
X135447913Y-54821645D01*
X135447906Y-54821649D01*
X135332814Y-54907808D01*
X135332806Y-54907815D01*
X135308482Y-54940310D01*
X135252549Y-54982182D01*
X135209215Y-54990000D01*
X134750000Y-54990000D01*
X134750000Y-55750000D01*
X136076000Y-55750000D01*
X136143039Y-55769685D01*
X136188794Y-55822489D01*
X136200000Y-55874000D01*
X136200000Y-56126000D01*
X136180315Y-56193039D01*
X136127511Y-56238794D01*
X136076000Y-56250000D01*
X134624000Y-56250000D01*
X134556961Y-56230315D01*
X134511206Y-56177511D01*
X134500000Y-56126000D01*
X134500000Y-56000000D01*
X134374000Y-56000000D01*
X134306961Y-55980315D01*
X134261206Y-55927511D01*
X134250000Y-55876000D01*
X134250000Y-54990000D01*
X133859000Y-54990000D01*
X133791961Y-54970315D01*
X133746206Y-54917511D01*
X133735000Y-54866000D01*
X133735000Y-54750000D01*
X131265000Y-54750000D01*
X131265000Y-55057844D01*
X131271401Y-55117372D01*
X131271403Y-55117379D01*
X131323087Y-55255952D01*
X131328071Y-55325644D01*
X131323087Y-55342618D01*
X131270908Y-55482517D01*
X131264501Y-55542116D01*
X131264500Y-55542135D01*
X131264500Y-56657870D01*
X131264501Y-56657876D01*
X131270908Y-56717483D01*
X131321202Y-56852328D01*
X131321206Y-56852335D01*
X131407452Y-56967544D01*
X131407455Y-56967547D01*
X131522664Y-57053793D01*
X131522671Y-57053797D01*
X131657517Y-57104091D01*
X131657516Y-57104091D01*
X131664444Y-57104835D01*
X131717127Y-57110500D01*
X133140500Y-57110499D01*
X133207539Y-57130184D01*
X133253294Y-57182987D01*
X133264500Y-57234499D01*
X133264500Y-58157870D01*
X133264501Y-58157876D01*
X133270908Y-58217483D01*
X133321202Y-58352328D01*
X133321206Y-58352335D01*
X133407452Y-58467544D01*
X133407455Y-58467547D01*
X133522664Y-58553793D01*
X133522671Y-58553797D01*
X133657517Y-58604091D01*
X133657516Y-58604091D01*
X133664444Y-58604835D01*
X133717127Y-58610500D01*
X135065500Y-58610499D01*
X135132539Y-58630184D01*
X135178294Y-58682987D01*
X135189500Y-58734497D01*
X135189500Y-58782868D01*
X135189501Y-58782876D01*
X135195908Y-58842483D01*
X135249303Y-58985641D01*
X135247366Y-58986363D01*
X135259725Y-59043158D01*
X135235311Y-59108624D01*
X135179380Y-59150498D01*
X135136040Y-59158319D01*
X134419350Y-59158319D01*
X134261236Y-59158319D01*
X134108508Y-59199242D01*
X134108507Y-59199242D01*
X134108505Y-59199243D01*
X134108504Y-59199243D01*
X134083635Y-59213602D01*
X134056570Y-59220168D01*
X134030481Y-59229899D01*
X134023088Y-59228290D01*
X134015735Y-59230075D01*
X133989414Y-59220965D01*
X133962208Y-59215047D01*
X133953517Y-59208541D01*
X133949708Y-59207223D01*
X133933954Y-59193896D01*
X133890327Y-59150269D01*
X133880240Y-59137118D01*
X133879437Y-59137735D01*
X133874489Y-59131288D01*
X133874487Y-59131284D01*
X133762683Y-59019480D01*
X133762680Y-59019478D01*
X133761697Y-59018723D01*
X133749502Y-59008028D01*
X133685953Y-58944479D01*
X133685945Y-58944473D01*
X133584546Y-58885931D01*
X133584543Y-58885930D01*
X133549022Y-58865421D01*
X133549023Y-58865421D01*
X133487929Y-58849051D01*
X133396293Y-58824497D01*
X133238179Y-58824497D01*
X133230583Y-58824497D01*
X133230567Y-58824498D01*
X132305501Y-58824498D01*
X132238462Y-58804813D01*
X132236610Y-58803600D01*
X132104920Y-58715607D01*
X132104907Y-58715600D01*
X131959236Y-58655262D01*
X131959224Y-58655259D01*
X131804580Y-58624498D01*
X131804577Y-58624498D01*
X131646893Y-58624498D01*
X131646890Y-58624498D01*
X131492245Y-58655259D01*
X131492233Y-58655262D01*
X131346562Y-58715600D01*
X131346549Y-58715607D01*
X131215446Y-58803208D01*
X131215442Y-58803211D01*
X131103948Y-58914705D01*
X131103945Y-58914709D01*
X131016344Y-59045812D01*
X131016337Y-59045825D01*
X130955999Y-59191496D01*
X130955996Y-59191506D01*
X130929228Y-59326076D01*
X130896843Y-59387987D01*
X130836127Y-59422561D01*
X130820865Y-59425174D01*
X130767516Y-59430909D01*
X130632671Y-59481202D01*
X130632664Y-59481206D01*
X130517455Y-59567452D01*
X130517452Y-59567455D01*
X130431206Y-59682664D01*
X130431202Y-59682671D01*
X130380908Y-59817517D01*
X130374501Y-59877116D01*
X130374500Y-59877135D01*
X130374500Y-61122870D01*
X130374501Y-61122876D01*
X130380908Y-61182483D01*
X130431202Y-61317328D01*
X130431206Y-61317335D01*
X130517452Y-61432544D01*
X130517455Y-61432547D01*
X130632664Y-61518793D01*
X130632671Y-61518797D01*
X130739972Y-61558818D01*
X130795906Y-61600689D01*
X130820323Y-61666154D01*
X130805471Y-61734427D01*
X130756066Y-61783832D01*
X130739972Y-61791182D01*
X130632671Y-61831202D01*
X130632664Y-61831206D01*
X130517455Y-61917452D01*
X130517452Y-61917455D01*
X130431206Y-62032664D01*
X130431202Y-62032671D01*
X130380908Y-62167517D01*
X130374501Y-62227116D01*
X130374500Y-62227135D01*
X130374500Y-63472870D01*
X130374501Y-63472876D01*
X130380908Y-63532483D01*
X130431202Y-63667328D01*
X130431206Y-63667335D01*
X130517452Y-63782544D01*
X130517455Y-63782547D01*
X130632664Y-63868793D01*
X130632671Y-63868797D01*
X130677618Y-63885561D01*
X130767517Y-63919091D01*
X130827127Y-63925500D01*
X131077903Y-63925499D01*
X131144941Y-63945183D01*
X131190696Y-63997987D01*
X131200640Y-64067146D01*
X131171615Y-64130701D01*
X131165583Y-64137180D01*
X128840584Y-66462181D01*
X128779261Y-66495666D01*
X128752903Y-66498500D01*
X128086671Y-66498500D01*
X128019632Y-66478815D01*
X127973877Y-66426011D01*
X127963933Y-66356853D01*
X127976186Y-66318205D01*
X128001557Y-66268412D01*
X128067246Y-66066243D01*
X128100500Y-65856287D01*
X128100500Y-65643713D01*
X128067246Y-65433757D01*
X128001557Y-65231588D01*
X127905051Y-65042184D01*
X127905049Y-65042181D01*
X127905048Y-65042179D01*
X127780109Y-64870213D01*
X127629786Y-64719890D01*
X127457820Y-64594951D01*
X127268414Y-64498444D01*
X127268413Y-64498443D01*
X127268412Y-64498443D01*
X127066243Y-64432754D01*
X127066241Y-64432753D01*
X127066240Y-64432753D01*
X126904957Y-64407208D01*
X126856287Y-64399500D01*
X126643713Y-64399500D01*
X126595042Y-64407208D01*
X126433760Y-64432753D01*
X126231585Y-64498444D01*
X126042179Y-64594951D01*
X125870213Y-64719890D01*
X125719890Y-64870213D01*
X125594951Y-65042179D01*
X125498444Y-65231585D01*
X125432753Y-65433760D01*
X125409558Y-65580208D01*
X125399500Y-65643713D01*
X125399500Y-65856287D01*
X125432754Y-66066243D01*
X125455402Y-66135947D01*
X125498444Y-66268414D01*
X125572353Y-66413468D01*
X125585249Y-66482137D01*
X125558973Y-66546878D01*
X125523869Y-66577150D01*
X125452284Y-66618479D01*
X125452282Y-66618481D01*
X125340478Y-66730286D01*
X124404522Y-67666241D01*
X124343199Y-67699726D01*
X124278523Y-67696491D01*
X124236245Y-67682754D01*
X124077283Y-67657577D01*
X124026287Y-67649500D01*
X123813713Y-67649500D01*
X123765042Y-67657208D01*
X123603760Y-67682753D01*
X123401585Y-67748444D01*
X123212179Y-67844951D01*
X123040215Y-67969889D01*
X122926285Y-68083819D01*
X122864962Y-68117303D01*
X122795270Y-68112319D01*
X122739337Y-68070447D01*
X122722422Y-68039470D01*
X122673354Y-67907913D01*
X122673350Y-67907906D01*
X122587190Y-67792812D01*
X122587187Y-67792809D01*
X122472093Y-67706649D01*
X122472086Y-67706645D01*
X122337379Y-67656403D01*
X122337372Y-67656401D01*
X122277844Y-67650000D01*
X121630000Y-67650000D01*
X121630000Y-68566988D01*
X121572993Y-68534075D01*
X121445826Y-68500000D01*
X121314174Y-68500000D01*
X121187007Y-68534075D01*
X121130000Y-68566988D01*
X121130000Y-67650000D01*
X120482155Y-67650000D01*
X120422627Y-67656401D01*
X120422620Y-67656403D01*
X120287913Y-67706645D01*
X120287906Y-67706649D01*
X120172812Y-67792809D01*
X120172809Y-67792812D01*
X120086649Y-67907906D01*
X120086645Y-67907913D01*
X120036403Y-68042620D01*
X120036401Y-68042627D01*
X120030000Y-68102155D01*
X120030000Y-68750000D01*
X120946988Y-68750000D01*
X120914075Y-68807007D01*
X120880000Y-68934174D01*
X120880000Y-69065826D01*
X120914075Y-69192993D01*
X120946988Y-69250000D01*
X120030000Y-69250000D01*
X120030000Y-69897844D01*
X120036401Y-69957372D01*
X120036403Y-69957379D01*
X120086645Y-70092086D01*
X120086649Y-70092093D01*
X120172809Y-70207187D01*
X120172812Y-70207190D01*
X120287906Y-70293350D01*
X120287913Y-70293354D01*
X120422620Y-70343596D01*
X120422627Y-70343598D01*
X120482155Y-70349999D01*
X120482172Y-70350000D01*
X121130000Y-70350000D01*
X121130000Y-69433012D01*
X121187007Y-69465925D01*
X121314174Y-69500000D01*
X121445826Y-69500000D01*
X121572993Y-69465925D01*
X121630000Y-69433012D01*
X121630000Y-70350000D01*
X122277828Y-70350000D01*
X122277844Y-70349999D01*
X122337372Y-70343598D01*
X122337379Y-70343596D01*
X122472086Y-70293354D01*
X122472093Y-70293350D01*
X122587187Y-70207190D01*
X122587190Y-70207187D01*
X122673350Y-70092093D01*
X122673354Y-70092086D01*
X122722422Y-69960529D01*
X122764293Y-69904595D01*
X122829757Y-69880178D01*
X122898030Y-69895030D01*
X122926285Y-69916181D01*
X123040213Y-70030109D01*
X123212179Y-70155048D01*
X123212181Y-70155049D01*
X123212184Y-70155051D01*
X123401588Y-70251557D01*
X123603757Y-70317246D01*
X123813713Y-70350500D01*
X123813714Y-70350500D01*
X124026286Y-70350500D01*
X124026287Y-70350500D01*
X124236243Y-70317246D01*
X124438412Y-70251557D01*
X124627816Y-70155051D01*
X124693550Y-70107293D01*
X124799786Y-70030109D01*
X124799788Y-70030106D01*
X124799792Y-70030104D01*
X124950104Y-69879792D01*
X124950106Y-69879788D01*
X124950109Y-69879786D01*
X125075048Y-69707820D01*
X125075047Y-69707820D01*
X125075051Y-69707816D01*
X125079514Y-69699054D01*
X125127488Y-69648259D01*
X125195308Y-69631463D01*
X125261444Y-69653999D01*
X125300486Y-69699056D01*
X125304951Y-69707820D01*
X125429890Y-69879786D01*
X125580213Y-70030109D01*
X125752179Y-70155048D01*
X125752181Y-70155049D01*
X125752184Y-70155051D01*
X125941588Y-70251557D01*
X126143757Y-70317246D01*
X126353713Y-70350500D01*
X126353714Y-70350500D01*
X126566286Y-70350500D01*
X126566287Y-70350500D01*
X126776243Y-70317246D01*
X126978412Y-70251557D01*
X127167816Y-70155051D01*
X127233550Y-70107293D01*
X127339786Y-70030109D01*
X127339788Y-70030106D01*
X127339792Y-70030104D01*
X127490104Y-69879792D01*
X127490106Y-69879788D01*
X127490109Y-69879786D01*
X127615048Y-69707820D01*
X127615047Y-69707820D01*
X127615051Y-69707816D01*
X127619514Y-69699054D01*
X127667488Y-69648259D01*
X127735308Y-69631463D01*
X127801444Y-69653999D01*
X127840486Y-69699056D01*
X127844951Y-69707820D01*
X127969890Y-69879786D01*
X128120213Y-70030109D01*
X128292179Y-70155048D01*
X128292181Y-70155049D01*
X128292184Y-70155051D01*
X128481588Y-70251557D01*
X128683757Y-70317246D01*
X128893713Y-70350500D01*
X128893714Y-70350500D01*
X129106286Y-70350500D01*
X129106287Y-70350500D01*
X129316243Y-70317246D01*
X129518412Y-70251557D01*
X129665830Y-70176443D01*
X129734498Y-70163548D01*
X129799239Y-70189824D01*
X129821390Y-70212618D01*
X129892452Y-70307544D01*
X129892455Y-70307547D01*
X130007664Y-70393793D01*
X130007671Y-70393797D01*
X130046698Y-70408353D01*
X130142517Y-70444091D01*
X130202127Y-70450500D01*
X130793941Y-70450499D01*
X130860980Y-70470183D01*
X130906735Y-70522987D01*
X130916679Y-70592146D01*
X130887654Y-70655702D01*
X130868253Y-70673765D01*
X130842809Y-70692812D01*
X130756649Y-70807906D01*
X130756645Y-70807913D01*
X130706403Y-70942620D01*
X130706401Y-70942627D01*
X130700000Y-71002155D01*
X130700000Y-71350000D01*
X131250000Y-71350000D01*
X131250000Y-70550000D01*
X131247411Y-70547411D01*
X131189187Y-70530315D01*
X131143432Y-70477511D01*
X131133488Y-70408353D01*
X131162513Y-70344797D01*
X131181914Y-70326734D01*
X131194588Y-70317246D01*
X131207546Y-70307546D01*
X131293796Y-70192331D01*
X131344091Y-70057483D01*
X131350500Y-69997873D01*
X131350500Y-69414669D01*
X131350500Y-69321158D01*
X131350500Y-69311169D01*
X131350499Y-69311155D01*
X131350499Y-68802129D01*
X131350498Y-68802123D01*
X131350497Y-68802116D01*
X131344091Y-68742517D01*
X131293796Y-68607669D01*
X131293795Y-68607668D01*
X131293793Y-68607664D01*
X131207548Y-68492457D01*
X131207546Y-68492454D01*
X131207542Y-68492451D01*
X131207540Y-68492449D01*
X131200187Y-68486944D01*
X131158317Y-68431009D01*
X131150500Y-68387679D01*
X131150500Y-67884825D01*
X131170185Y-67817786D01*
X131186819Y-67797144D01*
X131637819Y-67346144D01*
X131699142Y-67312659D01*
X131768834Y-67317643D01*
X131824767Y-67359515D01*
X131849184Y-67424979D01*
X131849500Y-67433825D01*
X131849500Y-68387679D01*
X131829815Y-68454718D01*
X131799813Y-68486944D01*
X131792459Y-68492449D01*
X131792451Y-68492457D01*
X131706206Y-68607664D01*
X131706202Y-68607671D01*
X131655908Y-68742517D01*
X131649501Y-68802116D01*
X131649501Y-68802123D01*
X131649500Y-68802135D01*
X131649500Y-69997870D01*
X131649501Y-69997876D01*
X131655908Y-70057483D01*
X131706202Y-70192328D01*
X131706206Y-70192335D01*
X131792452Y-70307544D01*
X131792453Y-70307544D01*
X131792454Y-70307546D01*
X131805412Y-70317246D01*
X131818086Y-70326734D01*
X131859956Y-70382668D01*
X131864940Y-70452360D01*
X131831454Y-70513682D01*
X131770131Y-70547167D01*
X131750749Y-70549250D01*
X131750000Y-70550000D01*
X131750000Y-71350000D01*
X132300000Y-71350000D01*
X132300000Y-71002172D01*
X132299999Y-71002155D01*
X132293598Y-70942627D01*
X132293596Y-70942620D01*
X132243354Y-70807913D01*
X132243350Y-70807906D01*
X132157190Y-70692812D01*
X132131747Y-70673765D01*
X132089876Y-70617831D01*
X132084893Y-70548139D01*
X132118379Y-70486816D01*
X132179703Y-70453332D01*
X132206051Y-70450499D01*
X132797872Y-70450499D01*
X132857483Y-70444091D01*
X132992331Y-70393796D01*
X133107546Y-70307546D01*
X133176797Y-70215038D01*
X133232729Y-70173169D01*
X133302421Y-70168185D01*
X133319384Y-70173165D01*
X133442517Y-70219091D01*
X133502127Y-70225500D01*
X134597872Y-70225499D01*
X134657483Y-70219091D01*
X134792331Y-70168796D01*
X134907546Y-70082546D01*
X134907548Y-70082542D01*
X134912319Y-70077773D01*
X134973642Y-70044288D01*
X135043334Y-70049272D01*
X135087681Y-70077773D01*
X135092455Y-70082547D01*
X135207664Y-70168793D01*
X135207669Y-70168796D01*
X135268833Y-70191608D01*
X135324766Y-70233478D01*
X135349184Y-70298942D01*
X135349500Y-70307790D01*
X135349500Y-71192209D01*
X135329815Y-71259248D01*
X135277011Y-71305003D01*
X135268833Y-71308391D01*
X135207671Y-71331202D01*
X135207664Y-71331206D01*
X135092455Y-71417452D01*
X135087681Y-71422227D01*
X135026358Y-71455712D01*
X134956666Y-71450728D01*
X134912319Y-71422227D01*
X134907544Y-71417452D01*
X134792335Y-71331206D01*
X134792328Y-71331202D01*
X134657482Y-71280908D01*
X134657483Y-71280908D01*
X134597883Y-71274501D01*
X134597881Y-71274500D01*
X134597873Y-71274500D01*
X134597864Y-71274500D01*
X133502129Y-71274500D01*
X133502123Y-71274501D01*
X133442516Y-71280908D01*
X133307671Y-71331202D01*
X133307664Y-71331206D01*
X133192455Y-71417452D01*
X133192452Y-71417455D01*
X133106206Y-71532664D01*
X133106202Y-71532671D01*
X133055908Y-71667517D01*
X133050674Y-71716209D01*
X133049501Y-71727123D01*
X133049500Y-71727135D01*
X133049500Y-73272870D01*
X133049501Y-73272876D01*
X133055908Y-73332483D01*
X133084137Y-73408167D01*
X133089121Y-73477859D01*
X133055636Y-73539182D01*
X132994312Y-73572666D01*
X132967955Y-73575500D01*
X130023679Y-73575500D01*
X129956640Y-73555815D01*
X129910885Y-73503011D01*
X129900941Y-73433853D01*
X129905748Y-73413182D01*
X129937246Y-73316243D01*
X129970500Y-73106287D01*
X129970500Y-72893713D01*
X129937246Y-72683757D01*
X129871557Y-72481588D01*
X129775051Y-72292184D01*
X129775049Y-72292181D01*
X129775048Y-72292179D01*
X129706510Y-72197844D01*
X130700000Y-72197844D01*
X130706401Y-72257372D01*
X130706403Y-72257379D01*
X130756645Y-72392086D01*
X130756649Y-72392093D01*
X130842809Y-72507187D01*
X130842812Y-72507190D01*
X130957906Y-72593350D01*
X130957913Y-72593354D01*
X131092620Y-72643596D01*
X131092627Y-72643598D01*
X131152155Y-72649999D01*
X131152172Y-72650000D01*
X131250000Y-72650000D01*
X131750000Y-72650000D01*
X131847828Y-72650000D01*
X131847844Y-72649999D01*
X131907372Y-72643598D01*
X131907379Y-72643596D01*
X132042086Y-72593354D01*
X132042093Y-72593350D01*
X132157187Y-72507190D01*
X132157190Y-72507187D01*
X132243350Y-72392093D01*
X132243354Y-72392086D01*
X132293596Y-72257379D01*
X132293598Y-72257372D01*
X132299999Y-72197844D01*
X132300000Y-72197827D01*
X132300000Y-71850000D01*
X131750000Y-71850000D01*
X131750000Y-72650000D01*
X131250000Y-72650000D01*
X131250000Y-71850000D01*
X130700000Y-71850000D01*
X130700000Y-72197844D01*
X129706510Y-72197844D01*
X129650109Y-72120213D01*
X129499790Y-71969894D01*
X129499785Y-71969890D01*
X129402152Y-71898956D01*
X129327820Y-71844951D01*
X129138414Y-71748444D01*
X129138413Y-71748443D01*
X129138412Y-71748443D01*
X128936243Y-71682754D01*
X128936241Y-71682753D01*
X128936240Y-71682753D01*
X128774957Y-71657208D01*
X128726287Y-71649500D01*
X128513713Y-71649500D01*
X128465042Y-71657208D01*
X128303760Y-71682753D01*
X128101585Y-71748444D01*
X127912179Y-71844951D01*
X127740213Y-71969890D01*
X127589890Y-72120213D01*
X127464949Y-72292182D01*
X127460484Y-72300946D01*
X127412509Y-72351742D01*
X127344688Y-72368536D01*
X127278553Y-72345998D01*
X127239516Y-72300946D01*
X127235050Y-72292182D01*
X127110109Y-72120213D01*
X126959786Y-71969890D01*
X126787820Y-71844951D01*
X126598414Y-71748444D01*
X126598413Y-71748443D01*
X126598412Y-71748443D01*
X126396243Y-71682754D01*
X126396241Y-71682753D01*
X126396240Y-71682753D01*
X126234957Y-71657208D01*
X126186287Y-71649500D01*
X125973713Y-71649500D01*
X125925042Y-71657208D01*
X125763760Y-71682753D01*
X125561585Y-71748444D01*
X125372179Y-71844951D01*
X125200213Y-71969890D01*
X125049890Y-72120213D01*
X124924949Y-72292182D01*
X124920484Y-72300946D01*
X124872509Y-72351742D01*
X124804688Y-72368536D01*
X124738553Y-72345998D01*
X124699516Y-72300946D01*
X124695050Y-72292182D01*
X124570109Y-72120213D01*
X124419786Y-71969890D01*
X124247820Y-71844951D01*
X124058414Y-71748444D01*
X124058413Y-71748443D01*
X124058412Y-71748443D01*
X123856243Y-71682754D01*
X123856241Y-71682753D01*
X123856240Y-71682753D01*
X123694957Y-71657208D01*
X123646287Y-71649500D01*
X123433713Y-71649500D01*
X123385042Y-71657208D01*
X123223760Y-71682753D01*
X123021585Y-71748444D01*
X122832179Y-71844951D01*
X122660215Y-71969889D01*
X122546285Y-72083819D01*
X122484962Y-72117303D01*
X122415270Y-72112319D01*
X122359337Y-72070447D01*
X122342422Y-72039470D01*
X122293354Y-71907913D01*
X122293350Y-71907906D01*
X122207190Y-71792812D01*
X122207187Y-71792809D01*
X122092093Y-71706649D01*
X122092086Y-71706645D01*
X121957379Y-71656403D01*
X121957372Y-71656401D01*
X121897844Y-71650000D01*
X121250000Y-71650000D01*
X121250000Y-72566988D01*
X121192993Y-72534075D01*
X121065826Y-72500000D01*
X120934174Y-72500000D01*
X120807007Y-72534075D01*
X120750000Y-72566988D01*
X120750000Y-71650000D01*
X120102155Y-71650000D01*
X120042627Y-71656401D01*
X120042620Y-71656403D01*
X119907913Y-71706645D01*
X119907906Y-71706649D01*
X119792812Y-71792809D01*
X119792809Y-71792812D01*
X119706649Y-71907906D01*
X119706645Y-71907913D01*
X119656403Y-72042620D01*
X119656401Y-72042627D01*
X119650000Y-72102155D01*
X119650000Y-72750000D01*
X120566988Y-72750000D01*
X120534075Y-72807007D01*
X120500000Y-72934174D01*
X120500000Y-73065826D01*
X120534075Y-73192993D01*
X120566988Y-73250000D01*
X119650000Y-73250000D01*
X119650000Y-73359981D01*
X119630315Y-73427020D01*
X119577511Y-73472775D01*
X119508353Y-73482719D01*
X119444797Y-73453694D01*
X119438319Y-73447662D01*
X116552338Y-70561681D01*
X116518853Y-70500358D01*
X116523837Y-70430666D01*
X116565709Y-70374733D01*
X116631173Y-70350316D01*
X116640019Y-70350000D01*
X116725000Y-70350000D01*
X116725000Y-69433012D01*
X116782007Y-69465925D01*
X116909174Y-69500000D01*
X117040826Y-69500000D01*
X117167993Y-69465925D01*
X117225000Y-69433012D01*
X117225000Y-70350000D01*
X117872828Y-70350000D01*
X117872844Y-70349999D01*
X117932372Y-70343598D01*
X117932379Y-70343596D01*
X118067086Y-70293354D01*
X118067093Y-70293350D01*
X118182187Y-70207190D01*
X118182190Y-70207187D01*
X118268350Y-70092093D01*
X118268354Y-70092086D01*
X118318596Y-69957379D01*
X118318598Y-69957372D01*
X118324999Y-69897844D01*
X118325000Y-69897827D01*
X118325000Y-69250000D01*
X117408012Y-69250000D01*
X117440925Y-69192993D01*
X117475000Y-69065826D01*
X117475000Y-68934174D01*
X117440925Y-68807007D01*
X117408012Y-68750000D01*
X118325000Y-68750000D01*
X118325000Y-68102172D01*
X118324999Y-68102155D01*
X118318598Y-68042627D01*
X118318596Y-68042620D01*
X118268354Y-67907913D01*
X118268350Y-67907906D01*
X118182190Y-67792812D01*
X118182187Y-67792809D01*
X118067093Y-67706649D01*
X118067088Y-67706646D01*
X117935528Y-67657577D01*
X117879595Y-67615705D01*
X117855178Y-67550241D01*
X117870030Y-67481968D01*
X117891175Y-67453720D01*
X118005104Y-67339792D01*
X118130051Y-67167816D01*
X118226557Y-66978412D01*
X118292246Y-66776243D01*
X118325500Y-66566287D01*
X118325500Y-66353713D01*
X118292246Y-66143757D01*
X118226557Y-65941588D01*
X118130051Y-65752184D01*
X118130049Y-65752181D01*
X118100657Y-65711725D01*
X118100656Y-65711724D01*
X118051243Y-65643713D01*
X118899500Y-65643713D01*
X118899500Y-65856287D01*
X118932754Y-66066243D01*
X118955402Y-66135947D01*
X118998444Y-66268414D01*
X119094951Y-66457820D01*
X119219890Y-66629786D01*
X119370213Y-66780109D01*
X119542179Y-66905048D01*
X119542181Y-66905049D01*
X119542184Y-66905051D01*
X119731588Y-67001557D01*
X119933757Y-67067246D01*
X120143713Y-67100500D01*
X120143714Y-67100500D01*
X120356286Y-67100500D01*
X120356287Y-67100500D01*
X120566243Y-67067246D01*
X120768412Y-67001557D01*
X120957816Y-66905051D01*
X120979789Y-66889086D01*
X121129786Y-66780109D01*
X121129788Y-66780106D01*
X121129792Y-66780104D01*
X121280104Y-66629792D01*
X121280106Y-66629788D01*
X121280109Y-66629786D01*
X121405048Y-66457820D01*
X121405047Y-66457820D01*
X121405051Y-66457816D01*
X121501557Y-66268412D01*
X121567246Y-66066243D01*
X121600500Y-65856287D01*
X121600500Y-65643713D01*
X121567246Y-65433757D01*
X121501557Y-65231588D01*
X121405051Y-65042184D01*
X121405049Y-65042181D01*
X121405048Y-65042179D01*
X121280109Y-64870213D01*
X121129786Y-64719890D01*
X120957820Y-64594951D01*
X120768414Y-64498444D01*
X120768413Y-64498443D01*
X120768412Y-64498443D01*
X120566243Y-64432754D01*
X120566241Y-64432753D01*
X120566240Y-64432753D01*
X120404957Y-64407208D01*
X120356287Y-64399500D01*
X120143713Y-64399500D01*
X120095042Y-64407208D01*
X119933760Y-64432753D01*
X119731585Y-64498444D01*
X119542179Y-64594951D01*
X119370213Y-64719890D01*
X119219890Y-64870213D01*
X119094951Y-65042179D01*
X118998444Y-65231585D01*
X118932753Y-65433760D01*
X118909558Y-65580208D01*
X118899500Y-65643713D01*
X118051243Y-65643713D01*
X118005109Y-65580214D01*
X118005105Y-65580209D01*
X117854786Y-65429890D01*
X117682820Y-65304951D01*
X117682115Y-65304591D01*
X117674054Y-65300485D01*
X117623259Y-65252512D01*
X117606463Y-65184692D01*
X117628999Y-65118556D01*
X117674054Y-65079515D01*
X117682816Y-65075051D01*
X117728061Y-65042179D01*
X117854786Y-64950109D01*
X117854788Y-64950106D01*
X117854792Y-64950104D01*
X118005104Y-64799792D01*
X118005106Y-64799788D01*
X118005109Y-64799786D01*
X118130048Y-64627820D01*
X118130047Y-64627820D01*
X118130051Y-64627816D01*
X118226557Y-64438412D01*
X118292246Y-64236243D01*
X118325500Y-64026287D01*
X118325500Y-63813713D01*
X118292246Y-63603757D01*
X118226557Y-63401588D01*
X118130051Y-63212184D01*
X118130049Y-63212181D01*
X118130048Y-63212179D01*
X118005109Y-63040213D01*
X117854786Y-62889890D01*
X117682820Y-62764951D01*
X117682115Y-62764591D01*
X117674054Y-62760485D01*
X117623259Y-62712512D01*
X117606463Y-62644692D01*
X117628999Y-62578556D01*
X117674054Y-62539515D01*
X117682816Y-62535051D01*
X117728920Y-62501555D01*
X117854786Y-62410109D01*
X117854788Y-62410106D01*
X117854792Y-62410104D01*
X118005104Y-62259792D01*
X118005106Y-62259788D01*
X118005109Y-62259786D01*
X118130048Y-62087820D01*
X118130047Y-62087820D01*
X118130051Y-62087816D01*
X118226557Y-61898412D01*
X118292246Y-61696243D01*
X118325500Y-61486287D01*
X118325500Y-61273713D01*
X118325500Y-61273712D01*
X118307211Y-61158238D01*
X118304910Y-61143713D01*
X118899500Y-61143713D01*
X118899500Y-61356286D01*
X118925238Y-61518793D01*
X118932754Y-61566243D01*
X118974992Y-61696239D01*
X118998444Y-61768414D01*
X119094951Y-61957820D01*
X119219890Y-62129786D01*
X119370213Y-62280109D01*
X119542179Y-62405048D01*
X119542181Y-62405049D01*
X119542184Y-62405051D01*
X119731588Y-62501557D01*
X119933757Y-62567246D01*
X120143713Y-62600500D01*
X120143714Y-62600500D01*
X120356286Y-62600500D01*
X120356287Y-62600500D01*
X120566243Y-62567246D01*
X120768412Y-62501557D01*
X120957816Y-62405051D01*
X120997097Y-62376512D01*
X121129786Y-62280109D01*
X121129788Y-62280106D01*
X121129792Y-62280104D01*
X121280104Y-62129792D01*
X121280106Y-62129788D01*
X121280109Y-62129786D01*
X121405048Y-61957820D01*
X121405047Y-61957820D01*
X121405051Y-61957816D01*
X121501557Y-61768412D01*
X121567246Y-61566243D01*
X121600500Y-61356287D01*
X121600500Y-61143713D01*
X125399500Y-61143713D01*
X125399500Y-61356286D01*
X125425238Y-61518793D01*
X125432754Y-61566243D01*
X125474992Y-61696239D01*
X125498444Y-61768414D01*
X125594951Y-61957820D01*
X125719890Y-62129786D01*
X125870213Y-62280109D01*
X126042179Y-62405048D01*
X126042181Y-62405049D01*
X126042184Y-62405051D01*
X126231588Y-62501557D01*
X126433757Y-62567246D01*
X126643713Y-62600500D01*
X126643714Y-62600500D01*
X126856286Y-62600500D01*
X126856287Y-62600500D01*
X127066243Y-62567246D01*
X127268412Y-62501557D01*
X127457816Y-62405051D01*
X127497097Y-62376512D01*
X127629786Y-62280109D01*
X127629788Y-62280106D01*
X127629792Y-62280104D01*
X127780104Y-62129792D01*
X127780106Y-62129788D01*
X127780109Y-62129786D01*
X127905048Y-61957820D01*
X127905047Y-61957820D01*
X127905051Y-61957816D01*
X128001557Y-61768412D01*
X128067246Y-61566243D01*
X128100500Y-61356287D01*
X128100500Y-61143713D01*
X128067246Y-60933757D01*
X128001557Y-60731588D01*
X127905051Y-60542184D01*
X127905049Y-60542181D01*
X127905048Y-60542179D01*
X127780109Y-60370213D01*
X127629786Y-60219890D01*
X127457820Y-60094951D01*
X127268414Y-59998444D01*
X127268413Y-59998443D01*
X127268412Y-59998443D01*
X127066243Y-59932754D01*
X127066241Y-59932753D01*
X127066240Y-59932753D01*
X126904957Y-59907208D01*
X126856287Y-59899500D01*
X126643713Y-59899500D01*
X126595042Y-59907208D01*
X126433760Y-59932753D01*
X126231585Y-59998444D01*
X126042179Y-60094951D01*
X125870213Y-60219890D01*
X125719890Y-60370213D01*
X125594951Y-60542179D01*
X125498444Y-60731585D01*
X125432753Y-60933760D01*
X125399500Y-61143713D01*
X121600500Y-61143713D01*
X121567246Y-60933757D01*
X121501557Y-60731588D01*
X121405051Y-60542184D01*
X121405049Y-60542181D01*
X121405048Y-60542179D01*
X121280109Y-60370213D01*
X121129786Y-60219890D01*
X120957820Y-60094951D01*
X120768414Y-59998444D01*
X120768413Y-59998443D01*
X120768412Y-59998443D01*
X120566243Y-59932754D01*
X120566241Y-59932753D01*
X120566240Y-59932753D01*
X120404957Y-59907208D01*
X120356287Y-59899500D01*
X120143713Y-59899500D01*
X120095042Y-59907208D01*
X119933760Y-59932753D01*
X119731585Y-59998444D01*
X119542179Y-60094951D01*
X119370213Y-60219890D01*
X119219890Y-60370213D01*
X119094951Y-60542179D01*
X118998444Y-60731585D01*
X118932753Y-60933760D01*
X118899500Y-61143713D01*
X118304910Y-61143713D01*
X118292246Y-61063760D01*
X118292246Y-61063757D01*
X118226557Y-60861588D01*
X118130051Y-60672184D01*
X118130049Y-60672181D01*
X118130048Y-60672179D01*
X118005109Y-60500213D01*
X117854786Y-60349890D01*
X117682820Y-60224951D01*
X117493414Y-60128444D01*
X117493413Y-60128443D01*
X117493412Y-60128443D01*
X117291243Y-60062754D01*
X117291241Y-60062753D01*
X117291240Y-60062753D01*
X117092986Y-60031353D01*
X117081287Y-60029500D01*
X116868713Y-60029500D01*
X116857014Y-60031353D01*
X116658759Y-60062753D01*
X116658755Y-60062754D01*
X116586817Y-60086128D01*
X116516976Y-60088123D01*
X116457143Y-60052042D01*
X116426316Y-59989341D01*
X116424500Y-59968197D01*
X116424500Y-58532045D01*
X116444185Y-58465006D01*
X116496989Y-58419251D01*
X116566147Y-58409307D01*
X116591833Y-58415863D01*
X116667517Y-58444091D01*
X116667516Y-58444091D01*
X116674444Y-58444835D01*
X116727127Y-58450500D01*
X118272872Y-58450499D01*
X118332483Y-58444091D01*
X118467331Y-58393796D01*
X118582546Y-58307546D01*
X118668796Y-58192331D01*
X118691609Y-58131167D01*
X118733480Y-58075233D01*
X118798944Y-58050816D01*
X118807791Y-58050500D01*
X119692209Y-58050500D01*
X119759248Y-58070185D01*
X119805003Y-58122989D01*
X119808391Y-58131167D01*
X119831202Y-58192328D01*
X119831206Y-58192335D01*
X119917452Y-58307544D01*
X119917455Y-58307547D01*
X120032664Y-58393793D01*
X120032671Y-58393797D01*
X120167517Y-58444091D01*
X120167516Y-58444091D01*
X120174444Y-58444835D01*
X120227127Y-58450500D01*
X121772872Y-58450499D01*
X121832483Y-58444091D01*
X121967331Y-58393796D01*
X122082546Y-58307546D01*
X122168796Y-58192331D01*
X122191609Y-58131167D01*
X122233480Y-58075233D01*
X122298944Y-58050816D01*
X122307791Y-58050500D01*
X123192209Y-58050500D01*
X123259248Y-58070185D01*
X123305003Y-58122989D01*
X123308391Y-58131167D01*
X123331202Y-58192328D01*
X123331206Y-58192335D01*
X123417452Y-58307544D01*
X123417455Y-58307547D01*
X123532664Y-58393793D01*
X123532671Y-58393797D01*
X123667517Y-58444091D01*
X123667516Y-58444091D01*
X123674444Y-58444835D01*
X123727127Y-58450500D01*
X125272872Y-58450499D01*
X125332483Y-58444091D01*
X125467331Y-58393796D01*
X125582546Y-58307546D01*
X125668796Y-58192331D01*
X125691609Y-58131167D01*
X125733480Y-58075233D01*
X125798944Y-58050816D01*
X125807791Y-58050500D01*
X125920943Y-58050500D01*
X126420943Y-58050500D01*
X126692209Y-58050500D01*
X126759248Y-58070185D01*
X126805003Y-58122989D01*
X126808391Y-58131167D01*
X126831202Y-58192328D01*
X126831206Y-58192335D01*
X126917452Y-58307544D01*
X126917455Y-58307547D01*
X127032664Y-58393793D01*
X127032671Y-58393797D01*
X127167517Y-58444091D01*
X127167516Y-58444091D01*
X127174444Y-58444835D01*
X127227127Y-58450500D01*
X128772872Y-58450499D01*
X128832483Y-58444091D01*
X128967331Y-58393796D01*
X129082546Y-58307546D01*
X129168796Y-58192331D01*
X129219091Y-58057483D01*
X129225500Y-57997873D01*
X129225499Y-56902128D01*
X129219091Y-56842517D01*
X129214353Y-56829815D01*
X129168797Y-56707671D01*
X129168793Y-56707664D01*
X129082547Y-56592455D01*
X129077773Y-56587681D01*
X129044288Y-56526358D01*
X129049272Y-56456666D01*
X129077773Y-56412319D01*
X129082542Y-56407548D01*
X129082546Y-56407546D01*
X129168796Y-56292331D01*
X129219091Y-56157483D01*
X129225500Y-56097873D01*
X129225499Y-55002128D01*
X129219091Y-54942517D01*
X129209764Y-54917511D01*
X129168797Y-54807671D01*
X129168793Y-54807664D01*
X129082547Y-54692455D01*
X129082544Y-54692452D01*
X128967335Y-54606206D01*
X128967328Y-54606202D01*
X128832482Y-54555908D01*
X128832483Y-54555908D01*
X128772883Y-54549501D01*
X128772881Y-54549500D01*
X128772873Y-54549500D01*
X128772864Y-54549500D01*
X127227129Y-54549500D01*
X127227123Y-54549501D01*
X127167516Y-54555908D01*
X127032671Y-54606202D01*
X127032664Y-54606206D01*
X126917455Y-54692452D01*
X126917452Y-54692455D01*
X126831206Y-54807664D01*
X126831202Y-54807671D01*
X126780908Y-54942517D01*
X126774957Y-54997872D01*
X126774501Y-55002123D01*
X126774500Y-55002135D01*
X126774500Y-56097870D01*
X126774501Y-56097876D01*
X126780908Y-56157483D01*
X126831202Y-56292328D01*
X126831206Y-56292335D01*
X126917452Y-56407544D01*
X126922227Y-56412319D01*
X126955712Y-56473642D01*
X126950728Y-56543334D01*
X126922227Y-56587681D01*
X126917452Y-56592455D01*
X126831206Y-56707664D01*
X126831202Y-56707671D01*
X126808391Y-56768833D01*
X126766520Y-56824767D01*
X126701056Y-56849184D01*
X126692209Y-56849500D01*
X125807791Y-56849500D01*
X125740752Y-56829815D01*
X125694997Y-56777011D01*
X125691609Y-56768833D01*
X125668797Y-56707671D01*
X125668793Y-56707664D01*
X125582547Y-56592455D01*
X125577773Y-56587681D01*
X125544288Y-56526358D01*
X125549272Y-56456666D01*
X125577773Y-56412319D01*
X125582542Y-56407548D01*
X125582546Y-56407546D01*
X125668796Y-56292331D01*
X125719091Y-56157483D01*
X125725500Y-56097873D01*
X125725499Y-55002128D01*
X125719091Y-54942517D01*
X125709764Y-54917511D01*
X125668797Y-54807671D01*
X125668793Y-54807664D01*
X125582547Y-54692455D01*
X125582544Y-54692452D01*
X125467335Y-54606206D01*
X125467328Y-54606202D01*
X125332482Y-54555908D01*
X125332483Y-54555908D01*
X125272883Y-54549501D01*
X125272881Y-54549500D01*
X125272873Y-54549500D01*
X125272865Y-54549500D01*
X124822096Y-54549500D01*
X124755057Y-54529815D01*
X124709302Y-54477011D01*
X124699358Y-54407853D01*
X124728383Y-54344297D01*
X124734415Y-54337819D01*
X125514390Y-53557844D01*
X130265000Y-53557844D01*
X130271401Y-53617372D01*
X130271403Y-53617379D01*
X130321645Y-53752086D01*
X130321649Y-53752093D01*
X130407809Y-53867187D01*
X130407812Y-53867190D01*
X130522906Y-53953350D01*
X130522913Y-53953354D01*
X130657620Y-54003596D01*
X130657627Y-54003598D01*
X130717155Y-54009999D01*
X130717172Y-54010000D01*
X131141000Y-54010000D01*
X131208039Y-54029685D01*
X131253794Y-54082489D01*
X131265000Y-54134000D01*
X131265000Y-54250000D01*
X133735000Y-54250000D01*
X133735000Y-53942172D01*
X133734999Y-53942155D01*
X133728598Y-53882627D01*
X133728596Y-53882620D01*
X133678354Y-53747913D01*
X133678350Y-53747906D01*
X133592190Y-53632812D01*
X133592187Y-53632809D01*
X133477093Y-53546649D01*
X133477086Y-53546645D01*
X133342379Y-53496403D01*
X133342372Y-53496401D01*
X133282844Y-53490000D01*
X132859000Y-53490000D01*
X132791961Y-53470315D01*
X132746206Y-53417511D01*
X132735000Y-53366000D01*
X132735000Y-53250000D01*
X130265000Y-53250000D01*
X130265000Y-53557844D01*
X125514390Y-53557844D01*
X128230099Y-50842135D01*
X130264500Y-50842135D01*
X130264500Y-51957870D01*
X130264501Y-51957876D01*
X130270908Y-52017483D01*
X130323087Y-52157381D01*
X130328071Y-52227073D01*
X130323087Y-52244047D01*
X130271403Y-52382619D01*
X130271401Y-52382627D01*
X130265000Y-52442155D01*
X130265000Y-52750000D01*
X132735000Y-52750000D01*
X132735000Y-52442172D01*
X132734999Y-52442155D01*
X132728598Y-52382627D01*
X132728597Y-52382623D01*
X132676911Y-52244048D01*
X132671927Y-52174356D01*
X132676911Y-52157380D01*
X132678792Y-52152335D01*
X132678796Y-52152331D01*
X132729091Y-52017483D01*
X132735500Y-51957873D01*
X132735499Y-50842128D01*
X132729091Y-50782517D01*
X132688196Y-50672873D01*
X132678797Y-50647671D01*
X132678793Y-50647664D01*
X132592547Y-50532455D01*
X132592544Y-50532452D01*
X132477335Y-50446206D01*
X132477328Y-50446202D01*
X132342482Y-50395908D01*
X132342483Y-50395908D01*
X132282883Y-50389501D01*
X132282881Y-50389500D01*
X132282873Y-50389500D01*
X132282864Y-50389500D01*
X130717129Y-50389500D01*
X130717123Y-50389501D01*
X130657516Y-50395908D01*
X130522671Y-50446202D01*
X130522664Y-50446206D01*
X130407455Y-50532452D01*
X130407452Y-50532455D01*
X130321206Y-50647664D01*
X130321202Y-50647671D01*
X130270908Y-50782517D01*
X130264501Y-50842116D01*
X130264501Y-50842123D01*
X130264500Y-50842135D01*
X128230099Y-50842135D01*
X128321109Y-50751125D01*
X128855063Y-50217172D01*
X132909416Y-46162819D01*
X132970739Y-46129334D01*
X132997097Y-46126500D01*
X136337331Y-46126500D01*
X136337347Y-46126501D01*
X136344943Y-46126501D01*
X136503054Y-46126501D01*
X136503057Y-46126501D01*
X136655785Y-46085577D01*
X136705904Y-46056639D01*
X136792716Y-46006520D01*
X136904520Y-45894716D01*
X136904521Y-45894713D01*
X137037418Y-45761815D01*
X137098739Y-45728333D01*
X137125097Y-45725499D01*
X137997871Y-45725499D01*
X137997872Y-45725499D01*
X138057483Y-45719091D01*
X138192331Y-45668796D01*
X138307546Y-45582546D01*
X138393796Y-45467331D01*
X138444091Y-45332483D01*
X138450500Y-45272873D01*
X138450499Y-43727128D01*
X138444091Y-43667517D01*
X138436172Y-43646286D01*
X138393797Y-43532671D01*
X138393793Y-43532664D01*
X138307547Y-43417455D01*
X138307544Y-43417452D01*
X138185231Y-43325888D01*
X138186752Y-43323855D01*
X138146823Y-43283925D01*
X138131972Y-43215652D01*
X138156390Y-43150188D01*
X138212324Y-43108318D01*
X138255656Y-43100500D01*
X138699903Y-43100500D01*
X138766942Y-43120185D01*
X138787583Y-43136818D01*
X144211284Y-48560520D01*
X144211286Y-48560521D01*
X144211290Y-48560524D01*
X144332553Y-48630534D01*
X144348216Y-48639577D01*
X144500943Y-48680501D01*
X144500945Y-48680501D01*
X144666654Y-48680501D01*
X144666670Y-48680500D01*
X147313270Y-48680500D01*
X147380309Y-48700185D01*
X147417191Y-48737866D01*
X147417349Y-48737752D01*
X147418127Y-48738823D01*
X147419000Y-48739715D01*
X147420210Y-48741690D01*
X147420213Y-48741694D01*
X147537019Y-48902464D01*
X147677536Y-49042981D01*
X147838306Y-49159787D01*
X147893616Y-49187969D01*
X148015367Y-49250005D01*
X148015370Y-49250006D01*
X148096616Y-49276404D01*
X148204364Y-49311413D01*
X148400639Y-49342500D01*
X148400640Y-49342500D01*
X148599360Y-49342500D01*
X148599361Y-49342500D01*
X148795636Y-49311413D01*
X148984632Y-49250005D01*
X149161694Y-49159787D01*
X149322464Y-49042981D01*
X149462981Y-48902464D01*
X149579787Y-48741694D01*
X149670005Y-48564632D01*
X149731413Y-48375636D01*
X149762500Y-48179361D01*
X149762500Y-47980639D01*
X149731413Y-47784364D01*
X149670005Y-47595368D01*
X149670005Y-47595367D01*
X149600937Y-47459815D01*
X149579787Y-47418306D01*
X149462981Y-47257536D01*
X149322464Y-47117019D01*
X149161694Y-47000213D01*
X149004667Y-46920203D01*
X148953872Y-46872229D01*
X148937077Y-46804408D01*
X148959614Y-46738273D01*
X149004669Y-46699234D01*
X149161422Y-46619364D01*
X149198716Y-46592268D01*
X148635942Y-46029494D01*
X148696081Y-46013381D01*
X148811920Y-45946502D01*
X148906502Y-45851920D01*
X148973381Y-45736081D01*
X148989495Y-45675942D01*
X149552268Y-46238715D01*
X149579362Y-46201425D01*
X149669542Y-46024437D01*
X149730924Y-45835523D01*
X149730924Y-45835520D01*
X149762000Y-45639321D01*
X149762000Y-45440678D01*
X149730924Y-45244479D01*
X149730924Y-45244476D01*
X149669544Y-45055568D01*
X149668018Y-45051884D01*
X149660545Y-44982415D01*
X149691815Y-44919933D01*
X149751902Y-44884277D01*
X149821727Y-44886766D01*
X149856887Y-44905157D01*
X149907906Y-44943350D01*
X149907913Y-44943354D01*
X150042620Y-44993596D01*
X150042627Y-44993598D01*
X150102155Y-44999999D01*
X150102172Y-45000000D01*
X150250000Y-45000000D01*
X150750000Y-45000000D01*
X150897828Y-45000000D01*
X150897844Y-44999999D01*
X150957372Y-44993598D01*
X150957379Y-44993596D01*
X151092086Y-44943354D01*
X151092093Y-44943350D01*
X151207187Y-44857190D01*
X151207190Y-44857187D01*
X151293350Y-44742093D01*
X151293354Y-44742086D01*
X151343596Y-44607379D01*
X151343598Y-44607372D01*
X151349999Y-44547844D01*
X151350000Y-44547827D01*
X151350000Y-44425000D01*
X150750000Y-44425000D01*
X150750000Y-45000000D01*
X150250000Y-45000000D01*
X150250000Y-44425000D01*
X149650000Y-44425000D01*
X149650000Y-44547844D01*
X149656401Y-44607372D01*
X149656403Y-44607380D01*
X149681471Y-44674591D01*
X149686455Y-44744283D01*
X149652969Y-44805606D01*
X149591646Y-44839090D01*
X149555562Y-44841542D01*
X149552269Y-44841282D01*
X148989494Y-45404057D01*
X148973381Y-45343919D01*
X148906502Y-45228080D01*
X148811920Y-45133498D01*
X148696081Y-45066619D01*
X148635942Y-45050504D01*
X149198716Y-44487731D01*
X149198715Y-44487730D01*
X149161432Y-44460641D01*
X149004668Y-44380765D01*
X148953872Y-44332790D01*
X148937077Y-44264969D01*
X148959615Y-44198834D01*
X149004667Y-44159796D01*
X149161694Y-44079787D01*
X149322464Y-43962981D01*
X149438319Y-43847126D01*
X149499642Y-43813641D01*
X149569334Y-43818625D01*
X149625267Y-43860497D01*
X149648924Y-43923924D01*
X149650000Y-43925000D01*
X151350000Y-43925000D01*
X151350000Y-43802172D01*
X151349999Y-43802155D01*
X151343598Y-43742627D01*
X151343596Y-43742620D01*
X151293354Y-43607913D01*
X151293352Y-43607910D01*
X151268512Y-43574728D01*
X151244094Y-43509264D01*
X151258945Y-43440990D01*
X151268505Y-43426114D01*
X151293796Y-43392331D01*
X151344091Y-43257483D01*
X151350500Y-43197873D01*
X151350499Y-42452128D01*
X151344091Y-42392517D01*
X151341268Y-42384949D01*
X151293797Y-42257671D01*
X151293793Y-42257664D01*
X151207547Y-42142455D01*
X151207544Y-42142452D01*
X151092335Y-42056206D01*
X151092328Y-42056202D01*
X150957482Y-42005908D01*
X150957483Y-42005908D01*
X150897883Y-41999501D01*
X150897881Y-41999500D01*
X150897873Y-41999500D01*
X150897864Y-41999500D01*
X150102129Y-41999500D01*
X150102123Y-41999501D01*
X150042516Y-42005908D01*
X149907671Y-42056202D01*
X149907664Y-42056206D01*
X149792455Y-42142452D01*
X149713077Y-42248487D01*
X149657143Y-42290357D01*
X149587451Y-42295341D01*
X149526129Y-42261855D01*
X149513493Y-42247060D01*
X149462983Y-42177539D01*
X149462978Y-42177533D01*
X149322466Y-42037021D01*
X149322464Y-42037019D01*
X149251613Y-41985542D01*
X149248273Y-41981211D01*
X149243297Y-41978939D01*
X149227166Y-41953839D01*
X149208949Y-41930214D01*
X149207696Y-41923542D01*
X149205523Y-41920161D01*
X149200500Y-41885226D01*
X149200500Y-41839263D01*
X149220185Y-41772224D01*
X149272989Y-41726469D01*
X149342147Y-41716525D01*
X149367835Y-41723082D01*
X149382619Y-41728596D01*
X149382627Y-41728598D01*
X149442155Y-41734999D01*
X149442172Y-41735000D01*
X149750000Y-41735000D01*
X150250000Y-41735000D01*
X150557828Y-41735000D01*
X150557844Y-41734999D01*
X150617372Y-41728598D01*
X150617379Y-41728596D01*
X150752086Y-41678354D01*
X150752093Y-41678350D01*
X150867187Y-41592190D01*
X150867190Y-41592187D01*
X150953350Y-41477093D01*
X150953354Y-41477086D01*
X151003596Y-41342379D01*
X151003598Y-41342372D01*
X151009999Y-41282844D01*
X151010000Y-41282827D01*
X151010000Y-40750000D01*
X150250000Y-40750000D01*
X150250000Y-41735000D01*
X149750000Y-41735000D01*
X149750000Y-40250000D01*
X150250000Y-40250000D01*
X151010000Y-40250000D01*
X151010000Y-39717172D01*
X151009999Y-39717155D01*
X151003598Y-39657627D01*
X151003596Y-39657620D01*
X150953354Y-39522913D01*
X150953350Y-39522906D01*
X150867190Y-39407812D01*
X150867187Y-39407809D01*
X150752093Y-39321649D01*
X150752086Y-39321645D01*
X150617379Y-39271403D01*
X150617372Y-39271401D01*
X150557844Y-39265000D01*
X150250000Y-39265000D01*
X150250000Y-40250000D01*
X149750000Y-40250000D01*
X149750000Y-39265000D01*
X149442155Y-39265000D01*
X149382627Y-39271401D01*
X149382619Y-39271403D01*
X149244047Y-39323087D01*
X149174355Y-39328071D01*
X149157381Y-39323087D01*
X149017482Y-39270908D01*
X149017483Y-39270908D01*
X148957883Y-39264501D01*
X148957881Y-39264500D01*
X148957873Y-39264500D01*
X148957864Y-39264500D01*
X147842129Y-39264500D01*
X147842123Y-39264501D01*
X147782516Y-39270908D01*
X147647671Y-39321202D01*
X147647664Y-39321206D01*
X147532455Y-39407452D01*
X147532452Y-39407455D01*
X147446206Y-39522664D01*
X147446202Y-39522671D01*
X147395908Y-39657517D01*
X147389501Y-39717116D01*
X147389500Y-39717135D01*
X147389500Y-41282870D01*
X147389501Y-41282876D01*
X147395908Y-41342483D01*
X147446202Y-41477328D01*
X147446206Y-41477335D01*
X147532452Y-41592544D01*
X147532455Y-41592547D01*
X147647664Y-41678793D01*
X147647673Y-41678798D01*
X147718832Y-41705338D01*
X147736558Y-41718607D01*
X147756703Y-41727807D01*
X147763984Y-41739137D01*
X147774766Y-41747208D01*
X147782504Y-41767956D01*
X147794477Y-41786585D01*
X147797628Y-41808500D01*
X147799184Y-41812672D01*
X147799500Y-41821520D01*
X147799500Y-41885226D01*
X147779815Y-41952265D01*
X147748387Y-41985542D01*
X147701678Y-42019479D01*
X147677533Y-42037021D01*
X147537021Y-42177533D01*
X147537019Y-42177536D01*
X147485542Y-42248386D01*
X147430214Y-42291051D01*
X147385226Y-42299500D01*
X147037320Y-42299500D01*
X146970281Y-42279815D01*
X146938052Y-42249809D01*
X146932548Y-42242457D01*
X146932546Y-42242454D01*
X146909619Y-42225291D01*
X146817335Y-42156206D01*
X146817328Y-42156202D01*
X146682482Y-42105908D01*
X146682483Y-42105908D01*
X146622883Y-42099501D01*
X146622881Y-42099500D01*
X146622873Y-42099500D01*
X146622864Y-42099500D01*
X144377129Y-42099500D01*
X144377123Y-42099501D01*
X144317516Y-42105908D01*
X144182671Y-42156202D01*
X144182664Y-42156206D01*
X144067455Y-42242452D01*
X144067452Y-42242455D01*
X143981206Y-42357664D01*
X143981202Y-42357671D01*
X143930908Y-42492517D01*
X143924501Y-42552116D01*
X143924500Y-42552135D01*
X143924500Y-44847870D01*
X143924501Y-44847876D01*
X143930908Y-44907483D01*
X143981202Y-45042328D01*
X143981206Y-45042335D01*
X144067452Y-45157544D01*
X144067455Y-45157547D01*
X144182664Y-45243793D01*
X144182671Y-45243797D01*
X144317517Y-45294091D01*
X144317516Y-45294091D01*
X144324444Y-45294835D01*
X144377127Y-45300500D01*
X146622872Y-45300499D01*
X146682483Y-45294091D01*
X146817331Y-45243796D01*
X146932546Y-45157546D01*
X147018796Y-45042331D01*
X147069091Y-44907483D01*
X147075500Y-44847873D01*
X147075500Y-43824500D01*
X147078050Y-43815814D01*
X147076762Y-43806853D01*
X147087740Y-43782812D01*
X147095185Y-43757461D01*
X147102025Y-43751533D01*
X147105787Y-43743297D01*
X147128021Y-43729007D01*
X147147989Y-43711706D01*
X147158503Y-43709418D01*
X147164565Y-43705523D01*
X147199500Y-43700500D01*
X147385226Y-43700500D01*
X147452265Y-43720185D01*
X147485542Y-43751612D01*
X147537019Y-43822464D01*
X147677536Y-43962981D01*
X147838306Y-44079787D01*
X147995332Y-44159796D01*
X148046127Y-44207769D01*
X148062922Y-44275590D01*
X148040385Y-44341725D01*
X147995332Y-44380764D01*
X147838566Y-44460641D01*
X147801283Y-44487729D01*
X147801282Y-44487730D01*
X148364058Y-45050504D01*
X148303919Y-45066619D01*
X148188080Y-45133498D01*
X148093498Y-45228080D01*
X148026619Y-45343919D01*
X148010504Y-45404057D01*
X147447730Y-44841282D01*
X147447729Y-44841283D01*
X147420643Y-44878564D01*
X147330457Y-45055562D01*
X147269075Y-45244476D01*
X147269075Y-45244479D01*
X147238000Y-45440678D01*
X147238000Y-45639321D01*
X147269075Y-45835520D01*
X147269075Y-45835523D01*
X147330457Y-46024437D01*
X147420641Y-46201432D01*
X147447730Y-46238715D01*
X147447731Y-46238716D01*
X148010504Y-45675942D01*
X148026619Y-45736081D01*
X148093498Y-45851920D01*
X148188080Y-45946502D01*
X148303919Y-46013381D01*
X148364057Y-46029494D01*
X147801283Y-46592268D01*
X147801283Y-46592269D01*
X147838567Y-46619358D01*
X147995331Y-46699234D01*
X148046127Y-46747209D01*
X148062922Y-46815030D01*
X148040384Y-46881165D01*
X147995331Y-46920204D01*
X147838305Y-47000213D01*
X147677533Y-47117021D01*
X147537021Y-47257533D01*
X147420210Y-47418309D01*
X147419000Y-47420285D01*
X147418343Y-47420878D01*
X147417349Y-47422248D01*
X147417061Y-47422039D01*
X147367190Y-47467163D01*
X147313270Y-47479500D01*
X144880098Y-47479500D01*
X144813059Y-47459815D01*
X144792417Y-47443181D01*
X142872723Y-45523487D01*
X139985722Y-42636487D01*
X139487590Y-42138355D01*
X139487588Y-42138352D01*
X139368717Y-42019481D01*
X139368716Y-42019480D01*
X139281904Y-41969360D01*
X139281904Y-41969359D01*
X139281900Y-41969358D01*
X139231785Y-41940423D01*
X139079057Y-41899499D01*
X138920943Y-41899499D01*
X138913347Y-41899499D01*
X138913331Y-41899500D01*
X138574500Y-41899500D01*
X138507461Y-41879815D01*
X138461706Y-41827011D01*
X138450500Y-41775500D01*
X138450499Y-40447844D01*
X143925000Y-40447844D01*
X143931401Y-40507372D01*
X143931403Y-40507379D01*
X143981645Y-40642086D01*
X143981649Y-40642093D01*
X144067809Y-40757187D01*
X144067812Y-40757190D01*
X144182906Y-40843350D01*
X144182913Y-40843354D01*
X144317620Y-40893596D01*
X144317627Y-40893598D01*
X144377155Y-40899999D01*
X144377172Y-40900000D01*
X145250000Y-40900000D01*
X145750000Y-40900000D01*
X146622828Y-40900000D01*
X146622844Y-40899999D01*
X146682372Y-40893598D01*
X146682379Y-40893596D01*
X146817086Y-40843354D01*
X146817093Y-40843350D01*
X146932187Y-40757190D01*
X146932190Y-40757187D01*
X147018350Y-40642093D01*
X147018354Y-40642086D01*
X147068596Y-40507379D01*
X147068598Y-40507372D01*
X147074999Y-40447844D01*
X147075000Y-40447827D01*
X147075000Y-39550000D01*
X145750000Y-39550000D01*
X145750000Y-40900000D01*
X145250000Y-40900000D01*
X145250000Y-39550000D01*
X143925000Y-39550000D01*
X143925000Y-40447844D01*
X138450499Y-40447844D01*
X138450499Y-40227129D01*
X138450498Y-40227123D01*
X138450497Y-40227116D01*
X138444091Y-40167517D01*
X138397507Y-40042620D01*
X138393797Y-40032671D01*
X138393793Y-40032664D01*
X138307547Y-39917455D01*
X138307544Y-39917452D01*
X138192335Y-39831206D01*
X138192328Y-39831202D01*
X138057482Y-39780908D01*
X138057483Y-39780908D01*
X137997883Y-39774501D01*
X137997881Y-39774500D01*
X137997873Y-39774500D01*
X137997864Y-39774500D01*
X136902129Y-39774500D01*
X136902123Y-39774501D01*
X136842516Y-39780908D01*
X136707671Y-39831202D01*
X136707664Y-39831206D01*
X136592455Y-39917452D01*
X136587681Y-39922227D01*
X136526358Y-39955712D01*
X136456666Y-39950728D01*
X136412319Y-39922227D01*
X136407544Y-39917452D01*
X136292335Y-39831206D01*
X136292328Y-39831202D01*
X136157482Y-39780908D01*
X136157483Y-39780908D01*
X136097883Y-39774501D01*
X136097881Y-39774500D01*
X136097873Y-39774500D01*
X136097864Y-39774500D01*
X135002129Y-39774500D01*
X135002123Y-39774501D01*
X134942516Y-39780908D01*
X134807671Y-39831202D01*
X134807664Y-39831206D01*
X134692455Y-39917452D01*
X134692452Y-39917455D01*
X134606206Y-40032664D01*
X134606202Y-40032671D01*
X134555908Y-40167517D01*
X134553502Y-40189902D01*
X134549501Y-40227123D01*
X134549500Y-40227135D01*
X134549500Y-41100903D01*
X134529815Y-41167942D01*
X134477011Y-41213697D01*
X134407853Y-41223641D01*
X134344297Y-41194616D01*
X134337819Y-41188584D01*
X133426818Y-40277583D01*
X133393333Y-40216260D01*
X133390499Y-40189902D01*
X133390499Y-39932129D01*
X133390498Y-39932123D01*
X133389434Y-39922227D01*
X133384091Y-39872517D01*
X133380400Y-39862623D01*
X133375412Y-39792932D01*
X133380402Y-39775940D01*
X133383598Y-39767371D01*
X133389999Y-39707844D01*
X133390000Y-39707827D01*
X133390000Y-39618489D01*
X133263584Y-39609702D01*
X133234690Y-39598991D01*
X133205143Y-39590315D01*
X133198103Y-39585428D01*
X133198070Y-39585416D01*
X133198052Y-39585393D01*
X133197871Y-39585267D01*
X133132331Y-39536204D01*
X133132328Y-39536202D01*
X132997482Y-39485908D01*
X132997483Y-39485908D01*
X132937883Y-39479501D01*
X132937881Y-39479500D01*
X132937873Y-39479500D01*
X132658843Y-39479500D01*
X132658842Y-39479500D01*
X132501158Y-39479500D01*
X132501154Y-39479500D01*
X132454000Y-39479500D01*
X132386961Y-39459815D01*
X132341206Y-39407011D01*
X132330000Y-39355500D01*
X132330000Y-39110000D01*
X132830000Y-39110000D01*
X133390000Y-39110000D01*
X133390000Y-39012172D01*
X133389999Y-39012155D01*
X133383598Y-38952627D01*
X133383596Y-38952620D01*
X133333354Y-38817913D01*
X133333350Y-38817906D01*
X133247190Y-38702812D01*
X133247187Y-38702809D01*
X133132093Y-38616649D01*
X133132086Y-38616645D01*
X132997379Y-38566403D01*
X132997372Y-38566401D01*
X132937844Y-38560000D01*
X132830000Y-38560000D01*
X132830000Y-39110000D01*
X132330000Y-39110000D01*
X132330000Y-38560000D01*
X132222155Y-38560000D01*
X132162627Y-38566401D01*
X132162620Y-38566403D01*
X132027913Y-38616645D01*
X132027906Y-38616649D01*
X131912812Y-38702809D01*
X131912809Y-38702812D01*
X131826649Y-38817906D01*
X131826645Y-38817913D01*
X131800000Y-38889354D01*
X131800000Y-39646445D01*
X131809439Y-39669233D01*
X131807267Y-39670132D01*
X131821002Y-39695286D01*
X131816018Y-39764977D01*
X131775910Y-39872513D01*
X131775909Y-39872517D01*
X131769500Y-39932127D01*
X131769500Y-39932134D01*
X131769500Y-39932135D01*
X131769500Y-40627870D01*
X131769501Y-40627876D01*
X131775908Y-40687483D01*
X131802866Y-40759760D01*
X131807850Y-40829452D01*
X131801246Y-40850543D01*
X131800000Y-40853551D01*
X131800000Y-41550000D01*
X132047828Y-41550000D01*
X132047844Y-41549999D01*
X132107372Y-41543598D01*
X132107379Y-41543596D01*
X132242086Y-41493354D01*
X132242093Y-41493350D01*
X132357187Y-41407190D01*
X132357190Y-41407187D01*
X132443350Y-41292093D01*
X132443352Y-41292090D01*
X132457285Y-41254733D01*
X132499156Y-41198799D01*
X132564620Y-41174381D01*
X132632893Y-41189232D01*
X132661149Y-41210384D01*
X134315139Y-42864374D01*
X134315149Y-42864385D01*
X134319479Y-42868715D01*
X134319480Y-42868716D01*
X134431284Y-42980520D01*
X134431286Y-42980521D01*
X134431287Y-42980522D01*
X134502414Y-43021586D01*
X134502416Y-43021588D01*
X134502417Y-43021588D01*
X134568215Y-43059577D01*
X134720943Y-43100500D01*
X134744344Y-43100500D01*
X134811383Y-43120185D01*
X134857138Y-43172989D01*
X134867082Y-43242147D01*
X134838057Y-43305703D01*
X134814106Y-43325003D01*
X134814769Y-43325888D01*
X134692455Y-43417452D01*
X134692452Y-43417455D01*
X134606206Y-43532664D01*
X134606202Y-43532671D01*
X134555908Y-43667517D01*
X134551404Y-43709418D01*
X134549500Y-43727127D01*
X134549500Y-44275590D01*
X134549501Y-44801500D01*
X134529817Y-44868539D01*
X134477013Y-44914294D01*
X134425501Y-44925500D01*
X132783669Y-44925500D01*
X132783653Y-44925499D01*
X132776057Y-44925499D01*
X132617943Y-44925499D01*
X132503397Y-44956192D01*
X132465214Y-44966423D01*
X132445960Y-44977539D01*
X132440799Y-44980520D01*
X132384541Y-45013000D01*
X132328285Y-45045479D01*
X132328282Y-45045481D01*
X132216478Y-45157286D01*
X122413159Y-54960604D01*
X122351836Y-54994089D01*
X122282144Y-54989105D01*
X122226211Y-54947233D01*
X122209296Y-54916255D01*
X122168798Y-54807673D01*
X122168793Y-54807664D01*
X122082547Y-54692455D01*
X122082544Y-54692452D01*
X121967335Y-54606206D01*
X121967328Y-54606202D01*
X121832482Y-54555908D01*
X121832483Y-54555908D01*
X121772883Y-54549501D01*
X121772881Y-54549500D01*
X121772873Y-54549500D01*
X121772864Y-54549500D01*
X120227129Y-54549500D01*
X120227123Y-54549501D01*
X120167516Y-54555908D01*
X120032671Y-54606202D01*
X120032664Y-54606206D01*
X119917455Y-54692452D01*
X119917452Y-54692455D01*
X119831206Y-54807664D01*
X119831202Y-54807671D01*
X119780908Y-54942517D01*
X119774957Y-54997872D01*
X119774501Y-55002123D01*
X119774500Y-55002135D01*
X119774500Y-56097870D01*
X119774501Y-56097876D01*
X119780908Y-56157483D01*
X119831202Y-56292328D01*
X119831206Y-56292335D01*
X119917452Y-56407544D01*
X119922227Y-56412319D01*
X119955712Y-56473642D01*
X119950728Y-56543334D01*
X119922227Y-56587681D01*
X119917452Y-56592455D01*
X119831206Y-56707664D01*
X119831202Y-56707671D01*
X119808391Y-56768833D01*
X119766520Y-56824767D01*
X119701056Y-56849184D01*
X119692209Y-56849500D01*
X118807791Y-56849500D01*
X118740752Y-56829815D01*
X118694997Y-56777011D01*
X118691609Y-56768833D01*
X118668797Y-56707671D01*
X118668793Y-56707664D01*
X118582547Y-56592455D01*
X118577773Y-56587681D01*
X118544288Y-56526358D01*
X118549272Y-56456666D01*
X118577773Y-56412319D01*
X118582542Y-56407548D01*
X118582546Y-56407546D01*
X118668796Y-56292331D01*
X118719091Y-56157483D01*
X118725500Y-56097873D01*
X118725499Y-55002128D01*
X118719091Y-54942517D01*
X118709764Y-54917511D01*
X118668797Y-54807671D01*
X118668793Y-54807664D01*
X118582547Y-54692455D01*
X118582544Y-54692452D01*
X118467335Y-54606206D01*
X118467328Y-54606202D01*
X118332482Y-54555908D01*
X118332483Y-54555908D01*
X118272883Y-54549501D01*
X118272881Y-54549500D01*
X118272873Y-54549500D01*
X118272864Y-54549500D01*
X116727129Y-54549500D01*
X116727123Y-54549501D01*
X116667514Y-54555909D01*
X116591832Y-54584136D01*
X116522140Y-54589120D01*
X116460817Y-54555634D01*
X116427333Y-54494310D01*
X116424500Y-54467954D01*
X116424500Y-50023679D01*
X116444185Y-49956640D01*
X116496989Y-49910885D01*
X116566147Y-49900941D01*
X116586813Y-49905746D01*
X116683757Y-49937246D01*
X116893713Y-49970500D01*
X116893714Y-49970500D01*
X117106286Y-49970500D01*
X117106287Y-49970500D01*
X117316243Y-49937246D01*
X117518412Y-49871557D01*
X117707816Y-49775051D01*
X117731460Y-49757873D01*
X117879786Y-49650109D01*
X117879788Y-49650106D01*
X117879792Y-49650104D01*
X118030104Y-49499792D01*
X118030106Y-49499788D01*
X118030109Y-49499786D01*
X118144292Y-49342624D01*
X118155051Y-49327816D01*
X118251557Y-49138412D01*
X118317246Y-48936243D01*
X118350500Y-48726287D01*
X118350500Y-48513713D01*
X118317246Y-48303757D01*
X118251557Y-48101588D01*
X118155051Y-47912184D01*
X118155049Y-47912181D01*
X118155048Y-47912179D01*
X118030109Y-47740213D01*
X117879786Y-47589890D01*
X117707820Y-47464951D01*
X117707115Y-47464591D01*
X117699054Y-47460485D01*
X117648259Y-47412512D01*
X117631463Y-47344692D01*
X117653999Y-47278556D01*
X117699054Y-47239515D01*
X117707816Y-47235051D01*
X117729789Y-47219086D01*
X117879786Y-47110109D01*
X117879788Y-47110106D01*
X117879792Y-47110104D01*
X118030104Y-46959792D01*
X118030106Y-46959788D01*
X118030109Y-46959786D01*
X118155048Y-46787820D01*
X118155047Y-46787820D01*
X118155051Y-46787816D01*
X118251557Y-46598412D01*
X118317246Y-46396243D01*
X118350500Y-46186287D01*
X118350500Y-45973713D01*
X118317246Y-45763757D01*
X118251557Y-45561588D01*
X118155051Y-45372184D01*
X118155049Y-45372181D01*
X118155048Y-45372179D01*
X118030109Y-45200213D01*
X117879786Y-45049890D01*
X117707820Y-44924951D01*
X117707115Y-44924591D01*
X117699054Y-44920485D01*
X117648259Y-44872512D01*
X117631463Y-44804692D01*
X117653999Y-44738556D01*
X117699054Y-44699515D01*
X117707816Y-44695051D01*
X117828486Y-44607380D01*
X117879786Y-44570109D01*
X117879788Y-44570106D01*
X117879792Y-44570104D01*
X118030104Y-44419792D01*
X118030106Y-44419788D01*
X118030109Y-44419786D01*
X118142589Y-44264969D01*
X118155051Y-44247816D01*
X118251557Y-44058412D01*
X118317246Y-43856243D01*
X118350500Y-43646287D01*
X118350500Y-43433713D01*
X118317246Y-43223757D01*
X118251557Y-43021588D01*
X118155051Y-42832184D01*
X118155049Y-42832181D01*
X118155048Y-42832179D01*
X118030109Y-42660213D01*
X117916181Y-42546285D01*
X117882696Y-42484962D01*
X117887680Y-42415270D01*
X117929552Y-42359337D01*
X117960529Y-42342422D01*
X118092086Y-42293354D01*
X118092093Y-42293350D01*
X118207187Y-42207190D01*
X118207190Y-42207187D01*
X118293350Y-42092093D01*
X118293354Y-42092086D01*
X118343596Y-41957379D01*
X118343598Y-41957372D01*
X118349999Y-41897844D01*
X118350000Y-41897827D01*
X118350000Y-41250000D01*
X117433012Y-41250000D01*
X117465925Y-41192993D01*
X117491421Y-41097844D01*
X130600000Y-41097844D01*
X130606401Y-41157372D01*
X130606403Y-41157379D01*
X130656645Y-41292086D01*
X130656649Y-41292093D01*
X130742809Y-41407187D01*
X130742812Y-41407190D01*
X130857906Y-41493350D01*
X130857913Y-41493354D01*
X130992620Y-41543596D01*
X130992627Y-41543598D01*
X131052155Y-41549999D01*
X131052172Y-41550000D01*
X131300000Y-41550000D01*
X131300000Y-40853553D01*
X131166610Y-40720163D01*
X131400000Y-40720163D01*
X131400000Y-40779837D01*
X131422836Y-40834968D01*
X131465032Y-40877164D01*
X131520163Y-40900000D01*
X131579837Y-40900000D01*
X131634968Y-40877164D01*
X131677164Y-40834968D01*
X131700000Y-40779837D01*
X131700000Y-40720163D01*
X131677164Y-40665032D01*
X131634968Y-40622836D01*
X131579837Y-40600000D01*
X131520163Y-40600000D01*
X131465032Y-40622836D01*
X131422836Y-40665032D01*
X131400000Y-40720163D01*
X131166610Y-40720163D01*
X130946447Y-40500000D01*
X130600000Y-40500000D01*
X130600000Y-41097844D01*
X117491421Y-41097844D01*
X117500000Y-41065826D01*
X117500000Y-40934174D01*
X117465925Y-40807007D01*
X117433012Y-40750000D01*
X118350000Y-40750000D01*
X118350000Y-40102172D01*
X118349999Y-40102155D01*
X118343598Y-40042627D01*
X118343596Y-40042620D01*
X118293354Y-39907913D01*
X118293350Y-39907906D01*
X118207190Y-39792812D01*
X118207187Y-39792809D01*
X118092093Y-39706649D01*
X118092086Y-39706645D01*
X117957379Y-39656403D01*
X117957372Y-39656401D01*
X117897844Y-39650000D01*
X117250000Y-39650000D01*
X117250000Y-40566988D01*
X117192993Y-40534075D01*
X117065826Y-40500000D01*
X116934174Y-40500000D01*
X116807007Y-40534075D01*
X116750000Y-40566988D01*
X116750000Y-39650000D01*
X116640018Y-39650000D01*
X116572979Y-39630315D01*
X116527224Y-39577511D01*
X116517280Y-39508353D01*
X116546305Y-39444797D01*
X116552337Y-39438319D01*
X116588501Y-39402155D01*
X130600000Y-39402155D01*
X130600000Y-40000000D01*
X130946447Y-40000000D01*
X130946447Y-39999999D01*
X131226282Y-39720163D01*
X131400000Y-39720163D01*
X131400000Y-39779837D01*
X131422836Y-39834968D01*
X131465032Y-39877164D01*
X131520163Y-39900000D01*
X131579837Y-39900000D01*
X131634968Y-39877164D01*
X131677164Y-39834968D01*
X131700000Y-39779837D01*
X131700000Y-39720163D01*
X131677164Y-39665032D01*
X131634968Y-39622836D01*
X131579837Y-39600000D01*
X131520163Y-39600000D01*
X131465032Y-39622836D01*
X131422836Y-39665032D01*
X131400000Y-39720163D01*
X131226282Y-39720163D01*
X131299999Y-39646446D01*
X131300000Y-39646445D01*
X131300000Y-38950000D01*
X131052155Y-38950000D01*
X130992627Y-38956401D01*
X130992620Y-38956403D01*
X130857913Y-39006645D01*
X130857906Y-39006649D01*
X130742812Y-39092809D01*
X130742809Y-39092812D01*
X130656649Y-39207906D01*
X130656645Y-39207913D01*
X130606403Y-39342620D01*
X130606401Y-39342627D01*
X130600000Y-39402155D01*
X116588501Y-39402155D01*
X119438319Y-36552337D01*
X119499642Y-36518852D01*
X119569334Y-36523836D01*
X119625267Y-36565708D01*
X119649684Y-36631172D01*
X119650000Y-36640018D01*
X119650000Y-36750000D01*
X120566988Y-36750000D01*
X120534075Y-36807007D01*
X120500000Y-36934174D01*
X120500000Y-37065826D01*
X120534075Y-37192993D01*
X120566988Y-37250000D01*
X119650000Y-37250000D01*
X119650000Y-37897844D01*
X119656401Y-37957372D01*
X119656403Y-37957379D01*
X119706645Y-38092086D01*
X119706649Y-38092093D01*
X119792809Y-38207187D01*
X119792812Y-38207190D01*
X119907906Y-38293350D01*
X119907913Y-38293354D01*
X120042620Y-38343596D01*
X120042627Y-38343598D01*
X120102155Y-38349999D01*
X120102172Y-38350000D01*
X120750000Y-38350000D01*
X120750000Y-37433012D01*
X120807007Y-37465925D01*
X120934174Y-37500000D01*
X121065826Y-37500000D01*
X121192993Y-37465925D01*
X121250000Y-37433012D01*
X121250000Y-38350000D01*
X121897828Y-38350000D01*
X121897844Y-38349999D01*
X121957372Y-38343598D01*
X121957379Y-38343596D01*
X122092086Y-38293354D01*
X122092093Y-38293350D01*
X122207187Y-38207190D01*
X122207190Y-38207187D01*
X122293350Y-38092093D01*
X122293354Y-38092086D01*
X122342422Y-37960529D01*
X122384293Y-37904595D01*
X122449757Y-37880178D01*
X122518030Y-37895030D01*
X122546285Y-37916181D01*
X122660213Y-38030109D01*
X122832179Y-38155048D01*
X122832181Y-38155049D01*
X122832184Y-38155051D01*
X123021588Y-38251557D01*
X123223757Y-38317246D01*
X123433713Y-38350500D01*
X123433714Y-38350500D01*
X123646286Y-38350500D01*
X123646287Y-38350500D01*
X123856243Y-38317246D01*
X124058412Y-38251557D01*
X124247816Y-38155051D01*
X124334478Y-38092088D01*
X124419786Y-38030109D01*
X124419788Y-38030106D01*
X124419792Y-38030104D01*
X124570104Y-37879792D01*
X124570106Y-37879788D01*
X124570109Y-37879786D01*
X124695048Y-37707820D01*
X124695047Y-37707820D01*
X124695051Y-37707816D01*
X124699514Y-37699054D01*
X124747488Y-37648259D01*
X124815308Y-37631463D01*
X124881444Y-37653999D01*
X124920486Y-37699056D01*
X124924951Y-37707820D01*
X125049890Y-37879786D01*
X125200213Y-38030109D01*
X125372179Y-38155048D01*
X125372181Y-38155049D01*
X125372184Y-38155051D01*
X125561588Y-38251557D01*
X125763757Y-38317246D01*
X125973713Y-38350500D01*
X125973714Y-38350500D01*
X126186286Y-38350500D01*
X126186287Y-38350500D01*
X126396243Y-38317246D01*
X126598412Y-38251557D01*
X126787816Y-38155051D01*
X126874478Y-38092088D01*
X126959786Y-38030109D01*
X126959788Y-38030106D01*
X126959792Y-38030104D01*
X127110104Y-37879792D01*
X127110106Y-37879788D01*
X127110109Y-37879786D01*
X127235048Y-37707820D01*
X127235047Y-37707820D01*
X127235051Y-37707816D01*
X127239514Y-37699054D01*
X127287488Y-37648259D01*
X127355308Y-37631463D01*
X127421444Y-37653999D01*
X127460486Y-37699056D01*
X127464951Y-37707820D01*
X127589890Y-37879786D01*
X127740213Y-38030109D01*
X127912179Y-38155048D01*
X127912181Y-38155049D01*
X127912184Y-38155051D01*
X128101588Y-38251557D01*
X128303757Y-38317246D01*
X128513713Y-38350500D01*
X128513714Y-38350500D01*
X128726286Y-38350500D01*
X128726287Y-38350500D01*
X128936243Y-38317246D01*
X129138412Y-38251557D01*
X129327816Y-38155051D01*
X129414478Y-38092088D01*
X129499786Y-38030109D01*
X129499788Y-38030106D01*
X129499792Y-38030104D01*
X129650104Y-37879792D01*
X129650106Y-37879788D01*
X129650109Y-37879786D01*
X129775048Y-37707820D01*
X129775047Y-37707820D01*
X129775051Y-37707816D01*
X129871557Y-37518412D01*
X129937246Y-37316243D01*
X129970500Y-37106287D01*
X129970500Y-36893713D01*
X129937246Y-36683757D01*
X129905747Y-36586816D01*
X129903753Y-36516977D01*
X129939833Y-36457144D01*
X130002534Y-36426316D01*
X130023679Y-36424500D01*
X134467955Y-36424500D01*
X134534994Y-36444185D01*
G37*
%TD.AperFunction*%
%TD*%
M02*
