%TF.GenerationSoftware,KiCad,Pcbnew,9.0.6*%
%TF.CreationDate,2025-12-07T19:20:43-08:00*%
%TF.ProjectId,redstone,72656473-746f-46e6-952e-6b696361645f,rev?*%
%TF.SameCoordinates,Original*%
%TF.FileFunction,Legend,Bot*%
%TF.FilePolarity,Positive*%
%FSLAX46Y46*%
G04 Gerber Fmt 4.6, Leading zero omitted, Abs format (unit mm)*
G04 Created by KiCad (PCBNEW 9.0.6) date 2025-12-07 19:20:43*
%MOMM*%
%LPD*%
G01*
G04 APERTURE LIST*
%ADD10C,0.150000*%
%ADD11C,0.508000*%
%ADD12C,0.200000*%
G04 APERTURE END LIST*
D10*
X123454819Y-55857142D02*
X122978628Y-55523809D01*
X123454819Y-55285714D02*
X122454819Y-55285714D01*
X122454819Y-55285714D02*
X122454819Y-55666666D01*
X122454819Y-55666666D02*
X122502438Y-55761904D01*
X122502438Y-55761904D02*
X122550057Y-55809523D01*
X122550057Y-55809523D02*
X122645295Y-55857142D01*
X122645295Y-55857142D02*
X122788152Y-55857142D01*
X122788152Y-55857142D02*
X122883390Y-55809523D01*
X122883390Y-55809523D02*
X122931009Y-55761904D01*
X122931009Y-55761904D02*
X122978628Y-55666666D01*
X122978628Y-55666666D02*
X122978628Y-55285714D01*
X123454819Y-56809523D02*
X123454819Y-56238095D01*
X123454819Y-56523809D02*
X122454819Y-56523809D01*
X122454819Y-56523809D02*
X122597676Y-56428571D01*
X122597676Y-56428571D02*
X122692914Y-56333333D01*
X122692914Y-56333333D02*
X122740533Y-56238095D01*
X122454819Y-57714285D02*
X122454819Y-57238095D01*
X122454819Y-57238095D02*
X122931009Y-57190476D01*
X122931009Y-57190476D02*
X122883390Y-57238095D01*
X122883390Y-57238095D02*
X122835771Y-57333333D01*
X122835771Y-57333333D02*
X122835771Y-57571428D01*
X122835771Y-57571428D02*
X122883390Y-57666666D01*
X122883390Y-57666666D02*
X122931009Y-57714285D01*
X122931009Y-57714285D02*
X123026247Y-57761904D01*
X123026247Y-57761904D02*
X123264342Y-57761904D01*
X123264342Y-57761904D02*
X123359580Y-57714285D01*
X123359580Y-57714285D02*
X123407200Y-57666666D01*
X123407200Y-57666666D02*
X123454819Y-57571428D01*
X123454819Y-57571428D02*
X123454819Y-57333333D01*
X123454819Y-57333333D02*
X123407200Y-57238095D01*
X123407200Y-57238095D02*
X123359580Y-57190476D01*
X135642857Y-67954819D02*
X135976190Y-67478628D01*
X136214285Y-67954819D02*
X136214285Y-66954819D01*
X136214285Y-66954819D02*
X135833333Y-66954819D01*
X135833333Y-66954819D02*
X135738095Y-67002438D01*
X135738095Y-67002438D02*
X135690476Y-67050057D01*
X135690476Y-67050057D02*
X135642857Y-67145295D01*
X135642857Y-67145295D02*
X135642857Y-67288152D01*
X135642857Y-67288152D02*
X135690476Y-67383390D01*
X135690476Y-67383390D02*
X135738095Y-67431009D01*
X135738095Y-67431009D02*
X135833333Y-67478628D01*
X135833333Y-67478628D02*
X136214285Y-67478628D01*
X134690476Y-67954819D02*
X135261904Y-67954819D01*
X134976190Y-67954819D02*
X134976190Y-66954819D01*
X134976190Y-66954819D02*
X135071428Y-67097676D01*
X135071428Y-67097676D02*
X135166666Y-67192914D01*
X135166666Y-67192914D02*
X135261904Y-67240533D01*
X133738095Y-67954819D02*
X134309523Y-67954819D01*
X134023809Y-67954819D02*
X134023809Y-66954819D01*
X134023809Y-66954819D02*
X134119047Y-67097676D01*
X134119047Y-67097676D02*
X134214285Y-67192914D01*
X134214285Y-67192914D02*
X134309523Y-67240533D01*
X130359580Y-52033333D02*
X130407200Y-51985714D01*
X130407200Y-51985714D02*
X130454819Y-51842857D01*
X130454819Y-51842857D02*
X130454819Y-51747619D01*
X130454819Y-51747619D02*
X130407200Y-51604762D01*
X130407200Y-51604762D02*
X130311961Y-51509524D01*
X130311961Y-51509524D02*
X130216723Y-51461905D01*
X130216723Y-51461905D02*
X130026247Y-51414286D01*
X130026247Y-51414286D02*
X129883390Y-51414286D01*
X129883390Y-51414286D02*
X129692914Y-51461905D01*
X129692914Y-51461905D02*
X129597676Y-51509524D01*
X129597676Y-51509524D02*
X129502438Y-51604762D01*
X129502438Y-51604762D02*
X129454819Y-51747619D01*
X129454819Y-51747619D02*
X129454819Y-51842857D01*
X129454819Y-51842857D02*
X129502438Y-51985714D01*
X129502438Y-51985714D02*
X129550057Y-52033333D01*
X129550057Y-52414286D02*
X129502438Y-52461905D01*
X129502438Y-52461905D02*
X129454819Y-52557143D01*
X129454819Y-52557143D02*
X129454819Y-52795238D01*
X129454819Y-52795238D02*
X129502438Y-52890476D01*
X129502438Y-52890476D02*
X129550057Y-52938095D01*
X129550057Y-52938095D02*
X129645295Y-52985714D01*
X129645295Y-52985714D02*
X129740533Y-52985714D01*
X129740533Y-52985714D02*
X129883390Y-52938095D01*
X129883390Y-52938095D02*
X130454819Y-52366667D01*
X130454819Y-52366667D02*
X130454819Y-52985714D01*
X138859580Y-53333333D02*
X138907200Y-53285714D01*
X138907200Y-53285714D02*
X138954819Y-53142857D01*
X138954819Y-53142857D02*
X138954819Y-53047619D01*
X138954819Y-53047619D02*
X138907200Y-52904762D01*
X138907200Y-52904762D02*
X138811961Y-52809524D01*
X138811961Y-52809524D02*
X138716723Y-52761905D01*
X138716723Y-52761905D02*
X138526247Y-52714286D01*
X138526247Y-52714286D02*
X138383390Y-52714286D01*
X138383390Y-52714286D02*
X138192914Y-52761905D01*
X138192914Y-52761905D02*
X138097676Y-52809524D01*
X138097676Y-52809524D02*
X138002438Y-52904762D01*
X138002438Y-52904762D02*
X137954819Y-53047619D01*
X137954819Y-53047619D02*
X137954819Y-53142857D01*
X137954819Y-53142857D02*
X138002438Y-53285714D01*
X138002438Y-53285714D02*
X138050057Y-53333333D01*
X138050057Y-53714286D02*
X138002438Y-53761905D01*
X138002438Y-53761905D02*
X137954819Y-53857143D01*
X137954819Y-53857143D02*
X137954819Y-54095238D01*
X137954819Y-54095238D02*
X138002438Y-54190476D01*
X138002438Y-54190476D02*
X138050057Y-54238095D01*
X138050057Y-54238095D02*
X138145295Y-54285714D01*
X138145295Y-54285714D02*
X138240533Y-54285714D01*
X138240533Y-54285714D02*
X138383390Y-54238095D01*
X138383390Y-54238095D02*
X138954819Y-53666667D01*
X138954819Y-53666667D02*
X138954819Y-54285714D01*
X132859580Y-37833333D02*
X132907200Y-37785714D01*
X132907200Y-37785714D02*
X132954819Y-37642857D01*
X132954819Y-37642857D02*
X132954819Y-37547619D01*
X132954819Y-37547619D02*
X132907200Y-37404762D01*
X132907200Y-37404762D02*
X132811961Y-37309524D01*
X132811961Y-37309524D02*
X132716723Y-37261905D01*
X132716723Y-37261905D02*
X132526247Y-37214286D01*
X132526247Y-37214286D02*
X132383390Y-37214286D01*
X132383390Y-37214286D02*
X132192914Y-37261905D01*
X132192914Y-37261905D02*
X132097676Y-37309524D01*
X132097676Y-37309524D02*
X132002438Y-37404762D01*
X132002438Y-37404762D02*
X131954819Y-37547619D01*
X131954819Y-37547619D02*
X131954819Y-37642857D01*
X131954819Y-37642857D02*
X132002438Y-37785714D01*
X132002438Y-37785714D02*
X132050057Y-37833333D01*
X132954819Y-38785714D02*
X132954819Y-38214286D01*
X132954819Y-38500000D02*
X131954819Y-38500000D01*
X131954819Y-38500000D02*
X132097676Y-38404762D01*
X132097676Y-38404762D02*
X132192914Y-38309524D01*
X132192914Y-38309524D02*
X132240533Y-38214286D01*
X132666666Y-57859580D02*
X132714285Y-57907200D01*
X132714285Y-57907200D02*
X132857142Y-57954819D01*
X132857142Y-57954819D02*
X132952380Y-57954819D01*
X132952380Y-57954819D02*
X133095237Y-57907200D01*
X133095237Y-57907200D02*
X133190475Y-57811961D01*
X133190475Y-57811961D02*
X133238094Y-57716723D01*
X133238094Y-57716723D02*
X133285713Y-57526247D01*
X133285713Y-57526247D02*
X133285713Y-57383390D01*
X133285713Y-57383390D02*
X133238094Y-57192914D01*
X133238094Y-57192914D02*
X133190475Y-57097676D01*
X133190475Y-57097676D02*
X133095237Y-57002438D01*
X133095237Y-57002438D02*
X132952380Y-56954819D01*
X132952380Y-56954819D02*
X132857142Y-56954819D01*
X132857142Y-56954819D02*
X132714285Y-57002438D01*
X132714285Y-57002438D02*
X132666666Y-57050057D01*
X132285713Y-57050057D02*
X132238094Y-57002438D01*
X132238094Y-57002438D02*
X132142856Y-56954819D01*
X132142856Y-56954819D02*
X131904761Y-56954819D01*
X131904761Y-56954819D02*
X131809523Y-57002438D01*
X131809523Y-57002438D02*
X131761904Y-57050057D01*
X131761904Y-57050057D02*
X131714285Y-57145295D01*
X131714285Y-57145295D02*
X131714285Y-57240533D01*
X131714285Y-57240533D02*
X131761904Y-57383390D01*
X131761904Y-57383390D02*
X132333332Y-57954819D01*
X132333332Y-57954819D02*
X131714285Y-57954819D01*
X133666666Y-49859580D02*
X133714285Y-49907200D01*
X133714285Y-49907200D02*
X133857142Y-49954819D01*
X133857142Y-49954819D02*
X133952380Y-49954819D01*
X133952380Y-49954819D02*
X134095237Y-49907200D01*
X134095237Y-49907200D02*
X134190475Y-49811961D01*
X134190475Y-49811961D02*
X134238094Y-49716723D01*
X134238094Y-49716723D02*
X134285713Y-49526247D01*
X134285713Y-49526247D02*
X134285713Y-49383390D01*
X134285713Y-49383390D02*
X134238094Y-49192914D01*
X134238094Y-49192914D02*
X134190475Y-49097676D01*
X134190475Y-49097676D02*
X134095237Y-49002438D01*
X134095237Y-49002438D02*
X133952380Y-48954819D01*
X133952380Y-48954819D02*
X133857142Y-48954819D01*
X133857142Y-48954819D02*
X133714285Y-49002438D01*
X133714285Y-49002438D02*
X133666666Y-49050057D01*
X133190475Y-49954819D02*
X132999999Y-49954819D01*
X132999999Y-49954819D02*
X132904761Y-49907200D01*
X132904761Y-49907200D02*
X132857142Y-49859580D01*
X132857142Y-49859580D02*
X132761904Y-49716723D01*
X132761904Y-49716723D02*
X132714285Y-49526247D01*
X132714285Y-49526247D02*
X132714285Y-49145295D01*
X132714285Y-49145295D02*
X132761904Y-49050057D01*
X132761904Y-49050057D02*
X132809523Y-49002438D01*
X132809523Y-49002438D02*
X132904761Y-48954819D01*
X132904761Y-48954819D02*
X133095237Y-48954819D01*
X133095237Y-48954819D02*
X133190475Y-49002438D01*
X133190475Y-49002438D02*
X133238094Y-49050057D01*
X133238094Y-49050057D02*
X133285713Y-49145295D01*
X133285713Y-49145295D02*
X133285713Y-49383390D01*
X133285713Y-49383390D02*
X133238094Y-49478628D01*
X133238094Y-49478628D02*
X133190475Y-49526247D01*
X133190475Y-49526247D02*
X133095237Y-49573866D01*
X133095237Y-49573866D02*
X132904761Y-49573866D01*
X132904761Y-49573866D02*
X132809523Y-49526247D01*
X132809523Y-49526247D02*
X132761904Y-49478628D01*
X132761904Y-49478628D02*
X132714285Y-49383390D01*
X147954819Y-53333333D02*
X147478628Y-53000000D01*
X147954819Y-52761905D02*
X146954819Y-52761905D01*
X146954819Y-52761905D02*
X146954819Y-53142857D01*
X146954819Y-53142857D02*
X147002438Y-53238095D01*
X147002438Y-53238095D02*
X147050057Y-53285714D01*
X147050057Y-53285714D02*
X147145295Y-53333333D01*
X147145295Y-53333333D02*
X147288152Y-53333333D01*
X147288152Y-53333333D02*
X147383390Y-53285714D01*
X147383390Y-53285714D02*
X147431009Y-53238095D01*
X147431009Y-53238095D02*
X147478628Y-53142857D01*
X147478628Y-53142857D02*
X147478628Y-52761905D01*
X146954819Y-54190476D02*
X146954819Y-54000000D01*
X146954819Y-54000000D02*
X147002438Y-53904762D01*
X147002438Y-53904762D02*
X147050057Y-53857143D01*
X147050057Y-53857143D02*
X147192914Y-53761905D01*
X147192914Y-53761905D02*
X147383390Y-53714286D01*
X147383390Y-53714286D02*
X147764342Y-53714286D01*
X147764342Y-53714286D02*
X147859580Y-53761905D01*
X147859580Y-53761905D02*
X147907200Y-53809524D01*
X147907200Y-53809524D02*
X147954819Y-53904762D01*
X147954819Y-53904762D02*
X147954819Y-54095238D01*
X147954819Y-54095238D02*
X147907200Y-54190476D01*
X147907200Y-54190476D02*
X147859580Y-54238095D01*
X147859580Y-54238095D02*
X147764342Y-54285714D01*
X147764342Y-54285714D02*
X147526247Y-54285714D01*
X147526247Y-54285714D02*
X147431009Y-54238095D01*
X147431009Y-54238095D02*
X147383390Y-54190476D01*
X147383390Y-54190476D02*
X147335771Y-54095238D01*
X147335771Y-54095238D02*
X147335771Y-53904762D01*
X147335771Y-53904762D02*
X147383390Y-53809524D01*
X147383390Y-53809524D02*
X147431009Y-53761905D01*
X147431009Y-53761905D02*
X147526247Y-53714286D01*
X136666666Y-43454819D02*
X136999999Y-42978628D01*
X137238094Y-43454819D02*
X137238094Y-42454819D01*
X137238094Y-42454819D02*
X136857142Y-42454819D01*
X136857142Y-42454819D02*
X136761904Y-42502438D01*
X136761904Y-42502438D02*
X136714285Y-42550057D01*
X136714285Y-42550057D02*
X136666666Y-42645295D01*
X136666666Y-42645295D02*
X136666666Y-42788152D01*
X136666666Y-42788152D02*
X136714285Y-42883390D01*
X136714285Y-42883390D02*
X136761904Y-42931009D01*
X136761904Y-42931009D02*
X136857142Y-42978628D01*
X136857142Y-42978628D02*
X137238094Y-42978628D01*
X135714285Y-43454819D02*
X136285713Y-43454819D01*
X135999999Y-43454819D02*
X135999999Y-42454819D01*
X135999999Y-42454819D02*
X136095237Y-42597676D01*
X136095237Y-42597676D02*
X136190475Y-42692914D01*
X136190475Y-42692914D02*
X136285713Y-42740533D01*
X150666666Y-39359580D02*
X150714285Y-39407200D01*
X150714285Y-39407200D02*
X150857142Y-39454819D01*
X150857142Y-39454819D02*
X150952380Y-39454819D01*
X150952380Y-39454819D02*
X151095237Y-39407200D01*
X151095237Y-39407200D02*
X151190475Y-39311961D01*
X151190475Y-39311961D02*
X151238094Y-39216723D01*
X151238094Y-39216723D02*
X151285713Y-39026247D01*
X151285713Y-39026247D02*
X151285713Y-38883390D01*
X151285713Y-38883390D02*
X151238094Y-38692914D01*
X151238094Y-38692914D02*
X151190475Y-38597676D01*
X151190475Y-38597676D02*
X151095237Y-38502438D01*
X151095237Y-38502438D02*
X150952380Y-38454819D01*
X150952380Y-38454819D02*
X150857142Y-38454819D01*
X150857142Y-38454819D02*
X150714285Y-38502438D01*
X150714285Y-38502438D02*
X150666666Y-38550057D01*
X150333332Y-38454819D02*
X149714285Y-38454819D01*
X149714285Y-38454819D02*
X150047618Y-38835771D01*
X150047618Y-38835771D02*
X149904761Y-38835771D01*
X149904761Y-38835771D02*
X149809523Y-38883390D01*
X149809523Y-38883390D02*
X149761904Y-38931009D01*
X149761904Y-38931009D02*
X149714285Y-39026247D01*
X149714285Y-39026247D02*
X149714285Y-39264342D01*
X149714285Y-39264342D02*
X149761904Y-39359580D01*
X149761904Y-39359580D02*
X149809523Y-39407200D01*
X149809523Y-39407200D02*
X149904761Y-39454819D01*
X149904761Y-39454819D02*
X150190475Y-39454819D01*
X150190475Y-39454819D02*
X150285713Y-39407200D01*
X150285713Y-39407200D02*
X150333332Y-39359580D01*
X146714285Y-41954819D02*
X146714285Y-40954819D01*
X146714285Y-40954819D02*
X146476190Y-40954819D01*
X146476190Y-40954819D02*
X146333333Y-41002438D01*
X146333333Y-41002438D02*
X146238095Y-41097676D01*
X146238095Y-41097676D02*
X146190476Y-41192914D01*
X146190476Y-41192914D02*
X146142857Y-41383390D01*
X146142857Y-41383390D02*
X146142857Y-41526247D01*
X146142857Y-41526247D02*
X146190476Y-41716723D01*
X146190476Y-41716723D02*
X146238095Y-41811961D01*
X146238095Y-41811961D02*
X146333333Y-41907200D01*
X146333333Y-41907200D02*
X146476190Y-41954819D01*
X146476190Y-41954819D02*
X146714285Y-41954819D01*
X145190476Y-41954819D02*
X145761904Y-41954819D01*
X145476190Y-41954819D02*
X145476190Y-40954819D01*
X145476190Y-40954819D02*
X145571428Y-41097676D01*
X145571428Y-41097676D02*
X145666666Y-41192914D01*
X145666666Y-41192914D02*
X145761904Y-41240533D01*
X144714285Y-41954819D02*
X144523809Y-41954819D01*
X144523809Y-41954819D02*
X144428571Y-41907200D01*
X144428571Y-41907200D02*
X144380952Y-41859580D01*
X144380952Y-41859580D02*
X144285714Y-41716723D01*
X144285714Y-41716723D02*
X144238095Y-41526247D01*
X144238095Y-41526247D02*
X144238095Y-41145295D01*
X144238095Y-41145295D02*
X144285714Y-41050057D01*
X144285714Y-41050057D02*
X144333333Y-41002438D01*
X144333333Y-41002438D02*
X144428571Y-40954819D01*
X144428571Y-40954819D02*
X144619047Y-40954819D01*
X144619047Y-40954819D02*
X144714285Y-41002438D01*
X144714285Y-41002438D02*
X144761904Y-41050057D01*
X144761904Y-41050057D02*
X144809523Y-41145295D01*
X144809523Y-41145295D02*
X144809523Y-41383390D01*
X144809523Y-41383390D02*
X144761904Y-41478628D01*
X144761904Y-41478628D02*
X144714285Y-41526247D01*
X144714285Y-41526247D02*
X144619047Y-41573866D01*
X144619047Y-41573866D02*
X144428571Y-41573866D01*
X144428571Y-41573866D02*
X144333333Y-41526247D01*
X144333333Y-41526247D02*
X144285714Y-41478628D01*
X144285714Y-41478628D02*
X144238095Y-41383390D01*
X131359580Y-55133333D02*
X131407200Y-55085714D01*
X131407200Y-55085714D02*
X131454819Y-54942857D01*
X131454819Y-54942857D02*
X131454819Y-54847619D01*
X131454819Y-54847619D02*
X131407200Y-54704762D01*
X131407200Y-54704762D02*
X131311961Y-54609524D01*
X131311961Y-54609524D02*
X131216723Y-54561905D01*
X131216723Y-54561905D02*
X131026247Y-54514286D01*
X131026247Y-54514286D02*
X130883390Y-54514286D01*
X130883390Y-54514286D02*
X130692914Y-54561905D01*
X130692914Y-54561905D02*
X130597676Y-54609524D01*
X130597676Y-54609524D02*
X130502438Y-54704762D01*
X130502438Y-54704762D02*
X130454819Y-54847619D01*
X130454819Y-54847619D02*
X130454819Y-54942857D01*
X130454819Y-54942857D02*
X130502438Y-55085714D01*
X130502438Y-55085714D02*
X130550057Y-55133333D01*
X130550057Y-55514286D02*
X130502438Y-55561905D01*
X130502438Y-55561905D02*
X130454819Y-55657143D01*
X130454819Y-55657143D02*
X130454819Y-55895238D01*
X130454819Y-55895238D02*
X130502438Y-55990476D01*
X130502438Y-55990476D02*
X130550057Y-56038095D01*
X130550057Y-56038095D02*
X130645295Y-56085714D01*
X130645295Y-56085714D02*
X130740533Y-56085714D01*
X130740533Y-56085714D02*
X130883390Y-56038095D01*
X130883390Y-56038095D02*
X131454819Y-55466667D01*
X131454819Y-55466667D02*
X131454819Y-56085714D01*
X138359580Y-49857142D02*
X138407200Y-49809523D01*
X138407200Y-49809523D02*
X138454819Y-49666666D01*
X138454819Y-49666666D02*
X138454819Y-49571428D01*
X138454819Y-49571428D02*
X138407200Y-49428571D01*
X138407200Y-49428571D02*
X138311961Y-49333333D01*
X138311961Y-49333333D02*
X138216723Y-49285714D01*
X138216723Y-49285714D02*
X138026247Y-49238095D01*
X138026247Y-49238095D02*
X137883390Y-49238095D01*
X137883390Y-49238095D02*
X137692914Y-49285714D01*
X137692914Y-49285714D02*
X137597676Y-49333333D01*
X137597676Y-49333333D02*
X137502438Y-49428571D01*
X137502438Y-49428571D02*
X137454819Y-49571428D01*
X137454819Y-49571428D02*
X137454819Y-49666666D01*
X137454819Y-49666666D02*
X137502438Y-49809523D01*
X137502438Y-49809523D02*
X137550057Y-49857142D01*
X138454819Y-50809523D02*
X138454819Y-50238095D01*
X138454819Y-50523809D02*
X137454819Y-50523809D01*
X137454819Y-50523809D02*
X137597676Y-50428571D01*
X137597676Y-50428571D02*
X137692914Y-50333333D01*
X137692914Y-50333333D02*
X137740533Y-50238095D01*
X137454819Y-51428571D02*
X137454819Y-51523809D01*
X137454819Y-51523809D02*
X137502438Y-51619047D01*
X137502438Y-51619047D02*
X137550057Y-51666666D01*
X137550057Y-51666666D02*
X137645295Y-51714285D01*
X137645295Y-51714285D02*
X137835771Y-51761904D01*
X137835771Y-51761904D02*
X138073866Y-51761904D01*
X138073866Y-51761904D02*
X138264342Y-51714285D01*
X138264342Y-51714285D02*
X138359580Y-51666666D01*
X138359580Y-51666666D02*
X138407200Y-51619047D01*
X138407200Y-51619047D02*
X138454819Y-51523809D01*
X138454819Y-51523809D02*
X138454819Y-51428571D01*
X138454819Y-51428571D02*
X138407200Y-51333333D01*
X138407200Y-51333333D02*
X138359580Y-51285714D01*
X138359580Y-51285714D02*
X138264342Y-51238095D01*
X138264342Y-51238095D02*
X138073866Y-51190476D01*
X138073866Y-51190476D02*
X137835771Y-51190476D01*
X137835771Y-51190476D02*
X137645295Y-51238095D01*
X137645295Y-51238095D02*
X137550057Y-51285714D01*
X137550057Y-51285714D02*
X137502438Y-51333333D01*
X137502438Y-51333333D02*
X137454819Y-51428571D01*
X141642857Y-48954819D02*
X141976190Y-48478628D01*
X142214285Y-48954819D02*
X142214285Y-47954819D01*
X142214285Y-47954819D02*
X141833333Y-47954819D01*
X141833333Y-47954819D02*
X141738095Y-48002438D01*
X141738095Y-48002438D02*
X141690476Y-48050057D01*
X141690476Y-48050057D02*
X141642857Y-48145295D01*
X141642857Y-48145295D02*
X141642857Y-48288152D01*
X141642857Y-48288152D02*
X141690476Y-48383390D01*
X141690476Y-48383390D02*
X141738095Y-48431009D01*
X141738095Y-48431009D02*
X141833333Y-48478628D01*
X141833333Y-48478628D02*
X142214285Y-48478628D01*
X140690476Y-48954819D02*
X141261904Y-48954819D01*
X140976190Y-48954819D02*
X140976190Y-47954819D01*
X140976190Y-47954819D02*
X141071428Y-48097676D01*
X141071428Y-48097676D02*
X141166666Y-48192914D01*
X141166666Y-48192914D02*
X141261904Y-48240533D01*
X140119047Y-48383390D02*
X140214285Y-48335771D01*
X140214285Y-48335771D02*
X140261904Y-48288152D01*
X140261904Y-48288152D02*
X140309523Y-48192914D01*
X140309523Y-48192914D02*
X140309523Y-48145295D01*
X140309523Y-48145295D02*
X140261904Y-48050057D01*
X140261904Y-48050057D02*
X140214285Y-48002438D01*
X140214285Y-48002438D02*
X140119047Y-47954819D01*
X140119047Y-47954819D02*
X139928571Y-47954819D01*
X139928571Y-47954819D02*
X139833333Y-48002438D01*
X139833333Y-48002438D02*
X139785714Y-48050057D01*
X139785714Y-48050057D02*
X139738095Y-48145295D01*
X139738095Y-48145295D02*
X139738095Y-48192914D01*
X139738095Y-48192914D02*
X139785714Y-48288152D01*
X139785714Y-48288152D02*
X139833333Y-48335771D01*
X139833333Y-48335771D02*
X139928571Y-48383390D01*
X139928571Y-48383390D02*
X140119047Y-48383390D01*
X140119047Y-48383390D02*
X140214285Y-48431009D01*
X140214285Y-48431009D02*
X140261904Y-48478628D01*
X140261904Y-48478628D02*
X140309523Y-48573866D01*
X140309523Y-48573866D02*
X140309523Y-48764342D01*
X140309523Y-48764342D02*
X140261904Y-48859580D01*
X140261904Y-48859580D02*
X140214285Y-48907200D01*
X140214285Y-48907200D02*
X140119047Y-48954819D01*
X140119047Y-48954819D02*
X139928571Y-48954819D01*
X139928571Y-48954819D02*
X139833333Y-48907200D01*
X139833333Y-48907200D02*
X139785714Y-48859580D01*
X139785714Y-48859580D02*
X139738095Y-48764342D01*
X139738095Y-48764342D02*
X139738095Y-48573866D01*
X139738095Y-48573866D02*
X139785714Y-48478628D01*
X139785714Y-48478628D02*
X139833333Y-48431009D01*
X139833333Y-48431009D02*
X139928571Y-48383390D01*
X142142857Y-61454819D02*
X142476190Y-60978628D01*
X142714285Y-61454819D02*
X142714285Y-60454819D01*
X142714285Y-60454819D02*
X142333333Y-60454819D01*
X142333333Y-60454819D02*
X142238095Y-60502438D01*
X142238095Y-60502438D02*
X142190476Y-60550057D01*
X142190476Y-60550057D02*
X142142857Y-60645295D01*
X142142857Y-60645295D02*
X142142857Y-60788152D01*
X142142857Y-60788152D02*
X142190476Y-60883390D01*
X142190476Y-60883390D02*
X142238095Y-60931009D01*
X142238095Y-60931009D02*
X142333333Y-60978628D01*
X142333333Y-60978628D02*
X142714285Y-60978628D01*
X141190476Y-61454819D02*
X141761904Y-61454819D01*
X141476190Y-61454819D02*
X141476190Y-60454819D01*
X141476190Y-60454819D02*
X141571428Y-60597676D01*
X141571428Y-60597676D02*
X141666666Y-60692914D01*
X141666666Y-60692914D02*
X141761904Y-60740533D01*
X140714285Y-61454819D02*
X140523809Y-61454819D01*
X140523809Y-61454819D02*
X140428571Y-61407200D01*
X140428571Y-61407200D02*
X140380952Y-61359580D01*
X140380952Y-61359580D02*
X140285714Y-61216723D01*
X140285714Y-61216723D02*
X140238095Y-61026247D01*
X140238095Y-61026247D02*
X140238095Y-60645295D01*
X140238095Y-60645295D02*
X140285714Y-60550057D01*
X140285714Y-60550057D02*
X140333333Y-60502438D01*
X140333333Y-60502438D02*
X140428571Y-60454819D01*
X140428571Y-60454819D02*
X140619047Y-60454819D01*
X140619047Y-60454819D02*
X140714285Y-60502438D01*
X140714285Y-60502438D02*
X140761904Y-60550057D01*
X140761904Y-60550057D02*
X140809523Y-60645295D01*
X140809523Y-60645295D02*
X140809523Y-60883390D01*
X140809523Y-60883390D02*
X140761904Y-60978628D01*
X140761904Y-60978628D02*
X140714285Y-61026247D01*
X140714285Y-61026247D02*
X140619047Y-61073866D01*
X140619047Y-61073866D02*
X140428571Y-61073866D01*
X140428571Y-61073866D02*
X140333333Y-61026247D01*
X140333333Y-61026247D02*
X140285714Y-60978628D01*
X140285714Y-60978628D02*
X140238095Y-60883390D01*
X140642857Y-58359580D02*
X140690476Y-58407200D01*
X140690476Y-58407200D02*
X140833333Y-58454819D01*
X140833333Y-58454819D02*
X140928571Y-58454819D01*
X140928571Y-58454819D02*
X141071428Y-58407200D01*
X141071428Y-58407200D02*
X141166666Y-58311961D01*
X141166666Y-58311961D02*
X141214285Y-58216723D01*
X141214285Y-58216723D02*
X141261904Y-58026247D01*
X141261904Y-58026247D02*
X141261904Y-57883390D01*
X141261904Y-57883390D02*
X141214285Y-57692914D01*
X141214285Y-57692914D02*
X141166666Y-57597676D01*
X141166666Y-57597676D02*
X141071428Y-57502438D01*
X141071428Y-57502438D02*
X140928571Y-57454819D01*
X140928571Y-57454819D02*
X140833333Y-57454819D01*
X140833333Y-57454819D02*
X140690476Y-57502438D01*
X140690476Y-57502438D02*
X140642857Y-57550057D01*
X139690476Y-58454819D02*
X140261904Y-58454819D01*
X139976190Y-58454819D02*
X139976190Y-57454819D01*
X139976190Y-57454819D02*
X140071428Y-57597676D01*
X140071428Y-57597676D02*
X140166666Y-57692914D01*
X140166666Y-57692914D02*
X140261904Y-57740533D01*
X139071428Y-57454819D02*
X138976190Y-57454819D01*
X138976190Y-57454819D02*
X138880952Y-57502438D01*
X138880952Y-57502438D02*
X138833333Y-57550057D01*
X138833333Y-57550057D02*
X138785714Y-57645295D01*
X138785714Y-57645295D02*
X138738095Y-57835771D01*
X138738095Y-57835771D02*
X138738095Y-58073866D01*
X138738095Y-58073866D02*
X138785714Y-58264342D01*
X138785714Y-58264342D02*
X138833333Y-58359580D01*
X138833333Y-58359580D02*
X138880952Y-58407200D01*
X138880952Y-58407200D02*
X138976190Y-58454819D01*
X138976190Y-58454819D02*
X139071428Y-58454819D01*
X139071428Y-58454819D02*
X139166666Y-58407200D01*
X139166666Y-58407200D02*
X139214285Y-58359580D01*
X139214285Y-58359580D02*
X139261904Y-58264342D01*
X139261904Y-58264342D02*
X139309523Y-58073866D01*
X139309523Y-58073866D02*
X139309523Y-57835771D01*
X139309523Y-57835771D02*
X139261904Y-57645295D01*
X139261904Y-57645295D02*
X139214285Y-57550057D01*
X139214285Y-57550057D02*
X139166666Y-57502438D01*
X139166666Y-57502438D02*
X139071428Y-57454819D01*
X139666666Y-56359580D02*
X139714285Y-56407200D01*
X139714285Y-56407200D02*
X139857142Y-56454819D01*
X139857142Y-56454819D02*
X139952380Y-56454819D01*
X139952380Y-56454819D02*
X140095237Y-56407200D01*
X140095237Y-56407200D02*
X140190475Y-56311961D01*
X140190475Y-56311961D02*
X140238094Y-56216723D01*
X140238094Y-56216723D02*
X140285713Y-56026247D01*
X140285713Y-56026247D02*
X140285713Y-55883390D01*
X140285713Y-55883390D02*
X140238094Y-55692914D01*
X140238094Y-55692914D02*
X140190475Y-55597676D01*
X140190475Y-55597676D02*
X140095237Y-55502438D01*
X140095237Y-55502438D02*
X139952380Y-55454819D01*
X139952380Y-55454819D02*
X139857142Y-55454819D01*
X139857142Y-55454819D02*
X139714285Y-55502438D01*
X139714285Y-55502438D02*
X139666666Y-55550057D01*
X139285713Y-55550057D02*
X139238094Y-55502438D01*
X139238094Y-55502438D02*
X139142856Y-55454819D01*
X139142856Y-55454819D02*
X138904761Y-55454819D01*
X138904761Y-55454819D02*
X138809523Y-55502438D01*
X138809523Y-55502438D02*
X138761904Y-55550057D01*
X138761904Y-55550057D02*
X138714285Y-55645295D01*
X138714285Y-55645295D02*
X138714285Y-55740533D01*
X138714285Y-55740533D02*
X138761904Y-55883390D01*
X138761904Y-55883390D02*
X139333332Y-56454819D01*
X139333332Y-56454819D02*
X138714285Y-56454819D01*
X130454819Y-59357142D02*
X129978628Y-59023809D01*
X130454819Y-58785714D02*
X129454819Y-58785714D01*
X129454819Y-58785714D02*
X129454819Y-59166666D01*
X129454819Y-59166666D02*
X129502438Y-59261904D01*
X129502438Y-59261904D02*
X129550057Y-59309523D01*
X129550057Y-59309523D02*
X129645295Y-59357142D01*
X129645295Y-59357142D02*
X129788152Y-59357142D01*
X129788152Y-59357142D02*
X129883390Y-59309523D01*
X129883390Y-59309523D02*
X129931009Y-59261904D01*
X129931009Y-59261904D02*
X129978628Y-59166666D01*
X129978628Y-59166666D02*
X129978628Y-58785714D01*
X129550057Y-59738095D02*
X129502438Y-59785714D01*
X129502438Y-59785714D02*
X129454819Y-59880952D01*
X129454819Y-59880952D02*
X129454819Y-60119047D01*
X129454819Y-60119047D02*
X129502438Y-60214285D01*
X129502438Y-60214285D02*
X129550057Y-60261904D01*
X129550057Y-60261904D02*
X129645295Y-60309523D01*
X129645295Y-60309523D02*
X129740533Y-60309523D01*
X129740533Y-60309523D02*
X129883390Y-60261904D01*
X129883390Y-60261904D02*
X130454819Y-59690476D01*
X130454819Y-59690476D02*
X130454819Y-60309523D01*
X129454819Y-60928571D02*
X129454819Y-61023809D01*
X129454819Y-61023809D02*
X129502438Y-61119047D01*
X129502438Y-61119047D02*
X129550057Y-61166666D01*
X129550057Y-61166666D02*
X129645295Y-61214285D01*
X129645295Y-61214285D02*
X129835771Y-61261904D01*
X129835771Y-61261904D02*
X130073866Y-61261904D01*
X130073866Y-61261904D02*
X130264342Y-61214285D01*
X130264342Y-61214285D02*
X130359580Y-61166666D01*
X130359580Y-61166666D02*
X130407200Y-61119047D01*
X130407200Y-61119047D02*
X130454819Y-61023809D01*
X130454819Y-61023809D02*
X130454819Y-60928571D01*
X130454819Y-60928571D02*
X130407200Y-60833333D01*
X130407200Y-60833333D02*
X130359580Y-60785714D01*
X130359580Y-60785714D02*
X130264342Y-60738095D01*
X130264342Y-60738095D02*
X130073866Y-60690476D01*
X130073866Y-60690476D02*
X129835771Y-60690476D01*
X129835771Y-60690476D02*
X129645295Y-60738095D01*
X129645295Y-60738095D02*
X129550057Y-60785714D01*
X129550057Y-60785714D02*
X129502438Y-60833333D01*
X129502438Y-60833333D02*
X129454819Y-60928571D01*
X150666666Y-45859580D02*
X150714285Y-45907200D01*
X150714285Y-45907200D02*
X150857142Y-45954819D01*
X150857142Y-45954819D02*
X150952380Y-45954819D01*
X150952380Y-45954819D02*
X151095237Y-45907200D01*
X151095237Y-45907200D02*
X151190475Y-45811961D01*
X151190475Y-45811961D02*
X151238094Y-45716723D01*
X151238094Y-45716723D02*
X151285713Y-45526247D01*
X151285713Y-45526247D02*
X151285713Y-45383390D01*
X151285713Y-45383390D02*
X151238094Y-45192914D01*
X151238094Y-45192914D02*
X151190475Y-45097676D01*
X151190475Y-45097676D02*
X151095237Y-45002438D01*
X151095237Y-45002438D02*
X150952380Y-44954819D01*
X150952380Y-44954819D02*
X150857142Y-44954819D01*
X150857142Y-44954819D02*
X150714285Y-45002438D01*
X150714285Y-45002438D02*
X150666666Y-45050057D01*
X149809523Y-45288152D02*
X149809523Y-45954819D01*
X150047618Y-44907200D02*
X150285713Y-45621485D01*
X150285713Y-45621485D02*
X149666666Y-45621485D01*
X133859580Y-51357142D02*
X133907200Y-51309523D01*
X133907200Y-51309523D02*
X133954819Y-51166666D01*
X133954819Y-51166666D02*
X133954819Y-51071428D01*
X133954819Y-51071428D02*
X133907200Y-50928571D01*
X133907200Y-50928571D02*
X133811961Y-50833333D01*
X133811961Y-50833333D02*
X133716723Y-50785714D01*
X133716723Y-50785714D02*
X133526247Y-50738095D01*
X133526247Y-50738095D02*
X133383390Y-50738095D01*
X133383390Y-50738095D02*
X133192914Y-50785714D01*
X133192914Y-50785714D02*
X133097676Y-50833333D01*
X133097676Y-50833333D02*
X133002438Y-50928571D01*
X133002438Y-50928571D02*
X132954819Y-51071428D01*
X132954819Y-51071428D02*
X132954819Y-51166666D01*
X132954819Y-51166666D02*
X133002438Y-51309523D01*
X133002438Y-51309523D02*
X133050057Y-51357142D01*
X133954819Y-52309523D02*
X133954819Y-51738095D01*
X133954819Y-52023809D02*
X132954819Y-52023809D01*
X132954819Y-52023809D02*
X133097676Y-51928571D01*
X133097676Y-51928571D02*
X133192914Y-51833333D01*
X133192914Y-51833333D02*
X133240533Y-51738095D01*
X133954819Y-53261904D02*
X133954819Y-52690476D01*
X133954819Y-52976190D02*
X132954819Y-52976190D01*
X132954819Y-52976190D02*
X133097676Y-52880952D01*
X133097676Y-52880952D02*
X133192914Y-52785714D01*
X133192914Y-52785714D02*
X133240533Y-52690476D01*
D11*
%TO.C,U2*%
X148881000Y-38720100D02*
G75*
G02*
X148119000Y-38720100I-381000J0D01*
G01*
X148119000Y-38720100D02*
G75*
G02*
X148881000Y-38720100I381000J0D01*
G01*
D12*
%TO.C,R15*%
X125025000Y-56500000D02*
X123975000Y-56500000D01*
%TO.C,R11*%
X135000000Y-64975000D02*
X135000000Y-66025000D01*
%TO.C,R7*%
X144975000Y-53500000D02*
X146025000Y-53500000D01*
%TO.C,R10*%
X135000000Y-68475000D02*
X135000000Y-69525000D01*
%TO.C,R9*%
X135000000Y-71975000D02*
X135000000Y-73025000D01*
%TO.C,R6*%
X148475000Y-53500000D02*
X149525000Y-53500000D01*
%TO.C,R1*%
X136500000Y-36975000D02*
X136500000Y-38025000D01*
%TO.C,D19*%
X143690000Y-44200000D02*
X143690000Y-38800000D01*
X147310000Y-38800000D02*
X147310000Y-44775000D01*
%TO.C,D18*%
X150300000Y-56525000D02*
X150300000Y-59475000D01*
X150300000Y-59475000D02*
X150700000Y-59475000D01*
X150700000Y-56525000D02*
X150300000Y-56525000D01*
X150700000Y-59475000D02*
X150700000Y-56525000D01*
X152150000Y-56500000D02*
X151050000Y-56500000D01*
%TO.C,R16*%
X128525000Y-56500000D02*
X127475000Y-56500000D01*
%TO.C,R8*%
X141475000Y-53500000D02*
X142525000Y-53500000D01*
%TO.C,R18*%
X138850000Y-50000000D02*
G75*
G02*
X138750000Y-50000000I-50000J0D01*
G01*
X138750000Y-50000000D02*
G75*
G02*
X138850000Y-50000000I50000J0D01*
G01*
%TO.C,R13*%
X118025000Y-56500000D02*
X116975000Y-56500000D01*
%TO.C,R5*%
X151975000Y-53500000D02*
X153025000Y-53500000D01*
%TO.C,R2*%
X136500000Y-40475000D02*
X136500000Y-41525000D01*
%TO.C,R19*%
X143400000Y-59500000D02*
G75*
G02*
X143300000Y-59500000I-50000J0D01*
G01*
X143300000Y-59500000D02*
G75*
G02*
X143400000Y-59500000I50000J0D01*
G01*
%TO.C,R20*%
X131550000Y-63700000D02*
G75*
G02*
X131450000Y-63700000I-50000J0D01*
G01*
X131450000Y-63700000D02*
G75*
G02*
X131550000Y-63700000I50000J0D01*
G01*
%TO.C,R4*%
X136500000Y-47475000D02*
X136500000Y-48525000D01*
%TO.C,R14*%
X121525000Y-56500000D02*
X120475000Y-56500000D01*
%TO.C,D20*%
X130000000Y-68850000D02*
X130000000Y-69950000D01*
X130025000Y-70300000D02*
X130025000Y-70700000D01*
X130025000Y-70700000D02*
X132975000Y-70700000D01*
X132975000Y-70300000D02*
X130025000Y-70300000D01*
X132975000Y-70700000D02*
X132975000Y-70300000D01*
%TO.C,C4*%
X150100000Y-43500000D02*
X150900000Y-43500000D01*
%TO.C,R3*%
X136500000Y-43975000D02*
X136500000Y-45025000D01*
%TO.C,R12*%
X135000000Y-61475000D02*
X135000000Y-62525000D01*
%TD*%
M02*
