%TF.GenerationSoftware,KiCad,Pcbnew,9.0.6*%
%TF.CreationDate,2025-12-07T19:20:43-08:00*%
%TF.ProjectId,redstone,72656473-746f-46e6-952e-6b696361645f,rev?*%
%TF.SameCoordinates,Original*%
%TF.FileFunction,Soldermask,Top*%
%TF.FilePolarity,Negative*%
%FSLAX46Y46*%
G04 Gerber Fmt 4.6, Leading zero omitted, Abs format (unit mm)*
G04 Created by KiCad (PCBNEW 9.0.6) date 2025-12-07 19:20:43*
%MOMM*%
%LPD*%
G01*
G04 APERTURE LIST*
G04 Aperture macros list*
%AMRoundRect*
0 Rectangle with rounded corners*
0 $1 Rounding radius*
0 $2 $3 $4 $5 $6 $7 $8 $9 X,Y pos of 4 corners*
0 Add a 4 corners polygon primitive as box body*
4,1,4,$2,$3,$4,$5,$6,$7,$8,$9,$2,$3,0*
0 Add four circle primitives for the rounded corners*
1,1,$1+$1,$2,$3*
1,1,$1+$1,$4,$5*
1,1,$1+$1,$6,$7*
1,1,$1+$1,$8,$9*
0 Add four rect primitives between the rounded corners*
20,1,$1+$1,$2,$3,$4,$5,0*
20,1,$1+$1,$4,$5,$6,$7,0*
20,1,$1+$1,$6,$7,$8,$9,0*
20,1,$1+$1,$8,$9,$2,$3,0*%
G04 Aperture macros list end*
%ADD10R,1.000000X0.950000*%
%ADD11C,1.524000*%
%ADD12R,0.950000X1.000000*%
%ADD13RoundRect,0.150000X-0.150000X0.587500X-0.150000X-0.587500X0.150000X-0.587500X0.150000X0.587500X0*%
%ADD14C,1.700000*%
%ADD15RoundRect,0.062500X0.187500X0.062500X-0.187500X0.062500X-0.187500X-0.062500X0.187500X-0.062500X0*%
%ADD16R,0.900000X1.600000*%
%ADD17RoundRect,0.150000X0.150000X-0.587500X0.150000X0.587500X-0.150000X0.587500X-0.150000X-0.587500X0*%
%ADD18R,1.700000X1.700000*%
%ADD19R,0.420000X0.460000*%
%ADD20R,1.800000X0.800000*%
%ADD21R,1.150000X1.250000*%
%ADD22R,0.700000X0.650000*%
%ADD23R,2.700000X1.100000*%
%ADD24R,1.100000X0.600000*%
%ADD25RoundRect,0.162500X-0.650000X-0.162500X0.650000X-0.162500X0.650000X0.162500X-0.650000X0.162500X0*%
%ADD26RoundRect,0.050000X-0.387500X-0.050000X0.387500X-0.050000X0.387500X0.050000X-0.387500X0.050000X0*%
%ADD27RoundRect,0.050000X-0.050000X-0.387500X0.050000X-0.387500X0.050000X0.387500X-0.050000X0.387500X0*%
%ADD28R,3.200000X3.200000*%
%ADD29R,1.470000X1.020000*%
%ADD30R,0.600000X1.100000*%
%ADD31R,1.270000X0.760000*%
G04 APERTURE END LIST*
D10*
%TO.C,D5*%
X152500000Y-55800000D03*
X152500000Y-54200000D03*
%TD*%
D11*
%TO.C,U2*%
X148500000Y-43000000D03*
X148500000Y-45540000D03*
X148500000Y-48080000D03*
%TD*%
D12*
%TO.C,D2*%
X134200000Y-41000000D03*
X135800000Y-41000000D03*
%TD*%
%TO.C,D4*%
X134200000Y-48000000D03*
X135800000Y-48000000D03*
%TD*%
D10*
%TO.C,D8*%
X142000000Y-55800000D03*
X142000000Y-54200000D03*
%TD*%
D12*
%TO.C,D3*%
X134200000Y-44500000D03*
X135800000Y-44500000D03*
%TD*%
D13*
%TO.C,Q3*%
X131500000Y-64000000D03*
X129600000Y-64000000D03*
X130550000Y-65875000D03*
%TD*%
D14*
%TO.C,SW1*%
X126750000Y-65750000D03*
X120250000Y-65750000D03*
X126750000Y-61250000D03*
X120250000Y-61250000D03*
%TD*%
D15*
%TO.C,U3*%
X132500000Y-41000000D03*
X132500000Y-40500000D03*
X132500000Y-40000000D03*
X132500000Y-39500000D03*
X130600000Y-39500000D03*
X130600000Y-40000000D03*
X130600000Y-40500000D03*
X130600000Y-41000000D03*
D16*
X131550000Y-40250000D03*
%TD*%
D17*
%TO.C,Q2*%
X146050000Y-59000000D03*
X147950000Y-59000000D03*
X147000000Y-57125000D03*
%TD*%
D18*
%TO.C,J9*%
X121380000Y-69000000D03*
D14*
X123920000Y-69000000D03*
X126460000Y-69000000D03*
X129000000Y-69000000D03*
%TD*%
D19*
%TO.C,C7*%
X139500000Y-60840000D03*
X139500000Y-61500000D03*
%TD*%
D18*
%TO.C,J8*%
X116975000Y-69000000D03*
D14*
X116975000Y-66460000D03*
X116975000Y-63920000D03*
X116975000Y-61380000D03*
%TD*%
D18*
%TO.C,J4*%
X153000000Y-69000000D03*
D14*
X153000000Y-66460000D03*
X153000000Y-63920000D03*
X153000000Y-61380000D03*
%TD*%
D20*
%TO.C,L1*%
X128000000Y-40400000D03*
X128000000Y-42000000D03*
%TD*%
D21*
%TO.C,R21*%
X127150000Y-58500000D03*
X129500000Y-58500000D03*
%TD*%
D12*
%TO.C,D1*%
X134200000Y-37500000D03*
X135800000Y-37500000D03*
%TD*%
D17*
%TO.C,Q4*%
X122050000Y-58875000D03*
X123950000Y-58875000D03*
X123000000Y-57000000D03*
%TD*%
D18*
%TO.C,J1*%
X121000000Y-37000000D03*
D14*
X123540000Y-37000000D03*
X126080000Y-37000000D03*
X128620000Y-37000000D03*
%TD*%
D12*
%TO.C,D10*%
X135800000Y-69000000D03*
X134200000Y-69000000D03*
%TD*%
D22*
%TO.C,C5*%
X121500000Y-40500000D03*
X121500000Y-41850000D03*
%TD*%
D10*
%TO.C,D16*%
X128000000Y-54200000D03*
X128000000Y-55800000D03*
%TD*%
D23*
%TO.C,R17*%
X124500000Y-40000000D03*
X124500000Y-43000000D03*
%TD*%
D18*
%TO.C,J2*%
X149120000Y-37000000D03*
D14*
X146580000Y-37000000D03*
X144040000Y-37000000D03*
X141500000Y-37000000D03*
%TD*%
D24*
%TO.C,D21*%
X120000000Y-50500000D03*
X120000000Y-52400000D03*
X122200000Y-51450000D03*
%TD*%
D10*
%TO.C,D13*%
X117500000Y-54200000D03*
X117500000Y-55800000D03*
%TD*%
D12*
%TO.C,D9*%
X135800000Y-72500000D03*
X134200000Y-72500000D03*
%TD*%
%TO.C,D12*%
X135800000Y-62000000D03*
X134200000Y-62000000D03*
%TD*%
D10*
%TO.C,D6*%
X149000000Y-55800000D03*
X149000000Y-54200000D03*
%TD*%
%TO.C,D15*%
X124500000Y-54200000D03*
X124500000Y-55800000D03*
%TD*%
D12*
%TO.C,D11*%
X135800000Y-65500000D03*
X134200000Y-65500000D03*
%TD*%
D25*
%TO.C,U5*%
X123912500Y-45000000D03*
X123912500Y-46270000D03*
X123912500Y-47540000D03*
X123912500Y-48810000D03*
X131087500Y-48810000D03*
X131087500Y-47540000D03*
X131087500Y-46270000D03*
X131087500Y-45000000D03*
%TD*%
D18*
%TO.C,J6*%
X149000000Y-73025000D03*
D14*
X146460000Y-73025000D03*
X143920000Y-73025000D03*
X141380000Y-73025000D03*
%TD*%
D26*
%TO.C,U1*%
X131562500Y-52400000D03*
X131562500Y-52800001D03*
X131562500Y-53200000D03*
X131562500Y-53600000D03*
X131562500Y-54000000D03*
X131562500Y-54399999D03*
X131562500Y-54800000D03*
X131562500Y-55200000D03*
X131562500Y-55600001D03*
X131562500Y-56000000D03*
X131562500Y-56400000D03*
X131562500Y-56800000D03*
X131562500Y-57199999D03*
X131562500Y-57600000D03*
D27*
X132400000Y-58437500D03*
X132800001Y-58437500D03*
X133200000Y-58437500D03*
X133600000Y-58437500D03*
X134000000Y-58437500D03*
X134399999Y-58437500D03*
X134800000Y-58437500D03*
X135200000Y-58437500D03*
X135600001Y-58437500D03*
X136000000Y-58437500D03*
X136400000Y-58437500D03*
X136800000Y-58437500D03*
X137199999Y-58437500D03*
X137600000Y-58437500D03*
D26*
X138437500Y-57600000D03*
X138437500Y-57199999D03*
X138437500Y-56800000D03*
X138437500Y-56400000D03*
X138437500Y-56000000D03*
X138437500Y-55600001D03*
X138437500Y-55200000D03*
X138437500Y-54800000D03*
X138437500Y-54399999D03*
X138437500Y-54000000D03*
X138437500Y-53600000D03*
X138437500Y-53200000D03*
X138437500Y-52800001D03*
X138437500Y-52400000D03*
D27*
X137600000Y-51562500D03*
X137199999Y-51562500D03*
X136800000Y-51562500D03*
X136400000Y-51562500D03*
X136000000Y-51562500D03*
X135600001Y-51562500D03*
X135200000Y-51562500D03*
X134800000Y-51562500D03*
X134399999Y-51562500D03*
X134000000Y-51562500D03*
X133600000Y-51562500D03*
X133200000Y-51562500D03*
X132800001Y-51562500D03*
X132400000Y-51562500D03*
D28*
X135000000Y-55000000D03*
%TD*%
D29*
%TO.C,C6*%
X138000000Y-60000000D03*
X138000000Y-61600000D03*
%TD*%
D18*
%TO.C,J5*%
X121000000Y-73000000D03*
D14*
X123540000Y-73000000D03*
X126080000Y-73000000D03*
X128620000Y-73000000D03*
%TD*%
D30*
%TO.C,D17*%
X140900000Y-39900000D03*
X139000000Y-39900000D03*
X139950000Y-42100000D03*
%TD*%
D18*
%TO.C,J7*%
X117000000Y-41000000D03*
D14*
X117000000Y-43540000D03*
X117000000Y-46080000D03*
X117000000Y-48620000D03*
%TD*%
D31*
%TO.C,SW2*%
X141880000Y-64000000D03*
X149500000Y-64000000D03*
%TD*%
D17*
%TO.C,Q1*%
X138550000Y-46937500D03*
X140450000Y-46937500D03*
X139500000Y-45062500D03*
%TD*%
D18*
%TO.C,J3*%
X153025000Y-41000000D03*
D14*
X153025000Y-43540000D03*
X153025000Y-46080000D03*
X153025000Y-48620000D03*
%TD*%
D10*
%TO.C,D14*%
X121000000Y-54200000D03*
X121000000Y-55800000D03*
%TD*%
%TO.C,D7*%
X145500000Y-55800000D03*
X145500000Y-54200000D03*
%TD*%
M02*
