%TF.GenerationSoftware,KiCad,Pcbnew,9.0.6*%
%TF.CreationDate,2025-12-07T19:24:30-08:00*%
%TF.ProjectId,redstone_repeater,72656473-746f-46e6-955f-726570656174,rev?*%
%TF.SameCoordinates,Original*%
%TF.FileFunction,Paste,Bot*%
%TF.FilePolarity,Positive*%
%FSLAX46Y46*%
G04 Gerber Fmt 4.6, Leading zero omitted, Abs format (unit mm)*
G04 Created by KiCad (PCBNEW 9.0.6) date 2025-12-07 19:24:30*
%MOMM*%
%LPD*%
G01*
G04 APERTURE LIST*
%ADD10R,1.450000X1.000000*%
%ADD11R,1.020000X1.470000*%
%ADD12R,0.620000X0.600000*%
%ADD13R,0.460000X0.420000*%
%ADD14R,1.470000X1.020000*%
%ADD15R,1.250000X1.150000*%
%ADD16R,2.200000X2.150000*%
%ADD17R,0.650000X0.700000*%
G04 APERTURE END LIST*
D10*
%TO.C,R6*%
X175700000Y-57500000D03*
X175700000Y-59400000D03*
%TD*%
D11*
%TO.C,C2*%
X172600000Y-49500000D03*
X174200000Y-49500000D03*
%TD*%
%TO.C,C2*%
X173900000Y-44000000D03*
X175500000Y-44000000D03*
%TD*%
D12*
%TO.C,C1*%
X195580000Y-59693863D03*
X195580000Y-58773863D03*
%TD*%
D11*
%TO.C,C2*%
X178800000Y-46500000D03*
X177200000Y-46500000D03*
%TD*%
D13*
%TO.C,C9*%
X170929999Y-45062500D03*
X170269999Y-45062500D03*
%TD*%
D10*
%TO.C,R1*%
X168700000Y-57500000D03*
X168700000Y-59400000D03*
%TD*%
D14*
%TO.C,C3*%
X195080000Y-68400000D03*
X195080000Y-70000000D03*
%TD*%
D15*
%TO.C,R4*%
X177000000Y-64175000D03*
X177000000Y-61825000D03*
%TD*%
D16*
%TO.C,D19*%
X192500000Y-65500000D03*
X188100000Y-65500000D03*
%TD*%
D11*
%TO.C,C2*%
X177300000Y-48500000D03*
X175700000Y-48500000D03*
%TD*%
D14*
%TO.C,C10*%
X172200000Y-46190000D03*
X172200000Y-44590000D03*
%TD*%
D15*
%TO.C,R7*%
X180500000Y-64175000D03*
X180500000Y-61825000D03*
%TD*%
D14*
%TO.C,C10*%
X179200000Y-44800000D03*
X179200000Y-43200000D03*
%TD*%
%TO.C,C2*%
X177200000Y-43200000D03*
X177200000Y-44800000D03*
%TD*%
D10*
%TO.C,R8*%
X179200000Y-57500000D03*
X179200000Y-59400000D03*
%TD*%
D17*
%TO.C,C4*%
X192755000Y-70500000D03*
X191405000Y-70500000D03*
%TD*%
D15*
%TO.C,R2*%
X173500000Y-64175000D03*
X173500000Y-61825000D03*
%TD*%
D13*
%TO.C,C11*%
X173700000Y-45500000D03*
X174360000Y-45500000D03*
%TD*%
D15*
%TO.C,R5*%
X170000000Y-64175000D03*
X170000000Y-61825000D03*
%TD*%
D10*
%TO.C,R3*%
X172200000Y-57500000D03*
X172200000Y-59400000D03*
%TD*%
M02*
