%TF.GenerationSoftware,KiCad,Pcbnew,9.0.6*%
%TF.CreationDate,2025-12-07T19:24:08-08:00*%
%TF.ProjectId,redstone_repeater,72656473-746f-46e6-955f-726570656174,rev?*%
%TF.SameCoordinates,Original*%
%TF.FileFunction,Plated,1,2,PTH,Drill*%
%TF.FilePolarity,Positive*%
%FSLAX46Y46*%
G04 Gerber Fmt 4.6, Leading zero omitted, Abs format (unit mm)*
G04 Created by KiCad (PCBNEW 9.0.6) date 2025-12-07 19:24:08*
%MOMM*%
%LPD*%
G01*
G04 APERTURE LIST*
%TA.AperFunction,ViaDrill*%
%ADD10C,0.300000*%
%TD*%
%TA.AperFunction,ComponentDrill*%
%ADD11C,0.300000*%
%TD*%
%TA.AperFunction,ComponentDrill*%
%ADD12C,0.780000*%
%TD*%
%TA.AperFunction,ComponentDrill*%
%ADD13C,0.900000*%
%TD*%
%TA.AperFunction,ComponentDrill*%
%ADD14C,1.000000*%
%TD*%
%TA.AperFunction,ComponentDrill*%
%ADD15C,1.016000*%
%TD*%
%TA.AperFunction,ComponentDrill*%
%ADD16C,1.460000*%
%TD*%
G04 APERTURE END LIST*
D10*
X163500000Y-55000000D03*
X168700000Y-57500000D03*
X168700000Y-59400000D03*
X169000000Y-50500000D03*
X170000000Y-64175000D03*
X171108119Y-63471168D03*
X171845229Y-46000001D03*
X172200000Y-57500000D03*
X172200000Y-59400000D03*
X172600000Y-49500000D03*
X173500000Y-64175000D03*
X173629998Y-45500000D03*
X173900000Y-43600000D03*
X174500000Y-68000000D03*
X174608119Y-63471168D03*
X175200000Y-45000000D03*
X175200000Y-46000000D03*
X175200000Y-47000000D03*
X175700000Y-57500000D03*
X175700000Y-59400000D03*
X176200000Y-45000000D03*
X176200000Y-46000000D03*
X176200000Y-47000000D03*
X176675735Y-52005206D03*
X177000000Y-64175000D03*
X177200000Y-45000000D03*
X177200000Y-46000000D03*
X177200000Y-47000000D03*
X177200134Y-43375302D03*
X177275735Y-52830685D03*
X177300000Y-48500000D03*
X177500000Y-38000000D03*
X177875735Y-51224265D03*
X178108119Y-63471168D03*
X178700000Y-44700000D03*
X178706166Y-46466793D03*
X178723008Y-53276992D03*
X178724265Y-50375735D03*
X178999999Y-49442297D03*
X179200000Y-57500000D03*
X179200000Y-59400000D03*
X180457819Y-47009694D03*
X180475735Y-49524265D03*
X180500000Y-64175000D03*
X181157819Y-46006346D03*
X181500000Y-42000000D03*
X181608119Y-63471168D03*
X182168390Y-45318444D03*
X182388235Y-60611765D03*
X182988235Y-61211762D03*
X184500000Y-61413863D03*
X187500000Y-55000000D03*
X193503362Y-58788863D03*
X195461137Y-60538863D03*
X195500000Y-53500000D03*
X195538845Y-58788863D03*
X195580000Y-59693863D03*
X196500000Y-51350000D03*
D11*
%TO.C,U3*%
X194550000Y-59163863D03*
X194550000Y-60163863D03*
D12*
%TO.C,S1*%
X169753508Y-55000000D03*
X171753508Y-55000000D03*
X173753508Y-55000000D03*
X177753508Y-55000000D03*
X179753508Y-55000000D03*
D13*
%TO.C,D5*%
X192403508Y-53730000D03*
X192403508Y-56270000D03*
D14*
%TO.C,J8*%
X162000000Y-61380000D03*
X162000000Y-63920000D03*
X162000000Y-66460000D03*
X162000000Y-69000000D03*
%TO.C,J7*%
X162050000Y-41000000D03*
X162050000Y-43540000D03*
X162050000Y-46080000D03*
X162050000Y-48620000D03*
%TO.C,J1*%
X165975000Y-37000000D03*
%TO.C,J5*%
X165975000Y-73000000D03*
%TO.C,J1*%
X168515000Y-37000000D03*
%TO.C,J5*%
X168515000Y-73000000D03*
%TO.C,J1*%
X171055000Y-37000000D03*
%TO.C,J5*%
X171055000Y-73000000D03*
%TO.C,J1*%
X173595000Y-37000000D03*
%TO.C,J5*%
X173595000Y-73000000D03*
%TO.C,SW1*%
X184500000Y-40000000D03*
X184500000Y-44500000D03*
%TO.C,J6*%
X186355000Y-73025000D03*
%TO.C,J2*%
X186475000Y-37000000D03*
%TO.C,J6*%
X188895000Y-73025000D03*
%TO.C,J2*%
X189015000Y-37000000D03*
%TO.C,SW1*%
X191000000Y-40000000D03*
X191000000Y-44500000D03*
%TO.C,J6*%
X191435000Y-73025000D03*
%TO.C,J2*%
X191555000Y-37000000D03*
%TO.C,J6*%
X193975000Y-73025000D03*
%TO.C,J9*%
X194000000Y-40880000D03*
X194000000Y-43420000D03*
X194000000Y-45960000D03*
X194000000Y-48500000D03*
%TO.C,J2*%
X194095000Y-37000000D03*
%TO.C,J4*%
X197975000Y-61380000D03*
X197975000Y-63920000D03*
X197975000Y-66460000D03*
X197975000Y-69000000D03*
%TO.C,J3*%
X198000000Y-41000000D03*
X198000000Y-43540000D03*
X198000000Y-46080000D03*
X198000000Y-48620000D03*
D15*
%TO.C,U2*%
X187500000Y-68500000D03*
X190040000Y-68500000D03*
X192580000Y-68500000D03*
D16*
%TO.C,S1*%
X167603508Y-55000000D03*
X181903508Y-55000000D03*
M02*
