%TF.GenerationSoftware,KiCad,Pcbnew,9.0.6*%
%TF.CreationDate,2025-12-07T19:24:30-08:00*%
%TF.ProjectId,redstone_repeater,72656473-746f-46e6-955f-726570656174,rev?*%
%TF.SameCoordinates,Original*%
%TF.FileFunction,Copper,L1,Top*%
%TF.FilePolarity,Positive*%
%FSLAX46Y46*%
G04 Gerber Fmt 4.6, Leading zero omitted, Abs format (unit mm)*
G04 Created by KiCad (PCBNEW 9.0.6) date 2025-12-07 19:24:30*
%MOMM*%
%LPD*%
G01*
G04 APERTURE LIST*
G04 Aperture macros list*
%AMRoundRect*
0 Rectangle with rounded corners*
0 $1 Rounding radius*
0 $2 $3 $4 $5 $6 $7 $8 $9 X,Y pos of 4 corners*
0 Add a 4 corners polygon primitive as box body*
4,1,4,$2,$3,$4,$5,$6,$7,$8,$9,$2,$3,0*
0 Add four circle primitives for the rounded corners*
1,1,$1+$1,$2,$3*
1,1,$1+$1,$4,$5*
1,1,$1+$1,$6,$7*
1,1,$1+$1,$8,$9*
0 Add four rect primitives between the rounded corners*
20,1,$1+$1,$2,$3,$4,$5,0*
20,1,$1+$1,$4,$5,$6,$7,0*
20,1,$1+$1,$6,$7,$8,$9,0*
20,1,$1+$1,$8,$9,$2,$3,0*%
G04 Aperture macros list end*
%TA.AperFunction,ComponentPad*%
%ADD10C,1.524000*%
%TD*%
%TA.AperFunction,SMDPad,CuDef*%
%ADD11RoundRect,0.150000X0.150000X-0.587500X0.150000X0.587500X-0.150000X0.587500X-0.150000X-0.587500X0*%
%TD*%
%TA.AperFunction,SMDPad,CuDef*%
%ADD12R,0.950000X1.000000*%
%TD*%
%TA.AperFunction,SMDPad,CuDef*%
%ADD13RoundRect,0.150000X-0.150000X0.587500X-0.150000X-0.587500X0.150000X-0.587500X0.150000X0.587500X0*%
%TD*%
%TA.AperFunction,ComponentPad*%
%ADD14C,1.700000*%
%TD*%
%TA.AperFunction,ComponentPad*%
%ADD15R,1.337000X1.337000*%
%TD*%
%TA.AperFunction,ComponentPad*%
%ADD16C,1.337000*%
%TD*%
%TA.AperFunction,ComponentPad*%
%ADD17C,2.190000*%
%TD*%
%TA.AperFunction,SMDPad,CuDef*%
%ADD18RoundRect,0.062500X0.187500X0.062500X-0.187500X0.062500X-0.187500X-0.062500X0.187500X-0.062500X0*%
%TD*%
%TA.AperFunction,HeatsinkPad*%
%ADD19C,0.600000*%
%TD*%
%TA.AperFunction,SMDPad,CuDef*%
%ADD20R,0.900000X1.600000*%
%TD*%
%TA.AperFunction,ComponentPad*%
%ADD21R,1.700000X1.700000*%
%TD*%
%TA.AperFunction,SMDPad,CuDef*%
%ADD22R,0.420000X0.460000*%
%TD*%
%TA.AperFunction,SMDPad,CuDef*%
%ADD23R,1.800000X0.800000*%
%TD*%
%TA.AperFunction,SMDPad,CuDef*%
%ADD24R,0.600000X1.100000*%
%TD*%
%TA.AperFunction,SMDPad,CuDef*%
%ADD25R,0.700000X0.650000*%
%TD*%
%TA.AperFunction,SMDPad,CuDef*%
%ADD26R,1.450000X1.000000*%
%TD*%
%TA.AperFunction,SMDPad,CuDef*%
%ADD27R,2.700000X1.100000*%
%TD*%
%TA.AperFunction,SMDPad,CuDef*%
%ADD28RoundRect,0.162500X0.162500X-0.650000X0.162500X0.650000X-0.162500X0.650000X-0.162500X-0.650000X0*%
%TD*%
%TA.AperFunction,SMDPad,CuDef*%
%ADD29RoundRect,0.050000X0.050000X-0.387500X0.050000X0.387500X-0.050000X0.387500X-0.050000X-0.387500X0*%
%TD*%
%TA.AperFunction,SMDPad,CuDef*%
%ADD30RoundRect,0.050000X0.387500X-0.050000X0.387500X0.050000X-0.387500X0.050000X-0.387500X-0.050000X0*%
%TD*%
%TA.AperFunction,HeatsinkPad*%
%ADD31R,3.200000X3.200000*%
%TD*%
%TA.AperFunction,SMDPad,CuDef*%
%ADD32R,1.470000X1.020000*%
%TD*%
%TA.AperFunction,ComponentPad*%
%ADD33R,1.800000X1.800000*%
%TD*%
%TA.AperFunction,ComponentPad*%
%ADD34C,1.800000*%
%TD*%
%TA.AperFunction,SMDPad,CuDef*%
%ADD35R,1.250000X1.150000*%
%TD*%
%TA.AperFunction,ViaPad*%
%ADD36C,0.600000*%
%TD*%
%TA.AperFunction,Conductor*%
%ADD37C,0.200000*%
%TD*%
G04 APERTURE END LIST*
D10*
%TO.P,U2,1,Vin*%
%TO.N,VCC*%
X192580000Y-68500000D03*
%TO.P,U2,2,GND*%
%TO.N,GND*%
X190040000Y-68500000D03*
%TO.P,U2,3,Vout*%
%TO.N,/5V_LOCAL*%
X187500000Y-68500000D03*
%TD*%
D11*
%TO.P,Q4,1,B*%
%TO.N,Net-(Q4-B)*%
X179550000Y-63437500D03*
%TO.P,Q4,2,E*%
%TO.N,GND*%
X181450000Y-63437500D03*
%TO.P,Q4,3,C*%
%TO.N,Net-(D4-K)*%
X180500000Y-61562500D03*
%TD*%
D12*
%TO.P,D3,1,K*%
%TO.N,Net-(D3-K)*%
X177000000Y-59500000D03*
%TO.P,D3,2,A*%
%TO.N,Net-(D3-A)*%
X175400000Y-59500000D03*
%TD*%
D13*
%TO.P,Q5,1,B*%
%TO.N,Net-(Q5-B)*%
X189400000Y-55000000D03*
%TO.P,Q5,2,E*%
%TO.N,GND*%
X187500000Y-55000000D03*
%TO.P,Q5,3,C*%
%TO.N,Net-(D5-K)*%
X188450000Y-56875000D03*
%TD*%
D14*
%TO.P,SW1,1,A*%
%TO.N,/3.3V_LOCAL*%
X184500000Y-40000000D03*
X191000000Y-40000000D03*
%TO.P,SW1,2,B*%
%TO.N,Net-(SW1-B)*%
X184500000Y-44500000D03*
X191000000Y-44500000D03*
%TD*%
D15*
%TO.P,S1,1,NC*%
%TO.N,Net-(S1-NC)*%
X169753508Y-55000000D03*
D16*
%TO.P,S1,2,NO_1*%
%TO.N,Net-(S1-NO_1)*%
X171753508Y-55000000D03*
%TO.P,S1,3,COM*%
%TO.N,GND*%
X173753508Y-55000000D03*
%TO.P,S1,4,NO_2*%
%TO.N,Net-(S1-NO_2)*%
X177753508Y-55000000D03*
%TO.P,S1,5,NO_3*%
%TO.N,Net-(S1-NO_3)*%
X179753508Y-55000000D03*
D17*
%TO.P,S1,6,MH1*%
%TO.N,unconnected-(S1-MH1-Pad6)*%
X167603508Y-55000000D03*
%TO.P,S1,7,MH2*%
%TO.N,unconnected-(S1-MH2-Pad7)*%
X181903508Y-55000000D03*
%TD*%
D18*
%TO.P,U3,1,PGND*%
%TO.N,GND*%
X195500000Y-60413863D03*
%TO.P,U3,2,VIN*%
%TO.N,/5V_LOCAL*%
X195500000Y-59913863D03*
%TO.P,U3,3,EN*%
X195500000Y-59413863D03*
%TO.P,U3,4,AGND*%
%TO.N,GND*%
X195500000Y-58913863D03*
%TO.P,U3,5,FB*%
X193600000Y-58913863D03*
%TO.P,U3,6,VOS*%
%TO.N,/3.3V_LOCAL*%
X193600000Y-59413863D03*
%TO.P,U3,7,SW*%
%TO.N,Net-(U3-SW)*%
X193600000Y-59913863D03*
%TO.P,U3,8,PG*%
%TO.N,Net-(U3-PG)*%
X193600000Y-60413863D03*
D19*
%TO.P,U3,9,PAD*%
%TO.N,GND*%
X194550000Y-60163863D03*
D20*
X194550000Y-59663863D03*
D19*
X194550000Y-59163863D03*
%TD*%
D21*
%TO.P,J9,1,Pin_1*%
%TO.N,GND*%
X194000000Y-48500000D03*
D14*
%TO.P,J9,2,Pin_2*%
%TO.N,Net-(J9-Pin_2)*%
X194000000Y-45960000D03*
%TO.P,J9,3,Pin_3*%
%TO.N,Net-(J9-Pin_3)*%
X194000000Y-43420000D03*
%TO.P,J9,4,Pin_4*%
%TO.N,/3.3V_LOCAL*%
X194000000Y-40880000D03*
%TD*%
D22*
%TO.P,C7,1,1*%
%TO.N,Net-(SW1-B)*%
X183000000Y-44160000D03*
%TO.P,C7,2,2*%
%TO.N,GND*%
X183000000Y-43500000D03*
%TD*%
D21*
%TO.P,J8,1,Pin_1*%
%TO.N,GND*%
X162000000Y-69000000D03*
D14*
%TO.P,J8,2,Pin_2*%
%TO.N,VCC*%
X162000000Y-66460000D03*
%TO.P,J8,3,Pin_3*%
%TO.N,/W_TX*%
X162000000Y-63920000D03*
%TO.P,J8,4,Pin_4*%
%TO.N,/W_RX*%
X162000000Y-61380000D03*
%TD*%
D12*
%TO.P,D4,1,K*%
%TO.N,Net-(D4-K)*%
X180500000Y-59500000D03*
%TO.P,D4,2,A*%
%TO.N,Net-(D4-A)*%
X178900000Y-59500000D03*
%TD*%
D21*
%TO.P,J4,1,Pin_1*%
%TO.N,GND*%
X197975000Y-69000000D03*
D14*
%TO.P,J4,2,Pin_2*%
%TO.N,VCC*%
X197975000Y-66460000D03*
%TO.P,J4,3,Pin_3*%
%TO.N,/E_TX*%
X197975000Y-63920000D03*
%TO.P,J4,4,Pin_4*%
%TO.N,/E_RX*%
X197975000Y-61380000D03*
%TD*%
D23*
%TO.P,L1,1,1*%
%TO.N,/3.3V_LOCAL*%
X191000000Y-59200000D03*
%TO.P,L1,2,2*%
%TO.N,Net-(U3-SW)*%
X191000000Y-60800000D03*
%TD*%
D24*
%TO.P,D18,1,K1*%
%TO.N,/E_TX*%
X195550000Y-53550000D03*
%TO.P,D18,2,K2*%
%TO.N,/E_RX*%
X197450000Y-53550000D03*
%TO.P,D18,3,COM_A*%
%TO.N,GND*%
X196500000Y-51350000D03*
%TD*%
D12*
%TO.P,D1,1,K*%
%TO.N,Net-(D1-K)*%
X170000000Y-59500000D03*
%TO.P,D1,2,A*%
%TO.N,Net-(D1-A)*%
X168400000Y-59500000D03*
%TD*%
D11*
%TO.P,Q1,1,B*%
%TO.N,Net-(Q1-B)*%
X169050000Y-63437500D03*
%TO.P,Q1,2,E*%
%TO.N,GND*%
X170950000Y-63437500D03*
%TO.P,Q1,3,C*%
%TO.N,Net-(D1-K)*%
X170000000Y-61562500D03*
%TD*%
D21*
%TO.P,J1,1,Pin_1*%
%TO.N,GND*%
X165975000Y-37000000D03*
D14*
%TO.P,J1,2,Pin_2*%
%TO.N,VCC*%
X168515000Y-37000000D03*
%TO.P,J1,3,Pin_3*%
%TO.N,/N_TX*%
X171055000Y-37000000D03*
%TO.P,J1,4,Pin_4*%
%TO.N,/N_RX*%
X173595000Y-37000000D03*
%TD*%
D25*
%TO.P,C5,1,1*%
%TO.N,/3.3V_LOCAL*%
X184500000Y-59913863D03*
%TO.P,C5,2,2*%
%TO.N,GND*%
X184500000Y-61263863D03*
%TD*%
D26*
%TO.P,R10,1*%
%TO.N,/5V_LOCAL*%
X196000000Y-57400000D03*
%TO.P,R10,2*%
%TO.N,Net-(D5-A)*%
X196000000Y-55500000D03*
%TD*%
D27*
%TO.P,R17,1*%
%TO.N,/3.3V_LOCAL*%
X187500000Y-59000000D03*
%TO.P,R17,2*%
%TO.N,Net-(U3-PG)*%
X187500000Y-62000000D03*
%TD*%
D21*
%TO.P,J2,1,Pin_1*%
%TO.N,GND*%
X194095000Y-37000000D03*
D14*
%TO.P,J2,2,Pin_2*%
%TO.N,VCC*%
X191555000Y-37000000D03*
%TO.P,J2,3,Pin_3*%
%TO.N,/N_TX*%
X189015000Y-37000000D03*
%TO.P,J2,4,Pin_4*%
%TO.N,/N_RX*%
X186475000Y-37000000D03*
%TD*%
D24*
%TO.P,D21,1,K1*%
%TO.N,/W_TX*%
X164450000Y-52900000D03*
%TO.P,D21,2,K2*%
%TO.N,/W_RX*%
X162550000Y-52900000D03*
%TO.P,D21,3,COM_A*%
%TO.N,GND*%
X163500000Y-55100000D03*
%TD*%
D12*
%TO.P,D2,1,K*%
%TO.N,Net-(D2-K)*%
X173500000Y-59500000D03*
%TO.P,D2,2,A*%
%TO.N,Net-(D2-A)*%
X171900000Y-59500000D03*
%TD*%
D11*
%TO.P,Q2,1,B*%
%TO.N,Net-(Q2-B)*%
X172550000Y-63437500D03*
%TO.P,Q2,2,E*%
%TO.N,GND*%
X174450000Y-63437500D03*
%TO.P,Q2,3,C*%
%TO.N,Net-(D2-K)*%
X173500000Y-61562500D03*
%TD*%
D28*
%TO.P,U5,1,~{CS}*%
%TO.N,Net-(U1-QSPI_SS)*%
X165194999Y-50650000D03*
%TO.P,U5,2,DO/IO_{1}*%
%TO.N,Net-(U1-QSPI_SD1)*%
X166464999Y-50650000D03*
%TO.P,U5,3,~{WP}/IO_{2}*%
%TO.N,Net-(U1-QSPI_SD2)*%
X167734999Y-50650000D03*
%TO.P,U5,4,GND*%
%TO.N,GND*%
X169004999Y-50650000D03*
%TO.P,U5,5,DI/IO_{0}*%
%TO.N,Net-(U1-QSPI_SD0)*%
X169004999Y-43475000D03*
%TO.P,U5,6,CLK*%
%TO.N,Net-(U1-QSPI_SCLK)*%
X167734999Y-43475000D03*
%TO.P,U5,7,~{HOLD}/~{RESET}/IO_{3}*%
%TO.N,Net-(U1-QSPI_SD3)*%
X166464999Y-43475000D03*
%TO.P,U5,8,VCC*%
%TO.N,/3.3V_LOCAL*%
X165194999Y-43475000D03*
%TD*%
D21*
%TO.P,J6,1,Pin_1*%
%TO.N,GND*%
X193975000Y-73025000D03*
D14*
%TO.P,J6,2,Pin_2*%
%TO.N,VCC*%
X191435000Y-73025000D03*
%TO.P,J6,3,Pin_3*%
%TO.N,/S_TX*%
X188895000Y-73025000D03*
%TO.P,J6,4,Pin_4*%
%TO.N,/S_RX*%
X186355000Y-73025000D03*
%TD*%
D29*
%TO.P,U1,1,IOVDD*%
%TO.N,/3.3V_LOCAL*%
X173600000Y-49437500D03*
%TO.P,U1,2,GPIO0*%
%TO.N,/W_TX*%
X174000001Y-49437500D03*
%TO.P,U1,3,GPIO1*%
%TO.N,/W_RX*%
X174400000Y-49437500D03*
%TO.P,U1,4,GPIO2*%
%TO.N,Net-(S1-NC)*%
X174800000Y-49437500D03*
%TO.P,U1,5,GPIO3*%
%TO.N,Net-(S1-NO_1)*%
X175200000Y-49437500D03*
%TO.P,U1,6,GPIO4*%
%TO.N,Net-(S1-NO_2)*%
X175599999Y-49437500D03*
%TO.P,U1,7,GPIO5*%
%TO.N,Net-(S1-NO_3)*%
X176000000Y-49437500D03*
%TO.P,U1,8,GPIO6*%
%TO.N,Net-(U1-GPIO6)*%
X176400000Y-49437500D03*
%TO.P,U1,9,GPIO7*%
%TO.N,Net-(U1-GPIO7)*%
X176800001Y-49437500D03*
%TO.P,U1,10,IOVDD*%
%TO.N,/3.3V_LOCAL*%
X177200000Y-49437500D03*
%TO.P,U1,11,GPIO8*%
%TO.N,Net-(U1-GPIO8)*%
X177600000Y-49437500D03*
%TO.P,U1,12,GPIO9*%
%TO.N,Net-(U1-GPIO9)*%
X178000000Y-49437500D03*
%TO.P,U1,13,GPIO10*%
%TO.N,/S_TX*%
X178399999Y-49437500D03*
%TO.P,U1,14,GPIO11*%
%TO.N,/S_RX*%
X178800000Y-49437500D03*
D30*
%TO.P,U1,15,GPIO12*%
%TO.N,Net-(U1-GPIO12)*%
X179637500Y-48600000D03*
%TO.P,U1,16,GPIO13*%
%TO.N,/E_TX*%
X179637500Y-48199999D03*
%TO.P,U1,17,GPIO14*%
%TO.N,/E_RX*%
X179637500Y-47800000D03*
%TO.P,U1,18,GPIO15*%
%TO.N,unconnected-(U1-GPIO15-Pad18)*%
X179637500Y-47400000D03*
%TO.P,U1,19,TESTEN*%
%TO.N,GND*%
X179637500Y-47000000D03*
%TO.P,U1,20,XIN*%
%TO.N,unconnected-(U1-XIN-Pad20)*%
X179637500Y-46600001D03*
%TO.P,U1,21,XOUT*%
%TO.N,unconnected-(U1-XOUT-Pad21)*%
X179637500Y-46200000D03*
%TO.P,U1,22,IOVDD*%
%TO.N,/3.3V_LOCAL*%
X179637500Y-45800000D03*
%TO.P,U1,23,DVDD*%
%TO.N,Net-(U1-VREG_VOUT)*%
X179637500Y-45399999D03*
%TO.P,U1,24,SWCLK*%
%TO.N,Net-(J9-Pin_3)*%
X179637500Y-45000000D03*
%TO.P,U1,25,SWD*%
%TO.N,Net-(J9-Pin_2)*%
X179637500Y-44600000D03*
%TO.P,U1,26,RUN*%
%TO.N,Net-(SW1-B)*%
X179637500Y-44200000D03*
%TO.P,U1,27,GPIO16*%
%TO.N,unconnected-(U1-GPIO16-Pad27)*%
X179637500Y-43800001D03*
%TO.P,U1,28,GPIO17*%
%TO.N,unconnected-(U1-GPIO17-Pad28)*%
X179637500Y-43400000D03*
D29*
%TO.P,U1,29,GPIO18*%
%TO.N,unconnected-(U1-GPIO18-Pad29)*%
X178800000Y-42562500D03*
%TO.P,U1,30,GPIO19*%
%TO.N,unconnected-(U1-GPIO19-Pad30)*%
X178399999Y-42562500D03*
%TO.P,U1,31,GPIO20*%
%TO.N,unconnected-(U1-GPIO20-Pad31)*%
X178000000Y-42562500D03*
%TO.P,U1,32,GPIO21*%
%TO.N,unconnected-(U1-GPIO21-Pad32)*%
X177600000Y-42562500D03*
%TO.P,U1,33,IOVDD*%
%TO.N,/3.3V_LOCAL*%
X177200000Y-42562500D03*
%TO.P,U1,34,GPIO22*%
%TO.N,/N_RX*%
X176800001Y-42562500D03*
%TO.P,U1,35,GPIO23*%
%TO.N,/N_TX*%
X176400000Y-42562500D03*
%TO.P,U1,36,GPIO24*%
%TO.N,unconnected-(U1-GPIO24-Pad36)*%
X176000000Y-42562500D03*
%TO.P,U1,37,GPIO25*%
%TO.N,unconnected-(U1-GPIO25-Pad37)*%
X175599999Y-42562500D03*
%TO.P,U1,38,GPIO26_ADC0*%
%TO.N,unconnected-(U1-GPIO26_ADC0-Pad38)*%
X175200000Y-42562500D03*
%TO.P,U1,39,GPIO27_ADC1*%
%TO.N,unconnected-(U1-GPIO27_ADC1-Pad39)*%
X174800000Y-42562500D03*
%TO.P,U1,40,GPIO28_ADC2*%
%TO.N,unconnected-(U1-GPIO28_ADC2-Pad40)*%
X174400000Y-42562500D03*
%TO.P,U1,41,GPIO29_ADC3*%
%TO.N,unconnected-(U1-GPIO29_ADC3-Pad41)*%
X174000001Y-42562500D03*
%TO.P,U1,42,IOVDD*%
%TO.N,/3.3V_LOCAL*%
X173600000Y-42562500D03*
D30*
%TO.P,U1,43,ADC_AVDD*%
X172762500Y-43400000D03*
%TO.P,U1,44,VREG_IN*%
X172762500Y-43800001D03*
%TO.P,U1,45,VREG_VOUT*%
%TO.N,Net-(U1-VREG_VOUT)*%
X172762500Y-44200000D03*
%TO.P,U1,46,USB_DM*%
%TO.N,unconnected-(U1-USB_DM-Pad46)*%
X172762500Y-44600000D03*
%TO.P,U1,47,USB_DP*%
%TO.N,unconnected-(U1-USB_DP-Pad47)*%
X172762500Y-45000000D03*
%TO.P,U1,48,USB_VDD*%
%TO.N,/3.3V_LOCAL*%
X172762500Y-45399999D03*
%TO.P,U1,49,IOVDD*%
X172762500Y-45800000D03*
%TO.P,U1,50,DVDD*%
%TO.N,Net-(U1-VREG_VOUT)*%
X172762500Y-46200000D03*
%TO.P,U1,51,QSPI_SD3*%
%TO.N,Net-(U1-QSPI_SD3)*%
X172762500Y-46600001D03*
%TO.P,U1,52,QSPI_SCLK*%
%TO.N,Net-(U1-QSPI_SCLK)*%
X172762500Y-47000000D03*
%TO.P,U1,53,QSPI_SD0*%
%TO.N,Net-(U1-QSPI_SD0)*%
X172762500Y-47400000D03*
%TO.P,U1,54,QSPI_SD2*%
%TO.N,Net-(U1-QSPI_SD2)*%
X172762500Y-47800000D03*
%TO.P,U1,55,QSPI_SD1*%
%TO.N,Net-(U1-QSPI_SD1)*%
X172762500Y-48199999D03*
%TO.P,U1,56,QSPI_SS*%
%TO.N,Net-(U1-QSPI_SS)*%
X172762500Y-48600000D03*
D31*
%TO.P,U1,57,GND*%
%TO.N,GND*%
X176200000Y-46000000D03*
%TD*%
D32*
%TO.P,C6,1,1*%
%TO.N,Net-(SW1-B)*%
X181500000Y-43800000D03*
%TO.P,C6,2,2*%
%TO.N,GND*%
X181500000Y-42200000D03*
%TD*%
D33*
%TO.P,D5,1,K*%
%TO.N,Net-(D5-K)*%
X192403508Y-56270000D03*
D34*
%TO.P,D5,2,A*%
%TO.N,Net-(D5-A)*%
X192403508Y-53730000D03*
%TD*%
D21*
%TO.P,J5,1,Pin_1*%
%TO.N,GND*%
X165975000Y-73000000D03*
D14*
%TO.P,J5,2,Pin_2*%
%TO.N,VCC*%
X168515000Y-73000000D03*
%TO.P,J5,3,Pin_3*%
%TO.N,/S_TX*%
X171055000Y-73000000D03*
%TO.P,J5,4,Pin_4*%
%TO.N,/S_RX*%
X173595000Y-73000000D03*
%TD*%
D24*
%TO.P,D17,1,K1*%
%TO.N,/N_TX*%
X176550000Y-40100000D03*
%TO.P,D17,2,K2*%
%TO.N,/N_RX*%
X178450000Y-40100000D03*
%TO.P,D17,3,COM_A*%
%TO.N,GND*%
X177500000Y-37900000D03*
%TD*%
%TO.P,D20,1,K1*%
%TO.N,/S_TX*%
X173550000Y-70100000D03*
%TO.P,D20,2,K2*%
%TO.N,/S_RX*%
X175450000Y-70100000D03*
%TO.P,D20,3,COM_A*%
%TO.N,GND*%
X174500000Y-67900000D03*
%TD*%
D21*
%TO.P,J7,1,Pin_1*%
%TO.N,GND*%
X162050000Y-41000000D03*
D14*
%TO.P,J7,2,Pin_2*%
%TO.N,VCC*%
X162050000Y-43540000D03*
%TO.P,J7,3,Pin_3*%
%TO.N,/W_TX*%
X162050000Y-46080000D03*
%TO.P,J7,4,Pin_4*%
%TO.N,/W_RX*%
X162050000Y-48620000D03*
%TD*%
D11*
%TO.P,Q3,1,B*%
%TO.N,Net-(Q3-B)*%
X176050000Y-63437500D03*
%TO.P,Q3,2,E*%
%TO.N,GND*%
X177950000Y-63437500D03*
%TO.P,Q3,3,C*%
%TO.N,Net-(D3-K)*%
X177000000Y-61562500D03*
%TD*%
D21*
%TO.P,J3,1,Pin_1*%
%TO.N,GND*%
X198000000Y-41000000D03*
D14*
%TO.P,J3,2,Pin_2*%
%TO.N,VCC*%
X198000000Y-43540000D03*
%TO.P,J3,3,Pin_3*%
%TO.N,/E_TX*%
X198000000Y-46080000D03*
%TO.P,J3,4,Pin_4*%
%TO.N,/E_RX*%
X198000000Y-48620000D03*
%TD*%
D35*
%TO.P,R9,1*%
%TO.N,Net-(Q5-B)*%
X188500000Y-52500000D03*
%TO.P,R9,2*%
%TO.N,Net-(U1-GPIO12)*%
X188500000Y-50150000D03*
%TD*%
D36*
%TO.N,/5V_LOCAL*%
X195580000Y-59693863D03*
X179200000Y-57500000D03*
X168700000Y-57500000D03*
X172200000Y-57500000D03*
X175700000Y-57500000D03*
%TO.N,GND*%
X177200000Y-46000000D03*
X187500000Y-55000000D03*
X169000000Y-50500000D03*
X195538845Y-58788863D03*
X195461137Y-60538863D03*
X175200000Y-47000000D03*
X181500000Y-42000000D03*
X177200000Y-47000000D03*
X181608119Y-63471168D03*
X176200000Y-45000000D03*
X171108119Y-63471168D03*
X177200000Y-45000000D03*
X176200000Y-46000000D03*
X180457819Y-47009694D03*
X175200000Y-46000000D03*
X193503362Y-58788863D03*
X174500000Y-68000000D03*
X175200000Y-45000000D03*
X177500000Y-38000000D03*
X184500000Y-61413863D03*
X196500000Y-51350000D03*
X176200000Y-47000000D03*
X174608119Y-63471168D03*
X163500000Y-55000000D03*
X178108119Y-63471168D03*
%TO.N,/3.3V_LOCAL*%
X173900000Y-43600000D03*
X178706166Y-46466793D03*
X172600000Y-49500000D03*
X177300000Y-48500000D03*
X180475735Y-49524265D03*
X177200134Y-43375302D03*
X173629998Y-45500000D03*
%TO.N,Net-(U1-VREG_VOUT)*%
X171845229Y-46000001D03*
X178700000Y-44700000D03*
%TO.N,Net-(D1-A)*%
X168700000Y-59400000D03*
%TO.N,Net-(D2-A)*%
X172200000Y-59400000D03*
%TO.N,Net-(D3-A)*%
X175700000Y-59400000D03*
%TO.N,Net-(D4-A)*%
X179200000Y-59400000D03*
%TO.N,/E_TX*%
X195500000Y-53500000D03*
%TO.N,/S_RX*%
X182988235Y-61211762D03*
X178999999Y-49442297D03*
%TO.N,/S_TX*%
X182388235Y-60611765D03*
X178724265Y-50375735D03*
%TO.N,Net-(J9-Pin_3)*%
X181157819Y-46006346D03*
X182168390Y-45318444D03*
%TO.N,Net-(Q2-B)*%
X173500000Y-64175000D03*
%TO.N,Net-(Q3-B)*%
X177000000Y-64175000D03*
%TO.N,Net-(Q4-B)*%
X180500000Y-64175000D03*
%TO.N,Net-(U1-GPIO7)*%
X177275735Y-52830685D03*
%TO.N,Net-(Q1-B)*%
X170000000Y-64175000D03*
%TO.N,Net-(U1-GPIO8)*%
X177875735Y-51224265D03*
%TO.N,Net-(U1-GPIO6)*%
X176675735Y-52005206D03*
%TO.N,Net-(U1-GPIO9)*%
X178723008Y-53276992D03*
%TD*%
D37*
%TO.N,/5V_LOCAL*%
X195500000Y-59413863D02*
X195500000Y-59913863D01*
X196000000Y-57400000D02*
X196500000Y-57900000D01*
X196500000Y-60349943D02*
X196062137Y-60787806D01*
X195500000Y-59773863D02*
X195580000Y-59693863D01*
X195580000Y-59693863D02*
X196062137Y-60176000D01*
X196500000Y-57900000D02*
X196500000Y-60349943D01*
X183849000Y-64849000D02*
X187500000Y-68500000D01*
X196062137Y-60176000D02*
X196062137Y-60787806D01*
X175700000Y-57500000D02*
X179200000Y-57500000D01*
X195500000Y-59913863D02*
X195500000Y-59773863D01*
X172200000Y-57500000D02*
X168700000Y-57500000D01*
X188349943Y-68500000D02*
X187500000Y-68500000D01*
X183849000Y-61224000D02*
X183849000Y-64849000D01*
X172200000Y-57500000D02*
X175700000Y-57500000D01*
X196062137Y-60787806D02*
X188349943Y-68500000D01*
X179200000Y-57500000D02*
X180125000Y-57500000D01*
X180125000Y-57500000D02*
X183849000Y-61224000D01*
%TO.N,GND*%
X174450000Y-63437500D02*
X174574451Y-63437500D01*
X169004999Y-50504999D02*
X169000000Y-50500000D01*
X170950000Y-63437500D02*
X171074451Y-63437500D01*
X180448125Y-47000000D02*
X180457819Y-47009694D01*
X181700000Y-42200000D02*
X181500000Y-42200000D01*
X174574451Y-63437500D02*
X174608119Y-63471168D01*
X171074451Y-63437500D02*
X171108119Y-63471168D01*
X181450000Y-63437500D02*
X181574451Y-63437500D01*
X169004999Y-50650000D02*
X169004999Y-50504999D01*
X177950000Y-63437500D02*
X178074451Y-63437500D01*
X178074451Y-63437500D02*
X178108119Y-63471168D01*
X195500000Y-58827708D02*
X195538845Y-58788863D01*
X183000000Y-43500000D02*
X181700000Y-42200000D01*
X193600000Y-58913863D02*
X193600000Y-58885501D01*
X184500000Y-61263863D02*
X184500000Y-61413863D01*
X179637500Y-47000000D02*
X180448125Y-47000000D01*
X195500000Y-58913863D02*
X195500000Y-58827708D01*
X195500000Y-60500000D02*
X195461137Y-60538863D01*
X195500000Y-60413863D02*
X195500000Y-60500000D01*
X181574451Y-63437500D02*
X181608119Y-63471168D01*
X193600000Y-58885501D02*
X193503362Y-58788863D01*
%TO.N,/3.3V_LOCAL*%
X177300000Y-48500000D02*
X173600000Y-48500000D01*
X188200000Y-59200000D02*
X191000000Y-59200000D01*
X172762500Y-45399999D02*
X173529997Y-45399999D01*
X173600000Y-49437500D02*
X173600000Y-48500000D01*
X185413863Y-59000000D02*
X184500000Y-59913863D01*
X173529997Y-45399999D02*
X173629998Y-45500000D01*
X178010000Y-48500000D02*
X178706166Y-47803834D01*
X173600000Y-45529998D02*
X173629998Y-45500000D01*
X177200000Y-49437500D02*
X177200000Y-48600000D01*
X191213863Y-59413863D02*
X193600000Y-59413863D01*
X165194999Y-42662501D02*
X166298000Y-41559500D01*
X178706166Y-47803834D02*
X178706166Y-46466793D01*
X173600000Y-48500000D02*
X173600000Y-45529998D01*
X173329998Y-45800000D02*
X173629998Y-45500000D01*
X188000000Y-59000000D02*
X188200000Y-59200000D01*
X173699999Y-43800001D02*
X173900000Y-43600000D01*
X171859500Y-41559500D02*
X173900000Y-43600000D01*
X187500000Y-59000000D02*
X185413863Y-59000000D01*
X173600000Y-42562500D02*
X173600000Y-43300000D01*
X184500000Y-40000000D02*
X183500000Y-41000000D01*
X165194999Y-43475000D02*
X165194999Y-42662501D01*
X172762500Y-43800001D02*
X173699999Y-43800001D01*
X172662500Y-49437500D02*
X172600000Y-49500000D01*
X166298000Y-41559500D02*
X171859500Y-41559500D01*
X187500000Y-59000000D02*
X187500000Y-56548530D01*
X172762500Y-43400000D02*
X173700000Y-43400000D01*
X177200000Y-42027226D02*
X178227226Y-41000000D01*
X194000000Y-40880000D02*
X193120000Y-40000000D01*
X193120000Y-40000000D02*
X191000000Y-40000000D01*
X183500000Y-41000000D02*
X178227226Y-41000000D01*
X187500000Y-59000000D02*
X188000000Y-59000000D01*
X178900000Y-45800000D02*
X178706166Y-45993834D01*
X191000000Y-59200000D02*
X191213863Y-59413863D01*
X191000000Y-40000000D02*
X184500000Y-40000000D01*
X179637500Y-45800000D02*
X178900000Y-45800000D01*
X177200000Y-42562500D02*
X177200000Y-43375168D01*
X177300000Y-48500000D02*
X178010000Y-48500000D01*
X177200000Y-43375168D02*
X177200134Y-43375302D01*
X178706166Y-45993834D02*
X178706166Y-46466793D01*
X173600000Y-49437500D02*
X172662500Y-49437500D01*
X173700000Y-43400000D02*
X173900000Y-43600000D01*
X187500000Y-56548530D02*
X180475735Y-49524265D01*
X177200000Y-48600000D02*
X177300000Y-48500000D01*
X177200000Y-42562500D02*
X177200000Y-42027226D01*
X172762500Y-45800000D02*
X173329998Y-45800000D01*
%TO.N,Net-(U1-VREG_VOUT)*%
X178700000Y-44700000D02*
X178700000Y-44698000D01*
X179099999Y-45399999D02*
X178700000Y-45000000D01*
X178700000Y-45000000D02*
X178700000Y-44700000D01*
X172045228Y-46200000D02*
X171845229Y-46000001D01*
X174198000Y-44200000D02*
X174299000Y-44099000D01*
X174299000Y-44099000D02*
X178101000Y-44099000D01*
X172762500Y-44200000D02*
X174198000Y-44200000D01*
X179637500Y-45399999D02*
X179099999Y-45399999D01*
X171845229Y-44317270D02*
X171845229Y-46000001D01*
X178700000Y-44698000D02*
X178101000Y-44099000D01*
X171962499Y-44200000D02*
X171845229Y-44317270D01*
X172762500Y-44200000D02*
X171962499Y-44200000D01*
X172762500Y-46200000D02*
X172045228Y-46200000D01*
%TO.N,Net-(D1-A)*%
X168600000Y-59500000D02*
X168700000Y-59400000D01*
X168400000Y-59500000D02*
X168600000Y-59500000D01*
%TO.N,Net-(D2-A)*%
X171900000Y-59500000D02*
X172100000Y-59500000D01*
X172100000Y-59500000D02*
X172200000Y-59400000D01*
%TO.N,Net-(D3-A)*%
X175400000Y-59500000D02*
X175600000Y-59500000D01*
X175600000Y-59500000D02*
X175700000Y-59400000D01*
%TO.N,Net-(D4-A)*%
X178900000Y-59500000D02*
X179100000Y-59500000D01*
X179100000Y-59500000D02*
X179200000Y-59400000D01*
%TO.N,/N_RX*%
X178450000Y-37050000D02*
X178500000Y-37000000D01*
X178500000Y-37000000D02*
X186475000Y-37000000D01*
X173595000Y-37000000D02*
X178500000Y-37000000D01*
X176800001Y-41749999D02*
X178450000Y-40100000D01*
X176800001Y-42562500D02*
X176800001Y-41749999D01*
X178450000Y-40100000D02*
X178450000Y-37050000D01*
%TO.N,/N_TX*%
X187864000Y-35849000D02*
X172206000Y-35849000D01*
X176550000Y-40100000D02*
X174155000Y-40100000D01*
X174155000Y-40100000D02*
X171055000Y-37000000D01*
X189015000Y-37000000D02*
X187864000Y-35849000D01*
X176400000Y-40250000D02*
X176550000Y-40100000D01*
X172206000Y-35849000D02*
X171055000Y-37000000D01*
X176400000Y-42562500D02*
X176400000Y-40250000D01*
%TO.N,/E_TX*%
X199151000Y-62744000D02*
X199151000Y-47231000D01*
X197113620Y-60613620D02*
X196824000Y-60903240D01*
X195550000Y-53550000D02*
X195998000Y-53550000D01*
X179637500Y-48199999D02*
X188199999Y-48199999D01*
X196824000Y-60903240D02*
X196824000Y-62769000D01*
X194500000Y-52500000D02*
X195550000Y-53550000D01*
X195998000Y-53550000D02*
X197113620Y-54665620D01*
X192500000Y-52500000D02*
X194500000Y-52500000D01*
X196824000Y-62769000D02*
X197975000Y-63920000D01*
X199151000Y-47231000D02*
X198000000Y-46080000D01*
X197113620Y-54665620D02*
X197113620Y-60613620D01*
X188199999Y-48199999D02*
X192500000Y-52500000D01*
X197975000Y-63920000D02*
X199151000Y-62744000D01*
%TO.N,/E_RX*%
X196599000Y-52699000D02*
X195266100Y-52699000D01*
X198000000Y-48620000D02*
X198000000Y-53500000D01*
X194666100Y-52099000D02*
X192666100Y-52099000D01*
X179637500Y-47800000D02*
X180170773Y-47800000D01*
X188366099Y-47798999D02*
X180171774Y-47798999D01*
X192666100Y-52099000D02*
X188366099Y-47798999D01*
X197450000Y-53550000D02*
X196599000Y-52699000D01*
X197450000Y-53550000D02*
X197950000Y-53550000D01*
X198000000Y-53500000D02*
X198000000Y-61355000D01*
X180170773Y-47800000D02*
X180171774Y-47798999D01*
X197950000Y-53550000D02*
X198000000Y-53500000D01*
X198000000Y-61355000D02*
X197975000Y-61380000D01*
X195266100Y-52699000D02*
X194666100Y-52099000D01*
%TO.N,/S_RX*%
X182988235Y-63845833D02*
X182988235Y-61211762D01*
X178800000Y-49437500D02*
X178800000Y-49600000D01*
X186330000Y-73000000D02*
X186355000Y-73025000D01*
X175450000Y-72950000D02*
X175500000Y-73000000D01*
X175500000Y-73000000D02*
X186330000Y-73000000D01*
X176734068Y-70100000D02*
X182988235Y-63845833D01*
X173595000Y-73000000D02*
X175500000Y-73000000D01*
X175450000Y-70100000D02*
X175450000Y-72950000D01*
X175450000Y-70100000D02*
X176734068Y-70100000D01*
%TO.N,/S_TX*%
X172231000Y-74176000D02*
X187744000Y-74176000D01*
X173550000Y-70505000D02*
X171055000Y-73000000D01*
X187744000Y-74176000D02*
X188895000Y-73025000D01*
X173550000Y-70100000D02*
X173550000Y-70505000D01*
X173585032Y-70100000D02*
X177901482Y-65783550D01*
X178399999Y-50051469D02*
X178724265Y-50375735D01*
X171055000Y-73000000D02*
X172231000Y-74176000D01*
X177901482Y-65783550D02*
X180483418Y-65783550D01*
X180483418Y-65783550D02*
X182388235Y-63878733D01*
X182388235Y-63878733D02*
X182388235Y-60611765D01*
X178399999Y-49437500D02*
X178399999Y-50051469D01*
X173550000Y-70100000D02*
X173585032Y-70100000D01*
%TO.N,/W_RX*%
X162550000Y-52900000D02*
X162150000Y-52900000D01*
X165500000Y-53301000D02*
X165500000Y-53302000D01*
X162150000Y-52900000D02*
X162050000Y-53000000D01*
X171266100Y-53301000D02*
X165500000Y-53301000D01*
X162050000Y-53000000D02*
X162050000Y-61330000D01*
X165500000Y-53302000D02*
X165051000Y-53751000D01*
X163401000Y-53751000D02*
X162550000Y-52900000D01*
X162050000Y-61330000D02*
X162000000Y-61380000D01*
X174400000Y-49437500D02*
X174400000Y-50167100D01*
X165051000Y-53751000D02*
X163401000Y-53751000D01*
X174400000Y-50167100D02*
X171266100Y-53301000D01*
X162050000Y-48620000D02*
X162050000Y-53000000D01*
%TO.N,/W_TX*%
X160824000Y-62769000D02*
X161975000Y-63920000D01*
X171100000Y-52900000D02*
X164450000Y-52900000D01*
X164450000Y-52900000D02*
X164450000Y-48555000D01*
X174000001Y-49437500D02*
X174000001Y-49999999D01*
X174000001Y-49999999D02*
X171100000Y-52900000D01*
X164450000Y-48555000D02*
X161975000Y-46080000D01*
X162000000Y-46080000D02*
X160824000Y-47256000D01*
X160824000Y-47256000D02*
X160824000Y-62769000D01*
%TO.N,Net-(J9-Pin_3)*%
X182499530Y-45651000D02*
X182499530Y-45649584D01*
X180172775Y-45000000D02*
X181157819Y-45985044D01*
X179637500Y-45000000D02*
X180172775Y-45000000D01*
X182499530Y-45649584D02*
X182168390Y-45318444D01*
X191769000Y-45651000D02*
X194000000Y-43420000D01*
X182499530Y-45651000D02*
X191769000Y-45651000D01*
X181157819Y-45985044D02*
X181157819Y-46006346D01*
%TO.N,Net-(J9-Pin_2)*%
X181000000Y-45000000D02*
X181001416Y-45000000D01*
X181001416Y-45000000D02*
X181758819Y-45757403D01*
X181758819Y-45757403D02*
X181758819Y-45760232D01*
X180600000Y-44600000D02*
X181000000Y-45000000D01*
X193908000Y-46052000D02*
X194000000Y-45960000D01*
X179637500Y-44600000D02*
X180600000Y-44600000D01*
X182050587Y-46052000D02*
X193908000Y-46052000D01*
X181758819Y-45760232D02*
X182050587Y-46052000D01*
%TO.N,Net-(U3-SW)*%
X192113863Y-60800000D02*
X191000000Y-60800000D01*
X193000000Y-59913863D02*
X192113863Y-60800000D01*
X193000000Y-59913863D02*
X193600000Y-59913863D01*
%TO.N,Net-(U3-PG)*%
X187614863Y-62114863D02*
X187500000Y-62000000D01*
X192201000Y-62114863D02*
X187614863Y-62114863D01*
X193600000Y-60715863D02*
X193600000Y-60413863D01*
X193600000Y-60715863D02*
X192201000Y-62114863D01*
%TO.N,Net-(U1-QSPI_SD2)*%
X172060126Y-47800000D02*
X170323626Y-49536500D01*
X168646009Y-49536500D02*
X167734999Y-50447510D01*
X172762500Y-47800000D02*
X172060126Y-47800000D01*
X170323626Y-49536500D02*
X168646009Y-49536500D01*
X167734999Y-50447510D02*
X167734999Y-50650000D01*
%TO.N,Net-(U1-QSPI_SCLK)*%
X167734999Y-43475000D02*
X167734999Y-42662501D01*
X171428185Y-47000000D02*
X172762500Y-47000000D01*
X169630999Y-42628510D02*
X169630999Y-45202814D01*
X167734999Y-42662501D02*
X168036000Y-42361500D01*
X168036000Y-42361500D02*
X169363989Y-42361500D01*
X169363989Y-42361500D02*
X169630999Y-42628510D01*
X169630999Y-45202814D02*
X171428185Y-47000000D01*
%TO.N,Net-(U1-QSPI_SS)*%
X165194999Y-50650000D02*
X165194999Y-51022500D01*
X165194999Y-51022500D02*
X166336999Y-52164500D01*
X170135999Y-50864001D02*
X172400000Y-48600000D01*
X170135999Y-51558590D02*
X170135999Y-50864001D01*
X166336999Y-52164500D02*
X169530089Y-52164500D01*
X172400000Y-48600000D02*
X172762500Y-48600000D01*
X169530089Y-52164500D02*
X170135999Y-51558590D01*
%TO.N,Net-(U1-QSPI_SD3)*%
X171595286Y-46600001D02*
X170031999Y-45036714D01*
X172762500Y-46600001D02*
X171595286Y-46600001D01*
X169530089Y-41960500D02*
X167777009Y-41960500D01*
X166464999Y-43272510D02*
X166464999Y-43475000D01*
X170031999Y-45036714D02*
X170031999Y-42462410D01*
X167777009Y-41960500D02*
X166464999Y-43272510D01*
X170031999Y-42462410D02*
X169530089Y-41960500D01*
%TO.N,Net-(U1-QSPI_SD0)*%
X172762500Y-47400000D02*
X171261085Y-47400000D01*
X169004999Y-43475000D02*
X169004999Y-45143914D01*
X171261085Y-47400000D02*
X169004999Y-45143914D01*
%TO.N,Net-(D2-K)*%
X173500000Y-61562500D02*
X173500000Y-59500000D01*
%TO.N,Net-(D3-K)*%
X177000000Y-61562500D02*
X177000000Y-59500000D01*
%TO.N,Net-(U1-QSPI_SD1)*%
X172227227Y-48199999D02*
X169734999Y-50692227D01*
X172762500Y-48199999D02*
X172227227Y-48199999D01*
X169734999Y-51392490D02*
X169734999Y-50692227D01*
X166464999Y-50650000D02*
X166464999Y-51462499D01*
X166464999Y-51462499D02*
X166766000Y-51763500D01*
X166766000Y-51763500D02*
X169363989Y-51763500D01*
X169363989Y-51763500D02*
X169734999Y-51392490D01*
%TO.N,Net-(D4-K)*%
X180500000Y-59500000D02*
X180500000Y-61562500D01*
%TO.N,Net-(D5-A)*%
X192403508Y-53730000D02*
X194230000Y-53730000D01*
X194230000Y-53730000D02*
X196000000Y-55500000D01*
%TO.N,Net-(D5-K)*%
X192403508Y-56270000D02*
X189055000Y-56270000D01*
X189055000Y-56270000D02*
X188450000Y-56875000D01*
%TO.N,Net-(Q2-B)*%
X172762500Y-63437500D02*
X173500000Y-64175000D01*
X172550000Y-63437500D02*
X172762500Y-63437500D01*
%TO.N,Net-(SW1-B)*%
X179637500Y-44200000D02*
X181100000Y-44200000D01*
X181100000Y-44200000D02*
X181500000Y-43800000D01*
X183000000Y-44160000D02*
X184160000Y-44160000D01*
X181500000Y-43800000D02*
X181860000Y-44160000D01*
X184160000Y-44160000D02*
X184500000Y-44500000D01*
X191000000Y-44500000D02*
X184500000Y-44500000D01*
X181860000Y-44160000D02*
X183000000Y-44160000D01*
%TO.N,Net-(Q3-B)*%
X176262500Y-63437500D02*
X177000000Y-64175000D01*
X176050000Y-63437500D02*
X176262500Y-63437500D01*
%TO.N,Net-(Q4-B)*%
X179550000Y-63437500D02*
X179762500Y-63437500D01*
X179762500Y-63437500D02*
X180500000Y-64175000D01*
%TO.N,Net-(D1-K)*%
X170000000Y-61562500D02*
X170000000Y-59500000D01*
%TO.N,Net-(Q5-B)*%
X189400000Y-53400000D02*
X188500000Y-52500000D01*
X189400000Y-55000000D02*
X189400000Y-53400000D01*
%TO.N,Net-(U1-GPIO7)*%
X176800001Y-50998474D02*
X176800001Y-49437500D01*
X177275735Y-51474208D02*
X176800001Y-50998474D01*
X177275735Y-52830685D02*
X177275735Y-51474208D01*
%TO.N,Net-(Q1-B)*%
X169050000Y-63437500D02*
X169262500Y-63437500D01*
X169262500Y-63437500D02*
X170000000Y-64175000D01*
%TO.N,Net-(U1-GPIO8)*%
X177600000Y-49437500D02*
X177600000Y-50400000D01*
X177724265Y-51224265D02*
X177875735Y-51224265D01*
X177600000Y-50400000D02*
X177600000Y-51100000D01*
X177600000Y-51100000D02*
X177724265Y-51224265D01*
%TO.N,Net-(U1-GPIO6)*%
X176400000Y-49437500D02*
X176400000Y-51729471D01*
X176400000Y-51729471D02*
X176675735Y-52005206D01*
%TO.N,Net-(U1-GPIO9)*%
X178000000Y-49437500D02*
X178000000Y-50500000D01*
X178723008Y-51223008D02*
X178723008Y-53276992D01*
X178000000Y-50500000D02*
X178723008Y-51223008D01*
%TO.N,Net-(U1-GPIO12)*%
X180400000Y-48600000D02*
X181950000Y-50150000D01*
X179637500Y-48600000D02*
X180400000Y-48600000D01*
X181950000Y-50150000D02*
X188500000Y-50150000D01*
%TO.N,Net-(S1-NO_1)*%
X175200000Y-51553508D02*
X175200000Y-49437500D01*
X171753508Y-55000000D02*
X175200000Y-51553508D01*
%TO.N,Net-(S1-NO_3)*%
X179753508Y-55000000D02*
X178753508Y-54000000D01*
X178753508Y-54000000D02*
X177500000Y-54000000D01*
X177500000Y-54000000D02*
X176000000Y-52500000D01*
X176000000Y-52500000D02*
X176000000Y-49437500D01*
%TO.N,Net-(S1-NO_2)*%
X177753508Y-55000000D02*
X175599999Y-52846491D01*
X175599999Y-52846491D02*
X175599999Y-49437500D01*
%TO.N,Net-(S1-NC)*%
X174799000Y-50987408D02*
X174800000Y-50986408D01*
X170753508Y-54000000D02*
X172186408Y-54000000D01*
X169753508Y-55000000D02*
X170753508Y-54000000D01*
X174799000Y-51387408D02*
X174799000Y-50987408D01*
X172186408Y-54000000D02*
X174799000Y-51387408D01*
X174800000Y-50986408D02*
X174800000Y-49437500D01*
%TD*%
M02*
