%TF.GenerationSoftware,KiCad,Pcbnew,9.0.6*%
%TF.CreationDate,2025-12-07T19:18:26-08:00*%
%TF.ProjectId,redstone_comparator,72656473-746f-46e6-955f-636f6d706172,rev?*%
%TF.SameCoordinates,Original*%
%TF.FileFunction,Paste,Top*%
%TF.FilePolarity,Positive*%
%FSLAX46Y46*%
G04 Gerber Fmt 4.6, Leading zero omitted, Abs format (unit mm)*
G04 Created by KiCad (PCBNEW 9.0.6) date 2025-12-07 19:18:26*
%MOMM*%
%LPD*%
G01*
G04 APERTURE LIST*
G04 Aperture macros list*
%AMRoundRect*
0 Rectangle with rounded corners*
0 $1 Rounding radius*
0 $2 $3 $4 $5 $6 $7 $8 $9 X,Y pos of 4 corners*
0 Add a 4 corners polygon primitive as box body*
4,1,4,$2,$3,$4,$5,$6,$7,$8,$9,$2,$3,0*
0 Add four circle primitives for the rounded corners*
1,1,$1+$1,$2,$3*
1,1,$1+$1,$4,$5*
1,1,$1+$1,$6,$7*
1,1,$1+$1,$8,$9*
0 Add four rect primitives between the rounded corners*
20,1,$1+$1,$2,$3,$4,$5,0*
20,1,$1+$1,$4,$5,$6,$7,0*
20,1,$1+$1,$6,$7,$8,$9,0*
20,1,$1+$1,$8,$9,$2,$3,0*%
G04 Aperture macros list end*
%ADD10RoundRect,0.150000X0.587500X0.150000X-0.587500X0.150000X-0.587500X-0.150000X0.587500X-0.150000X0*%
%ADD11R,1.000000X1.450000*%
%ADD12R,0.750000X0.650000*%
%ADD13RoundRect,0.062500X0.187500X0.062500X-0.187500X0.062500X-0.187500X-0.062500X0.187500X-0.062500X0*%
%ADD14RoundRect,0.150000X-0.587500X-0.150000X0.587500X-0.150000X0.587500X0.150000X-0.587500X0.150000X0*%
%ADD15R,0.460000X0.420000*%
%ADD16R,1.800000X0.800000*%
%ADD17R,1.100000X0.600000*%
%ADD18R,0.700000X0.650000*%
%ADD19R,2.700000X1.100000*%
%ADD20R,1.250000X1.150000*%
%ADD21RoundRect,0.162500X-0.650000X-0.162500X0.650000X-0.162500X0.650000X0.162500X-0.650000X0.162500X0*%
%ADD22RoundRect,0.249999X-0.395001X-0.395001X0.395001X-0.395001X0.395001X0.395001X-0.395001X0.395001X0*%
%ADD23RoundRect,0.050000X-0.387500X-0.050000X0.387500X-0.050000X0.387500X0.050000X-0.387500X0.050000X0*%
%ADD24RoundRect,0.050000X-0.050000X-0.387500X0.050000X-0.387500X0.050000X0.387500X-0.050000X0.387500X0*%
%ADD25R,1.470000X1.020000*%
%ADD26R,0.600000X1.100000*%
%ADD27R,1.270000X0.760000*%
%ADD28R,1.450000X1.000000*%
G04 APERTURE END LIST*
D10*
%TO.C,Q3*%
X127875000Y-62400000D03*
X127875000Y-60500000D03*
X126000000Y-61450000D03*
%TD*%
D11*
%TO.C,R1*%
X136050000Y-39000000D03*
X137950000Y-39000000D03*
%TD*%
D12*
%TO.C,U3*%
X131550000Y-40650000D03*
X131550000Y-39850000D03*
D13*
X132500000Y-41000000D03*
X132500000Y-40500000D03*
X132500000Y-40000000D03*
X132500000Y-39500000D03*
X130600000Y-39500000D03*
X130600000Y-40000000D03*
X130600000Y-40500000D03*
X130600000Y-41000000D03*
%TD*%
D14*
%TO.C,Q2*%
X139062500Y-65050000D03*
X139062500Y-66950000D03*
X140937500Y-66000000D03*
%TD*%
D15*
%TO.C,C7*%
X137170000Y-59500000D03*
X137830000Y-59500000D03*
%TD*%
D16*
%TO.C,L1*%
X128000000Y-40400000D03*
X128000000Y-42000000D03*
%TD*%
D17*
%TO.C,D18*%
X150000000Y-58950000D03*
X150000000Y-57050000D03*
X147800000Y-58000000D03*
%TD*%
D18*
%TO.C,C5*%
X121500000Y-40500000D03*
X121500000Y-41850000D03*
%TD*%
D19*
%TO.C,R17*%
X124500000Y-40000000D03*
X124500000Y-43000000D03*
%TD*%
D20*
%TO.C,R18*%
X140000000Y-46325000D03*
X140000000Y-48675000D03*
%TD*%
D17*
%TO.C,D21*%
X119800000Y-50050000D03*
X119800000Y-51950000D03*
X122000000Y-51000000D03*
%TD*%
D21*
%TO.C,U5*%
X123912500Y-45000000D03*
X123912500Y-46270000D03*
X123912500Y-47540000D03*
X123912500Y-48810000D03*
X131087500Y-48810000D03*
X131087500Y-47540000D03*
X131087500Y-46270000D03*
X131087500Y-45000000D03*
%TD*%
D22*
%TO.C,U1*%
X134200000Y-54200000D03*
X134200000Y-55800000D03*
X135800000Y-54200000D03*
X135800000Y-55800000D03*
D23*
X131562500Y-52400000D03*
X131562500Y-52800001D03*
X131562500Y-53200000D03*
X131562500Y-53600000D03*
X131562500Y-54000000D03*
X131562500Y-54399999D03*
X131562500Y-54800000D03*
X131562500Y-55200000D03*
X131562500Y-55600001D03*
X131562500Y-56000000D03*
X131562500Y-56400000D03*
X131562500Y-56800000D03*
X131562500Y-57199999D03*
X131562500Y-57600000D03*
D24*
X132400000Y-58437500D03*
X132800001Y-58437500D03*
X133200000Y-58437500D03*
X133600000Y-58437500D03*
X134000000Y-58437500D03*
X134399999Y-58437500D03*
X134800000Y-58437500D03*
X135200000Y-58437500D03*
X135600001Y-58437500D03*
X136000000Y-58437500D03*
X136400000Y-58437500D03*
X136800000Y-58437500D03*
X137199999Y-58437500D03*
X137600000Y-58437500D03*
D23*
X138437500Y-57600000D03*
X138437500Y-57199999D03*
X138437500Y-56800000D03*
X138437500Y-56400000D03*
X138437500Y-56000000D03*
X138437500Y-55600001D03*
X138437500Y-55200000D03*
X138437500Y-54800000D03*
X138437500Y-54399999D03*
X138437500Y-54000000D03*
X138437500Y-53600000D03*
X138437500Y-53200000D03*
X138437500Y-52800001D03*
X138437500Y-52400000D03*
D24*
X137600000Y-51562500D03*
X137199999Y-51562500D03*
X136800000Y-51562500D03*
X136400000Y-51562500D03*
X136000000Y-51562500D03*
X135600001Y-51562500D03*
X135200000Y-51562500D03*
X134800000Y-51562500D03*
X134399999Y-51562500D03*
X134000000Y-51562500D03*
X133600000Y-51562500D03*
X133200000Y-51562500D03*
X132800001Y-51562500D03*
X132400000Y-51562500D03*
%TD*%
D25*
%TO.C,C6*%
X137500000Y-60700000D03*
X137500000Y-62300000D03*
%TD*%
D11*
%TO.C,R2*%
X143050000Y-62000000D03*
X144950000Y-62000000D03*
%TD*%
D20*
%TO.C,R19*%
X140500000Y-62850000D03*
X140500000Y-60500000D03*
%TD*%
D26*
%TO.C,D17*%
X141950000Y-39800000D03*
X140050000Y-39800000D03*
X141000000Y-42000000D03*
%TD*%
D20*
%TO.C,R20*%
X131000000Y-63350000D03*
X131000000Y-61000000D03*
%TD*%
D26*
%TO.C,D20*%
X131550000Y-72100000D03*
X133450000Y-72100000D03*
X132500000Y-69900000D03*
%TD*%
D27*
%TO.C,SW2*%
X143690000Y-54000000D03*
X151310000Y-54000000D03*
%TD*%
D10*
%TO.C,Q1*%
X136937500Y-47450000D03*
X136937500Y-45550000D03*
X135062500Y-46500000D03*
%TD*%
D28*
%TO.C,R3*%
X130500000Y-65550000D03*
X130500000Y-67450000D03*
%TD*%
M02*
