%TF.GenerationSoftware,KiCad,Pcbnew,9.0.6*%
%TF.CreationDate,2025-12-07T19:21:49-08:00*%
%TF.ProjectId,redstone_lamp,72656473-746f-46e6-955f-6c616d702e6b,rev?*%
%TF.SameCoordinates,Original*%
%TF.FileFunction,Legend,Top*%
%TF.FilePolarity,Positive*%
%FSLAX46Y46*%
G04 Gerber Fmt 4.6, Leading zero omitted, Abs format (unit mm)*
G04 Created by KiCad (PCBNEW 9.0.6) date 2025-12-07 19:21:49*
%MOMM*%
%LPD*%
G01*
G04 APERTURE LIST*
%ADD10C,0.150000*%
%ADD11C,0.152400*%
%ADD12C,0.508000*%
%ADD13C,0.200000*%
%ADD14C,0.120000*%
%ADD15C,0.100000*%
G04 APERTURE END LIST*
D10*
X119836779Y-66869819D02*
X119836779Y-65869819D01*
X119836779Y-65869819D02*
X120217731Y-65869819D01*
X120217731Y-65869819D02*
X120312969Y-65917438D01*
X120312969Y-65917438D02*
X120360588Y-65965057D01*
X120360588Y-65965057D02*
X120408207Y-66060295D01*
X120408207Y-66060295D02*
X120408207Y-66203152D01*
X120408207Y-66203152D02*
X120360588Y-66298390D01*
X120360588Y-66298390D02*
X120312969Y-66346009D01*
X120312969Y-66346009D02*
X120217731Y-66393628D01*
X120217731Y-66393628D02*
X119836779Y-66393628D01*
X121360588Y-65917438D02*
X121265350Y-65869819D01*
X121265350Y-65869819D02*
X121122493Y-65869819D01*
X121122493Y-65869819D02*
X120979636Y-65917438D01*
X120979636Y-65917438D02*
X120884398Y-66012676D01*
X120884398Y-66012676D02*
X120836779Y-66107914D01*
X120836779Y-66107914D02*
X120789160Y-66298390D01*
X120789160Y-66298390D02*
X120789160Y-66441247D01*
X120789160Y-66441247D02*
X120836779Y-66631723D01*
X120836779Y-66631723D02*
X120884398Y-66726961D01*
X120884398Y-66726961D02*
X120979636Y-66822200D01*
X120979636Y-66822200D02*
X121122493Y-66869819D01*
X121122493Y-66869819D02*
X121217731Y-66869819D01*
X121217731Y-66869819D02*
X121360588Y-66822200D01*
X121360588Y-66822200D02*
X121408207Y-66774580D01*
X121408207Y-66774580D02*
X121408207Y-66441247D01*
X121408207Y-66441247D02*
X121217731Y-66441247D01*
X121836779Y-66869819D02*
X121836779Y-65869819D01*
X121836779Y-65869819D02*
X122170112Y-66584104D01*
X122170112Y-66584104D02*
X122503445Y-65869819D01*
X122503445Y-65869819D02*
X122503445Y-66869819D01*
X146238095Y-49954819D02*
X146238095Y-50764342D01*
X146238095Y-50764342D02*
X146285714Y-50859580D01*
X146285714Y-50859580D02*
X146333333Y-50907200D01*
X146333333Y-50907200D02*
X146428571Y-50954819D01*
X146428571Y-50954819D02*
X146619047Y-50954819D01*
X146619047Y-50954819D02*
X146714285Y-50907200D01*
X146714285Y-50907200D02*
X146761904Y-50859580D01*
X146761904Y-50859580D02*
X146809523Y-50764342D01*
X146809523Y-50764342D02*
X146809523Y-49954819D01*
X147238095Y-50050057D02*
X147285714Y-50002438D01*
X147285714Y-50002438D02*
X147380952Y-49954819D01*
X147380952Y-49954819D02*
X147619047Y-49954819D01*
X147619047Y-49954819D02*
X147714285Y-50002438D01*
X147714285Y-50002438D02*
X147761904Y-50050057D01*
X147761904Y-50050057D02*
X147809523Y-50145295D01*
X147809523Y-50145295D02*
X147809523Y-50240533D01*
X147809523Y-50240533D02*
X147761904Y-50383390D01*
X147761904Y-50383390D02*
X147190476Y-50954819D01*
X147190476Y-50954819D02*
X147809523Y-50954819D01*
X140833333Y-61359580D02*
X140785714Y-61407200D01*
X140785714Y-61407200D02*
X140642857Y-61454819D01*
X140642857Y-61454819D02*
X140547619Y-61454819D01*
X140547619Y-61454819D02*
X140404762Y-61407200D01*
X140404762Y-61407200D02*
X140309524Y-61311961D01*
X140309524Y-61311961D02*
X140261905Y-61216723D01*
X140261905Y-61216723D02*
X140214286Y-61026247D01*
X140214286Y-61026247D02*
X140214286Y-60883390D01*
X140214286Y-60883390D02*
X140261905Y-60692914D01*
X140261905Y-60692914D02*
X140309524Y-60597676D01*
X140309524Y-60597676D02*
X140404762Y-60502438D01*
X140404762Y-60502438D02*
X140547619Y-60454819D01*
X140547619Y-60454819D02*
X140642857Y-60454819D01*
X140642857Y-60454819D02*
X140785714Y-60502438D01*
X140785714Y-60502438D02*
X140833333Y-60550057D01*
X141166667Y-60454819D02*
X141833333Y-60454819D01*
X141833333Y-60454819D02*
X141404762Y-61454819D01*
X129833333Y-42954819D02*
X129357143Y-42954819D01*
X129357143Y-42954819D02*
X129357143Y-41954819D01*
X130690476Y-42954819D02*
X130119048Y-42954819D01*
X130404762Y-42954819D02*
X130404762Y-41954819D01*
X130404762Y-41954819D02*
X130309524Y-42097676D01*
X130309524Y-42097676D02*
X130214286Y-42192914D01*
X130214286Y-42192914D02*
X130119048Y-42240533D01*
X119833333Y-40859580D02*
X119785714Y-40907200D01*
X119785714Y-40907200D02*
X119642857Y-40954819D01*
X119642857Y-40954819D02*
X119547619Y-40954819D01*
X119547619Y-40954819D02*
X119404762Y-40907200D01*
X119404762Y-40907200D02*
X119309524Y-40811961D01*
X119309524Y-40811961D02*
X119261905Y-40716723D01*
X119261905Y-40716723D02*
X119214286Y-40526247D01*
X119214286Y-40526247D02*
X119214286Y-40383390D01*
X119214286Y-40383390D02*
X119261905Y-40192914D01*
X119261905Y-40192914D02*
X119309524Y-40097676D01*
X119309524Y-40097676D02*
X119404762Y-40002438D01*
X119404762Y-40002438D02*
X119547619Y-39954819D01*
X119547619Y-39954819D02*
X119642857Y-39954819D01*
X119642857Y-39954819D02*
X119785714Y-40002438D01*
X119785714Y-40002438D02*
X119833333Y-40050057D01*
X120738095Y-39954819D02*
X120261905Y-39954819D01*
X120261905Y-39954819D02*
X120214286Y-40431009D01*
X120214286Y-40431009D02*
X120261905Y-40383390D01*
X120261905Y-40383390D02*
X120357143Y-40335771D01*
X120357143Y-40335771D02*
X120595238Y-40335771D01*
X120595238Y-40335771D02*
X120690476Y-40383390D01*
X120690476Y-40383390D02*
X120738095Y-40431009D01*
X120738095Y-40431009D02*
X120785714Y-40526247D01*
X120785714Y-40526247D02*
X120785714Y-40764342D01*
X120785714Y-40764342D02*
X120738095Y-40859580D01*
X120738095Y-40859580D02*
X120690476Y-40907200D01*
X120690476Y-40907200D02*
X120595238Y-40954819D01*
X120595238Y-40954819D02*
X120357143Y-40954819D01*
X120357143Y-40954819D02*
X120261905Y-40907200D01*
X120261905Y-40907200D02*
X120214286Y-40859580D01*
X120357142Y-43954819D02*
X120023809Y-43478628D01*
X119785714Y-43954819D02*
X119785714Y-42954819D01*
X119785714Y-42954819D02*
X120166666Y-42954819D01*
X120166666Y-42954819D02*
X120261904Y-43002438D01*
X120261904Y-43002438D02*
X120309523Y-43050057D01*
X120309523Y-43050057D02*
X120357142Y-43145295D01*
X120357142Y-43145295D02*
X120357142Y-43288152D01*
X120357142Y-43288152D02*
X120309523Y-43383390D01*
X120309523Y-43383390D02*
X120261904Y-43431009D01*
X120261904Y-43431009D02*
X120166666Y-43478628D01*
X120166666Y-43478628D02*
X119785714Y-43478628D01*
X121309523Y-43954819D02*
X120738095Y-43954819D01*
X121023809Y-43954819D02*
X121023809Y-42954819D01*
X121023809Y-42954819D02*
X120928571Y-43097676D01*
X120928571Y-43097676D02*
X120833333Y-43192914D01*
X120833333Y-43192914D02*
X120738095Y-43240533D01*
X121642857Y-42954819D02*
X122309523Y-42954819D01*
X122309523Y-42954819D02*
X121880952Y-43954819D01*
X126738095Y-46359819D02*
X126738095Y-47169342D01*
X126738095Y-47169342D02*
X126785714Y-47264580D01*
X126785714Y-47264580D02*
X126833333Y-47312200D01*
X126833333Y-47312200D02*
X126928571Y-47359819D01*
X126928571Y-47359819D02*
X127119047Y-47359819D01*
X127119047Y-47359819D02*
X127214285Y-47312200D01*
X127214285Y-47312200D02*
X127261904Y-47264580D01*
X127261904Y-47264580D02*
X127309523Y-47169342D01*
X127309523Y-47169342D02*
X127309523Y-46359819D01*
X128261904Y-46359819D02*
X127785714Y-46359819D01*
X127785714Y-46359819D02*
X127738095Y-46836009D01*
X127738095Y-46836009D02*
X127785714Y-46788390D01*
X127785714Y-46788390D02*
X127880952Y-46740771D01*
X127880952Y-46740771D02*
X128119047Y-46740771D01*
X128119047Y-46740771D02*
X128214285Y-46788390D01*
X128214285Y-46788390D02*
X128261904Y-46836009D01*
X128261904Y-46836009D02*
X128309523Y-46931247D01*
X128309523Y-46931247D02*
X128309523Y-47169342D01*
X128309523Y-47169342D02*
X128261904Y-47264580D01*
X128261904Y-47264580D02*
X128214285Y-47312200D01*
X128214285Y-47312200D02*
X128119047Y-47359819D01*
X128119047Y-47359819D02*
X127880952Y-47359819D01*
X127880952Y-47359819D02*
X127785714Y-47312200D01*
X127785714Y-47312200D02*
X127738095Y-47264580D01*
X141150057Y-55095238D02*
X141102438Y-55190476D01*
X141102438Y-55190476D02*
X141007200Y-55285714D01*
X141007200Y-55285714D02*
X140864342Y-55428571D01*
X140864342Y-55428571D02*
X140816723Y-55523809D01*
X140816723Y-55523809D02*
X140816723Y-55619047D01*
X141054819Y-55571428D02*
X141007200Y-55666666D01*
X141007200Y-55666666D02*
X140911961Y-55761904D01*
X140911961Y-55761904D02*
X140721485Y-55809523D01*
X140721485Y-55809523D02*
X140388152Y-55809523D01*
X140388152Y-55809523D02*
X140197676Y-55761904D01*
X140197676Y-55761904D02*
X140102438Y-55666666D01*
X140102438Y-55666666D02*
X140054819Y-55571428D01*
X140054819Y-55571428D02*
X140054819Y-55380952D01*
X140054819Y-55380952D02*
X140102438Y-55285714D01*
X140102438Y-55285714D02*
X140197676Y-55190476D01*
X140197676Y-55190476D02*
X140388152Y-55142857D01*
X140388152Y-55142857D02*
X140721485Y-55142857D01*
X140721485Y-55142857D02*
X140911961Y-55190476D01*
X140911961Y-55190476D02*
X141007200Y-55285714D01*
X141007200Y-55285714D02*
X141054819Y-55380952D01*
X141054819Y-55380952D02*
X141054819Y-55571428D01*
X140150057Y-54761904D02*
X140102438Y-54714285D01*
X140102438Y-54714285D02*
X140054819Y-54619047D01*
X140054819Y-54619047D02*
X140054819Y-54380952D01*
X140054819Y-54380952D02*
X140102438Y-54285714D01*
X140102438Y-54285714D02*
X140150057Y-54238095D01*
X140150057Y-54238095D02*
X140245295Y-54190476D01*
X140245295Y-54190476D02*
X140340533Y-54190476D01*
X140340533Y-54190476D02*
X140483390Y-54238095D01*
X140483390Y-54238095D02*
X141054819Y-54809523D01*
X141054819Y-54809523D02*
X141054819Y-54190476D01*
X137833333Y-63359580D02*
X137785714Y-63407200D01*
X137785714Y-63407200D02*
X137642857Y-63454819D01*
X137642857Y-63454819D02*
X137547619Y-63454819D01*
X137547619Y-63454819D02*
X137404762Y-63407200D01*
X137404762Y-63407200D02*
X137309524Y-63311961D01*
X137309524Y-63311961D02*
X137261905Y-63216723D01*
X137261905Y-63216723D02*
X137214286Y-63026247D01*
X137214286Y-63026247D02*
X137214286Y-62883390D01*
X137214286Y-62883390D02*
X137261905Y-62692914D01*
X137261905Y-62692914D02*
X137309524Y-62597676D01*
X137309524Y-62597676D02*
X137404762Y-62502438D01*
X137404762Y-62502438D02*
X137547619Y-62454819D01*
X137547619Y-62454819D02*
X137642857Y-62454819D01*
X137642857Y-62454819D02*
X137785714Y-62502438D01*
X137785714Y-62502438D02*
X137833333Y-62550057D01*
X138690476Y-62454819D02*
X138500000Y-62454819D01*
X138500000Y-62454819D02*
X138404762Y-62502438D01*
X138404762Y-62502438D02*
X138357143Y-62550057D01*
X138357143Y-62550057D02*
X138261905Y-62692914D01*
X138261905Y-62692914D02*
X138214286Y-62883390D01*
X138214286Y-62883390D02*
X138214286Y-63264342D01*
X138214286Y-63264342D02*
X138261905Y-63359580D01*
X138261905Y-63359580D02*
X138309524Y-63407200D01*
X138309524Y-63407200D02*
X138404762Y-63454819D01*
X138404762Y-63454819D02*
X138595238Y-63454819D01*
X138595238Y-63454819D02*
X138690476Y-63407200D01*
X138690476Y-63407200D02*
X138738095Y-63359580D01*
X138738095Y-63359580D02*
X138785714Y-63264342D01*
X138785714Y-63264342D02*
X138785714Y-63026247D01*
X138785714Y-63026247D02*
X138738095Y-62931009D01*
X138738095Y-62931009D02*
X138690476Y-62883390D01*
X138690476Y-62883390D02*
X138595238Y-62835771D01*
X138595238Y-62835771D02*
X138404762Y-62835771D01*
X138404762Y-62835771D02*
X138309524Y-62883390D01*
X138309524Y-62883390D02*
X138261905Y-62931009D01*
X138261905Y-62931009D02*
X138214286Y-63026247D01*
D11*
%TO.C,U2*%
X143166000Y-39609100D02*
X143166000Y-51470900D01*
X143166000Y-51470900D02*
X151014600Y-51470900D01*
X151014600Y-39609100D02*
X143166000Y-39609100D01*
X151014600Y-51470900D02*
X151014600Y-39609100D01*
D12*
X148881000Y-38720100D02*
G75*
G02*
X148119000Y-38720100I-381000J0D01*
G01*
X148119000Y-38720100D02*
G75*
G02*
X148881000Y-38720100I381000J0D01*
G01*
D13*
%TO.C,D2*%
X146650000Y-54200000D02*
X146650000Y-56625000D01*
X146650000Y-56625000D02*
X148350000Y-56625000D01*
X148350000Y-56625000D02*
X148350000Y-54200000D01*
%TO.C,D4*%
X121650000Y-53375000D02*
X121650000Y-55800000D01*
X123350000Y-53375000D02*
X121650000Y-53375000D01*
X123350000Y-55800000D02*
X123350000Y-53375000D01*
%TO.C,D3*%
X134200000Y-68350000D02*
X136625000Y-68350000D01*
X136625000Y-66650000D02*
X134200000Y-66650000D01*
X136625000Y-68350000D02*
X136625000Y-66650000D01*
D14*
%TO.C,SW1*%
X141630000Y-68850000D02*
X141630000Y-66650000D01*
X147250000Y-64630000D02*
X142250000Y-64630000D01*
X147250000Y-70870000D02*
X142250000Y-70870000D01*
X147870000Y-66650000D02*
X147870000Y-68850000D01*
X146500000Y-67750000D02*
G75*
G02*
X143000000Y-67750000I-1750000J0D01*
G01*
X143000000Y-67750000D02*
G75*
G02*
X146500000Y-67750000I1750000J0D01*
G01*
%TO.C,U3*%
X132550000Y-39110000D02*
X130550000Y-39110000D01*
X132560000Y-41390000D02*
X130560000Y-41390000D01*
X132920000Y-41600000D02*
X132920000Y-41320000D01*
X133200000Y-41320000D01*
X132920000Y-41600000D01*
G36*
X132920000Y-41600000D02*
G01*
X132920000Y-41320000D01*
X133200000Y-41320000D01*
X132920000Y-41600000D01*
G37*
%TO.C,J9*%
X120050000Y-67670000D02*
X121380000Y-67670000D01*
X120050000Y-69000000D02*
X120050000Y-67670000D01*
X122650000Y-67670000D02*
X130330000Y-67670000D01*
X122650000Y-70330000D02*
X122650000Y-67670000D01*
X122650000Y-70330000D02*
X130330000Y-70330000D01*
X130330000Y-70330000D02*
X130330000Y-67670000D01*
%TO.C,J8*%
X115645000Y-67730000D02*
X115645000Y-60050000D01*
X115645000Y-70330000D02*
X115645000Y-69000000D01*
X116975000Y-70330000D02*
X115645000Y-70330000D01*
X118305000Y-60050000D02*
X115645000Y-60050000D01*
X118305000Y-67730000D02*
X115645000Y-67730000D01*
X118305000Y-67730000D02*
X118305000Y-60050000D01*
%TO.C,J4*%
X151670000Y-67730000D02*
X151670000Y-60050000D01*
X151670000Y-70330000D02*
X151670000Y-69000000D01*
X153000000Y-70330000D02*
X151670000Y-70330000D01*
X154330000Y-60050000D02*
X151670000Y-60050000D01*
X154330000Y-67730000D02*
X151670000Y-67730000D01*
X154330000Y-67730000D02*
X154330000Y-60050000D01*
D15*
%TO.C,L1*%
X128000000Y-39400000D02*
X128000000Y-39400000D01*
X128000000Y-39500000D02*
X128000000Y-39500000D01*
X128000000Y-39400000D02*
G75*
G02*
X128000000Y-39500000I0J-50000D01*
G01*
X128000000Y-39500000D02*
G75*
G02*
X128000000Y-39400000I0J50000D01*
G01*
D13*
%TO.C,D18*%
X150300000Y-56025000D02*
X150700000Y-56025000D01*
X150300000Y-58975000D02*
X150300000Y-56025000D01*
X150700000Y-56025000D02*
X150700000Y-58975000D01*
X150700000Y-58975000D02*
X150300000Y-58975000D01*
X152150000Y-59000000D02*
X151050000Y-59000000D01*
%TO.C,D1*%
X133375000Y-41650000D02*
X133375000Y-43350000D01*
X133375000Y-43350000D02*
X135800000Y-43350000D01*
X135800000Y-41650000D02*
X133375000Y-41650000D01*
D14*
%TO.C,J1*%
X119670000Y-35670000D02*
X121000000Y-35670000D01*
X119670000Y-37000000D02*
X119670000Y-35670000D01*
X122270000Y-35670000D02*
X129950000Y-35670000D01*
X122270000Y-38330000D02*
X122270000Y-35670000D01*
X122270000Y-38330000D02*
X129950000Y-38330000D01*
X129950000Y-38330000D02*
X129950000Y-35670000D01*
D13*
%TO.C,C5*%
X121900000Y-41175000D02*
X121100000Y-41175000D01*
%TO.C,R17*%
X125650000Y-41500000D02*
X123350000Y-41500000D01*
D14*
%TO.C,J2*%
X140170000Y-35670000D02*
X140170000Y-38330000D01*
X147850000Y-35670000D02*
X140170000Y-35670000D01*
X147850000Y-35670000D02*
X147850000Y-38330000D01*
X147850000Y-38330000D02*
X140170000Y-38330000D01*
X150450000Y-37000000D02*
X150450000Y-38330000D01*
X150450000Y-38330000D02*
X149120000Y-38330000D01*
D13*
%TO.C,D21*%
X119450000Y-49950000D02*
X120550000Y-49950000D01*
X120900000Y-49975000D02*
X121300000Y-49975000D01*
X120900000Y-52925000D02*
X120900000Y-49975000D01*
X121300000Y-49975000D02*
X121300000Y-52925000D01*
X121300000Y-52925000D02*
X120900000Y-52925000D01*
D14*
%TO.C,U5*%
X124740000Y-44145000D02*
X130260000Y-44145000D01*
X124740000Y-44415000D02*
X124740000Y-44145000D01*
X124740000Y-49665000D02*
X124740000Y-49395000D01*
X130260000Y-44145000D02*
X130260000Y-44415000D01*
X130260000Y-49395000D02*
X130260000Y-49665000D01*
X130260000Y-49665000D02*
X124740000Y-49665000D01*
X123910000Y-44405000D02*
X123570000Y-43935000D01*
X124250000Y-43935000D01*
X123910000Y-44405000D01*
G36*
X123910000Y-44405000D02*
G01*
X123570000Y-43935000D01*
X124250000Y-43935000D01*
X123910000Y-44405000D01*
G37*
%TO.C,J6*%
X140050000Y-71695000D02*
X140050000Y-74355000D01*
X147730000Y-71695000D02*
X140050000Y-71695000D01*
X147730000Y-71695000D02*
X147730000Y-74355000D01*
X147730000Y-74355000D02*
X140050000Y-74355000D01*
X150330000Y-73025000D02*
X150330000Y-74355000D01*
X150330000Y-74355000D02*
X149000000Y-74355000D01*
%TO.C,Q2*%
X141440000Y-54240000D02*
X142440000Y-54240000D01*
X141440000Y-55760000D02*
X141440000Y-54240000D01*
X141490000Y-55760000D02*
X141440000Y-55760000D01*
X143390000Y-55760000D02*
X142610000Y-55760000D01*
X143560000Y-54240000D02*
X144560000Y-54240000D01*
X144560000Y-54240000D02*
X144560000Y-55760000D01*
X144560000Y-55760000D02*
X144510000Y-55760000D01*
X142950000Y-56540000D02*
X142620000Y-56300000D01*
X142950000Y-56060000D01*
X142950000Y-56540000D01*
G36*
X142950000Y-56540000D02*
G01*
X142620000Y-56300000D01*
X142950000Y-56060000D01*
X142950000Y-56540000D01*
G37*
%TO.C,U1*%
X131390000Y-51390000D02*
X132039999Y-51390000D01*
X131390000Y-52039999D02*
X131390000Y-51390000D01*
X131390000Y-58610000D02*
X131390000Y-57960001D01*
X132039999Y-58610000D02*
X131390000Y-58610000D01*
X137960001Y-51390000D02*
X138610000Y-51390000D01*
X138610000Y-51390000D02*
X138610000Y-52039999D01*
X138610000Y-57960001D02*
X138610000Y-58610000D01*
X138610000Y-58610000D02*
X137960001Y-58610000D01*
X130860000Y-52399999D02*
X130530000Y-52640000D01*
X130530000Y-52160000D01*
X130860000Y-52399999D01*
G36*
X130860000Y-52399999D02*
G01*
X130530000Y-52640000D01*
X130530000Y-52160000D01*
X130860000Y-52399999D01*
G37*
%TO.C,J5*%
X119670000Y-71670000D02*
X121000000Y-71670000D01*
X119670000Y-73000000D02*
X119670000Y-71670000D01*
X122270000Y-71670000D02*
X129950000Y-71670000D01*
X122270000Y-74330000D02*
X122270000Y-71670000D01*
X122270000Y-74330000D02*
X129950000Y-74330000D01*
X129950000Y-74330000D02*
X129950000Y-71670000D01*
D13*
%TO.C,D17*%
X138475000Y-40800000D02*
X141425000Y-40800000D01*
X138475000Y-41200000D02*
X138475000Y-40800000D01*
X141425000Y-40800000D02*
X141425000Y-41200000D01*
X141425000Y-41200000D02*
X138475000Y-41200000D01*
X141450000Y-39350000D02*
X141450000Y-40450000D01*
%TO.C,D20*%
X131500000Y-72150000D02*
X131500000Y-71050000D01*
X131525000Y-70300000D02*
X134475000Y-70300000D01*
X131525000Y-70700000D02*
X131525000Y-70300000D01*
X134475000Y-70300000D02*
X134475000Y-70700000D01*
X134475000Y-70700000D02*
X131525000Y-70700000D01*
D14*
%TO.C,J7*%
X115670000Y-42270000D02*
X115670000Y-49950000D01*
X115670000Y-42270000D02*
X118330000Y-42270000D01*
X115670000Y-49950000D02*
X118330000Y-49950000D01*
X117000000Y-39670000D02*
X118330000Y-39670000D01*
X118330000Y-39670000D02*
X118330000Y-41000000D01*
X118330000Y-42270000D02*
X118330000Y-49950000D01*
%TO.C,J3*%
X151695000Y-42270000D02*
X151695000Y-49950000D01*
X151695000Y-42270000D02*
X154355000Y-42270000D01*
X151695000Y-49950000D02*
X154355000Y-49950000D01*
X153025000Y-39670000D02*
X154355000Y-39670000D01*
X154355000Y-39670000D02*
X154355000Y-41000000D01*
X154355000Y-42270000D02*
X154355000Y-49950000D01*
%TD*%
M02*
